<?xml version="1.0" encoding="utf-8"?>
<!-- Generator: Adobe Illustrator 27.1.1, SVG Export Plug-In . SVG Version: 6.00 Build 0)  -->
<svg version="1.1" id="レイヤー_1" xmlns="http://www.w3.org/2000/svg" xmlns:xlink="http://www.w3.org/1999/xlink" x="0px"
	 y="0px" viewBox="0 0 737.8 571.4" style="enable-background:new 0 0 737.8 571.4;" xml:space="preserve">
<style type="text/css">
	.st0{fill:#D9DCE3;}
	.st1{fill:#ECEDF0;}
	.st2{fill:#FFFFFF;}
	.st3{fill:#707070;}
	.st4{fill:#1A1A1A;}
	.st5{fill:#333233;}
	.st6{fill:url(#パス_1766_00000175286212404165241900000015463446554057351586_);}
	.st7{fill:url(#パス_1767_00000152984937723300894980000006326360366250204091_);}
	.st8{fill:url(#パス_1768_00000028290511329375035480000017598850653994138253_);}
	.st9{fill:url(#パス_1769_00000081645718945862825440000004281277151042699429_);}
</style>
<g id="グループ_13758" transform="translate(-543.241 -2787.5)">
	<path id="パス_11334" class="st0" d="M917.9,3166.3c143.8,7.5,239.1,40.9,237.2,77.8s-146.2,58.1-290,50.5s-232.8-41-230.9-77.8
		C636.2,3180,774.1,3158.8,917.9,3166.3z"/>
	<path id="パス_11333" class="st1" d="M954.4,2996.5c165.6,53.8,257.8,149,232.9,225.8c-25,76.8-208.7,83.2-374.3,29.4
		c-165.6-53.8-250.3-147.4-225.4-224.2S788.8,2942.7,954.4,2996.5z"/>
	<g id="パス_11332" transform="matrix(0.951, 0.309, -0.309, 0.951, 666.854, 2787.5)">
		<path class="st2" d="M283.6,286c-42.4,0-82-3.7-117.7-11.1c-17.1-3.5-33.4-7.9-48.4-13c-14.7-5-28.5-10.9-40.8-17.3
			c-12.2-6.4-23.1-13.5-32.6-21.1c-9.4-7.6-17.5-15.8-23.9-24.3c-6.5-8.6-11.4-17.7-14.7-27c-3.3-9.4-5-19.3-5-29.2
			c0-4.9,0.6-9.9,1.9-14.8c1.2-4.8,3.1-9.6,5.5-14.3c4.7-9.2,11.8-18.3,21-26.9c8.9-8.4,20-16.6,32.8-24.2c12.6-7.5,27-14.6,42.8-21
			c15.7-6.4,32.8-12.2,51-17.2c18.2-5.1,37.5-9.4,57.4-12.9c20.1-3.6,40.9-6.3,61.9-8.1c21.4-1.9,43.1-2.8,64.5-2.8
			c42.5,0,82.5,3.7,118.9,10.9c17.5,3.5,34.2,7.8,49.7,12.9c15.2,5,29.4,10.8,42.2,17.2c12.7,6.4,24.1,13.4,34,21
			c9.9,7.6,18.3,15.7,25.1,24.2c6.8,8.6,12.1,17.6,15.6,26.9c3.5,9.4,5.3,19.2,5.3,29.2c0,4.9-0.7,9.9-2,14.8
			c-1.3,4.8-3.2,9.6-5.7,14.3c-4.9,9.2-12.3,18.3-21.9,27c-9.3,8.5-20.7,16.7-34.1,24.4c-13,7.5-27.9,14.6-44.2,21.1
			c-16.1,6.4-33.8,12.3-52.4,17.4c-18.6,5.1-38.3,9.5-58.6,13.1c-20.5,3.6-41.6,6.4-62.7,8.2C326.9,285,305.1,286,283.6,286z"/>
		<path class="st3" d="M339.3,1c-21.4,0-43.1,0.9-64.5,2.8c-20.9,1.8-41.7,4.6-61.8,8.1c-19.9,3.5-39.1,7.9-57.3,12.9
			c-18.2,5.1-35.3,10.8-51,17.2C88.9,48.5,74.5,55.5,62,63c-12.8,7.6-23.8,15.8-32.7,24.2C20.1,95.8,13,104.8,8.3,114
			c-2.4,4.7-4.2,9.4-5.5,14.2C1.6,133,1,137.9,1,142.8c0,9.9,1.7,19.6,5,29c3.3,9.3,8.2,18.3,14.6,26.9c6.4,8.5,14.4,16.7,23.8,24.2
			c9.4,7.6,20.4,14.7,32.5,21.1c12.3,6.5,26,12.3,40.7,17.3c15,5.1,31.3,9.5,48.4,13c35.7,7.3,75.2,11.1,117.6,11.1
			c21.4,0,43.2-1,64.8-2.9c21.2-1.9,42.2-4.6,62.7-8.2c20.2-3.6,39.9-7.9,58.5-13c18.6-5.1,36.2-10.9,52.4-17.3
			c16.3-6.5,31.2-13.6,44.2-21.1c13.3-7.7,24.7-15.9,34-24.3c9.5-8.7,16.8-17.7,21.8-26.9c2.5-4.7,4.4-9.5,5.7-14.2
			c1.3-4.8,1.9-9.8,1.9-14.7c0-9.9-1.8-19.6-5.3-29c-3.5-9.2-8.7-18.3-15.5-26.8c-6.8-8.5-15.2-16.6-25-24.1
			c-9.9-7.5-21.3-14.6-33.9-20.9c-12.7-6.4-26.9-12.2-42.1-17.2c-15.4-5.1-32.1-9.4-49.6-12.9C421.7,4.7,381.8,1,339.3,1 M339.3,0
			c174.1,0,291.3,62.1,291.3,142.8S457.8,286.5,283.6,286.5S0,223.6,0,142.8S165.2,0,339.3,0z"/>
	</g>
	<path id="パス_13004" class="st4" d="M949.6,2891.8c-0.1,0.5-0.4,0.9-0.6,1.4c-0.1-0.5-0.2-1.1-0.2-1.6l1.1-0.1
		c0.4,0,0.5,0,0.7,0h0.1l-0.1-0.9c-0.3,0.1-0.5,0.1-0.8,0.1l-1.1,0.1c0-0.6,0-1.1,0-1.6c0-0.3,0-0.6,0-0.8h-1c0,0.3,0.1,0.5,0.1,0.8
		c0,0.7,0,1.2,0.1,1.7c-0.2,0-0.4,0-0.6,0h-0.2l0.1,0.9c0.2,0,0.5-0.1,0.7-0.1c0.1,0.8,0.2,1.6,0.4,2.4c-0.3,0.3-0.7,0.6-1.1,0.9
		v-0.8c-0.3,0-0.6,0.1-0.9,0h-0.9v-0.6h0.8c0.3,0,0.6,0,0.8,0c0-0.3,0-0.5,0-0.8v-1.9c0-0.3,0-0.6,0-0.8c-0.2,0-0.4,0-0.7,0
		c0.3-0.5,0.6-1,0.8-1.5l-0.9-0.3c-0.2,0.6-0.5,1.3-0.9,1.8h-1.9c-0.2,0-0.5,0-0.7,0c0,0.3,0,0.5,0,0.8v2c0,0.3,0,0.5,0,0.8
		c0.3,0,0.6,0,0.8,0h0.8v0.6h-1c-0.3,0-0.6,0-1-0.1v1c0.3,0,0.7-0.1,1-0.1h1v0.5c0,0.3,0,0.6-0.1,1h1c0-0.3-0.1-0.6-0.1-1v-0.5h0.9
		c0.3,0,0.5,0,0.8,0c-0.3,0.2-0.6,0.4-1,0.5c0.2,0.2,0.5,0.5,0.6,0.7c0.7-0.4,1.3-0.8,1.8-1.4c0.1,0.4,0.3,0.7,0.6,1
		c0.2,0.3,0.5,0.4,0.8,0.5c0.4,0,0.8-0.6,0.9-1.7c-0.3-0.2-0.5-0.4-0.7-0.6c-0.1,0.7-0.2,1.2-0.3,1.2c-0.1,0-0.4-0.5-0.6-1
		c0.4-0.5,0.7-1,1-1.6c0,0,0.1-0.1,0.1-0.1c0.1-0.1,0.1-0.1,0.1-0.2L949.6,2891.8z M944.4,2890.8v0.6h-0.8v-0.6H944.4z
		 M945.3,2890.8h0.8v0.6h-0.8L945.3,2890.8z M944.4,2892.1v0.6h-0.8v-0.6H944.4z M945.3,2892.1h0.8v0.6h-0.8L945.3,2892.1z
		 M942.5,2888.6c0.3,0.4,0.5,0.9,0.6,1.3l0.8-0.3c-0.2-0.5-0.4-0.9-0.7-1.3L942.5,2888.6z M944.1,2888.4c0.2,0.4,0.4,0.9,0.5,1.4
		l0.9-0.2c-0.1-0.5-0.3-1-0.5-1.4L944.1,2888.4z M950.5,2889.8c-0.3-0.5-0.6-1-1-1.4l-0.6,0.4c0.4,0.4,0.7,0.9,0.9,1.5L950.5,2889.8
		z M956.4,2893.1c0,0.2,0,0.2,0,0.4v1.9c0,0.3,0,0.7,0,1h1v-0.4h1.8v0.4h1c0-0.3-0.1-0.7,0-1v-1.9c0-0.2,0-0.4,0-0.5
		c0.1,0.1,0.2,0.1,0.4,0.2c0.1-0.3,0.2-0.7,0.4-0.9c-0.7-0.2-1.4-0.5-2-0.9c0.5-0.6,1-1.2,1.3-1.9c0-0.1,0.1-0.1,0.1-0.2l-0.5-0.6
		c-0.2,0-0.5,0.1-0.7,0H958c0.1-0.1,0.1-0.1,0.1-0.2c0-0.1,0.1-0.2,0.1-0.3l-0.9-0.3c-0.3,0.9-0.8,1.6-1.5,2.2v-0.8
		c0-0.4,0-0.7,0-0.9c-0.2,0-0.5,0-0.9,0h-1.5c-0.4,0-0.7,0-0.9,0c0,0.2,0,0.5,0,0.9v5c0,0.4,0,0.7-0.1,1.1h0.9v-0.7h1.6v0.4h0.8
		c0-0.3-0.1-0.6,0-0.9v-1.7c0.1,0.2,0.2,0.4,0.3,0.6L956.4,2893.1z M955.8,2890.7c0.2,0.2,0.2,0.3,0.4,0.5c0.2-0.2,0.5-0.5,0.7-0.7
		c0.2,0.3,0.5,0.6,0.7,0.9c-0.5,0.4-1.2,0.8-1.8,1V2890.7z M957,2893h-0.3c0.5-0.3,1-0.6,1.5-1c0.5,0.4,1,0.7,1.6,1
		c-0.1,0-0.2,0-0.5,0H957z M959,2889.6c-0.2,0.4-0.5,0.9-0.9,1.2c-0.3-0.3-0.6-0.6-0.8-1c0.1-0.1,0.1-0.1,0.2-0.2L959,2889.6z
		 M953.4,2889.5h0.4v1.8h-0.4V2889.5z M954.6,2889.5h0.4v1.8h-0.4V2889.5z M953.4,2892.1h0.4v1.9h-0.4V2892.1z M954.6,2892.1h0.4
		v1.9h-0.4V2892.1z M957.3,2893.8h1.8v1.3h-1.8V2893.8z"/>
	<path id="パス_13005" class="st4" d="M918.5,2861.7v2.2h4.1v10.6h2.4v-10.6h4.1v-2.2H918.5z M938.4,2874.5
		c-0.3-0.5-0.4-1.2-0.4-1.8v-5c0-1.7-1.1-2.8-3.9-2.8c-2.9,0-4,1.2-4.2,3.2h2.2c0.1-1.1,0.6-1.5,1.9-1.5c1.3,0,1.7,0.4,1.7,1.2
		c0,0.7-0.5,1-1.3,1.1l-1.4,0.1c-2.6,0.3-3.6,1.3-3.6,2.9c0,1.8,1.4,2.8,3.3,2.8c1.2,0.1,2.3-0.4,3-1.4c0,0.4,0.1,0.8,0.2,1.1H938.4
		z M933.4,2873.1c-1,0-1.6-0.5-1.6-1.3c0-0.7,0.4-1.2,1.7-1.3l1.2-0.1c0.4,0,0.8-0.1,1.1-0.4v0.8c0.1,1.2-0.9,2.2-2.1,2.3
		C933.6,2873.1,933.5,2873.1,933.4,2873.1z M945.6,2874.7c2.2,0.2,4.2-1.5,4.4-3.7h-2.3c-0.1,1.1-1,1.8-2.1,1.8
		c-1.3,0-2.3-0.9-2.3-3s0.9-3,2.3-3c1-0.1,1.9,0.7,2.1,1.7h2.3c-0.2-2.2-2.1-3.7-4.3-3.6c-2.8,0-4.6,1.9-4.6,4.9
		C941,2872.8,942.9,2874.7,945.6,2874.7L945.6,2874.7z M957.6,2865.2h-1.8v-2.7h-2.2v2.7h-1.4v1.8h1.4v5.2c0,1.7,0.9,2.4,2.9,2.4
		c0.4,0,0.8,0,1.2-0.1v-1.7h-0.8c-0.8,0-1.1-0.2-1.1-0.8v-5h1.8L957.6,2865.2z M963,2864.1v-2.1h-2.2v2.1H963z M963,2874.5v-9.3
		h-2.3v9.3H963z M970.8,2874.7c2.2,0.2,4.1-1.5,4.4-3.7h-2.3c-0.1,1.1-1,1.9-2.1,1.8c-1.3,0-2.3-0.9-2.3-3s0.9-3,2.3-3
		c1-0.1,1.9,0.7,2.1,1.7h2.3c-0.2-2.2-2.2-3.8-4.3-3.6c-2.8,0-4.6,1.9-4.6,4.9C966.2,2872.8,968.1,2874.7,970.8,2874.7z
		 M981.9,2874.8c2.6,0,4.1-1,4.1-2.9c0-1.6-1-2.4-3.2-2.8l-1.2-0.2c-1-0.2-1.5-0.5-1.5-1.1c0-0.7,0.5-1.1,1.6-1.1
		c1.2,0,1.9,0.3,2,1.5h2.1c-0.1-1.9-1.2-3.1-4.1-3.1c-2.5,0-3.9,1.1-3.9,2.8c0,1.6,1,2.5,3,2.8l1.1,0.2c1.4,0.2,1.8,0.6,1.8,1.2
		c0,0.7-0.5,1.1-1.8,1.1c-1.3,0-1.9-0.4-2.1-1.6h-2.2C977.8,2873.8,979.2,2874.8,981.9,2874.8z"/>
	<g id="パス_13006" transform="translate(870.961 2795.5)">
		<path class="st2" d="M81.9,163.3c-5.5,0-11-0.6-16.4-1.7c-5.2-1.1-10.4-2.7-15.3-4.7c-4.8-2-9.5-4.6-13.8-7.5
			c-4.3-2.9-8.4-6.3-12-9.9c-3.7-3.7-7-7.7-9.9-12c-2.9-4.4-5.5-9-7.5-13.8c-2.1-4.9-3.7-10.1-4.7-15.3c-1.1-5.4-1.7-10.9-1.7-16.4
			s0.6-11,1.7-16.4c1.1-5.2,2.7-10.4,4.7-15.3c2-4.8,4.6-9.5,7.5-13.8c2.9-4.3,6.3-8.4,9.9-12c3.7-3.7,7.7-7,12-9.9
			c4.4-2.9,9-5.5,13.8-7.5c4.9-2.1,10.1-3.7,15.3-4.7c5.4-1.1,10.9-1.7,16.4-1.7s11,0.6,16.4,1.7c5.2,1.1,10.4,2.7,15.3,4.7
			c4.8,2,9.5,4.6,13.8,7.5c4.3,2.9,8.4,6.3,12,9.9c3.7,3.7,7,7.7,9.9,12c2.9,4.4,5.5,9,7.5,13.8c2.1,4.9,3.7,10.1,4.7,15.3
			c1.1,5.4,1.7,10.9,1.7,16.4s-0.6,11-1.7,16.4c-1.1,5.2-2.7,10.4-4.7,15.3c-2,4.8-4.6,9.5-7.5,13.8c-2.9,4.3-6.3,8.4-9.9,12
			c-3.7,3.7-7.7,7-12,9.9c-4.4,2.9-9,5.5-13.8,7.5c-4.9,2.1-10.1,3.7-15.3,4.7C92.9,162.7,87.4,163.3,81.9,163.3z"/>
		<path class="st3" d="M81.9,1c-5.5,0-11,0.6-16.3,1.6c-5.2,1.1-10.3,2.6-15.2,4.7c-4.8,2-9.4,4.5-13.7,7.5c-4.3,2.9-8.3,6.2-12,9.9
			c-3.7,3.7-7,7.7-9.9,12c-2.9,4.3-5.4,8.9-7.5,13.7c-2.1,4.9-3.7,10-4.7,15.2C1.6,70.9,1,76.4,1,81.9s0.6,11,1.6,16.3
			c1.1,5.2,2.6,10.3,4.7,15.2c2,4.8,4.5,9.4,7.5,13.7c2.9,4.3,6.2,8.3,9.9,12c3.7,3.7,7.7,7,12,9.9c4.3,2.9,8.9,5.4,13.7,7.5
			c4.9,2.1,10,3.7,15.2,4.7c5.3,1.1,10.8,1.6,16.3,1.6s11-0.6,16.3-1.6c5.2-1.1,10.3-2.6,15.2-4.7c4.8-2,9.4-4.5,13.7-7.5
			c4.3-2.9,8.3-6.2,12-9.9c3.7-3.7,7-7.7,9.9-12c2.9-4.3,5.4-8.9,7.5-13.7c2.1-4.9,3.7-10,4.7-15.2c1.1-5.3,1.6-10.8,1.6-16.3
			s-0.6-11-1.6-16.3c-1.1-5.2-2.6-10.3-4.7-15.2c-2-4.8-4.5-9.4-7.5-13.7c-2.9-4.3-6.2-8.3-9.9-12c-3.7-3.7-7.7-7-12-9.9
			c-4.3-2.9-8.9-5.4-13.7-7.5c-4.9-2.1-10-3.7-15.2-4.7C92.9,1.6,87.4,1,81.9,1 M81.9,0c45.2,0,81.9,36.7,81.9,81.9
			s-36.7,81.9-81.9,81.9S0,127.1,0,81.9S36.7,0,81.9,0z"/>
	</g>
	<g id="パス_13007" transform="translate(1117.23 2942.717)">
		<path class="st2" d="M81.9,163.3c-5.5,0-11-0.6-16.4-1.7c-5.2-1.1-10.4-2.7-15.3-4.7c-4.8-2-9.5-4.6-13.8-7.5
			c-4.3-2.9-8.4-6.3-12-9.9c-3.7-3.7-7-7.7-9.9-12c-2.9-4.4-5.5-9-7.5-13.8c-2.1-4.9-3.7-10.1-4.7-15.3c-1.1-5.4-1.7-10.9-1.7-16.4
			s0.6-11,1.7-16.4c1.1-5.2,2.7-10.4,4.7-15.3c2-4.8,4.6-9.5,7.5-13.8c2.9-4.3,6.3-8.4,9.9-12c3.7-3.7,7.7-7,12-9.9
			c4.4-2.9,9-5.5,13.8-7.5c4.9-2.1,10.1-3.7,15.3-4.7c5.4-1.1,10.9-1.7,16.4-1.7s11,0.6,16.4,1.7c5.2,1.1,10.4,2.7,15.3,4.7
			c4.8,2,9.5,4.6,13.8,7.5c4.3,2.9,8.4,6.3,12,9.9c3.7,3.7,7,7.7,9.9,12c2.9,4.4,5.5,9,7.5,13.8c2.1,4.9,3.7,10.1,4.7,15.3
			c1.1,5.4,1.7,10.9,1.7,16.4s-0.6,11-1.7,16.4c-1.1,5.2-2.7,10.4-4.7,15.3c-2,4.8-4.6,9.5-7.5,13.8c-2.9,4.3-6.3,8.4-9.9,12
			c-3.7,3.7-7.7,7-12,9.9c-4.4,2.9-9,5.5-13.8,7.5c-4.9,2.1-10.1,3.7-15.3,4.7C92.9,162.7,87.4,163.3,81.9,163.3z"/>
		<path class="st3" d="M81.9,1c-5.5,0-11,0.6-16.3,1.6c-5.2,1.1-10.3,2.6-15.2,4.7c-4.8,2-9.4,4.5-13.7,7.5c-4.3,2.9-8.3,6.2-12,9.9
			c-3.7,3.7-7,7.7-9.9,12c-2.9,4.3-5.4,8.9-7.5,13.7c-2.1,4.9-3.7,10-4.7,15.2C1.6,70.9,1,76.4,1,81.9s0.6,11,1.6,16.3
			c1.1,5.2,2.6,10.3,4.7,15.2c2,4.8,4.5,9.4,7.5,13.7c2.9,4.3,6.2,8.3,9.9,12c3.7,3.7,7.7,7,12,9.9c4.3,2.9,8.9,5.4,13.7,7.5
			c4.9,2.1,10,3.7,15.2,4.7c5.3,1.1,10.8,1.6,16.3,1.6s11-0.6,16.3-1.6c5.2-1.1,10.3-2.6,15.2-4.7c4.8-2,9.4-4.5,13.7-7.5
			c4.3-2.9,8.3-6.2,12-9.9c3.7-3.7,7-7.7,9.9-12c2.9-4.3,5.4-8.9,7.5-13.7c2.1-4.9,3.7-10,4.7-15.2c1.1-5.3,1.6-10.8,1.6-16.3
			s-0.6-11-1.6-16.3c-1.1-5.2-2.6-10.3-4.7-15.2c-2-4.8-4.5-9.4-7.5-13.7c-2.9-4.3-6.2-8.3-9.9-12c-3.7-3.7-7.7-7-12-9.9
			c-4.3-2.9-8.9-5.4-13.7-7.5c-4.9-2.1-10-3.7-15.2-4.7C92.9,1.6,87.4,1,81.9,1 M81.9,0c45.2,0,81.9,36.7,81.9,81.9
			s-36.7,81.9-81.9,81.9S0,127.1,0,81.9S36.7,0,81.9,0z"/>
	</g>
	<path id="パス_13009" class="st4" d="M1168.2,3032c3,0.2,5.6-2.1,5.9-5.1h-2.4c-0.2,1.7-1.7,3-3.4,3c-2.3,0-3.7-1.7-3.7-4.6
		c0-2.8,1.4-4.6,3.7-4.6c1.6-0.1,3,1,3.3,2.6h2.5c-0.4-2.8-2.9-4.9-5.8-4.7c-3.7,0-6.2,2.6-6.2,6.7S1164.5,3032,1168.2,3032z
		 M1182.2,3022.3c-1.2-0.1-2.3,0.7-2.8,1.8v-1.7h-2.2v9.3h2.3v-4.7c-0.1-1.3,0.8-2.5,2.1-2.6c0.2,0,0.4,0,0.6,0h0.6v-2.1
		C1182.6,3022.3,1182.4,3022.3,1182.2,3022.3z M1189.6,3031.9c2,0.1,3.8-1.2,4.3-3.1h-2.2c-0.3,0.9-1.2,1.4-2.1,1.3
		c-1.3,0-2.4-0.9-2.4-2.2c0-0.1,0-0.1,0-0.2h6.9v-0.5c0-3-1.7-5-4.6-5c-2.8,0-4.6,1.9-4.6,4.9
		C1184.9,3030.1,1186.8,3031.9,1189.6,3031.9z M1187.2,3026.2c0-1.2,1.1-2.2,2.3-2.2c0,0,0,0,0,0c1.3,0,2.3,1,2.3,2.2H1187.2z
		 M1205.6,3031.7c-0.3-0.5-0.4-1.2-0.4-1.8v-5c0-1.7-1.1-2.8-3.9-2.8c-2.9,0-4,1.2-4.2,3.2h2.2c0.1-1.1,0.6-1.5,1.9-1.5
		c1.3,0,1.7,0.4,1.7,1.2c0,0.7-0.5,1-1.3,1.1l-1.4,0.1c-2.6,0.3-3.6,1.3-3.6,2.9c0,1.8,1.4,2.8,3.3,2.8c1.2,0.1,2.3-0.4,3-1.4
		c0,0.4,0.1,0.8,0.2,1.1H1205.6z M1200.7,3030.3c-1,0-1.6-0.5-1.6-1.3c0-0.7,0.4-1.2,1.7-1.3l1.2-0.1c0.4,0,0.8-0.1,1.1-0.4v0.8
		c0.1,1.2-0.9,2.2-2.1,2.3C1200.9,3030.3,1200.8,3030.3,1200.7,3030.3z M1213.3,3022.4h-1.8v-2.7h-2.2v2.7h-1.4v1.8h1.4v5.2
		c0,1.7,0.9,2.4,2.9,2.4c0.4,0,0.8,0,1.2-0.1v-1.8h-0.8c-0.8,0-1.1-0.2-1.1-0.8v-5h1.8L1213.3,3022.4z M1218.7,3021.4v-2.1h-2.2v2.1
		H1218.7z M1218.7,3031.7v-9.3h-2.3v9.3H1218.7z M1227.7,3024.9c-0.5,1.5-1,3.2-1.5,4.8c-0.5-1.5-1-3.2-1.5-4.7l-0.9-2.5h-2.4
		l3.4,9.3h2.6l3.5-9.3h-2.4L1227.7,3024.9z M1237.5,3031.9c2,0.1,3.8-1.2,4.3-3.1h-2.2c-0.3,0.9-1.2,1.4-2.1,1.3
		c-1.3,0-2.4-0.9-2.4-2.2c0-0.1,0-0.1,0-0.2h6.9v-0.5c0-2.9-1.7-5-4.6-5c-2.8,0-4.6,1.9-4.6,4.9
		C1232.8,3030.1,1234.7,3031.9,1237.5,3031.9z M1235.1,3026.2c0-1.2,1.1-2.2,2.3-2.2c0,0,0,0,0,0c1.3,0,2.3,1,2.3,2.2H1235.1z"/>
	<g id="パス_13010" transform="translate(943.125 3091.381)">
		<path class="st2" d="M81.9,163.3c-5.5,0-11-0.6-16.4-1.7c-5.2-1.1-10.4-2.7-15.3-4.7c-4.8-2-9.5-4.6-13.8-7.5
			c-4.3-2.9-8.4-6.3-12-9.9c-3.7-3.7-7-7.7-9.9-12c-2.9-4.4-5.5-9-7.5-13.8c-2.1-4.9-3.7-10.1-4.7-15.3c-1.1-5.4-1.7-10.9-1.7-16.4
			s0.6-11,1.7-16.4c1.1-5.2,2.7-10.4,4.7-15.3c2-4.8,4.6-9.5,7.5-13.8c2.9-4.3,6.3-8.4,9.9-12c3.7-3.7,7.7-7,12-9.9
			c4.4-2.9,9-5.5,13.8-7.5c4.9-2.1,10.1-3.7,15.3-4.7c5.4-1.1,10.9-1.7,16.4-1.7s11,0.6,16.4,1.7c5.2,1.1,10.4,2.7,15.3,4.7
			c4.8,2,9.5,4.6,13.8,7.5c4.3,2.9,8.4,6.3,12,9.9c3.7,3.7,7,7.7,9.9,12c2.9,4.4,5.5,9,7.5,13.8c2.1,4.9,3.7,10.1,4.7,15.3
			c1.1,5.4,1.7,10.9,1.7,16.4s-0.6,11-1.7,16.4c-1.1,5.2-2.7,10.4-4.7,15.3c-2,4.8-4.6,9.5-7.5,13.8c-2.9,4.3-6.3,8.4-9.9,12
			c-3.7,3.7-7.7,7-12,9.9c-4.4,2.9-9,5.5-13.8,7.5c-4.9,2.1-10.1,3.7-15.3,4.7C92.9,162.7,87.4,163.3,81.9,163.3z"/>
		<path class="st3" d="M81.9,1c-5.5,0-11,0.6-16.3,1.6c-5.2,1.1-10.3,2.6-15.2,4.7c-4.8,2-9.4,4.5-13.7,7.5c-4.3,2.9-8.3,6.2-12,9.9
			c-3.7,3.7-7,7.7-9.9,12c-2.9,4.3-5.4,8.9-7.5,13.7c-2.1,4.9-3.7,10-4.7,15.2C1.6,70.9,1,76.4,1,81.9s0.6,11,1.6,16.3
			c1.1,5.2,2.6,10.3,4.7,15.2c2,4.8,4.5,9.4,7.5,13.7c2.9,4.3,6.2,8.3,9.9,12c3.7,3.7,7.7,7,12,9.9c4.3,2.9,8.9,5.4,13.7,7.5
			c4.9,2.1,10,3.7,15.2,4.7c5.3,1.1,10.8,1.6,16.3,1.6s11-0.6,16.3-1.6c5.2-1.1,10.3-2.6,15.2-4.7c4.8-2,9.4-4.5,13.7-7.5
			c4.3-2.9,8.3-6.2,12-9.9c3.7-3.7,7-7.7,9.9-12c2.9-4.3,5.4-8.9,7.5-13.7c2.1-4.9,3.7-10,4.7-15.2c1.1-5.3,1.6-10.8,1.6-16.3
			s-0.6-11-1.6-16.3c-1.1-5.2-2.6-10.3-4.7-15.2c-2-4.8-4.5-9.4-7.5-13.7c-2.9-4.3-6.2-8.3-9.9-12c-3.7-3.7-7.7-7-12-9.9
			c-4.3-2.9-8.9-5.4-13.7-7.5c-4.9-2.1-10-3.7-15.2-4.7C92.9,1.6,87.4,1,81.9,1 M81.9,0c45.2,0,81.9,36.7,81.9,81.9
			s-36.7,81.9-81.9,81.9S0,127.1,0,81.9S36.7,0,81.9,0z"/>
	</g>
	<path id="パス_13012" class="st4" d="M1005.7,3181.4l-5-12.8h-2.8l-4.9,12.8h2.5l1-2.8h5.6l1,2.8H1005.7z M997.7,3175.1
		c0.4-1.2,1-2.9,1.6-4.4c0.5,1.5,1.1,3.2,1.6,4.4l0.5,1.4h-4.1L997.7,3175.1z M1012.5,3181.6c2.2,0.2,4.1-1.5,4.4-3.7h-2.3
		c-0.1,1.1-1,1.8-2.1,1.8c-1.3,0-2.3-0.9-2.3-3s0.9-3,2.3-3c1-0.1,1.9,0.7,2.1,1.7h2.3c-0.2-2.2-2.1-3.8-4.3-3.6
		c-2.8,0-4.6,1.9-4.6,4.9C1007.9,3179.7,1009.7,3181.6,1012.5,3181.6L1012.5,3181.6z M1024.5,3172.1h-1.8v-2.7h-2.2v2.7h-1.4v1.8
		h1.4v5.2c0,1.7,0.9,2.4,2.9,2.4c0.4,0,0.8,0,1.2-0.1v-1.7h-0.8c-0.8,0-1.1-0.2-1.1-0.8v-5h1.8V3172.1z M1029.9,3171v-2.1h-2.3v2.1
		H1029.9z M1029.9,3181.4v-9.3h-2.3v9.3H1029.9z M1037.8,3181.6c2.5,0.1,4.6-1.8,4.7-4.3c0-0.2,0-0.4,0-0.6c0.2-2.5-1.7-4.7-4.1-4.8
		c-0.2,0-0.4,0-0.6,0c-2.5-0.1-4.6,1.8-4.7,4.3c0,0.2,0,0.4,0,0.6c-0.2,2.5,1.7,4.7,4.2,4.8
		C1037.5,3181.6,1037.6,3181.6,1037.8,3181.6L1037.8,3181.6z M1037.8,3179.7c-1.5,0-2.4-1-2.4-3c0-2,0.9-3,2.4-3c1.5,0,2.4,1,2.4,3
		C1040.2,3178.7,1039.3,3179.7,1037.8,3179.7L1037.8,3179.7z M1050.9,3171.9c-1.2,0-2.3,0.6-2.9,1.5v-1.3h-2.2v9.3h2.3v-5.2
		c-0.1-1.1,0.7-2.2,1.8-2.3c0.1,0,0.2,0,0.2,0c0.8-0.1,1.6,0.5,1.7,1.3c0,0.1,0,0.3,0,0.4v5.8h2.3v-6.2c0.2-1.7-1-3.2-2.7-3.3
		C1051.2,3171.9,1051.1,3171.9,1050.9,3171.9z"/>
	<g id="パス_13013" transform="translate(676.006 3034.141)">
		<path class="st2" d="M81.9,163.3c-5.5,0-11-0.6-16.4-1.7c-5.2-1.1-10.4-2.7-15.3-4.7c-4.8-2-9.5-4.6-13.8-7.5
			c-4.3-2.9-8.4-6.3-12-9.9c-3.7-3.7-7-7.7-9.9-12c-2.9-4.4-5.5-9-7.5-13.8c-2.1-4.9-3.7-10.1-4.7-15.3c-1.1-5.4-1.7-10.9-1.7-16.4
			s0.6-11,1.7-16.4c1.1-5.2,2.7-10.4,4.7-15.3c2-4.8,4.6-9.5,7.5-13.8c2.9-4.3,6.3-8.4,9.9-12c3.7-3.7,7.7-7,12-9.9
			c4.4-2.9,9-5.5,13.8-7.5c4.9-2.1,10.1-3.7,15.3-4.7c5.4-1.1,10.9-1.7,16.4-1.7s11,0.6,16.4,1.7c5.2,1.1,10.4,2.7,15.3,4.7
			c4.8,2,9.5,4.6,13.8,7.5c4.3,2.9,8.4,6.3,12,9.9c3.7,3.7,7,7.7,9.9,12c2.9,4.4,5.5,9,7.5,13.8c2.1,4.9,3.7,10.1,4.7,15.3
			c1.1,5.4,1.7,10.9,1.7,16.4s-0.6,11-1.7,16.4c-1.1,5.2-2.7,10.4-4.7,15.3c-2,4.8-4.6,9.5-7.5,13.8c-2.9,4.3-6.3,8.4-9.9,12
			c-3.7,3.7-7.7,7-12,9.9c-4.4,2.9-9,5.5-13.8,7.5c-4.9,2.1-10.1,3.7-15.3,4.7C92.9,162.7,87.4,163.3,81.9,163.3z"/>
		<path class="st3" d="M81.9,1c-5.5,0-11,0.6-16.3,1.6c-5.2,1.1-10.3,2.6-15.2,4.7c-4.8,2-9.4,4.5-13.7,7.5c-4.3,2.9-8.3,6.2-12,9.9
			c-3.7,3.7-7,7.7-9.9,12c-2.9,4.3-5.4,8.9-7.5,13.7c-2.1,4.9-3.7,10-4.7,15.2C1.6,70.9,1,76.4,1,81.9s0.6,11,1.6,16.3
			c1.1,5.2,2.6,10.3,4.7,15.2c2,4.8,4.5,9.4,7.5,13.7c2.9,4.3,6.2,8.3,9.9,12c3.7,3.7,7.7,7,12,9.9c4.3,2.9,8.9,5.4,13.7,7.5
			c4.9,2.1,10,3.7,15.2,4.7c5.3,1.1,10.8,1.6,16.3,1.6s11-0.6,16.3-1.6c5.2-1.1,10.3-2.6,15.2-4.7c4.8-2,9.4-4.5,13.7-7.5
			c4.3-2.9,8.3-6.2,12-9.9c3.7-3.7,7-7.7,9.9-12c2.9-4.3,5.4-8.9,7.5-13.7c2.1-4.9,3.7-10,4.7-15.2c1.1-5.3,1.6-10.8,1.6-16.3
			s-0.6-11-1.6-16.3c-1.1-5.2-2.6-10.3-4.7-15.2c-2-4.8-4.5-9.4-7.5-13.7c-2.9-4.3-6.2-8.3-9.9-12c-3.7-3.7-7.7-7-12-9.9
			c-4.3-2.9-8.9-5.4-13.7-7.5c-4.9-2.1-10-3.7-15.2-4.7C92.9,1.6,87.4,1,81.9,1 M81.9,0c45.2,0,81.9,36.7,81.9,81.9
			s-36.7,81.9-81.9,81.9S0,127.1,0,81.9S36.7,0,81.9,0z"/>
	</g>
	<path id="パス_13015" class="st4" d="M717.6,3124.4c3.8,0,6.4-2.7,6.4-6.7c0-4-2.6-6.7-6.4-6.7c-3.9,0-6.4,2.7-6.4,6.7
		C711.2,3121.8,713.8,3124.4,717.6,3124.4z M717.6,3122.3c-2.3,0-3.9-1.7-3.9-4.6s1.5-4.6,3.9-4.6c2.3,0,3.9,1.7,3.9,4.6
		S719.9,3122.3,717.6,3122.3z M732.4,3114.6c-1.2-0.1-2.3,0.5-3,1.5v-1.3h-2.2v12.8h2.3v-4.7c0.7,0.9,1.7,1.5,2.9,1.4
		c2.6,0,4.2-1.9,4.2-4.9C736.5,3116.6,734.9,3114.6,732.4,3114.6z M731.8,3122.5c-1.5,0-2.4-1-2.4-3c0-2,0.9-3,2.4-3
		c1.5,0,2.4,1,2.4,2.9C734.2,3121.4,733.3,3122.5,731.8,3122.5L731.8,3122.5z M744,3124.4c2,0.1,3.8-1.2,4.3-3.1h-2.2
		c-0.3,0.9-1.2,1.4-2.1,1.3c-1.3,0-2.4-0.9-2.4-2.2c0-0.1,0-0.1,0-0.2h6.9v-0.5c0-3-1.7-5-4.6-5c-2.8,0-4.6,1.9-4.6,4.9
		C739.3,3122.5,741.2,3124.4,744,3124.4z M741.6,3118.6c0-1.2,1.1-2.2,2.3-2.2c0,0,0,0,0,0c1.3,0,2.3,1,2.3,2.2H741.6z
		 M756.8,3114.7c-1.2-0.1-2.3,0.7-2.8,1.8v-1.7h-2.2v9.3h2.3v-4.7c-0.1-1.3,0.8-2.5,2.1-2.6c0.2,0,0.4,0,0.6,0h0.6v-2.1
		C757.1,3114.7,756.9,3114.7,756.8,3114.7z M768.1,3124.1c-0.3-0.5-0.4-1.2-0.4-1.8v-5c0-1.7-1.1-2.8-3.9-2.8c-2.9,0-4,1.2-4.2,3.2
		h2.2c0.1-1.1,0.6-1.5,1.9-1.5c1.3,0,1.7,0.4,1.7,1.2c0,0.7-0.5,1-1.3,1.1l-1.4,0.1c-2.6,0.3-3.6,1.3-3.6,2.9c0,1.8,1.4,2.8,3.3,2.8
		c1.2,0.1,2.3-0.4,3-1.4c0,0.4,0.1,0.8,0.3,1.1H768.1z M763.2,3122.8c-1,0-1.6-0.5-1.6-1.3c0-0.7,0.4-1.2,1.7-1.3l1.2-0.1
		c0.4,0,0.8-0.1,1.1-0.4v0.8c0.1,1.2-0.9,2.2-2.1,2.3C763.4,3122.8,763.3,3122.8,763.2,3122.8z M775.9,3114.9H774v-2.7h-2.2v2.7
		h-1.4v1.8h1.4v5.2c0,1.7,0.9,2.4,2.9,2.4c0.4,0,0.8,0,1.2-0.1v-1.7h-0.8c-0.8,0-1.1-0.2-1.1-0.8v-5h1.8V3114.9z M781.2,3113.8v-2.1
		H779v2.1H781.2z M781.3,3124.1v-9.3H779v9.3H781.3z M789.2,3124.4c2.5,0.1,4.6-1.8,4.7-4.3c0-0.2,0-0.4,0-0.6
		c0.2-2.5-1.7-4.7-4.1-4.8c-0.2,0-0.4,0-0.6,0c-2.5-0.1-4.6,1.8-4.7,4.3c0,0.2,0,0.4,0,0.6c-0.2,2.5,1.7,4.7,4.2,4.8
		C788.8,3124.4,789,3124.4,789.2,3124.4L789.2,3124.4z M789.2,3122.5c-1.5,0-2.4-1-2.4-3c0-2,0.9-3,2.4-3c1.5,0,2.4,1,2.4,3
		C791.6,3121.5,790.7,3122.5,789.2,3122.5L789.2,3122.5z M802.2,3114.6c-1.2,0-2.3,0.6-2.9,1.5v-1.3h-2.2v9.3h2.3v-5.2
		c-0.1-1.1,0.7-2.2,1.8-2.3c0.1,0,0.2,0,0.2,0c0.8-0.1,1.6,0.5,1.7,1.3c0,0.1,0,0.3,0,0.4v5.8h2.3v-6.2c0.2-1.7-1-3.2-2.7-3.3
		C802.6,3114.6,802.4,3114.6,802.2,3114.6z"/>
	<g id="パス_11386" transform="translate(582.121 2810.877)">
		<path class="st2" d="M81.9,163.3c-5.5,0-11-0.6-16.4-1.7c-5.2-1.1-10.4-2.7-15.3-4.7c-4.8-2-9.5-4.6-13.8-7.5
			c-4.3-2.9-8.4-6.3-12-9.9c-3.7-3.7-7-7.7-9.9-12c-2.9-4.4-5.5-9-7.5-13.8c-2.1-4.9-3.7-10.1-4.7-15.3c-1.1-5.4-1.7-10.9-1.7-16.4
			s0.6-11,1.7-16.4c1.1-5.2,2.7-10.4,4.7-15.3c2-4.8,4.6-9.5,7.5-13.8c2.9-4.3,6.3-8.4,9.9-12c3.7-3.7,7.7-7,12-9.9
			c4.4-2.9,9-5.5,13.8-7.5c4.9-2.1,10.1-3.7,15.3-4.7c5.4-1.1,10.9-1.7,16.4-1.7s11,0.6,16.4,1.7c5.2,1.1,10.4,2.7,15.3,4.7
			c4.8,2,9.5,4.6,13.8,7.5c4.3,2.9,8.4,6.3,12,9.9c3.7,3.7,7,7.7,9.9,12c2.9,4.4,5.5,9,7.5,13.8c2.1,4.9,3.7,10.1,4.7,15.3
			c1.1,5.4,1.7,10.9,1.7,16.4s-0.6,11-1.7,16.4c-1.1,5.2-2.7,10.4-4.7,15.3c-2,4.8-4.6,9.5-7.5,13.8c-2.9,4.3-6.3,8.4-9.9,12
			c-3.7,3.7-7.7,7-12,9.9c-4.4,2.9-9,5.5-13.8,7.5c-4.9,2.1-10.1,3.7-15.3,4.7C92.9,162.7,87.4,163.3,81.9,163.3z"/>
		<path class="st3" d="M81.9,1c-5.5,0-11,0.6-16.3,1.6c-5.2,1.1-10.3,2.6-15.2,4.7c-4.8,2-9.4,4.5-13.7,7.5c-4.3,2.9-8.3,6.2-12,9.9
			c-3.7,3.7-7,7.7-9.9,12c-2.9,4.3-5.4,8.9-7.5,13.7c-2.1,4.9-3.7,10-4.7,15.2C1.6,70.9,1,76.4,1,81.9s0.6,11,1.6,16.3
			c1.1,5.2,2.6,10.3,4.7,15.2c2,4.8,4.5,9.4,7.5,13.7c2.9,4.3,6.2,8.3,9.9,12c3.7,3.7,7.7,7,12,9.9c4.3,2.9,8.9,5.4,13.7,7.5
			c4.9,2.1,10,3.7,15.2,4.7c5.3,1.1,10.8,1.6,16.3,1.6s11-0.6,16.3-1.6c5.2-1.1,10.3-2.6,15.2-4.7c4.8-2,9.4-4.5,13.7-7.5
			c4.3-2.9,8.3-6.2,12-9.9c3.7-3.7,7-7.7,9.9-12c2.9-4.3,5.4-8.9,7.5-13.7c2.1-4.9,3.7-10,4.7-15.2c1.1-5.3,1.6-10.8,1.6-16.3
			s-0.6-11-1.6-16.3c-1.1-5.2-2.6-10.3-4.7-15.2c-2-4.8-4.5-9.4-7.5-13.7c-2.9-4.3-6.2-8.3-9.9-12c-3.7-3.7-7.7-7-12-9.9
			c-4.3-2.9-8.9-5.4-13.7-7.5c-4.9-2.1-10-3.7-15.2-4.7C92.9,1.6,87.4,1,81.9,1 M81.9,0c45.2,0,81.9,36.7,81.9,81.9
			s-36.7,81.9-81.9,81.9S0,127.1,0,81.9S36.7,0,81.9,0z"/>
	</g>
	<path id="パス_13017" class="st4" d="M622,2898.2c3.2,0,5.2-1.4,5.2-3.9c0-2-1.2-3.2-4.2-3.8l-1.1-0.2c-1.9-0.4-2.5-0.9-2.5-1.9
		c0-1,0.8-1.6,2.3-1.6c2,0,2.7,0.8,2.8,2.1h2.4c-0.1-2.4-1.6-4.1-5.2-4.1c-3.1,0-4.8,1.5-4.8,3.6c0,2.3,1.6,3.4,4.1,3.9l1.1,0.2
		c2,0.4,2.6,0.8,2.6,1.9c0,1.2-0.9,1.9-2.7,1.9c-1.7,0-3-0.5-3.1-2.6h-2.4C616.6,2896.6,618.6,2898.2,622,2898.2z M635,2888.6h-1.8
		v-2.7h-2.2v2.7h-1.4v1.8h1.4v5.2c0,1.7,0.9,2.4,2.9,2.4c0.4,0,0.8,0,1.2-0.1v-1.8h-0.8c-0.8,0-1.1-0.2-1.1-0.8v-5h1.8L635,2888.6z
		 M643.1,2888.5c-1.2-0.1-2.3,0.7-2.8,1.8v-1.7h-2.2v9.3h2.3v-4.7c-0.1-1.3,0.8-2.5,2.1-2.6c0.2,0,0.4,0,0.6,0h0.6v-2.1
		C643.4,2888.5,643.2,2888.4,643.1,2888.5z M654.4,2897.9c-0.3-0.5-0.4-1.2-0.4-1.8v-5c0-1.7-1.1-2.8-3.9-2.8c-2.9,0-4,1.2-4.2,3.2
		h2.2c0.1-1.1,0.6-1.5,1.9-1.5c1.3,0,1.7,0.4,1.7,1.2c0,0.7-0.5,1-1.3,1.1l-1.4,0.1c-2.6,0.3-3.6,1.3-3.6,2.9c0,1.8,1.4,2.8,3.3,2.8
		c1.2,0.1,2.3-0.4,3-1.4c0,0.4,0.1,0.8,0.3,1.1H654.4z M649.5,2896.5c-1,0-1.6-0.5-1.6-1.3c0-0.7,0.4-1.2,1.7-1.3l1.2-0.1
		c0.4,0,0.8-0.1,1.1-0.4v0.8c0.1,1.2-0.9,2.2-2.1,2.3C649.7,2896.5,649.6,2896.5,649.5,2896.5z M662.2,2888.6h-1.8v-2.7h-2.2v2.7
		h-1.4v1.8h1.4v5.2c0,1.7,0.9,2.4,2.9,2.4c0.4,0,0.8,0,1.2-0.1v-1.8h-0.8c-0.8,0-1.1-0.2-1.1-0.8v-5h1.8L662.2,2888.6z
		 M669.3,2898.1c2,0.1,3.8-1.2,4.3-3.1h-2.2c-0.3,0.9-1.2,1.4-2.1,1.3c-1.3,0-2.4-0.9-2.4-2.2c0-0.1,0-0.1,0-0.2h6.9v-0.5
		c0-3-1.7-5-4.6-5c-2.8,0-4.6,1.9-4.6,4.9C664.7,2896.2,666.6,2898.1,669.3,2898.1z M666.9,2892.4c0-1.2,1.1-2.2,2.3-2.2
		c0,0,0,0,0,0c1.3,0,2.3,1,2.3,2.2H666.9z M683.8,2889.9c-0.6-1-1.8-1.6-2.9-1.5c-2.5,0-4.2,1.9-4.2,4.7c0,2.8,1.7,4.7,4.2,4.7
		c1.1,0.1,2.2-0.5,2.8-1.4v1.2c0.1,1.1-0.7,2.1-1.8,2.3c-0.2,0-0.3,0-0.5,0c-1.2,0-2-0.5-2.1-1.5h-2.2c0.1,1.9,1.6,3.2,4.3,3.2
		c3,0,4.6-1.6,4.6-4.1v-9h-2.2L683.8,2889.9z M681.4,2896c-1.5,0-2.4-1-2.4-2.8c0-1.8,0.9-2.9,2.4-2.9c1.5,0,2.4,1,2.4,2.9
		C683.8,2895,682.9,2896,681.4,2896L681.4,2896z M691.9,2887.5v-2.1h-2.2v2.1H691.9z M691.9,2897.9v-9.3h-2.3v9.3H691.9z
		 M699.8,2898.1c2,0.1,3.8-1.2,4.3-3.1h-2.2c-0.3,0.9-1.2,1.4-2.1,1.3c-1.3,0-2.4-0.9-2.4-2.2c0-0.1,0-0.1,0-0.2h6.9v-0.5
		c0-3-1.7-5-4.6-5c-2.8,0-4.6,1.9-4.6,4.9C695.1,2896.2,697,2898.1,699.8,2898.1z M697.4,2892.4c0-1.2,1.1-2.2,2.3-2.2c0,0,0,0,0,0
		c1.3,0,2.3,1,2.3,2.2H697.4z M711.2,2898.1c2.6,0,4.1-1,4.1-2.9c0-1.6-1-2.4-3.2-2.8l-1.2-0.2c-1-0.2-1.5-0.5-1.5-1.1
		c0-0.7,0.5-1.1,1.6-1.1c1.2,0,1.9,0.3,2,1.5h2.1c-0.1-1.9-1.2-3.1-4.1-3.1c-2.5,0-3.9,1.1-3.9,2.8c0,1.6,1,2.5,3,2.8l1.1,0.2
		c1.4,0.2,1.8,0.6,1.8,1.2c0,0.7-0.5,1.1-1.8,1.1c-1.3,0-1.9-0.4-2.1-1.6H707C707.1,2897.2,708.6,2898.1,711.2,2898.1z"/>
	<g id="パス_13018" transform="translate(816.129 2854.801) rotate(93)">
		<path class="st2" d="M7.1,7.4H0.8L4,1.1L7.1,7.4z"/>
		<path class="st3" d="M4,2.2L1.6,6.9h4.7L4,2.2 M4,0l4,7.9L0,7.9L4,0z"/>
	</g>
	<g id="パス_13019" transform="matrix(-0.588, 0.809, -0.809, -0.588, 1096.344, 2934.003)">
		<path class="st2" d="M7.1,7.4H0.8L4,1.1L7.1,7.4z"/>
		<path class="st3" d="M4,2.2L1.6,6.9h4.7L4,2.2 M4,0l4,7.9H0L4,0z"/>
	</g>
	<path id="パス_1758" class="st5" d="M886.1,3017.6l-5.4-9.2h-7.2v9.2h-5.3v-24.7h12.1c6.9,0,10.3,2.6,10.3,7.7
		c0.1,1.5-0.4,2.9-1.2,4.1c-0.9,1.2-2.1,2.1-3.5,2.6l6.2,10.2L886.1,3017.6z M879.9,3004.1c1.4,0.1,2.8-0.2,4-0.8
		c0.9-0.6,1.4-1.6,1.3-2.7c0.1-1-0.4-2-1.2-2.6c-1.2-0.6-2.6-0.9-4-0.8h-6.5v6.9H879.9z"/>
	<path id="パス_1759" class="st5" d="M896.3,3009.8c0,0.9,0.3,1.7,0.7,2.4c0.5,0.7,1.2,1.3,2,1.6c0.9,0.4,1.9,0.6,2.9,0.6
		c2.7,0,4.4-0.8,5-2.5h4.8c-0.4,1.9-1.5,3.6-3.2,4.7c-2.1,1.1-4.4,1.6-6.8,1.5c-3.3,0-5.8-0.8-7.6-2.5c-1.9-1.8-2.9-4.3-2.7-6.9
		c0-1.8,0.4-3.5,1.3-5.1c0.8-1.5,2.1-2.7,3.6-3.5c1.7-0.9,3.6-1.3,5.5-1.3c3.2,0,5.7,0.8,7.5,2.4c1.8,1.8,2.8,4.3,2.6,6.8v1.6H896.3
		z M907.2,3006.7c0-1.2-0.5-2.3-1.5-3c-1.2-0.8-2.5-1.1-3.9-1.1c-1.3,0-2.6,0.4-3.6,1.1c-0.9,0.7-1.6,1.7-1.7,2.9H907.2z"/>
	<path id="パス_1760" class="st5" d="M940.5,3017.6v-10.8c0.1-1-0.2-2-0.8-2.8c-0.7-0.6-1.6-0.9-2.6-0.9c-1.3,0-2.6,0.5-3.6,1.5
		c-0.4,0.4-0.7,0.8-0.9,1.3c-0.2,0.5-0.3,1-0.3,1.5v10.2h-5.1v-10.8c0.1-1-0.2-2-0.8-2.8c-0.7-0.6-1.6-1-2.6-0.9
		c-1.4,0-2.7,0.6-3.6,1.6c-0.8,0.8-1.3,1.9-1.3,3.1v9.8h-5.1v-18h5v2.9c1.6-2.2,4.1-3.5,6.8-3.5c1.3,0,2.6,0.3,3.8,0.9
		c1,0.6,1.8,1.5,2.3,2.6c0.9-1.1,2-2,3.2-2.7c1.3-0.6,2.7-0.9,4.1-0.9c1.8-0.1,3.6,0.5,4.9,1.8c1.2,1.4,1.9,3.2,1.7,5.1v11.7H940.5z
		"/>
	<path id="パス_1761" class="st5" d="M961.8,3017.6v-2.5c-1,1-2.1,1.7-3.4,2.2c-1.3,0.5-2.7,0.7-4.2,0.7c-1.9,0.1-3.8-0.4-5.5-1.4
		c-2.2-1.9-2.5-5.2-0.7-7.4c0.4-0.4,0.8-0.8,1.3-1.1c1.7-1,4.3-1.5,7.8-1.6l4.4-0.1v-0.7c0-0.9-0.4-1.8-1.1-2.3
		c-0.9-0.6-2-0.9-3.1-0.8c-2.6,0-4.2,0.7-4.7,2.2l-4.7-0.4c0.3-1.7,1.4-3.2,2.9-4c2.1-1,4.3-1.4,6.6-1.3c6,0,9,2.4,9,7.1v11.5H961.8
		z M961.6,3009.5l-4.3,0.1c-1.4,0-2.8,0.2-4.1,0.7c-0.8,0.3-1.3,1.1-1.3,1.9c0,0.7,0.3,1.3,1,1.7c0.8,0.4,1.8,0.6,2.7,0.6
		c0.9,0,1.8-0.1,2.7-0.4c0.7-0.2,1.4-0.6,2-1.1c0.8-0.6,1.3-1.6,1.3-2.6L961.6,3009.5z"/>
	<path id="パス_1762" class="st5" d="M968.8,2997.2v-4.4h5.3v4.4H968.8z M968.9,3017.6v-18h5.2v18H968.9z"/>
	<path id="パス_1763" class="st5" d="M991.2,3017.6v-10.7c0.1-1.1-0.2-2.1-1-2.9c-0.9-0.7-1.9-1-3-0.9c-0.8,0-1.5,0.1-2.2,0.4
		c-0.7,0.3-1.3,0.7-1.9,1.2c-0.9,0.8-1.4,1.9-1.5,3.1v9.8h-5.2v-18h5v2.9c1.8-2.2,4.6-3.5,7.5-3.5c2-0.1,3.9,0.5,5.4,1.8
		c1.3,1.4,2,3.2,1.9,5.1v11.7H991.2z"/>
	<path id="パス_1764" class="st5" d="M1003.7,2997.2v-4.4h5.3v4.4H1003.7z M1003.8,3017.6v-18h5.2v18H1003.8z"/>
	<path id="パス_1765" class="st5" d="M1026.1,3017.6v-10.7c0.1-1.1-0.2-2.1-0.9-2.9c-0.9-0.7-1.9-1-3-0.9c-0.8,0-1.5,0.1-2.2,0.4
		c-0.7,0.3-1.3,0.7-1.9,1.2c-0.9,0.8-1.4,1.9-1.5,3.1v9.8h-5.2v-18h5v2.9c1.8-2.2,4.6-3.5,7.5-3.5c2-0.1,3.9,0.5,5.4,1.8
		c1.3,1.4,2,3.2,1.9,5.1v11.7H1026.1z"/>
	
		<linearGradient id="パス_1766_00000063626335654056032440000000099521965963847605_" gradientUnits="userSpaceOnUse" x1="359.4059" y1="4254.1328" x2="359.4059" y2="4255.1328" gradientTransform="matrix(22.274 0 0 -24.915 -7165.4619 109003.1641)">
		<stop  offset="0" style="stop-color:#2E3287"/>
		<stop  offset="1" style="stop-color:#9C448E"/>
	</linearGradient>
	<path id="パス_1766" style="fill:url(#パス_1766_00000063626335654056032440000000099521965963847605_);" d="M828.8,2992.7
		l11.2-6.2l11.1,6.2v18.7H840V2999L828.8,2992.7z"/>
	
		<linearGradient id="パス_1767_00000129899053102220412320000002969268444699069077_" gradientUnits="userSpaceOnUse" x1="359.9062" y1="4254.6899" x2="358.9062" y2="4254.6899" gradientTransform="matrix(22.273 0 0 -24.953 -7165.1108 109184.9688)">
		<stop  offset="0" style="stop-color:#FBC91C"/>
		<stop  offset="1" style="stop-color:#D54054"/>
	</linearGradient>
	<path id="パス_1767" style="fill:url(#パス_1767_00000129899053102220412320000002969268444699069077_);" d="M828.8,3030.2
		l22.3-12.5v-12.5l-22.3,12.5L828.8,3030.2z"/>
	
		<linearGradient id="パス_1768_00000082351075084509648100000000159483980213393342_" gradientUnits="userSpaceOnUse" x1="359.4059" y1="4255.1328" x2="359.4059" y2="4254.1328" gradientTransform="matrix(22.274 0 0 -24.915 -7187.7378 109015.5703)">
		<stop  offset="0" style="stop-color:#2E3287"/>
		<stop  offset="1" style="stop-color:#9C448E"/>
	</linearGradient>
	<path id="パス_1768" style="fill:url(#パス_1768_00000082351075084509648100000000159483980213393342_);" d="M828.8,3017.7
		l-11.2,6.2l-11.1-6.2V2999h11.1v12.5L828.8,3017.7z"/>
	
		<linearGradient id="パス_1769_00000021811757108802302750000004139493172304832682_" gradientUnits="userSpaceOnUse" x1="358.9062" y1="4254.6929" x2="359.9062" y2="4254.687" gradientTransform="matrix(22.273 0 0 -24.953 -7187.3877 109160)">
		<stop  offset="0" style="stop-color:#FBC91C"/>
		<stop  offset="1" style="stop-color:#D54054"/>
	</linearGradient>
	<path id="パス_1769" style="fill:url(#パス_1769_00000021811757108802302750000004139493172304832682_);" d="M828.8,2980.2
		l-22.3,12.5v12.5l22.3-12.5V2980.2z"/>
	<g id="パス_13020" transform="translate(1174.723 3168.04) rotate(-120)">
		<path class="st2" d="M7.1,7.4l-6.3,0L4,1.1L7.1,7.4z"/>
		<path class="st3" d="M4,2.2L1.6,6.9l4.7,0L4,2.2 M4,0l4,7.9L0,7.9L4,0z"/>
	</g>
	<g id="パス_13021" transform="translate(894.295 3165.146) rotate(-83)">
		<path class="st2" d="M7.1,7.4l-6.3,0L4,1.1L7.1,7.4z"/>
		<path class="st3" d="M4,2.2L1.6,6.9l4.7,0L4,2.2 M4,0l4,7.9L0,7.9L4,0z"/>
	</g>
	<g id="パス_13022" transform="matrix(0.839, -0.545, 0.545, 0.839, 638.996, 3019.572)">
		<path class="st2" d="M7.1,7.4l-6.3,0L4,1.1L7.1,7.4z"/>
		<path class="st3" d="M4,2.2L1.6,6.9l4.7,0L4,2.2 M4,0l4,7.9L0,7.9L4,0z"/>
	</g>
	<path id="パス_13024" class="st4" d="M919.2,2867.6v2.2h4.1v10.6h2.4v-10.6h4.1v-2.2H919.2z M939.1,2880.4
		c-0.3-0.5-0.4-1.2-0.4-1.8v-5c0-1.7-1.1-2.8-3.9-2.8c-2.9,0-4,1.2-4.2,3.2h2.2c0.1-1.1,0.6-1.5,1.9-1.5c1.3,0,1.7,0.4,1.7,1.2
		c0,0.7-0.5,1-1.3,1.1l-1.4,0.1c-2.6,0.3-3.6,1.3-3.6,2.9c0,1.8,1.4,2.8,3.3,2.8c1.2,0.1,2.3-0.4,3-1.4c0,0.4,0.1,0.8,0.2,1.1H939.1
		z M934.2,2879c-1,0-1.6-0.5-1.6-1.3c0-0.7,0.4-1.2,1.7-1.3l1.2-0.1c0.4,0,0.8-0.1,1.1-0.4v0.8c0.1,1.2-0.9,2.2-2.1,2.3
		C934.4,2879,934.3,2879,934.2,2879z M946.4,2880.6c2.2,0.2,4.2-1.5,4.4-3.7h-2.3c-0.1,1.1-1,1.8-2.1,1.8c-1.3,0-2.3-0.9-2.3-3
		s0.9-3,2.3-3c1-0.1,1.9,0.7,2.1,1.7h2.3c-0.2-2.2-2.1-3.7-4.3-3.6c-2.8,0-4.6,1.9-4.6,4.9C941.8,2878.7,943.6,2880.6,946.4,2880.6
		L946.4,2880.6z M958.4,2871.1h-1.8v-2.7h-2.2v2.7h-1.4v1.8h1.4v5.2c0,1.7,0.9,2.4,2.9,2.4c0.4,0,0.8,0,1.2-0.1v-1.7h-0.8
		c-0.8,0-1.1-0.2-1.1-0.8v-5h1.8L958.4,2871.1z M963.8,2870v-2.1h-2.2v2.1H963.8z M963.8,2880.4v-9.3h-2.3v9.3H963.8z M971.6,2880.6
		c2.2,0.2,4.1-1.5,4.4-3.7h-2.3c-0.1,1.1-1,1.9-2.1,1.8c-1.3,0-2.3-0.9-2.3-3s0.9-3,2.3-3c1-0.1,1.9,0.7,2.1,1.7h2.3
		c-0.2-2.2-2.2-3.8-4.3-3.6c-2.8,0-4.6,1.9-4.6,4.9C967,2878.7,968.8,2880.6,971.6,2880.6z M982.7,2880.6c2.6,0,4.1-1,4.1-2.9
		c0-1.6-1-2.4-3.2-2.8l-1.2-0.2c-1-0.2-1.5-0.5-1.5-1.1c0-0.7,0.5-1.1,1.6-1.1c1.2,0,1.9,0.3,2,1.5h2.1c-0.1-1.9-1.2-3.1-4.1-3.1
		c-2.5,0-3.9,1.1-3.9,2.8c0,1.6,1,2.5,3,2.8l1.1,0.2c1.4,0.2,1.8,0.6,1.8,1.2c0,0.7-0.5,1.1-1.8,1.1c-1.3,0-1.9-0.4-2.1-1.6h-2.2
		C978.6,2879.7,980,2880.6,982.7,2880.6z"/>
</g>
</svg>
