<?xml version="1.0" encoding="utf-8"?>
<!-- Generator: Adobe Illustrator 26.5.0, SVG Export Plug-In . SVG Version: 6.00 Build 0)  -->
<svg version="1.1" id="レイヤー_1" xmlns="http://www.w3.org/2000/svg" xmlns:xlink="http://www.w3.org/1999/xlink" x="0px"
	 y="0px" width="3200px" height="120px" viewBox="0 0 3200 120" enable-background="new 0 0 3200 120" xml:space="preserve">
<path id="パス_12878" fill="#D9DCE3" d="M71.8,117V3h-4.5V117H71.8z M173.3,92c0,5.6,0,12.3,0.2,19.5c-3-5-8-12.3-12.6-19.2
	L98.4,3h-5.8V117h4.5V28c0-5.6,0-12.3-0.2-19.5c3,5,8,12.3,12.6,19.2L172,117h5.8V3h-4.5V92z M192,3v4.2h42.4V117h4.6V7.2h42.4V3
	H192z M300.2,59.4h62.7v-4.2h-62.7v-48h69.1V3h-73.6V117h74.7v-4.2h-70.2V59.4z M433.4,65h41.9c0,28.6-15.5,50.4-44.6,50.4
	c-28.8,0-46.9-22.9-46.9-55.4c0-32.8,17.4-55.4,46.6-55.4c24.2,0,39.5,15,43,35.8h4.8c-3.8-22.9-20.5-40-47.8-40
	c-32.2,0-51.2,24.5-51.2,59.5s19.8,59.5,51.5,59.5c23.8,0,38.9-13.1,44.6-32.6V117h4.5V60.8h-46.4L433.4,65z M577.6,85.3
	c-0.6-13.1-6.1-21.8-21.6-23.8c14.7-2.7,23.8-12.2,23.8-28.5c0-19.8-13.9-29.9-35.2-29.9H499V117h4.5V63.7h42.4
	c20.2,0,26.7,7.8,27.4,22.9l0.6,17.6c0.3,6.2,1.8,10.2,3.7,12.8h4.8c-2.2-3.2-3.7-7-4-12.8L577.6,85.3z M503.5,59.7V7.2h41.1
	c18.2,0,30.6,8,30.6,25.9c0,18.1-12.3,26.6-30.2,26.6H503.5z M686.6,117L639.7,3h-5.1L587.8,117h4.8l14.7-35.8h59.5l14.7,35.8H686.6
	z M626.4,34.9c2.2-5.6,7.5-18.7,10.7-27c3.2,8.3,8.5,21.4,10.7,27L665.1,77h-56L626.4,34.9z M668.3,3v4.2h42.4V117h4.6V7.2h42.4V3
	H668.3z M776.5,59.4h62.7v-4.2h-62.7v-48h69.1V3H772V117h74.7v-4.2h-70.2V59.4z M894.9,3h-33V117h31.4c38.4,0,57.3-22.4,57.3-57
	C950.6,25.3,931.7,3,894.9,3L894.9,3z M866.4,112.8V7.2h28.3c34.9,0,51,20.6,51,52.8c0,31.7-16.5,52.8-52.5,52.8H866.4z M1067,96.5
	c-2.2,5-4.6,10.7-6.6,15.4c-1.8-4.5-4.2-9.9-6.4-15L1011,3h-6.2V117h4.5V28c0-5.4,0-12-0.2-18.9c1.6,4,3.4,8.2,5.1,12l44,95.8h4.5
	l44-95.8c1.8-4,3.5-8,5.1-12c-0.2,6.9-0.2,13.4-0.2,18.9v89h4.5V3h-6.2L1067,96.5z M1226.2,117L1179.4,3h-5.1L1127.5,117h4.8
	l14.7-35.8h59.5l14.7,35.8H1226.2z M1166.1,34.9c2.2-5.6,7.5-18.7,10.7-27c3.2,8.3,8.5,21.4,10.7,27l17.3,42.1h-56L1166.1,34.9z
	 M1316.2,85.3c-0.6-13.1-6.1-21.8-21.6-23.8c14.7-2.7,23.8-12.2,23.8-28.5c0-19.8-13.9-29.9-35.2-29.9h-45.6V117h4.5V63.7h42.4
	c20.2,0,26.7,7.8,27.4,22.9l0.6,17.6c0.3,6.2,1.8,10.2,3.7,12.8h4.8c-2.2-3.2-3.7-7-4-12.8L1316.2,85.3z M1242.1,59.7V7.2h41.1
	c18.2,0,30.6,8,30.6,25.9c0,18.1-12.3,26.6-30.2,26.6H1242.1z M1422.2,117l-52.6-65.3L1421.1,3h-6.1l-74.6,70.2V3h-4.5V117h4.5V78.7
	l25.8-24.2l50.4,62.4H1422.2z M1438.4,59.4h62.7v-4.2h-62.7v-48h69.1V3h-73.6V117h74.7v-4.2h-70.2V59.4z M1516.5,3v4.2h42.4V117h4.6
	V7.2h42.4V3H1516.5z M1624.6,117V3h-4.5V117H1624.6z M1726.1,92c0,5.6,0,12.3,0.2,19.5c-3-5-8-12.3-12.6-19.2L1651.2,3h-5.8V117h4.5
	V28c0-5.6,0-12.3-0.2-19.5c3,5,8,12.3,12.6,19.2l62.4,89.3h5.8V3h-4.5L1726.1,92z M1801.4,65h41.9c0,28.6-15.5,50.4-44.6,50.4
	c-28.8,0-46.9-22.9-46.9-55.4c0-32.8,17.4-55.4,46.6-55.4c24.2,0,39.5,15,43,35.8h4.8c-3.8-22.9-20.5-40-47.8-40
	c-32.2,0-51.2,24.5-51.2,59.5s19.8,59.5,51.5,59.5c23.8,0,38.9-13.1,44.6-32.6V117h4.5V60.8h-46.4L1801.4,65z M1950.7,119.5
	c26.1,0,44.2-17.6,47.2-44.3h-4.5c-3.2,24.6-19.5,40.2-42.7,40.2c-28.8,0-45.4-23-45.4-55.4s16.6-55.4,45.4-55.4
	c22.2,0,38.1,14.1,42.2,37.4h4.5c-4.2-25.4-21.6-41.6-46.7-41.6c-31.5,0-50.1,24.5-50.1,59.5S1919.2,119.5,1950.7,119.5z
	 M2062.1,119.5c31.8,0,51.7-25,51.7-59.5s-19.8-59.5-51.7-59.5c-31.8,0-51.7,25-51.7,59.5S2030.2,119.5,2062.1,119.5z M2062.1,115.4
	c-29,0-47-23-47-55.4s18.1-55.4,47-55.4c29.1,0,47,23,47,55.4S2091.2,115.4,2062.1,115.4z M2192.6,96.5c-2.2,5-4.6,10.7-6.6,15.4
	c-1.8-4.5-4.2-9.9-6.4-15l-43-93.8h-6.2V117h4.5V28c0-5.4,0-12-0.2-18.9c1.6,4,3.4,8.2,5.1,12l44,95.8h4.5l44-95.8
	c1.8-4,3.5-8,5.1-12c-0.2,6.9-0.2,13.4-0.2,18.9v89h4.5V3h-6.2L2192.6,96.5z M2324.8,96.5c-2.2,5-4.6,10.7-6.6,15.4
	c-1.8-4.5-4.2-9.9-6.4-15l-43-93.8h-6.2V117h4.5V28c0-5.4,0-12-0.2-18.9c1.6,4,3.4,8.2,5.1,12l44,95.8h4.5l44-95.8
	c1.8-4,3.5-8,5.1-12c-0.2,6.9-0.2,13.4-0.2,18.9v89h4.5V3h-6.2L2324.8,96.5z M2434.9,119.5c24.5,0,41.6-13.3,41.6-42.9V3h-4.5v73.6
	c0,27.5-15.5,38.7-37.1,38.7s-37.3-11.2-37.3-38.7V3h-4.5v73.6C2393.1,106.2,2410.2,119.5,2434.9,119.5z M2576.3,92
	c0,5.6,0,12.3,0.2,19.5c-3-5-8-12.3-12.6-19.2L2501.4,3h-5.8V117h4.5V28c0-5.6,0-12.3-0.2-19.5c3,5,8,12.3,12.6,19.2L2575,117h5.8V3
	h-4.5L2576.3,92z M2606.1,117V3h-4.5V117H2606.1z M2672.8,119.5c26.1,0,44.2-17.6,47.2-44.3h-4.5c-3.2,24.6-19.5,40.2-42.7,40.2
	c-28.8,0-45.4-23-45.4-55.4s16.6-55.4,45.4-55.4c22.2,0,38.1,14.1,42.2,37.4h4.5c-4.2-25.4-21.6-41.6-46.7-41.6
	c-31.5,0-50.1,24.5-50.1,59.5S2641.3,119.5,2672.8,119.5z M2821,117L2774.1,3h-5.1L2722.2,117h4.8l14.7-35.8h59.5L2816,117H2821z
	 M2760.8,34.9c2.2-5.6,7.5-18.7,10.7-27c3.2,8.3,8.5,21.4,10.7,27l17.3,42.1h-56L2760.8,34.9z M2802.7,3v4.2h42.4V117h4.6V7.2h42.4
	V3H2802.7z M2910.9,117V3h-4.5V117H2910.9z M2979.2,119.5c31.8,0,51.7-25,51.7-59.5S3011,0.5,2979.2,0.5s-51.7,25-51.7,59.5
	S2947.4,119.5,2979.2,119.5z M2979.2,115.4c-29,0-47-23-47-55.4s18.1-55.4,47-55.4c29.1,0,47,23,47,55.4S3008.3,115.4,2979.2,115.4z
	 M3128.2,92c0,5.6,0,12.3,0.2,19.5c-3-5-8-12.3-12.6-19.2L3053.3,3h-5.8V117h4.5V28c0-5.6,0-12.3-0.2-19.5c3,5,8,12.3,12.6,19.2
	l62.4,89.3h5.8V3h-4.5V92z"/>
</svg>
