<?xml version="1.0" encoding="utf-8"?>
<!-- Generator: Adobe Illustrator 27.1.1, SVG Export Plug-In . SVG Version: 6.00 Build 0)  -->
<svg version="1.1" id="レイヤー_1" xmlns="http://www.w3.org/2000/svg" xmlns:xlink="http://www.w3.org/1999/xlink" x="0px"
	 y="0px" viewBox="0 0 315 243.3" style="enable-background:new 0 0 315 243.3;" xml:space="preserve">
<style type="text/css">
	.st0{fill:#D9DCE3;}
	.st1{fill:#ECEDF0;}
	.st2{fill:#FFFFFF;}
	.st3{fill:#707070;}
	.st4{fill:#1A1A1A;}
	.st5{fill:#333233;}
	.st6{fill:url(#パス_1766_00000022520580695501987650000015636733582082259093_);}
	.st7{fill:url(#パス_1767_00000069380959910097486230000006254103663363193783_);}
	.st8{fill:url(#パス_1768_00000013188960072408857390000014547658319466813338_);}
	.st9{fill:url(#パス_1769_00000086653139516584019040000011099147737248920195_);}
</style>
<g id="グループ_13759" transform="translate(-20 -2185.55)">
	<path id="パス_11334" class="st0" d="M179.5,2346.8c61.2,3.2,101.8,17.4,101,33.1c-0.8,15.7-62.2,24.7-123.5,21.5
		c-61.2-3.2-99.1-17.4-98.3-33.1C59.6,2352.6,118.3,2343.6,179.5,2346.8z"/>
	<path id="パス_11333" class="st1" d="M195.1,2274.5c70.5,22.9,109.8,63.4,99.1,96.2c-10.6,32.7-88.9,35.4-159.4,12.5
		c-70.5-22.9-106.6-62.8-95.9-95.5S124.6,2251.6,195.1,2274.5z"/>
	<g id="パス_11332" transform="matrix(0.951, 0.309, -0.309, 0.951, 72.629, 2185.55)">
		<path class="st2" d="M120.8,121.5c-18,0-34.9-1.6-50-4.7c-14.5-3-27.3-7.3-37.9-12.9c-10.4-5.5-18.5-11.9-24-19.3
			c-5.5-7.4-8.3-15.3-8.3-23.8c0-4.1,1-8.3,3.1-12.3c2-3.9,5-7.7,8.9-11.4c3.8-3.6,8.5-7,13.9-10.3c5.3-3.2,11.5-6.2,18.2-8.9
			c6.7-2.7,14-5.2,21.7-7.3c7.7-2.2,15.9-4,24.4-5.5c8.5-1.5,17.4-2.7,26.3-3.5c9.1-0.8,18.3-1.2,27.4-1.2c18.1,0,35.1,1.6,50.6,4.7
			c14.9,3,28,7.3,39,12.8c5.4,2.7,10.2,5.7,14.4,8.9c4.2,3.2,7.8,6.7,10.7,10.3c5.9,7.4,8.8,15.3,8.8,23.7c0,4.1-1.1,8.2-3.2,12.3
			c-2.1,3.9-5.2,7.7-9.2,11.4c-3.9,3.6-8.8,7.1-14.4,10.3c-5.5,3.2-11.9,6.2-18.8,9C194,115,157,121.5,120.8,121.5z"/>
		<path class="st3" d="M144.5,1c-9.1,0-18.3,0.4-27.4,1.2C108.2,3,99.3,4.1,90.8,5.7C82.3,7.1,74.2,9,66.4,11.1
			c-7.7,2.1-15,4.6-21.6,7.3c-6.7,2.7-12.8,5.7-18.1,8.9c-5.4,3.2-10.1,6.7-13.8,10.2C9,41.2,6,44.9,4.1,48.8c-2,3.9-3.1,8-3.1,12
			C1,69.1,3.8,77,9.2,84.3C14.7,91.5,22.7,98,33,103.4c10.6,5.6,23.3,9.9,37.8,12.9c15.1,3.1,31.9,4.7,49.9,4.7
			c36.2,0,73.1-6.4,101.3-17.6c6.9-2.7,13.2-5.8,18.7-8.9c5.6-3.2,10.5-6.7,14.4-10.3c4-3.7,7.1-7.5,9.1-11.3c2.1-3.9,3.2-8,3.2-12
			c0-8.3-2.9-16.1-8.7-23.4c-2.9-3.6-6.4-7-10.6-10.2c-4.2-3.2-9-6.2-14.4-8.8c-11-5.5-24.1-9.8-38.9-12.8
			C179.5,2.6,162.5,1,144.5,1 M144.5,0c74.1,0,124,26.4,124,60.8S194.9,122,120.8,122C46.6,122,0,95.2,0,60.8C0,26.4,70.3,0,144.5,0
			z"/>
	</g>
	<path id="パス_13025" class="st4" d="M190.1,2230.4c0,0.1,0,0.1-0.1,0.2C190,2230.5,190,2230.4,190.1,2230.4L190.1,2230.4
		c0.1,0,0.1,0,0.1,0h0v-0.1c0,0-0.1,0-0.1,0l-0.1,0c0-0.1,0-0.1,0-0.2c0,0,0-0.1,0-0.1h-0.1c0,0,0,0.1,0,0.1c0,0.1,0,0.1,0,0.2h-0.1
		h0l0,0.1c0,0,0.1,0,0.1,0c0,0.1,0,0.2,0,0.3c0,0-0.1,0.1-0.1,0.1v-0.1c0,0-0.1,0-0.1,0h-0.1v-0.1h0.1c0,0,0.1,0,0.1,0
		c0,0,0-0.1,0-0.1v-0.2c0,0,0-0.1,0-0.1c0,0,0,0-0.1,0c0-0.1,0.1-0.1,0.1-0.2l-0.1,0c0,0.1-0.1,0.1-0.1,0.2h-0.2c0,0-0.1,0-0.1,0
		c0,0,0,0.1,0,0.1v0.2c0,0,0,0.1,0,0.1c0,0,0.1,0,0.1,0h0.1v0.1h-0.1c0,0-0.1,0-0.1,0v0.1c0,0,0.1,0,0.1,0h0.1v0.1c0,0,0,0.1,0,0.1
		h0.1c0,0,0-0.1,0-0.1v-0.1h0.1c0,0,0.1,0,0.1,0c0,0-0.1,0-0.1,0.1c0,0,0.1,0.1,0.1,0.1c0.1,0,0.1-0.1,0.2-0.2c0,0,0,0.1,0.1,0.1
		c0,0,0.1,0,0.1,0.1c0.1,0,0.1-0.1,0.1-0.2c0,0-0.1,0-0.1-0.1c0,0.1,0,0.1,0,0.1s0-0.1-0.1-0.1
		C190.1,2230.6,190.1,2230.5,190.1,2230.4C190.1,2230.5,190.1,2230.5,190.1,2230.4L190.1,2230.4L190.1,2230.4z M189.5,2230.3
		L189.5,2230.3L189.5,2230.3L189.5,2230.3L189.5,2230.3z M189.6,2230.3L189.6,2230.3L189.6,2230.3L189.6,2230.3L189.6,2230.3z
		 M189.5,2230.4L189.5,2230.4L189.5,2230.4L189.5,2230.4L189.5,2230.4z M189.6,2230.4L189.6,2230.4L189.6,2230.4L189.6,2230.4
		L189.6,2230.4z M189.3,2230c0,0,0.1,0.1,0.1,0.1l0.1,0C189.4,2230.1,189.4,2230,189.3,2230L189.3,2230z M189.4,2230
		c0,0,0,0.1,0.1,0.2l0.1,0C189.6,2230.1,189.6,2230,189.4,2230L189.4,2230z M190.2,2230.2c0-0.1-0.1-0.1-0.1-0.2l-0.1,0
		C190,2230.1,190,2230.2,190.2,2230.2L190.2,2230.2z M190.8,2230.5C190.8,2230.5,190.8,2230.6,190.8,2230.5v0.3c0,0,0,0.1,0,0.1h0.1
		v-0.1h0.2v0h0.1c0,0,0-0.1,0-0.1v-0.2c0,0,0,0,0-0.1l0,0c0,0,0-0.1,0-0.1c-0.1,0-0.2-0.1-0.2-0.1c0.1-0.1,0.1-0.1,0.1-0.2l0,0
		l-0.1-0.1c0,0-0.1,0-0.1,0H191l0,0c0,0,0,0,0,0l-0.1,0c0,0.1-0.1,0.2-0.2,0.2v-0.1c0,0,0-0.1,0-0.1c0,0-0.1,0-0.1,0h-0.2
		c0,0-0.1,0-0.1,0c0,0,0,0.1,0,0.1v0.6c0,0,0,0.1,0,0.1h0.1v-0.1h0.2v0h0.1c0,0,0-0.1,0-0.1L190.8,2230.5
		C190.8,2230.5,190.8,2230.5,190.8,2230.5L190.8,2230.5z M190.7,2230.2C190.8,2230.3,190.8,2230.3,190.7,2230.2c0.1,0,0.1,0,0.1,0
		c0,0,0.1,0.1,0.1,0.1c-0.1,0-0.1,0.1-0.2,0.1L190.7,2230.2z M190.9,2230.5L190.9,2230.5c0,0,0.1-0.1,0.1-0.1c0.1,0,0.1,0.1,0.2,0.1
		L190.9,2230.5L190.9,2230.5z M191.1,2230.1c0,0.1-0.1,0.1-0.1,0.1c0,0-0.1-0.1-0.1-0.1l0,0H191.1z M190.5,2230.1L190.5,2230.1
		l0,0.2h0V2230.1z M190.6,2230.1L190.6,2230.1l0,0.2h0V2230.1z M190.5,2230.4L190.5,2230.4l0,0.2h0V2230.4z M190.6,2230.4
		L190.6,2230.4l0,0.2h0V2230.4z M190.9,2230.6h0.2v0.1h-0.2V2230.6z"/>
	<path id="パス_13026" class="st4" d="M179.3,2216.5v0.4h0.7v1.8h0.4v-1.8h0.7v-0.4H179.3z M182.6,2218.7c0-0.1-0.1-0.2-0.1-0.3
		v-0.8c0-0.3-0.2-0.5-0.6-0.5c-0.5,0-0.7,0.2-0.7,0.5h0.4c0-0.2,0.1-0.2,0.3-0.2c0.2,0,0.3,0.1,0.3,0.2c0,0.1-0.1,0.2-0.2,0.2
		l-0.2,0c-0.4,0-0.6,0.2-0.6,0.5c0,0.3,0.2,0.5,0.6,0.5c0.2,0,0.4-0.1,0.5-0.2c0,0.1,0,0.1,0,0.2H182.6z M181.8,2218.4
		c-0.2,0-0.3-0.1-0.3-0.2c0-0.1,0.1-0.2,0.3-0.2l0.2,0c0.1,0,0.1,0,0.2-0.1v0.1C182.2,2218.3,182,2218.4,181.8,2218.4
		C181.8,2218.4,181.8,2218.4,181.8,2218.4z M183.8,2218.7c0.4,0,0.7-0.2,0.7-0.6h-0.4c0,0.2-0.2,0.3-0.3,0.3c-0.2,0-0.4-0.2-0.4-0.5
		s0.2-0.5,0.4-0.5c0.2,0,0.3,0.1,0.3,0.3h0.4c0-0.4-0.4-0.6-0.7-0.6c-0.4,0-0.8,0.3-0.8,0.7c0,0,0,0.1,0,0.1c0,0.4,0.3,0.8,0.7,0.8
		C183.8,2218.7,183.8,2218.7,183.8,2218.7z M185.8,2217.1h-0.3v-0.5h-0.4v0.4h-0.2v0.3h0.2v0.9c0,0.3,0.2,0.4,0.5,0.4
		c0.1,0,0.1,0,0.2,0v-0.3h-0.1c-0.1,0-0.2,0-0.2-0.1v-0.8h0.3V2217.1z M186.7,2216.9v-0.4h-0.4v0.4H186.7z M186.7,2218.7v-1.5h-0.4
		v1.5H186.7z M188,2218.7c0.4,0,0.7-0.2,0.7-0.6h-0.4c0,0.2-0.2,0.3-0.3,0.3c-0.2,0-0.4-0.2-0.4-0.5s0.2-0.5,0.4-0.5
		c0.2,0,0.3,0.1,0.3,0.3h0.4c0-0.4-0.4-0.6-0.7-0.6c-0.4,0-0.8,0.3-0.8,0.7c0,0,0,0.1,0,0.1c0,0.4,0.3,0.8,0.7,0.8
		C188,2218.7,188,2218.7,188,2218.7z M189.9,2218.7c0.4,0,0.7-0.2,0.7-0.5c0-0.3-0.2-0.4-0.5-0.5l-0.2,0c-0.2,0-0.3-0.1-0.3-0.2
		s0.1-0.2,0.3-0.2s0.3,0.1,0.3,0.3h0.4c0-0.3-0.2-0.5-0.7-0.5c-0.4,0-0.6,0.2-0.6,0.5c0,0.3,0.2,0.4,0.5,0.5l0.2,0
		c0.2,0,0.3,0.1,0.3,0.2s-0.1,0.2-0.3,0.2c-0.2,0-0.3-0.1-0.3-0.3h-0.4C189.2,2218.6,189.4,2218.7,189.9,2218.7z"/>
	<g id="パス_13027" transform="translate(158.805 2190.55)">
		<path class="st2" d="M34.9,69.2c-4.6,0-9.1-0.9-13.4-2.7c-4.1-1.7-7.8-4.2-10.9-7.4C7.4,56,4.9,52.3,3.2,48.2
			C1.4,44,0.5,39.5,0.5,34.9s0.9-9.1,2.7-13.4c1.7-4.1,4.2-7.8,7.4-10.9c3.2-3.2,6.8-5.6,10.9-7.4c4.2-1.8,8.7-2.7,13.4-2.7
			S44,1.4,48.2,3.2c4.1,1.7,7.8,4.2,10.9,7.4c3.2,3.2,5.6,6.8,7.4,10.9c1.8,4.2,2.7,8.7,2.7,13.4s-0.9,9.1-2.7,13.4
			c-1.7,4.1-4.2,7.8-7.4,10.9c-3.2,3.2-6.8,5.6-10.9,7.4C44,68.3,39.5,69.2,34.9,69.2z"/>
		<path class="st3" d="M34.9,1c-4.6,0-9,0.9-13.2,2.7c-4,1.7-7.7,4.1-10.8,7.3s-5.6,6.7-7.3,10.8C1.9,25.9,1,30.3,1,34.9
			s0.9,9,2.7,13.2c1.7,4,4.1,7.7,7.3,10.8s6.7,5.6,10.8,7.3c4.2,1.8,8.6,2.7,13.2,2.7s9-0.9,13.2-2.7c4-1.7,7.7-4.1,10.8-7.3
			s5.6-6.7,7.3-10.8c1.8-4.2,2.7-8.6,2.7-13.2s-0.9-9-2.7-13.2c-1.7-4-4.1-7.7-7.3-10.8S52.1,5.4,48,3.7C43.9,1.9,39.4,1,34.9,1
			 M34.9,0c19.3,0,34.9,15.6,34.9,34.9S54.1,69.7,34.9,69.7S0,54.1,0,34.9S15.6,0,34.9,0z"/>
	</g>
	<g id="パス_13028" transform="translate(265.275 2251.634)">
		<path class="st2" d="M34.9,69.2c-4.6,0-9.1-0.9-13.4-2.7c-4.1-1.7-7.8-4.2-10.9-7.4C7.4,56,4.9,52.3,3.2,48.2
			C1.4,44,0.5,39.5,0.5,34.9s0.9-9.1,2.7-13.4c1.7-4.1,4.2-7.8,7.4-10.9c3.2-3.2,6.8-5.6,10.9-7.4c4.2-1.8,8.7-2.7,13.4-2.7
			S44,1.4,48.2,3.2c4.1,1.7,7.8,4.2,10.9,7.4c3.2,3.2,5.6,6.8,7.4,10.9c1.8,4.2,2.7,8.7,2.7,13.4s-0.9,9.1-2.7,13.4
			c-1.7,4.1-4.2,7.8-7.4,10.9c-3.2,3.2-6.8,5.6-10.9,7.4C44,68.3,39.5,69.2,34.9,69.2z"/>
		<path class="st3" d="M34.9,1c-4.6,0-9,0.9-13.2,2.7c-4,1.7-7.7,4.1-10.8,7.3s-5.6,6.7-7.3,10.8C1.9,25.9,1,30.3,1,34.9
			s0.9,9,2.7,13.2c1.7,4,4.1,7.7,7.3,10.8s6.7,5.6,10.8,7.3c4.2,1.8,8.6,2.7,13.2,2.7s9-0.9,13.2-2.7c4-1.7,7.7-4.1,10.8-7.3
			s5.6-6.7,7.3-10.8c1.8-4.2,2.7-8.6,2.7-13.2s-0.9-9-2.7-13.2c-1.7-4-4.1-7.7-7.3-10.8S52.1,5.4,48,3.7C43.9,1.9,39.4,1,34.9,1
			 M34.9,0c19.3,0,34.9,15.6,34.9,34.9S54.1,69.7,34.9,69.7S0,54.1,0,34.9S15.6,0,34.9,0z"/>
	</g>
	<path id="パス_13030" class="st4" d="M285.3,2289.2c1.8,0.1,3.4-1.3,3.6-3.1h-1.5c-0.1,1.1-1,1.9-2.1,1.8c-1.4,0-2.2-1-2.2-2.8
		s0.8-2.8,2.2-2.8c1-0.1,1.8,0.6,2,1.6h1.5c-0.3-1.7-1.8-3-3.6-2.9c-2.3,0-3.8,1.6-3.8,4.1S283,2289.2,285.3,2289.2z M292.8,2283.2
		c-0.7,0-1.4,0.4-1.7,1.1v-1h-1.3v5.7h1.4v-2.9c-0.1-0.8,0.5-1.5,1.3-1.6c0.1,0,0.2,0,0.4,0h0.4v-1.3
		C293.1,2283.2,292.9,2283.2,292.8,2283.2z M296.4,2289.1c1.2,0.1,2.3-0.7,2.6-1.9h-1.3c-0.2,0.5-0.7,0.9-1.3,0.8
		c-0.8,0-1.4-0.6-1.5-1.4c0,0,0-0.1,0-0.1h4.2v-0.3c0.2-1.5-0.9-2.9-2.5-3.1c-0.1,0-0.2,0-0.3,0c-1.5,0-2.8,1.1-2.8,2.6
		c0,0.1,0,0.2,0,0.3c-0.1,1.5,1,2.8,2.5,3C296.1,2289.1,296.2,2289.1,296.4,2289.1L296.4,2289.1z M294.9,2285.6
		c0-0.8,0.6-1.4,1.4-1.4c0,0,0,0,0,0c0.8,0,1.4,0.6,1.4,1.4H294.9z M305.2,2289c-0.2-0.3-0.2-0.7-0.2-1.1v-3c0-1-0.7-1.7-2.4-1.7
		c-1.8,0-2.5,0.7-2.6,1.9h1.4c0.1-0.7,0.4-0.9,1.2-0.9s1,0.3,1,0.7c0,0.4-0.3,0.6-0.8,0.6l-0.9,0.1c-1.6,0.2-2.2,0.8-2.2,1.8
		c0,1.1,0.8,1.7,2,1.7c0.7,0,1.4-0.3,1.8-0.8c0,0.2,0.1,0.5,0.2,0.7H305.2z M302.1,2288.1c-0.6,0-1-0.3-1-0.8c0-0.5,0.3-0.7,1-0.8
		l0.7-0.1c0.2,0,0.5-0.1,0.6-0.2v0.5c0,0.7-0.5,1.4-1.3,1.4C302.3,2288.1,302.2,2288.1,302.1,2288.1z M308.9,2283.3h-1.1v-1.6h-1.4
		v1.6h-0.9v1.1h0.9v3.2c0,1,0.6,1.4,1.8,1.4c0.2,0,0.5,0,0.7,0v-1.1h-0.5c-0.5,0-0.6-0.1-0.6-0.5v-3h1.1V2283.3z M311.2,2282.7v-1.3
		h-1.4v1.3H311.2z M311.2,2289v-5.7h-1.4v5.7H311.2z M315.7,2284.8c-0.3,0.9-0.6,1.9-0.9,2.9c-0.3-0.9-0.6-2-0.9-2.9l-0.5-1.5h-1.5
		l2.1,5.7h1.6l2.1-5.7h-1.4L315.7,2284.8z M320.7,2289.1c1.2,0.1,2.3-0.7,2.6-1.9H322c-0.2,0.5-0.7,0.9-1.3,0.8
		c-0.8,0-1.4-0.6-1.5-1.4c0,0,0-0.1,0-0.1h4.2v-0.3c0.2-1.5-0.9-2.9-2.5-3.1c-0.1,0-0.2,0-0.3,0c-1.5,0-2.8,1.1-2.8,2.7
		c0,0.1,0,0.2,0,0.3c-0.1,1.5,1,2.8,2.5,3C320.4,2289.1,320.6,2289.1,320.7,2289.1z M319.2,2285.6c0-0.8,0.6-1.4,1.4-1.4
		c0,0,0,0,0,0c0.8,0,1.4,0.6,1.4,1.4H319.2z"/>
	<g id="パス_13031" transform="translate(190.25 2313.928)">
		<path class="st2" d="M34.9,69.2c-4.6,0-9.1-0.9-13.4-2.7c-4.1-1.7-7.8-4.2-10.9-7.4C7.4,56,4.9,52.3,3.2,48.2
			C1.4,44,0.5,39.5,0.5,34.9s0.9-9.1,2.7-13.4c1.7-4.1,4.2-7.8,7.4-10.9c3.2-3.2,6.8-5.6,10.9-7.4c4.2-1.8,8.7-2.7,13.4-2.7
			S44,1.4,48.2,3.2c4.1,1.7,7.8,4.2,10.9,7.4c3.2,3.2,5.6,6.8,7.4,10.9c1.8,4.2,2.7,8.7,2.7,13.4s-0.9,9.1-2.7,13.4
			c-1.7,4.1-4.2,7.8-7.4,10.9c-3.2,3.2-6.8,5.6-10.9,7.4C44,68.3,39.5,69.2,34.9,69.2z"/>
		<path class="st3" d="M34.9,1c-4.6,0-9,0.9-13.2,2.7c-4,1.7-7.7,4.1-10.8,7.3s-5.6,6.7-7.3,10.8C1.9,25.9,1,30.3,1,34.9
			s0.9,9,2.7,13.2c1.7,4,4.1,7.7,7.3,10.8s6.7,5.6,10.8,7.3c4.2,1.8,8.6,2.7,13.2,2.7s9-0.9,13.2-2.7c4-1.7,7.7-4.1,10.8-7.3
			s5.6-6.7,7.3-10.8c1.8-4.2,2.7-8.6,2.7-13.2s-0.9-9-2.7-13.2c-1.7-4-4.1-7.7-7.3-10.8S52.1,5.4,48,3.7C43.9,1.9,39.4,1,34.9,1
			 M34.9,0c19.3,0,34.9,15.6,34.9,34.9S54.1,69.7,34.9,69.7S0,54.1,0,34.9S15.6,0,34.9,0z"/>
	</g>
	<path id="パス_13033" class="st4" d="M216.3,2354.5l-3-7.8h-1.7l-3,7.8h1.5l0.6-1.7h3.4l0.6,1.7H216.3z M211.4,2350.6
		c0.3-0.7,0.6-1.8,1-2.7c0.3,0.9,0.7,2,1,2.7l0.3,0.8h-2.5L211.4,2350.6z M219.4,2354.6c1.4,0.1,2.5-0.9,2.7-2.2h-1.4
		c-0.1,0.6-0.6,1.1-1.3,1.1c-0.8,0-1.4-0.6-1.4-1.8c0-1.2,0.6-1.8,1.4-1.8c0.6,0,1.2,0.4,1.2,1h1.4c-0.1-1.3-1.3-2.3-2.6-2.2
		c-1.5-0.1-2.8,1.1-2.8,2.6c0,0.1,0,0.2,0,0.4c-0.1,1.5,1,2.8,2.4,3C219.2,2354.6,219.3,2354.6,219.4,2354.6z M225.8,2348.8h-1.1
		v-1.6h-1.4v1.6h-0.9v1.1h0.9v3.2c0,1,0.6,1.4,1.8,1.4c0.2,0,0.5,0,0.7,0v-1.1h-0.5c-0.5,0-0.6-0.1-0.6-0.5v-3h1.1V2348.8z
		 M228.1,2348.1v-1.3h-1.4v1.3H228.1z M228.1,2354.5v-5.7h-1.4v5.7H228.1z M232,2354.6c1.5,0.1,2.8-1.1,2.9-2.6c0-0.1,0-0.2,0-0.4
		c0.1-1.5-1-2.8-2.5-3c-0.1,0-0.2,0-0.4,0c-1.5-0.1-2.8,1.1-2.9,2.6c0,0.1,0,0.2,0,0.3c-0.1,1.5,1,2.8,2.5,3
		C231.7,2354.6,231.9,2354.6,232,2354.6z M232,2353.4c-0.9,0-1.5-0.6-1.5-1.8c0-1.2,0.6-1.8,1.5-1.8c0.9,0,1.5,0.6,1.5,1.8
		C233.5,2352.8,232.9,2353.4,232,2353.4z M239,2348.6c-0.7,0-1.4,0.3-1.8,0.9v-0.8h-1.3v5.7h1.4v-3.2c-0.1-0.7,0.4-1.3,1.1-1.4
		c0,0,0.1,0,0.1,0c0.5-0.1,1,0.3,1.1,0.8c0,0.1,0,0.2,0,0.3v3.5h1.4v-3.8c0.1-1-0.6-1.9-1.6-2C239.2,2348.6,239.1,2348.6,239,2348.6
		L239,2348.6z"/>
	<g id="パス_13034" transform="translate(76.781 2290.558)">
		<path class="st2" d="M34.9,69.2c-4.6,0-9.1-0.9-13.4-2.7c-4.1-1.7-7.8-4.2-10.9-7.4C7.4,56,4.9,52.3,3.2,48.2
			C1.4,44,0.5,39.5,0.5,34.9s0.9-9.1,2.7-13.4c1.7-4.1,4.2-7.8,7.4-10.9c3.2-3.2,6.8-5.6,10.9-7.4c4.2-1.8,8.7-2.7,13.4-2.7
			S44,1.4,48.2,3.2c4.1,1.7,7.8,4.2,10.9,7.4c3.2,3.2,5.6,6.8,7.4,10.9c1.8,4.2,2.7,8.7,2.7,13.4s-0.9,9.1-2.7,13.4
			c-1.7,4.1-4.2,7.8-7.4,10.9c-3.2,3.2-6.8,5.6-10.9,7.4C44,68.3,39.5,69.2,34.9,69.2z"/>
		<path class="st3" d="M34.9,1c-4.6,0-9,0.9-13.2,2.7c-4,1.7-7.7,4.1-10.8,7.3s-5.6,6.7-7.3,10.8C1.9,25.9,1,30.3,1,34.9
			s0.9,9,2.7,13.2c1.7,4,4.1,7.7,7.3,10.8s6.7,5.6,10.8,7.3c4.2,1.8,8.6,2.7,13.2,2.7s9-0.9,13.2-2.7c4-1.7,7.7-4.1,10.8-7.3
			s5.6-6.7,7.3-10.8c1.8-4.2,2.7-8.6,2.7-13.2s-0.9-9-2.7-13.2c-1.7-4-4.1-7.7-7.3-10.8S52.1,5.4,48,3.7C43.9,1.9,39.4,1,34.9,1
			 M34.9,0c19.3,0,34.9,15.6,34.9,34.9S54.1,69.7,34.9,69.7S0,54.1,0,34.9S15.6,0,34.9,0z"/>
	</g>
	<path id="パス_13036" class="st4" d="M91.6,2328.6c2.1,0.1,3.8-1.5,3.9-3.6c0-0.2,0-0.3,0-0.5c0.2-2.1-1.4-3.9-3.4-4.1
		c-0.2,0-0.3,0-0.5,0c-2.1-0.1-3.8,1.5-3.9,3.6c0,0.2,0,0.3,0,0.5c-0.2,2.1,1.4,3.9,3.4,4.1C91.3,2328.6,91.5,2328.6,91.6,2328.6z
		 M91.6,2327.3c-1.4,0-2.4-1.1-2.4-2.8s0.9-2.8,2.4-2.8c1.4,0,2.4,1.1,2.4,2.8S93,2327.3,91.6,2327.3z M99.7,2322.6
		c-0.7,0-1.4,0.3-1.8,0.9v-0.8h-1.3v7.8h1.4v-2.9c0.4,0.6,1.1,0.9,1.8,0.9c1.6,0,2.5-1.2,2.5-3
		C102.2,2323.8,101.2,2322.6,99.7,2322.6z M99.3,2327.4c-0.9,0-1.5-0.6-1.5-1.8s0.6-1.8,1.5-1.8s1.5,0.6,1.5,1.8
		S100.2,2327.4,99.3,2327.4L99.3,2327.4z M105.8,2328.5c1.2,0.1,2.3-0.7,2.6-1.9H107c-0.2,0.5-0.7,0.9-1.3,0.8
		c-0.8,0-1.4-0.6-1.5-1.4c0,0,0-0.1,0-0.1h4.2v-0.3c0.2-1.5-0.9-2.9-2.5-3.1c-0.1,0-0.2,0-0.3,0c-1.5,0-2.8,1.1-2.8,2.6
		c0,0.1,0,0.2,0,0.3c-0.1,1.5,1,2.8,2.5,3C105.5,2328.5,105.6,2328.5,105.8,2328.5z M104.3,2325c0-0.8,0.6-1.4,1.4-1.4c0,0,0,0,0,0
		c0.8,0,1.4,0.6,1.4,1.4H104.3z M112.6,2322.6c-0.7,0-1.4,0.4-1.7,1.1v-1h-1.3v5.7h1.4v-2.9c-0.1-0.8,0.5-1.5,1.3-1.6
		c0.1,0,0.2,0,0.4,0h0.4v-1.3C112.8,2322.6,112.7,2322.6,112.6,2322.6z M118.5,2328.4c-0.2-0.3-0.2-0.7-0.2-1.1v-3
		c0-1-0.7-1.7-2.4-1.7c-1.8,0-2.5,0.7-2.6,1.9h1.4c0.1-0.7,0.4-0.9,1.2-0.9c0.8,0,1,0.3,1,0.7c0,0.4-0.3,0.6-0.8,0.6l-0.9,0.1
		c-1.6,0.2-2.2,0.8-2.2,1.8c0,1.1,0.8,1.7,2,1.7c0.7,0,1.4-0.3,1.8-0.8c0,0.2,0.1,0.5,0.2,0.7H118.5z M115.5,2327.5
		c-0.6,0-1-0.3-1-0.8c0-0.5,0.3-0.7,1-0.8l0.7-0.1c0.2,0,0.5-0.1,0.6-0.2v0.5c0,0.7-0.5,1.4-1.3,1.4
		C115.6,2327.6,115.6,2327.5,115.5,2327.5z M122.3,2322.7h-1.1v-1.6h-1.4v1.6h-0.9v1.1h0.9v3.2c0,1,0.6,1.4,1.8,1.4
		c0.2,0,0.5,0,0.7,0v-1.1h-0.5c-0.5,0-0.6-0.1-0.6-0.5v-3h1.1V2322.7z M124.6,2322.1v-1.3h-1.4v1.3H124.6z M124.6,2328.4v-5.7h-1.4
		v5.7H124.6z M128.4,2328.5c1.5,0.1,2.8-1.1,2.9-2.6c0-0.1,0-0.2,0-0.4c0.1-1.5-1-2.8-2.5-3c-0.1,0-0.2,0-0.4,0
		c-1.5-0.1-2.8,1.1-2.9,2.6c0,0.1,0,0.2,0,0.3c-0.1,1.5,1,2.8,2.5,3C128.2,2328.5,128.3,2328.5,128.4,2328.5z M128.4,2327.4
		c-0.9,0-1.5-0.6-1.5-1.8c0-1.2,0.6-1.8,1.5-1.8c0.9,0,1.5,0.6,1.5,1.8C129.9,2326.8,129.3,2327.4,128.4,2327.4z M135.4,2322.6
		c-0.7,0-1.4,0.3-1.8,0.9v-0.8h-1.3v5.7h1.4v-3.2c-0.1-0.7,0.4-1.3,1.1-1.4c0,0,0.1,0,0.1,0c0.5-0.1,1,0.3,1.1,0.8
		c0,0.1,0,0.2,0,0.3v3.5h1.4v-3.8c0.1-1-0.6-1.9-1.6-2C135.7,2322.6,135.5,2322.6,135.4,2322.6L135.4,2322.6z"/>
	<g id="パス_11386" transform="translate(41.693 2199.853)">
		<path class="st2" d="M34.9,69.2c-4.6,0-9.1-0.9-13.4-2.7c-4.1-1.7-7.8-4.2-10.9-7.4C7.4,56,4.9,52.3,3.2,48.2
			C1.4,44,0.5,39.5,0.5,34.9s0.9-9.1,2.7-13.4c1.7-4.1,4.2-7.8,7.4-10.9c3.2-3.2,6.8-5.6,10.9-7.4c4.2-1.8,8.7-2.7,13.4-2.7
			S44,1.4,48.2,3.2c4.1,1.7,7.8,4.2,10.9,7.4c3.2,3.2,5.6,6.8,7.4,10.9c1.8,4.2,2.7,8.7,2.7,13.4s-0.9,9.1-2.7,13.4
			c-1.7,4.1-4.2,7.8-7.4,10.9c-3.2,3.2-6.8,5.6-10.9,7.4C44,68.3,39.5,69.2,34.9,69.2z"/>
		<path class="st3" d="M34.9,1c-4.6,0-9,0.9-13.2,2.7c-4,1.7-7.7,4.1-10.8,7.3s-5.6,6.7-7.3,10.8C1.9,25.9,1,30.3,1,34.9
			s0.9,9,2.7,13.2c1.7,4,4.1,7.7,7.3,10.8s6.7,5.6,10.8,7.3c4.2,1.8,8.6,2.7,13.2,2.7s9-0.9,13.2-2.7c4-1.7,7.7-4.1,10.8-7.3
			s5.6-6.7,7.3-10.8c1.8-4.2,2.7-8.6,2.7-13.2s-0.9-9-2.7-13.2c-1.7-4-4.1-7.7-7.3-10.8S52.1,5.4,48,3.7C43.9,1.9,39.4,1,34.9,1
			 M34.9,0c19.3,0,34.9,15.6,34.9,34.9S54.1,69.7,34.9,69.7S0,54.1,0,34.9S15.6,0,34.9,0z"/>
	</g>
	<path id="パス_13038" class="st4" d="M53.3,2237.4c2,0,3.2-0.9,3.2-2.4c0-1.2-0.7-2-2.6-2.3l-0.7-0.1c-1.2-0.2-1.5-0.5-1.5-1.2
		c0-0.6,0.5-1,1.4-1c1.2,0,1.7,0.5,1.7,1.3h1.4c-0.1-1.5-1-2.5-3.2-2.5c-1.9,0-2.9,0.9-2.9,2.2c0,1.4,1,2.1,2.5,2.4l0.7,0.1
		c1.2,0.2,1.6,0.5,1.6,1.1c0,0.7-0.6,1.1-1.6,1.1c-1,0-1.9-0.3-1.9-1.6h-1.5C49.9,2236.5,51.2,2237.4,53.3,2237.4z M60.2,2231.6H59
		v-1.6h-1.4v1.6h-0.9v1.1h0.9v3.2c0,1,0.6,1.4,1.8,1.4c0.2,0,0.5,0,0.7,0v-1.1h-0.5c-0.5,0-0.6-0.1-0.6-0.5v-3h1.1V2231.6z
		 M64.1,2231.5c-0.7,0-1.4,0.4-1.7,1.1v-1h-1.3v5.7h1.4v-2.9c-0.1-0.8,0.5-1.5,1.3-1.6c0.1,0,0.2,0,0.4,0h0.4v-1.3
		C64.4,2231.5,64.2,2231.5,64.1,2231.5z M70.1,2237.2c-0.2-0.3-0.2-0.7-0.2-1.1v-3c0-1-0.7-1.7-2.4-1.7c-1.8,0-2.5,0.7-2.6,1.9h1.4
		c0.1-0.7,0.4-0.9,1.2-0.9s1,0.3,1,0.7c0,0.4-0.3,0.6-0.8,0.6l-0.9,0.1c-1.6,0.2-2.2,0.8-2.2,1.8c0,1.1,0.8,1.7,2,1.7
		c0.7,0,1.4-0.3,1.8-0.8c0,0.2,0.1,0.5,0.2,0.7H70.1z M67.1,2236.4c-0.6,0-1-0.3-1-0.8c0-0.5,0.3-0.7,1-0.8l0.7-0.1
		c0.2,0,0.5-0.1,0.6-0.2v0.5c0,0.7-0.5,1.4-1.3,1.4C67.2,2236.4,67.1,2236.4,67.1,2236.4z M73.8,2231.6h-1.1v-1.6h-1.4v1.6h-0.9v1.1
		h0.9v3.2c0,1,0.6,1.4,1.8,1.4c0.2,0,0.5,0,0.7,0v-1.1h-0.5c-0.5,0-0.6-0.1-0.6-0.5v-3h1.1L73.8,2231.6z M77.2,2237.4
		c1.2,0.1,2.3-0.7,2.6-1.9h-1.3c-0.2,0.5-0.7,0.9-1.3,0.8c-0.8,0-1.4-0.6-1.5-1.4c0,0,0-0.1,0-0.1H80v-0.3c0.2-1.5-0.9-2.9-2.5-3.1
		c-0.1,0-0.2,0-0.3,0c-1.5,0-2.8,1.1-2.8,2.7c0,0.1,0,0.2,0,0.3c-0.1,1.5,1,2.8,2.5,3C77,2237.4,77.1,2237.4,77.2,2237.4z
		 M75.8,2233.9c0-0.8,0.6-1.4,1.4-1.4c0,0,0,0,0,0c0.8,0,1.4,0.6,1.4,1.4H75.8z M85.1,2232.4c-0.4-0.6-1.1-0.9-1.8-0.9
		c-1.6,0-2.6,1.2-2.6,2.9c-0.2,1.4,0.9,2.7,2.3,2.9c0.1,0,0.2,0,0.3,0c0.7,0,1.3-0.3,1.7-0.8v0.7c0.1,0.7-0.4,1.3-1.1,1.4
		c-0.1,0-0.2,0-0.3,0c-0.8,0-1.2-0.3-1.3-0.9H81c0.1,1.2,1,2,2.6,2c1.8,0,2.8-1,2.8-2.5v-5.5h-1.3V2232.4z M83.6,2236.1
		c-0.9,0-1.5-0.6-1.5-1.7c0-1.1,0.6-1.8,1.5-1.8s1.5,0.6,1.5,1.7S84.5,2236.1,83.6,2236.1z M89,2230.9v-1.3h-1.4v1.3H89z M89,2237.2
		v-5.7h-1.4v5.7H89z M92.8,2237.4c1.2,0.1,2.3-0.7,2.6-1.9h-1.3c-0.2,0.5-0.7,0.9-1.3,0.8c-0.8,0-1.4-0.6-1.5-1.4c0,0,0-0.1,0-0.1
		h4.2v-0.3c0.2-1.5-0.9-2.9-2.5-3.1c-0.1,0-0.2,0-0.3,0c-1.5,0-2.8,1.1-2.8,2.7c0,0.1,0,0.2,0,0.3c-0.1,1.5,1,2.8,2.5,3
		C92.6,2237.4,92.7,2237.4,92.8,2237.4z M91.4,2233.9c0-0.8,0.6-1.4,1.4-1.4c0,0,0,0,0,0c0.8,0,1.4,0.6,1.4,1.4H91.4z M98.8,2237.4
		c1.6,0,2.5-0.6,2.5-1.8c0-1-0.6-1.5-2-1.7l-0.7-0.1c-0.6-0.1-0.9-0.3-0.9-0.7s0.3-0.7,1-0.7c0.7,0,1.2,0.2,1.2,0.9h1.3
		c0-1.2-0.8-1.9-2.5-1.9c-1.5,0-2.4,0.6-2.4,1.7c0,1,0.6,1.5,1.9,1.7l0.6,0.1c0.9,0.1,1.1,0.3,1.1,0.7c0,0.4-0.3,0.7-1.1,0.7
		c-0.8,0-1.2-0.3-1.3-1h-1.4C96.3,2236.8,97.2,2237.4,98.8,2237.4z"/>
	<g id="パス_13039" transform="translate(139.779 2213.304) rotate(93)">
		<path class="st2" d="M6.4,6.7H0.8l2.8-5.6L6.4,6.7z"/>
		<path class="st3" d="M3.6,2.2l-2,4l4,0L3.6,2.2 M3.6,0l3.6,7.2L0,7.2L3.6,0z"/>
	</g>
	<g id="パス_13040" transform="matrix(-0.588, 0.809, -0.809, -0.588, 255.484, 2246.125)">
		<path class="st2" d="M6.4,6.7H0.8l2.8-5.6L6.4,6.7z"/>
		<path class="st3" d="M3.6,2.2l-2,4h4L3.6,2.2 M3.6,0l3.6,7.2H0L3.6,0z"/>
	</g>
	<path id="パス_1758" class="st5" d="M161.7,2283.6l-3-5.1h-4v5.1h-3v-13.7h6.7c3.8,0,5.7,1.4,5.7,4.3c0,0.8-0.2,1.6-0.6,2.3
		c-0.5,0.7-1.2,1.2-2,1.4l3.5,5.7L161.7,2283.6z M158.3,2276.1c0.8,0.1,1.5-0.1,2.2-0.5c0.5-0.3,0.8-0.9,0.7-1.5
		c0.1-0.6-0.2-1.1-0.7-1.5c-0.7-0.3-1.5-0.5-2.2-0.4h-3.6v3.9H158.3z"/>
	<path id="パス_1759" class="st5" d="M167.4,2279.3c0,0.5,0.1,0.9,0.4,1.3c0.3,0.4,0.7,0.7,1.1,0.9c0.5,0.2,1.1,0.3,1.6,0.3
		c1.5,0,2.4-0.5,2.8-1.4h2.7c-0.2,1.1-0.8,2-1.8,2.6c-1.2,0.6-2.5,0.9-3.8,0.8c-1.5,0.1-3-0.4-4.2-1.4c-1-1-1.6-2.4-1.5-3.8
		c0-1,0.2-2,0.7-2.8c0.5-0.8,1.2-1.5,2-1.9c1-0.5,2-0.7,3.1-0.7c1.5-0.1,3,0.4,4.2,1.4c1,1,1.6,2.4,1.5,3.8v0.9L167.4,2279.3z
		 M173.4,2277.5c0-0.6-0.3-1.3-0.8-1.6c-0.6-0.4-1.4-0.6-2.2-0.6c-0.7,0-1.4,0.2-2,0.6c-0.5,0.4-0.9,1-0.9,1.6L173.4,2277.5z"/>
	<path id="パス_1760" class="st5" d="M191.9,2283.6v-6c0.1-0.6-0.1-1.1-0.5-1.6c-0.4-0.4-0.9-0.5-1.4-0.5c-0.7,0-1.5,0.3-2,0.8
		c-0.2,0.2-0.4,0.4-0.5,0.7c-0.1,0.3-0.2,0.6-0.2,0.9v5.7h-2.9v-6c0-0.6-0.1-1.1-0.5-1.6c-0.4-0.4-0.9-0.5-1.4-0.5
		c-0.8,0-1.5,0.3-2,0.9c-0.5,0.5-0.7,1.1-0.7,1.7v5.4h-2.9v-10h2.8v1.6c0.9-1.2,2.3-1.9,3.8-1.9c0.7,0,1.5,0.2,2.1,0.5
		c0.6,0.3,1,0.9,1.3,1.5c0.5-0.6,1.1-1.1,1.8-1.5c0.7-0.3,1.5-0.5,2.3-0.5c1-0.1,2,0.3,2.7,1c0.7,0.8,1,1.8,1,2.8v6.5H191.9z"/>
	<path id="パス_1761" class="st5" d="M203.7,2283.6v-1.4c-0.5,0.5-1.2,1-1.9,1.2c-0.7,0.3-1.5,0.4-2.3,0.4c-1.1,0.1-2.1-0.2-3-0.8
		c-1.2-1-1.4-2.9-0.4-4.1c0.2-0.2,0.4-0.5,0.7-0.6c1.4-0.6,2.9-0.9,4.4-0.9l2.5-0.1v-0.4c0-0.5-0.2-1-0.6-1.3
		c-0.5-0.3-1.1-0.5-1.7-0.5c-1.4,0-2.3,0.4-2.6,1.2l-2.6-0.2c0.2-1,0.8-1.8,1.6-2.2c1.1-0.5,2.4-0.8,3.7-0.7c3.3,0,5,1.3,5,4v6.4
		H203.7z M203.6,2279.1l-2.4,0.1c-0.8,0-1.6,0.1-2.3,0.4c-0.4,0.2-0.7,0.6-0.7,1.1c0,0.4,0.2,0.7,0.5,0.9c0.5,0.2,1,0.4,1.5,0.3
		c0.5,0,1-0.1,1.5-0.2c0.4-0.1,0.8-0.3,1.1-0.6c0.5-0.3,0.7-0.9,0.7-1.5L203.6,2279.1z"/>
	<path id="パス_1762" class="st5" d="M207.7,2272.2v-2.5h2.9v2.5H207.7z M207.7,2283.6v-10h2.9v10H207.7z"/>
	<path id="パス_1763" class="st5" d="M220.1,2283.6v-5.9c0.1-0.6-0.1-1.2-0.5-1.6c-0.5-0.4-1.1-0.6-1.7-0.5
		c-0.4,0-0.8,0.1-1.2,0.2c-0.4,0.1-0.7,0.4-1,0.7c-0.5,0.4-0.8,1.1-0.8,1.7v5.5H212v-10h2.8v1.6c1-1.2,2.5-2,4.1-1.9
		c1.1-0.1,2.2,0.3,3,1c0.7,0.8,1.1,1.8,1,2.8v6.5H220.1z"/>
	<path id="パス_1764" class="st5" d="M227,2272.2v-2.5h2.9v2.5H227z M227.1,2283.6v-10h2.9v10H227.1z"/>
	<path id="パス_1765" class="st5" d="M239.5,2283.6v-5.9c0.1-0.6-0.1-1.2-0.5-1.6c-0.5-0.4-1.1-0.6-1.7-0.5
		c-0.4,0-0.8,0.1-1.2,0.2c-0.4,0.1-0.7,0.4-1,0.7c-0.5,0.4-0.8,1.1-0.8,1.7v5.5h-2.9v-10h2.8v1.6c1-1.3,2.5-2,4.1-1.9
		c1.1-0.1,2.2,0.3,3,1c0.7,0.8,1.1,1.8,1,2.8v6.5H239.5z"/>
	
		<linearGradient id="パス_1766_00000037653706365105811900000013214834196361900985_" gradientUnits="userSpaceOnUse" x1="-350.8482" y1="3446.4087" x2="-350.8482" y2="3447.4087" gradientTransform="matrix(12.373 0 0 -13.836 4477.1328 49964.6758)">
		<stop  offset="0" style="stop-color:#2E3287"/>
		<stop  offset="1" style="stop-color:#9C448E"/>
	</linearGradient>
	<path id="パス_1766" style="fill:url(#パス_1766_00000037653706365105811900000013214834196361900985_);" d="M129.9,2269.8
		l6.2-3.4l6.2,3.4v10.4h-6.2v-6.9L129.9,2269.8z"/>
	
		<linearGradient id="パス_1767_00000182529714347942725800000002375246038771299217_" gradientUnits="userSpaceOnUse" x1="-350.3403" y1="3447.0344" x2="-351.3403" y2="3447.0344" gradientTransform="matrix(12.37 0 0 -13.858 4475.9805 50052.6367)">
		<stop  offset="0" style="stop-color:#FBC91C"/>
		<stop  offset="1" style="stop-color:#D54054"/>
	</linearGradient>
	<path id="パス_1767" style="fill:url(#パス_1767_00000182529714347942725800000002375246038771299217_);" d="M129.9,2290.6
		l12.4-6.9v-6.9l-12.4,6.9L129.9,2290.6z"/>
	
		<linearGradient id="パス_1768_00000084491103664305329250000013750128789585650597_" gradientUnits="userSpaceOnUse" x1="-350.8403" y1="3447.4087" x2="-350.8403" y2="3446.4087" gradientTransform="matrix(12.37 0 0 -13.836 4463.6108 49971.5781)">
		<stop  offset="0" style="stop-color:#2E3287"/>
		<stop  offset="1" style="stop-color:#9C448E"/>
	</linearGradient>
	<path id="パス_1768" style="fill:url(#パス_1768_00000084491103664305329250000013750128789585650597_);" d="M129.9,2283.6
		l-6.2,3.4l-6.2-3.4v-10.4h6.2v6.9L129.9,2283.6z"/>
	
		<linearGradient id="パス_1769_00000018923344220099477620000007248108382254869694_" gradientUnits="userSpaceOnUse" x1="-351.3403" y1="3447.0374" x2="-350.3404" y2="3447.0312" gradientTransform="matrix(12.37 0 0 -13.858 4463.6108 50038.7734)">
		<stop  offset="0" style="stop-color:#FBC91C"/>
		<stop  offset="1" style="stop-color:#D54054"/>
	</linearGradient>
	<path id="パス_1769" style="fill:url(#パス_1769_00000018923344220099477620000007248108382254869694_);" d="M129.9,2262.8
		l-12.4,6.9v6.9l12.4-6.9L129.9,2262.8z"/>
	<g id="パス_13041" transform="translate(289.754 2348.465) rotate(-120)">
		<path class="st2" d="M6.4,6.7l-5.6,0l2.8-5.6L6.4,6.7z"/>
		<path class="st3" d="M3.6,2.2l-2,4l4,0L3.6,2.2 M3.6,0l3.6,7.2L0,7.2L3.6,0z"/>
	</g>
	<g id="パス_13042" transform="translate(169.461 2348.133) rotate(-83)">
		<path class="st2" d="M6.4,6.7l-5.6,0l2.8-5.6L6.4,6.7z"/>
		<path class="st3" d="M3.6,2.2l-2,4l4,0L3.6,2.2 M3.6,0l3.6,7.2L0,7.2L3.6,0z"/>
	</g>
	<g id="パス_13043" transform="matrix(0.839, -0.545, 0.545, 0.839, 58.969, 2285.255)">
		<path class="st2" d="M6.4,6.7l-5.6,0l2.8-5.6L6.4,6.7z"/>
		<path class="st3" d="M3.6,2.2l-2,4l4,0L3.6,2.2 M3.6,0l3.6,7.2L0,7.2L3.6,0z"/>
	</g>
	<path id="パス_13045" class="st4" d="M176.4,2219.7v1.3h2.5v6.5h1.5v-6.5h2.5v-1.3H176.4z M187.6,2227.6
		c-0.2-0.3-0.2-0.7-0.2-1.1v-3c0-1-0.7-1.7-2.4-1.7c-1.8,0-2.5,0.7-2.6,1.9h1.4c0.1-0.7,0.4-0.9,1.2-0.9c0.8,0,1,0.3,1,0.7
		c0,0.4-0.3,0.6-0.8,0.6l-0.9,0.1c-1.6,0.2-2.2,0.8-2.2,1.8c0,1.1,0.8,1.7,2,1.7c0.7,0,1.4-0.3,1.8-0.8c0,0.2,0.1,0.5,0.2,0.7H187.6
		z M184.6,2226.7c-0.6,0-1-0.3-1-0.8c0-0.5,0.3-0.7,1-0.8l0.7-0.1c0.2,0,0.5-0.1,0.6-0.2v0.5c0,0.7-0.5,1.4-1.3,1.4
		C184.7,2226.7,184.6,2226.7,184.6,2226.7z M191,2227.7c1.4,0.1,2.5-0.9,2.7-2.2h-1.4c-0.1,0.6-0.6,1.1-1.3,1.1
		c-0.8,0-1.4-0.6-1.4-1.8c0-1.2,0.6-1.8,1.4-1.8c0.6,0,1.2,0.4,1.3,1h1.4c-0.1-1.3-1.3-2.3-2.6-2.2c-1.5-0.1-2.8,1.1-2.8,2.6
		c0,0.1,0,0.2,0,0.4c-0.1,1.5,1,2.8,2.4,3C190.8,2227.7,190.9,2227.7,191,2227.7L191,2227.7z M197.4,2221.9h-1.1v-1.6h-1.4v1.6H194
		v1.1h0.9v3.2c0,1,0.6,1.4,1.8,1.4c0.2,0,0.5,0,0.7,0v-1.1h-0.5c-0.5,0-0.6-0.1-0.6-0.5v-3h1.1V2221.9z M199.7,2221.2v-1.3h-1.4v1.3
		H199.7z M199.7,2227.6v-5.7h-1.4v5.7H199.7z M203.5,2227.7c1.4,0.1,2.5-0.9,2.7-2.2h-1.4c-0.1,0.6-0.6,1.1-1.3,1.1
		c-0.8,0-1.4-0.6-1.4-1.8c0-1.2,0.6-1.8,1.4-1.8c0.6,0,1.2,0.4,1.3,1h1.4c-0.1-1.3-1.3-2.3-2.6-2.2c-1.5-0.1-2.8,1.1-2.8,2.6
		c0,0.1,0,0.2,0,0.4c-0.1,1.5,1,2.8,2.4,3C203.2,2227.7,203.4,2227.7,203.5,2227.7z M209.2,2227.7c1.6,0,2.5-0.6,2.5-1.8
		c0-1-0.6-1.5-2-1.7l-0.7-0.1c-0.6-0.1-0.9-0.3-0.9-0.7s0.3-0.7,1-0.7c0.7,0,1.2,0.2,1.2,0.9h1.3c0-1.2-0.8-1.9-2.5-1.9
		c-1.5,0-2.4,0.6-2.4,1.7c0,1,0.6,1.5,1.9,1.7l0.6,0.1c0.9,0.1,1.1,0.3,1.1,0.7c0,0.4-0.3,0.7-1.1,0.7c-0.8,0-1.2-0.3-1.3-1h-1.4
		C206.7,2227.1,207.6,2227.7,209.2,2227.7L209.2,2227.7z"/>
</g>
</svg>
