<?xml version="1.0" encoding="utf-8"?>
<!-- Generator: Adobe Illustrator 27.1.1, SVG Export Plug-In . SVG Version: 6.00 Build 0)  -->
<svg version="1.1" id="レイヤー_1" xmlns="http://www.w3.org/2000/svg" xmlns:xlink="http://www.w3.org/1999/xlink" x="0px"
	 y="0px" viewBox="0 0 1121 653.8" style="enable-background:new 0 0 1121 653.8;" xml:space="preserve">
<style type="text/css">
	.st0{fill:#FFFFFF;}
	.st1{fill:#E98268;}
	.st2{fill:none;stroke:#E97E64;stroke-width:2;stroke-linecap:round;stroke-dasharray:5;}
	.st3{fill:#E97E64;}
	.st4{fill:#E45E3E;}
	.st5{fill:#D9DCE3;}
	.st6{fill:none;stroke:#D9DCE3;stroke-width:2;stroke-linecap:round;stroke-dasharray:5;}
	.st7{fill:#9A9A9A;}
	.st8{fill:#868686;}
</style>
<g id="グループ_13756" transform="translate(-160 -1777)">
	<g id="パス_12964" transform="translate(160 1837)">
		<path class="st0" d="M540,518H1V1h539V518z"/>
		<path class="st1" d="M2,2v515h537V2H2 M0,0h541v519H0V0z"/>
	</g>
	<path id="パス_12979" class="st0" d="M312,1777h259v71H312V1777z"/>
	<path id="パス_12974" class="st2" d="M264.5,1960.1h397.7"/>
	<path id="パス_12975" class="st3" d="M272,1892h44c4.4,0,8,3.6,8,8v122c0,4.4-3.6,8-8,8h-44c-4.4,0-8-3.6-8-8v-122
		C264,1895.6,267.6,1892,272,1892z"/>
	<path id="パス_12977" class="st3" d="M358,1892h44c4.4,0,8,3.6,8,8v122c0,4.4-3.6,8-8,8h-44c-4.4,0-8-3.6-8-8v-122
		C350,1895.6,353.6,1892,358,1892z"/>
	<path id="パス_12971" class="st2" d="M264.5,2097.8h397.7"/>
	<path id="パス_12972" class="st3" d="M444,2031h44c4.4,0,8,3.6,8,8v122c0,4.4-3.6,8-8,8h-44c-4.4,0-8-3.6-8-8v-122
		C436,2034.6,439.6,2031,444,2031z"/>
	<path id="パス_12965" class="st2" d="M264.5,2240h397.7"/>
	<path id="パス_12966" class="st3" d="M530,2171.5h44c4.4,0,8,3.6,8,8v122c0,4.4-3.6,8-8,8h-44c-4.4,0-8-3.6-8-8v-122
		C522,2175.1,525.6,2171.5,530,2171.5z"/>
	<path id="パス_12968" class="st3" d="M616,2171h44c4.4,0,8,3.6,8,8v122c0,4.4-3.6,8-8,8h-44c-4.4,0-8-3.6-8-8v-122
		C608,2174.6,611.6,2171,616,2171z"/>
	<path id="パス_12980" class="st3" d="M360.2,1823v6.2h5.5c0.8,0,1.7-0.1,2.4-0.4c1-0.5,1.6-1.5,1.4-2.6c0.1-1.1-0.4-2.2-1.4-2.8
		c-0.7-0.3-1.5-0.5-2.3-0.4L360.2,1823z M366.8,1819c1.3,0,2.5,0.2,3.7,0.6c0.9,0.4,1.6,0.9,2.2,1.6c0.5,0.6,0.9,1.2,1.2,1.9
		c0.3,0.8,0.5,1.6,0.4,2.4c0,1.1-0.3,2.2-0.8,3.2c-0.6,1.1-1.6,1.9-2.7,2.2c0.9,0.3,1.7,1,2.3,1.8c0.5,1.1,0.7,2.4,0.7,3.6v1.5
		c0,0.7,0,1.4,0.1,2.1c0.1,0.5,0.4,1,0.9,1.3v0.6h-5.3c-0.1-0.5-0.2-0.9-0.3-1.2c-0.1-0.7-0.2-1.3-0.2-2v-2.1c0.1-1-0.2-2.1-0.8-2.9
		c-0.8-0.6-1.9-0.8-2.9-0.7h-5v9h-4.7v-23L366.8,1819L366.8,1819z M386.5,1828.2c-0.9-0.1-1.8,0.3-2.4,1s-1,1.7-1.1,2.6h6.9
		c0-1-0.4-2-1.1-2.7C388.2,1828.5,387.4,1828.2,386.5,1828.2z M386.5,1824.5c1.3,0,2.6,0.3,3.8,0.8c1.2,0.6,2.1,1.4,2.8,2.5
		c0.7,1.1,1.1,2.3,1.3,3.5c0.1,1.1,0.2,2.2,0.1,3.4h-11.7c-0.1,1.4,0.5,2.7,1.6,3.6c0.7,0.4,1.4,0.7,2.2,0.6c0.8,0,1.6-0.2,2.2-0.8
		c0.4-0.3,0.6-0.7,0.8-1.2h4.5c-0.2,1.2-0.7,2.2-1.6,3.1c-1.6,1.7-3.8,2.6-6.1,2.5c-2.1,0-4.1-0.7-5.7-2.1c-1.7-1.4-2.5-3.7-2.5-6.8
		c0-2.9,0.7-5.2,2.2-6.8C382.2,1825.3,384.3,1824.4,386.5,1824.5z M400.7,1825.6h4.7v4.7h-4.7V1825.6z M400.7,1837.3h4.7v4.7h-4.7
		V1837.3z M418.1,1833.3h5.8l-2.9-9.1L418.1,1833.3z M418.4,1819h5.4l8.1,23h-5.2l-1.5-4.7h-8.5l-1.6,4.7h-5L418.4,1819z
		 M443.5,1838.3c1,0,2-0.4,2.6-1.2c0.8-1.1,1.2-2.4,1.1-3.8c0.1-1.3-0.3-2.6-1-3.7c-0.7-0.8-1.7-1.3-2.7-1.3
		c-1.4-0.1-2.8,0.8-3.2,2.2c-0.3,0.9-0.5,1.9-0.5,2.9c0,0.9,0.2,1.8,0.5,2.6C440.7,1837.5,442,1838.4,443.5,1838.3z M442.4,1824.6
		c0.8,0,1.5,0.1,2.2,0.4c1.1,0.5,2.1,1.4,2.6,2.5v-2.5h4.3v16.2c0.1,1.7-0.3,3.5-1.1,5c-1.3,1.9-3.7,2.9-7.3,2.9
		c-1.9,0.1-3.7-0.4-5.3-1.3c-1.4-0.8-2.2-2.3-2.3-3.8h4.8c0.1,0.4,0.3,0.8,0.6,1.1c0.7,0.5,1.6,0.7,2.4,0.6c1.3,0.2,2.6-0.5,3.2-1.6
		c0.4-1.1,0.6-2.3,0.5-3.5v-1.1c-0.3,0.6-0.8,1.2-1.4,1.6c-1,0.7-2.2,1.1-3.5,1c-2,0.1-3.9-0.8-5.2-2.3c-1.4-1.8-2.1-4-2-6.2
		c-0.1-2.3,0.6-4.5,1.9-6.4C438.2,1825.4,440.2,1824.5,442.4,1824.6z M464,1828.2c-0.9-0.1-1.8,0.3-2.4,1s-1,1.7-1.1,2.6h6.9
		c0-1-0.4-2-1.1-2.7C465.8,1828.5,464.9,1828.2,464,1828.2L464,1828.2z M464,1824.5c1.3,0,2.6,0.3,3.8,0.8c1.2,0.6,2.1,1.4,2.8,2.5
		c0.7,1.1,1.1,2.3,1.3,3.5c0.1,1.1,0.2,2.2,0.1,3.4h-11.7c-0.1,1.4,0.5,2.7,1.6,3.6c0.7,0.4,1.4,0.7,2.2,0.6c0.8,0,1.6-0.2,2.2-0.8
		c0.4-0.3,0.6-0.7,0.8-1.2h4.5c-0.2,1.2-0.7,2.2-1.6,3.1c-1.6,1.7-3.8,2.6-6.1,2.5c-2.1,0-4.1-0.7-5.7-2.1c-1.7-1.4-2.5-3.7-2.5-6.8
		c0-2.9,0.7-5.2,2.2-6.8C459.7,1825.3,461.8,1824.4,464,1824.5L464,1824.5z M486.1,1824.6c1.6-0.1,3.1,0.4,4.3,1.4
		c1.1,0.9,1.7,2.5,1.7,4.6v11.5h-4.6v-10.4c0-0.7-0.1-1.4-0.4-2.1c-0.5-0.9-1.5-1.4-2.5-1.3c-1.3-0.1-2.6,0.7-3.1,1.9
		c-0.3,0.8-0.5,1.7-0.4,2.6v9.2h-4.4v-17h4.3v2.5c0.4-0.7,1-1.4,1.6-1.9C483.7,1824.9,484.9,1824.5,486.1,1824.6z M508,1831.1
		c-0.1-0.6-0.3-1.2-0.6-1.7c-0.6-0.7-1.4-1.1-2.3-1c-1.4-0.1-2.7,0.9-3.1,2.2c-0.3,1-0.5,2.1-0.4,3.2c0,1,0.1,2,0.4,3
		c0.4,1.3,1.6,2.2,3,2.1c0.8,0.1,1.7-0.2,2.2-0.8c0.5-0.6,0.7-1.4,0.8-2.2h4.5c-0.1,1.4-0.6,2.7-1.5,3.8c-1.4,2-3.8,3.1-6.2,2.9
		c-2.7,0-4.8-0.8-6-2.4c-1.4-1.8-2-4.1-1.9-6.3c-0.2-2.5,0.6-4.9,2.1-6.8c1.5-1.7,3.7-2.6,5.9-2.4c1.9-0.1,3.7,0.4,5.2,1.4
		c1.4,1,2.2,2.7,2.4,5.1L508,1831.1z M517.9,1845.3h0.6c0.4,0,0.8,0,1.2,0s0.7-0.2,1-0.4c0.3-0.3,0.6-0.7,0.7-1.1
		c0.2-0.3,0.3-0.7,0.3-1l-6.2-17.8h5l3.7,12.6l3.5-12.6h4.7l-5.8,16.7c-1.1,3.2-2,5.2-2.7,6s-2,1.2-3.9,1.2c-0.4,0-0.7,0-1,0
		c-0.2,0-0.6,0-1.1-0.1V1845.3z"/>
	<path id="パス_12970" class="st4" d="M432.5,2383l-27.5-20h55L432.5,2383z"/>
	<g id="グループ_12510" transform="translate(23 37)">
		<g id="グループ_12503" transform="translate(183.443 1897.636)">
			<circle id="楕円形_11449" class="st4" cx="15.6" cy="11.4" r="11"/>
			<path id="パス_11414" class="st4" d="M15.6,23c8.6,0,15.6,6,15.6,13.4S0,43.9,0,36.4S7,23,15.6,23z"/>
		</g>
	</g>
	<g id="グループ_12511" transform="translate(23 37)">
		<g id="グループ_12504" transform="translate(183.443 2041.789)">
			<circle id="楕円形_11449-2" class="st4" cx="15.6" cy="11.2" r="11"/>
			<path id="パス_11414-2" class="st4" d="M15.6,23c8.6,0,15.6,6,15.6,13.4S0,43.9,0,36.4S7,23,15.6,23z"/>
		</g>
	</g>
	<g id="グループ_12512" transform="translate(23 37)">
		<g id="グループ_12505" transform="translate(183.443 2184)">
			<circle id="楕円形_11449-3" class="st4" cx="15.6" cy="11" r="11"/>
			<path id="パス_11414-3" class="st4" d="M15.6,23c8.6,0,15.6,6,15.6,13.4S0,43.9,0,36.4S7,23,15.6,23z"/>
		</g>
	</g>
	<g id="パス_12947" transform="translate(740 1837)">
		<path class="st0" d="M540,518H1V1h539V518z"/>
		<path class="st5" d="M2,2v515h537V2H2 M0,0h541v519H0V0z"/>
	</g>
	<path id="パス_12948" class="st0" d="M863.3,1802h321v71h-321V1802z"/>
	<path id="パス_12950" class="st6" d="M863.3,2097.8H1261"/>
	<path id="パス_12951" class="st5" d="M865,2037h44c4.4,0,8,3.6,8,8v122c0,4.4-3.6,8-8,8h-44c-4.4,0-8-3.6-8-8v-122
		C857,2040.6,860.6,2037,865,2037z"/>
	<path id="パス_12953" class="st5" d="M951,2037h44c4.4,0,8,3.6,8,8v122c0,4.4-3.6,8-8,8h-44c-4.4,0-8-3.6-8-8v-122
		C943,2040.6,946.6,2037,951,2037z"/>
	<path id="パス_12955" class="st5" d="M1037,2037h44c4.4,0,8,3.6,8,8v122c0,4.4-3.6,8-8,8h-44c-4.4,0-8-3.6-8-8v-122
		C1029,2040.6,1032.6,2037,1037,2037z"/>
	<path id="パス_12957" class="st5" d="M1123,2037h44c4.4,0,8,3.6,8,8v122c0,4.4-3.6,8-8,8h-44c-4.4,0-8-3.6-8-8v-122
		C1115,2040.6,1118.6,2037,1123,2037z"/>
	<path id="パス_12959" class="st5" d="M1209,2037h44c4.4,0,8,3.6,8,8v122c0,4.4-3.6,8-8,8h-44c-4.4,0-8-3.6-8-8v-122
		C1201,2040.6,1204.6,2037,1209,2037z"/>
	<path id="パス_12961" class="st7" d="M1012.5,2383l-27.5-20h55L1012.5,2383z"/>
	<path id="パス_12963" class="st8" d="M807,2073.9c6.1,0,11,4.9,11,11s-4.9,11-11,11s-11-4.9-11-11S800.9,2073.9,807,2073.9z"/>
	<path id="パス_11414-4" class="st8" d="M807,2096.7c8.6,0,15.6,6,15.6,13.4s-31.1,7.4-31.1,0
		C791.4,2102.7,798.4,2096.7,807,2096.7z"/>
</g>
<g>
	<path d="M42.7,214.1c0-2.5,1.5-4,3.7-4c1.7,0,3.1,0.9,3.5,2.8h-1.5c-0.3-1.1-1.1-1.5-2-1.5c-1.4,0-2.2,1-2.2,2.7s0.8,2.7,2.2,2.7
		c1,0,1.9-0.6,2-1.8h1.4c-0.2,2-1.7,3-3.5,3C44.2,218.1,42.7,216.6,42.7,214.1z"/>
	<path d="M54.3,212.4h1.3v5.5h-1.3v-0.8c-0.4,0.5-0.9,0.9-1.7,0.9c-1.1,0-1.9-0.7-1.9-2v-3.7H52v3.4c0,0.7,0.3,1,1,1
		c0.6,0,1.2-0.4,1.2-1.4L54.3,212.4L54.3,212.4z"/>
	<path d="M60,212.4v1.2h-0.3c-1,0-1.6,0.5-1.6,1.5v2.8h-1.3v-5.5H58v1c0.3-0.6,0.8-1.1,1.6-1.1C59.8,212.3,59.9,212.3,60,212.4z"/>
	<path d="M64,212.4v1.2h-0.3c-1,0-1.6,0.5-1.6,1.5v2.8h-1.3v-5.5H62v1c0.3-0.6,0.8-1.1,1.6-1.1C63.8,212.3,63.9,212.3,64,212.4z"/>
	<path d="M64.3,215.2c0-1.7,1.1-2.9,2.7-2.9c1.7,0,2.7,1.2,2.7,3v0.3h-4.1c0.1,1,0.7,1.4,1.4,1.4c0.6,0,1.1-0.3,1.3-0.8h1.3
		c-0.3,1.1-1.2,1.8-2.6,1.8C65.4,218.1,64.3,217,64.3,215.2z M68.4,214.7c-0.1-0.8-0.6-1.3-1.4-1.3c-0.7,0-1.3,0.4-1.4,1.3H68.4z"/>
	<path d="M75.5,214.3v3.7h-1.3v-3.4c0-0.7-0.4-1-1-1S72,214,72,215v3.1h-1.3v-5.5H72v0.8c0.4-0.5,0.9-0.9,1.7-0.9
		C74.8,212.3,75.5,213,75.5,214.3z"/>
	<path d="M79.3,213.5h-1.1v3c0,0.4,0.2,0.5,0.6,0.5h0.5v1c-0.2,0-0.5,0-0.7,0c-1.2,0-1.7-0.4-1.7-1.4v-3.1H76v-1h0.9v-1.6h1.3v1.6
		h1.1V213.5z"/>
	<path d="M23.7,223.5h-1.1v3c0,0.4,0.2,0.5,0.6,0.5h0.5v1c-0.2,0-0.5,0-0.7,0c-1.2,0-1.7-0.4-1.7-1.4v-3.1h-0.9v-1h0.9v-1.6h1.3v1.6
		h1.1C23.7,222.5,23.7,223.5,23.7,223.5z"/>
	<path d="M27.7,222.4v1.2h-0.3c-1,0-1.6,0.5-1.6,1.5v2.8h-1.3v-5.5h1.3v1c0.3-0.6,0.8-1.1,1.6-1.1C27.5,222.3,27.6,222.3,27.7,222.4
		z"/>
	<path d="M31.8,228c-0.1-0.1-0.1-0.4-0.1-0.7c-0.4,0.5-1,0.8-1.8,0.8c-1.2,0-2-0.6-2-1.7c0-0.9,0.6-1.6,2.1-1.7l0.8-0.1
		c0.5-0.1,0.8-0.2,0.8-0.6c0-0.4-0.2-0.7-1-0.7s-1.1,0.2-1.1,0.9h-1.3c0.1-1.2,0.8-1.9,2.5-1.9c1.6,0,2.3,0.7,2.3,1.7v2.9
		c0,0.4,0.1,0.8,0.2,1h-1.4V228z M31.6,225.8v-0.5c-0.1,0.1-0.3,0.2-0.6,0.2l-0.7,0.1c-0.7,0.1-1,0.4-1,0.8c0,0.5,0.3,0.7,0.9,0.7
		C30.9,227.1,31.6,226.7,31.6,225.8z"/>
	<path d="M37.8,220.3h1.3v7.6h-1.3v-0.8c-0.4,0.6-1,0.9-1.7,0.9c-1.5,0-2.5-1.1-2.5-2.9s1-2.9,2.5-2.9c0.8,0,1.3,0.3,1.7,0.8V220.3z
		 M37.8,225.2c0-1.2-0.5-1.8-1.4-1.8s-1.4,0.7-1.4,1.8s0.5,1.7,1.4,1.7C37.3,227,37.8,226.4,37.8,225.2z"/>
	<path d="M40.3,221.8v-1.3h1.3v1.3H40.3z M40.3,228v-5.5h1.3v5.5H40.3z"/>
	<path d="M47.7,224.3v3.7h-1.3v-3.4c0-0.7-0.4-1-1-1s-1.2,0.4-1.2,1.4v3.1h-1.3v-5.5H44v0.8c0.4-0.5,0.9-0.9,1.7-0.9
		C46.9,222.3,47.7,223,47.7,224.3z"/>
	<path d="M52.8,222.4h1.3v5.3c0,1.5-0.9,2.4-2.7,2.4c-1.6,0-2.4-0.8-2.5-1.9h1.3c0.1,0.6,0.5,0.9,1.2,0.9c0.9,0,1.4-0.5,1.4-1.3
		v-0.7c-0.4,0.5-0.9,0.8-1.7,0.8c-1.5,0-2.5-1.1-2.5-2.8s1-2.8,2.5-2.8c0.8,0,1.4,0.3,1.7,0.9V222.4z M52.8,225.1
		c0-1.1-0.5-1.7-1.4-1.7S50,224,50,225.1c0,1.1,0.5,1.7,1.4,1.7C52.2,226.8,52.8,226.2,52.8,225.1z"/>
	<path d="M57.2,225.2c0-1.8,1.1-2.9,2.7-2.9c1.4,0,2.4,0.8,2.6,2.1h-1.3c-0.1-0.7-0.6-1-1.2-1c-0.8,0-1.3,0.6-1.3,1.8
		s0.6,1.8,1.3,1.8c0.6,0,1.1-0.3,1.2-1.1h1.3c-0.1,1.3-1.2,2.2-2.6,2.2C58.3,228.1,57.2,227,57.2,225.2z"/>
	<path d="M63.1,225.2c0-1.8,1.1-2.9,2.8-2.9c1.7,0,2.8,1.1,2.8,2.9s-1.1,2.9-2.8,2.9C64.2,228.1,63.1,227,63.1,225.2z M67.3,225.2
		c0-1.2-0.6-1.8-1.4-1.8c-0.9,0-1.4,0.6-1.4,1.8s0.6,1.8,1.4,1.8C66.8,227,67.3,226.4,67.3,225.2z"/>
	<path d="M77.8,224.3v3.6h-1.3v-3.4c0-0.7-0.3-1-1-1c-0.6,0-1.1,0.4-1.1,1.4v3H73v-3.4c0-0.7-0.3-1-1-1c-0.6,0-1.1,0.4-1.1,1.4v3
		h-1.3v-5.5h1.3v0.8c0.3-0.5,0.8-0.9,1.6-0.9c0.8,0,1.4,0.4,1.7,1c0.4-0.6,0.9-1,1.7-1C77.1,222.3,77.8,223.1,77.8,224.3z"/>
	<path d="M84.4,225.2c0,1.8-1,2.9-2.5,2.9c-0.8,0-1.3-0.3-1.7-0.8v2.8h-1.3v-7.6h1.3v0.8c0.4-0.6,1-0.9,1.8-0.9
		C83.4,222.3,84.4,223.4,84.4,225.2z M83,225.2c0-1.2-0.5-1.7-1.4-1.7s-1.4,0.6-1.4,1.8s0.5,1.8,1.4,1.8S83,226.3,83,225.2z"/>
	<path d="M88.8,228c-0.1-0.1-0.1-0.4-0.1-0.7c-0.4,0.5-1,0.8-1.8,0.8c-1.2,0-2-0.6-2-1.7c0-0.9,0.6-1.6,2.1-1.7l0.8-0.1
		c0.5-0.1,0.8-0.2,0.8-0.6c0-0.4-0.2-0.7-1-0.7s-1.1,0.2-1.1,0.9h-1.3c0.1-1.2,0.8-1.9,2.5-1.9c1.6,0,2.3,0.7,2.3,1.7v2.9
		c0,0.4,0.1,0.8,0.2,1h-1.4V228z M88.6,225.8v-0.5c-0.1,0.1-0.3,0.2-0.6,0.2l-0.7,0.1c-0.7,0.1-1,0.4-1,0.8c0,0.5,0.3,0.7,0.9,0.7
		C87.9,227.1,88.6,226.7,88.6,225.8z"/>
	<path d="M95.9,224.3v3.7h-1.3v-3.4c0-0.7-0.4-1-1-1s-1.2,0.4-1.2,1.4v3.1h-1.3v-5.5h1.3v0.8c0.4-0.5,0.9-0.9,1.7-0.9
		C95.1,222.3,95.9,223,95.9,224.3z"/>
	<path d="M100.3,222.4h1.4l-2.1,6c-0.4,1.2-1,1.7-2.4,1.7c-0.3,0-0.4,0-0.6,0V229h0.5c0.7,0,0.9-0.4,0.9-0.9c0-0.3-0.1-0.7-0.3-1.1
		l-1.6-4.5h1.5l0.4,1.4c0.3,1,0.6,2,0.9,3.1c0.3-1.1,0.6-2.1,0.9-3.1L100.3,222.4z"/>
	<path d="M37.5,235.2c0-1.7,1.1-2.9,2.7-2.9c1.7,0,2.7,1.2,2.7,3v0.3h-4.1c0.1,1,0.7,1.4,1.4,1.4c0.6,0,1.1-0.3,1.3-0.8h1.3
		c-0.3,1.1-1.2,1.8-2.6,1.8C38.6,238.1,37.5,237,37.5,235.2z M41.6,234.7c-0.1-0.8-0.6-1.3-1.4-1.3c-0.7,0-1.3,0.4-1.4,1.3H41.6z"/>
	<path d="M52,234.3v3.6h-1.3v-3.4c0-0.7-0.3-1-1-1c-0.6,0-1.1,0.4-1.1,1.4v3h-1.3v-3.4c0-0.7-0.3-1-1-1c-0.6,0-1.1,0.4-1.1,1.4v3
		h-1.3v-5.5h1.3v0.8c0.3-0.5,0.8-0.9,1.6-0.9s1.4,0.4,1.7,1c0.4-0.6,0.9-1,1.7-1C51.4,232.3,52,233.1,52,234.3z"/>
	<path d="M58.7,235.2c0,1.8-1,2.9-2.5,2.9c-0.8,0-1.3-0.3-1.7-0.8v2.8h-1.3v-7.6h1.3v0.8c0.4-0.6,1-0.9,1.8-0.9
		C57.7,232.3,58.7,233.4,58.7,235.2z M57.3,235.2c0-1.2-0.5-1.7-1.4-1.7s-1.4,0.6-1.4,1.8s0.5,1.8,1.4,1.8S57.3,236.3,57.3,235.2z"
		/>
	<path d="M59.5,238v-7.6h1.3v7.6H59.5z"/>
	<path d="M61.7,235.2c0-1.8,1.1-2.9,2.8-2.9c1.7,0,2.8,1.1,2.8,2.9s-1.1,2.9-2.8,2.9C62.8,238.1,61.7,237,61.7,235.2z M66,235.2
		c0-1.2-0.6-1.8-1.4-1.8c-0.9,0-1.4,0.6-1.4,1.8s0.6,1.8,1.4,1.8S66,236.4,66,235.2z"/>
	<path d="M71.5,232.4h1.4l-2.1,6c-0.4,1.2-1,1.7-2.4,1.7c-0.3,0-0.4,0-0.6,0V239h0.5c0.7,0,0.9-0.4,0.9-0.9c0-0.3-0.1-0.7-0.3-1.1
		l-1.6-4.5h1.5l0.4,1.4c0.3,1,0.6,2,0.9,3.1c0.3-1.1,0.6-2.1,0.9-3.1L71.5,232.4z"/>
	<path d="M73,235.2c0-1.7,1.1-2.9,2.7-2.9c1.7,0,2.7,1.2,2.7,3v0.3h-4.1c0.1,1,0.7,1.4,1.4,1.4c0.6,0,1.1-0.3,1.3-0.8h1.3
		c-0.3,1.1-1.2,1.8-2.6,1.8C74.1,238.1,73,237,73,235.2z M77.1,234.7c-0.1-0.8-0.6-1.3-1.4-1.3c-0.7,0-1.3,0.4-1.4,1.3H77.1z"/>
	<path d="M79,235.2c0-1.7,1.1-2.9,2.7-2.9c1.7,0,2.7,1.2,2.7,3v0.3h-4.1c0.1,1,0.7,1.4,1.4,1.4c0.6,0,1.1-0.3,1.3-0.8h1.3
		c-0.3,1.1-1.2,1.8-2.6,1.8C80.2,238.1,79,237,79,235.2z M83.1,234.7c-0.1-0.8-0.6-1.3-1.4-1.3c-0.7,0-1.3,0.4-1.4,1.3H83.1z"/>
</g>
<g>
	<path d="M42.7,355.4c0-2.5,1.5-4,3.7-4c1.7,0,3.1,0.9,3.5,2.8h-1.5c-0.3-1.1-1.1-1.5-2-1.5c-1.4,0-2.2,1-2.2,2.7s0.8,2.7,2.2,2.7
		c1,0,1.9-0.6,2-1.8h1.4c-0.2,2-1.7,3-3.5,3C44.2,359.4,42.7,357.9,42.7,355.4z"/>
	<path d="M54.3,353.7h1.3v5.5h-1.3v-0.8c-0.4,0.5-0.9,0.9-1.7,0.9c-1.1,0-1.9-0.7-1.9-2v-3.7H52v3.4c0,0.7,0.3,1,1,1
		c0.6,0,1.2-0.4,1.2-1.4L54.3,353.7L54.3,353.7z"/>
	<path d="M60,353.6v1.2h-0.3c-1,0-1.6,0.5-1.6,1.5v2.8h-1.3v-5.5H58v1c0.3-0.6,0.8-1.1,1.6-1.1C59.8,353.6,59.9,353.6,60,353.6z"/>
	<path d="M64,353.6v1.2h-0.3c-1,0-1.6,0.5-1.6,1.5v2.8h-1.3v-5.5H62v1c0.3-0.6,0.8-1.1,1.6-1.1C63.8,353.6,63.9,353.6,64,353.6z"/>
	<path d="M64.3,356.5c0-1.7,1.1-2.9,2.7-2.9c1.7,0,2.7,1.2,2.7,3v0.3h-4.1c0.1,1,0.7,1.4,1.4,1.4c0.6,0,1.1-0.3,1.3-0.8h1.3
		c-0.3,1.1-1.2,1.8-2.6,1.8C65.4,359.4,64.3,358.2,64.3,356.5z M68.4,356c-0.1-0.8-0.6-1.3-1.4-1.3c-0.7,0-1.3,0.4-1.4,1.3H68.4z"/>
	<path d="M75.5,355.6v3.7h-1.3v-3.4c0-0.7-0.4-1-1-1s-1.2,0.4-1.2,1.4v3.1h-1.3v-5.5H72v0.8c0.4-0.5,0.9-0.9,1.7-0.9
		C74.8,353.6,75.5,354.3,75.5,355.6z"/>
	<path d="M79.3,354.8h-1.1v3c0,0.4,0.2,0.5,0.6,0.5h0.5v1c-0.2,0-0.5,0-0.7,0c-1.2,0-1.7-0.4-1.7-1.4v-3.1H76v-1h0.9v-1.6h1.3v1.6
		h1.1V354.8z"/>
	<path d="M27.6,363.7H29l-1.8,5.5h-1.4l-0.7-2.3c-0.2-0.5-0.3-1.1-0.5-1.6c-0.1,0.5-0.3,1.1-0.5,1.6l-0.7,2.3H22l-1.8-5.5h1.4
		l0.6,2.1c0.2,0.6,0.4,1.3,0.5,1.9c0.2-0.6,0.3-1.3,0.5-1.9l0.6-2.1h1.3l0.6,2.1c0.2,0.6,0.4,1.3,0.5,1.9c0.2-0.6,0.4-1.3,0.5-1.9
		L27.6,363.7z"/>
	<path d="M29.1,366.5c0-1.7,1.1-2.9,2.7-2.9c1.7,0,2.7,1.2,2.7,3v0.3h-4.1c0.1,1,0.7,1.4,1.4,1.4c0.6,0,1.1-0.3,1.3-0.8h1.3
		c-0.3,1.1-1.2,1.8-2.6,1.8C30.2,369.4,29.1,368.2,29.1,366.5z M33.2,366c-0.1-0.8-0.6-1.3-1.4-1.3c-0.7,0-1.3,0.4-1.4,1.3H33.2z"/>
	<path d="M39.4,361.6h1.3v7.6h-1.3v-0.8c-0.4,0.6-1,0.9-1.7,0.9c-1.5,0-2.5-1.1-2.5-2.9s1-2.9,2.5-2.9c0.8,0,1.3,0.3,1.7,0.8V361.6z
		 M39.4,366.5c0-1.2-0.5-1.8-1.4-1.8s-1.4,0.7-1.4,1.8s0.5,1.7,1.4,1.7C38.9,368.3,39.4,367.6,39.4,366.5z"/>
	<path d="M45.8,361.6h1.3v7.6h-1.3v-0.8c-0.4,0.6-1,0.9-1.7,0.9c-1.5,0-2.5-1.1-2.5-2.9s1-2.9,2.5-2.9c0.8,0,1.3,0.3,1.7,0.8V361.6z
		 M45.8,366.5c0-1.2-0.5-1.8-1.4-1.8s-1.4,0.7-1.4,1.8s0.5,1.7,1.4,1.7C45.2,368.3,45.8,367.6,45.8,366.5z"/>
	<path d="M48.3,363.1v-1.3h1.3v1.3H48.3z M48.3,369.2v-5.5h1.3v5.5H48.3z"/>
	<path d="M55.7,365.6v3.7h-1.3v-3.4c0-0.7-0.4-1-1-1s-1.2,0.4-1.2,1.4v3.1h-1.3v-5.5H52v0.8c0.4-0.5,0.9-0.9,1.7-0.9
		C54.9,363.6,55.7,364.3,55.7,365.6z"/>
	<path d="M60.7,363.7H62v5.3c0,1.5-0.9,2.4-2.7,2.4c-1.6,0-2.4-0.8-2.5-1.9h1.3c0.1,0.6,0.5,0.9,1.2,0.9c0.9,0,1.4-0.5,1.4-1.3v-0.7
		c-0.4,0.5-0.9,0.8-1.7,0.8c-1.5,0-2.5-1.1-2.5-2.8c0-1.7,1-2.8,2.5-2.8c0.8,0,1.4,0.3,1.7,0.9V363.7z M60.7,366.4
		c0-1.1-0.5-1.7-1.4-1.7s-1.4,0.6-1.4,1.7s0.5,1.7,1.4,1.7S60.7,367.5,60.7,366.4z"/>
	<path d="M71,366.5c0,1.8-1,2.9-2.5,2.9c-0.8,0-1.3-0.3-1.7-0.8v2.8h-1.3v-7.6h1.3v0.8c0.4-0.6,1-0.9,1.8-0.9
		C70,363.6,71,364.7,71,366.5z M69.6,366.4c0-1.2-0.5-1.7-1.4-1.7s-1.4,0.6-1.4,1.8s0.5,1.8,1.4,1.8S69.6,367.6,69.6,366.4z"/>
	<path d="M71.8,369.2v-7.6h1.3v7.6H71.8z"/>
	<path d="M77.9,369.2c-0.1-0.1-0.1-0.4-0.1-0.7c-0.4,0.5-1,0.8-1.8,0.8c-1.2,0-2-0.6-2-1.7c0-0.9,0.6-1.6,2.1-1.7l0.8-0.1
		c0.5-0.1,0.8-0.2,0.8-0.6s-0.2-0.7-1-0.7s-1.1,0.2-1.1,0.9h-1.3c0.1-1.2,0.8-1.9,2.5-1.9c1.6,0,2.3,0.7,2.3,1.7v2.9
		c0,0.4,0.1,0.8,0.2,1h-1.4V369.2z M77.7,367.1v-0.5c-0.1,0.1-0.3,0.2-0.6,0.2l-0.7,0.1c-0.7,0.1-1,0.4-1,0.8c0,0.5,0.3,0.7,0.9,0.7
		C77,368.4,77.7,368,77.7,367.1z"/>
	<path d="M85,365.6v3.7h-1.3v-3.4c0-0.7-0.4-1-1-1s-1.2,0.4-1.2,1.4v3.1H80v-5.5h1.3v0.8c0.4-0.5,0.9-0.9,1.7-0.9
		C84.2,363.6,85,364.3,85,365.6z"/>
	<path d="M91,365.6v3.7h-1.3v-3.4c0-0.7-0.4-1-1-1s-1.2,0.4-1.2,1.4v3.1h-1.3v-5.5h1.3v0.8c0.4-0.5,0.9-0.9,1.7-0.9
		C90.3,363.6,91,364.3,91,365.6z"/>
	<path d="M91.9,366.5c0-1.7,1.1-2.9,2.7-2.9c1.7,0,2.7,1.2,2.7,3v0.3h-4.1c0.1,1,0.7,1.4,1.4,1.4c0.6,0,1.1-0.3,1.3-0.8h1.3
		c-0.3,1.1-1.2,1.8-2.6,1.8C93,369.4,91.9,368.2,91.9,366.5z M96,366c-0.1-0.8-0.6-1.3-1.4-1.3c-0.7,0-1.3,0.4-1.4,1.3H96z"/>
	<path d="M101.5,363.6v1.2h-0.3c-1,0-1.6,0.5-1.6,1.5v2.8h-1.3v-5.5h1.3v1c0.3-0.6,0.8-1.1,1.6-1.1
		C101.3,363.6,101.4,363.6,101.5,363.6z"/>
</g>
<g>
	<path d="M24.7,501.2c0-2.5,1.5-4,3.7-4c1.7,0,3.1,0.9,3.5,2.8h-1.5c-0.3-1.1-1.1-1.5-2-1.5c-1.4,0-2.2,1-2.2,2.7s0.8,2.7,2.2,2.7
		c1,0,1.9-0.6,2-1.8h1.4c-0.2,2-1.7,3-3.5,3C26.2,505.2,24.7,503.7,24.7,501.2z"/>
	<path d="M36.3,499.5h1.3v5.5h-1.3v-0.8c-0.4,0.5-0.9,0.9-1.7,0.9c-1.1,0-1.9-0.7-1.9-2v-3.7H34v3.4c0,0.7,0.3,1,1,1
		c0.6,0,1.2-0.4,1.2-1.4L36.3,499.5L36.3,499.5z"/>
	<path d="M42,499.5v1.2h-0.3c-1,0-1.6,0.5-1.6,1.5v2.8h-1.3v-5.5H40v1c0.3-0.6,0.8-1.1,1.6-1.1C41.8,499.4,41.9,499.4,42,499.5z"/>
	<path d="M46,499.5v1.2h-0.3c-1,0-1.6,0.5-1.6,1.5v2.8h-1.3v-5.5H44v1c0.3-0.6,0.8-1.1,1.6-1.1C45.8,499.4,45.9,499.4,46,499.5z"/>
	<path d="M46.2,502.3c0-1.7,1.1-2.9,2.7-2.9c1.7,0,2.7,1.2,2.7,3v0.3h-4.1c0.1,1,0.7,1.4,1.4,1.4c0.6,0,1.1-0.3,1.3-0.8h1.3
		c-0.3,1.1-1.2,1.8-2.6,1.8C47.4,505.2,46.2,504.1,46.2,502.3z M50.3,501.8c-0.1-0.8-0.6-1.3-1.4-1.3c-0.7,0-1.3,0.4-1.4,1.3H50.3z"
		/>
	<path d="M57.5,501.4v3.7h-1.3v-3.4c0-0.7-0.4-1-1-1s-1.2,0.4-1.2,1.4v3.1h-1.3v-5.5H54v0.8c0.4-0.5,0.9-0.9,1.7-0.9
		C56.7,499.4,57.5,500.1,57.5,501.4z"/>
	<path d="M61.3,500.6h-1.1v3c0,0.4,0.2,0.5,0.6,0.5h0.5v1c-0.2,0-0.5,0-0.7,0c-1.2,0-1.7-0.4-1.7-1.4v-3.1H58v-1h0.9V498h1.3v1.6
		h1.1V500.6z"/>
	<path d="M69.9,502.3c0,1.8-1,2.9-2.5,2.9c-0.8,0-1.4-0.3-1.8-0.9v0.8h-1.3v-7.6h1.3v2.8c0.4-0.5,0.9-0.8,1.7-0.8
		C69,499.4,69.9,500.5,69.9,502.3z M68.6,502.2c0-1.2-0.5-1.7-1.4-1.7s-1.4,0.6-1.4,1.8s0.5,1.8,1.4,1.8S68.6,503.4,68.6,502.2z"/>
	<path d="M74.3,505.1c-0.1-0.1-0.1-0.4-0.1-0.7c-0.4,0.5-1,0.8-1.8,0.8c-1.2,0-2-0.6-2-1.7c0-0.9,0.6-1.6,2.1-1.7l0.8-0.1
		c0.5-0.1,0.8-0.2,0.8-0.6s-0.2-0.7-1-0.7s-1.1,0.2-1.1,0.9h-1.3c0.1-1.2,0.8-1.9,2.5-1.9c1.6,0,2.3,0.7,2.3,1.7v2.9
		c0,0.4,0.1,0.8,0.2,1h-1.4V505.1z M74.1,502.9v-0.5c-0.1,0.1-0.3,0.2-0.6,0.2l-0.7,0.1c-0.7,0.1-1,0.4-1,0.8c0,0.5,0.3,0.7,0.9,0.7
		C73.4,504.2,74.1,503.8,74.1,502.9z"/>
	<path d="M81.4,501.4v3.7h-1.3v-3.4c0-0.7-0.4-1-1-1s-1.2,0.4-1.2,1.4v3.1h-1.3v-5.5h1.3v0.8c0.4-0.5,0.9-0.9,1.7-0.9
		C80.7,499.4,81.4,500.1,81.4,501.4z"/>
	<path d="M86.3,505.1l-1.6-2.6l-0.8,0.8v1.7h-1.3v-7.6h1.3v4.4l2.2-2.3h1.6l-2.1,2.1l2.2,3.4h-1.5V505.1z"/>
	<path d="M87.8,502.3c0-1.7,1.1-2.9,2.7-2.9c1.7,0,2.7,1.2,2.7,3v0.3h-4.1c0.1,1,0.7,1.4,1.4,1.4c0.6,0,1.1-0.3,1.3-0.8h1.3
		c-0.3,1.1-1.2,1.8-2.6,1.8C88.9,505.2,87.8,504.1,87.8,502.3z M91.9,501.8c-0.1-0.8-0.6-1.3-1.4-1.3c-0.7,0-1.3,0.4-1.4,1.3H91.9z"
		/>
	<path d="M97.4,499.5v1.2H97c-1,0-1.6,0.5-1.6,1.5v2.8h-1.3v-5.5h1.3v1c0.3-0.6,0.8-1.1,1.6-1.1C97.1,499.4,97.2,499.4,97.4,499.5z"
		/>
</g>
<g>
	<path d="M116.2,623.8c0-4.8,3-8,7.6-8s7.6,3.2,7.6,8s-3,8-7.6,8C119.2,631.7,116.2,628.6,116.2,623.8z M128.4,623.8
		c0-3.4-1.8-5.4-4.6-5.4s-4.6,2.1-4.6,5.4c0,3.4,1.8,5.4,4.6,5.4S128.4,627.2,128.4,623.8z"/>
	<path d="M144.2,625.9c0,3.5-1.9,5.8-4.9,5.8c-1.5,0-2.7-0.6-3.4-1.7v5.6h-2.7v-15.2h2.6v1.6c0.8-1.2,1.9-1.8,3.5-1.8
		C142.3,620.1,144.2,622.4,144.2,625.9z M141.4,625.8c0-2.3-1.1-3.5-2.9-3.5c-1.8,0-2.9,1.2-2.9,3.6c0,2.3,1.1,3.6,2.9,3.6
		C140.4,629.4,141.4,628.1,141.4,625.8z"/>
	<path d="M151.1,622.5h-2.2v5.9c0,0.7,0.4,1,1.3,1h0.9v2.1c-0.5,0-1,0.1-1.4,0.1c-2.3,0-3.4-0.8-3.4-2.8v-6.2h-1.7v-2.1h1.7v-3.2
		h2.7v3.2h2.2v2H151.1z"/>
	<path d="M152.6,619.1v-2.5h2.7v2.5H152.6z M152.6,631.4v-11h2.7v11H152.6z"/>
	<path d="M174,624.1v7.3h-2.7v-6.9c0-1.4-0.6-2.1-1.9-2.1c-1.2,0-2.3,0.8-2.3,2.9v6.1h-2.7v-6.9c0-1.4-0.6-2.1-1.9-2.1
		c-1.1,0-2.3,0.8-2.3,2.9v6.1h-2.7v-11h2.6v1.6c0.7-1.1,1.7-1.8,3.2-1.8c1.7,0,2.9,0.8,3.4,2.1c0.7-1.2,1.9-2.1,3.4-2.1
		C172.6,620.1,174,621.7,174,624.1z"/>
	<path d="M176.2,619.1v-2.5h2.7v2.5H176.2z M176.2,631.4v-11h2.7v11H176.2z"/>
	<path d="M189.9,629.3v2.1h-9.4v-1.8l4.4-5.5c0.4-0.6,0.9-1.1,1.4-1.7c-0.8,0-1.5,0-2.3,0h-3.4v-2.1h9v1.8l-4.4,5.5
		c-0.4,0.6-0.9,1.1-1.4,1.7c0.8,0,1.5,0,2.3,0H189.9z"/>
	<path d="M198.5,631.4c-0.2-0.3-0.3-0.8-0.3-1.3c-0.7,1-1.9,1.6-3.5,1.6c-2.4,0-4-1.2-4-3.3c0-1.8,1.1-3.1,4.2-3.4l1.7-0.1
		c1-0.1,1.6-0.5,1.6-1.3c0-0.9-0.4-1.4-2-1.4c-1.5,0-2.2,0.4-2.3,1.8h-2.7c0.1-2.3,1.5-3.8,5-3.8c3.3,0,4.6,1.3,4.6,3.3v5.9
		c0,0.8,0.1,1.7,0.4,2.1L198.5,631.4L198.5,631.4z M198.1,627.1v-1c-0.3,0.3-0.7,0.4-1.3,0.4l-1.5,0.2c-1.5,0.2-2,0.7-2,1.6
		c0,0.9,0.6,1.5,1.9,1.5C196.7,629.7,198.1,629,198.1,627.1z"/>
	<path d="M208.2,622.5H206v5.9c0,0.7,0.4,1,1.3,1h0.9v2.1c-0.5,0-1,0.1-1.4,0.1c-2.3,0-3.4-0.8-3.4-2.8v-6.2h-1.7v-2.1h1.7v-3.2h2.7
		v3.2h2.2v2H208.2z"/>
	<path d="M209.8,619.1v-2.5h2.7v2.5H209.8z M209.8,631.4v-11h2.7v11H209.8z"/>
	<path d="M214.2,625.9c0-3.5,2.3-5.8,5.6-5.8c3.4,0,5.6,2.3,5.6,5.8s-2.2,5.8-5.6,5.8S214.2,629.4,214.2,625.9z M222.7,625.9
		c0-2.3-1.1-3.6-2.9-3.6c-1.8,0-2.9,1.2-2.9,3.6c0,2.3,1.1,3.6,2.9,3.6C221.5,629.4,222.7,628.2,222.7,625.9z"/>
	<path d="M237,624.1v7.3h-2.7v-6.9c0-1.4-0.7-2.1-2.1-2.1c-1.2,0-2.5,0.8-2.5,2.8v6.2H227v-11h2.6v1.6c0.7-1,1.9-1.8,3.5-1.8
		C235.5,620.1,237,621.5,237,624.1z"/>
	<path d="M243.3,625.9c0-3.5,2.3-5.8,5.6-5.8c3.4,0,5.6,2.3,5.6,5.8s-2.2,5.8-5.6,5.8C245.6,631.7,243.3,629.4,243.3,625.9z
		 M251.8,625.9c0-2.3-1.1-3.6-2.9-3.6c-1.8,0-2.9,1.2-2.9,3.6c0,2.3,1.1,3.6,2.9,3.6C250.7,629.4,251.8,628.2,251.8,625.9z"/>
	<path d="M259.4,619.6v0.8h2.3v2.1h-2.3v8.9h-2.7v-8.9H255v-2.1h1.7v-0.8c0-1.9,1-3.4,3.6-3.4c0.4,0,1,0,1.4,0.1v2.1h-0.9
		C259.8,618.2,259.4,618.7,259.4,619.6z"/>
	<path d="M275.8,616.2h2.7v15.2h-2.6v-1.5c-0.7,1.1-1.9,1.8-3.5,1.8c-3.1,0-5-2.3-5-5.8s1.9-5.8,5-5.8c1.5,0,2.7,0.6,3.4,1.7V616.2z
		 M275.9,625.9c0-2.3-1.1-3.6-2.8-3.6c-1.7,0-2.8,1.3-2.8,3.6s1.1,3.5,2.8,3.5S275.9,628.2,275.9,625.9z"/>
	<path d="M280.8,619.1v-2.5h2.7v2.5H280.8z M280.8,631.4v-11h2.7v11H280.8z"/>
	<path d="M293.1,620.4h2.8l-4.1,11h-3.1l-4.1-11h2.9l1.1,3c0.6,1.8,1.2,3.8,1.7,5.6c0.6-1.9,1.2-3.8,1.7-5.6L293.1,620.4z"/>
	<path d="M296.9,619.1v-2.5h2.7v2.5H296.9z M296.9,631.4v-11h2.7v11H296.9z"/>
	<path d="M301.1,627.9h2.6c0.1,1.4,0.9,1.9,2.5,1.9s2.2-0.5,2.2-1.3s-0.5-1.2-2.2-1.5l-1.3-0.2c-2.4-0.4-3.6-1.5-3.6-3.3
		c0-2.1,1.6-3.3,4.6-3.3c3.4,0,4.8,1.5,4.9,3.7h-2.5c-0.1-1.4-0.9-1.8-2.3-1.8c-1.3,0-1.9,0.5-1.9,1.3s0.6,1.1,1.8,1.4l1.4,0.2
		c2.7,0.5,3.8,1.5,3.8,3.4c0,2.2-1.8,3.5-4.9,3.5C303,631.7,301.3,630.6,301.1,627.9z"/>
	<path d="M312.5,619.1v-2.5h2.7v2.5H312.5z M312.5,631.4v-11h2.7v11H312.5z"/>
	<path d="M316.9,625.9c0-3.5,2.3-5.8,5.6-5.8c3.4,0,5.6,2.3,5.6,5.8s-2.2,5.8-5.6,5.8S316.9,629.4,316.9,625.9z M325.4,625.9
		c0-2.3-1.1-3.6-2.9-3.6s-2.9,1.2-2.9,3.6c0,2.3,1.1,3.6,2.9,3.6C324.2,629.4,325.4,628.2,325.4,625.9z"/>
	<path d="M339.7,624.1v7.3H337v-6.9c0-1.4-0.7-2.1-2.1-2.1c-1.2,0-2.5,0.8-2.5,2.8v6.2h-2.7v-11h2.6v1.6c0.7-1,1.9-1.8,3.5-1.8
		C338.1,620.1,339.7,621.5,339.7,624.1z"/>
	<path d="M346,625.9c0-3.5,2.3-5.8,5.6-5.8c3.4,0,5.6,2.3,5.6,5.8s-2.2,5.8-5.6,5.8C348.3,631.7,346,629.4,346,625.9z M354.5,625.9
		c0-2.3-1.1-3.6-2.9-3.6s-2.9,1.2-2.9,3.6c0,2.3,1.1,3.6,2.9,3.6C353.4,629.4,354.5,628.2,354.5,625.9z"/>
	<path d="M362.1,619.6v0.8h2.3v2.1h-2.3v8.9h-2.7v-8.9h-1.7v-2.1h1.7v-0.8c0-1.9,1-3.4,3.6-3.4c0.4,0,1,0,1.4,0.1v2.1h-0.9
		C362.5,618.2,362.1,618.7,362.1,619.6z"/>
	<path d="M378.5,616.2h2.7v15.2h-2.6v-1.5c-0.7,1.1-1.9,1.8-3.5,1.8c-3.1,0-5-2.3-5-5.8s1.9-5.8,5-5.8c1.5,0,2.7,0.6,3.4,1.7V616.2z
		 M378.5,625.9c0-2.3-1.1-3.6-2.8-3.6c-1.7,0-2.8,1.3-2.8,3.6s1.1,3.5,2.8,3.5C377.5,629.4,378.5,628.2,378.5,625.9z"/>
	<path d="M390.6,620.4h2.7v11h-2.6v-1.6c-0.7,1.1-1.9,1.9-3.5,1.9c-2.3,0-3.9-1.3-3.9-4v-7.3h2.7v6.9c0,1.4,0.7,2.1,2.1,2.1
		c1.2,0,2.5-0.8,2.5-2.8L390.6,620.4L390.6,620.4z"/>
	<path d="M401.2,622.5H399v5.9c0,0.7,0.4,1,1.3,1h0.9v2.1c-0.5,0-1,0.1-1.4,0.1c-2.3,0-3.4-0.8-3.4-2.8v-6.2h-1.7v-2.1h1.7v-3.2h2.7
		v3.2h2.2v2H401.2z"/>
	<path d="M402.8,619.1v-2.5h2.7v2.5H402.8z M402.8,631.4v-11h2.7v11H402.8z"/>
	<path d="M407.2,625.9c0-3.5,2.2-5.8,5.5-5.8c3.4,0,5.5,2.5,5.5,6v0.6h-8.3c0.2,1.9,1.3,2.8,2.9,2.8c1.3,0,2.1-0.6,2.5-1.6h2.6
		c-0.6,2.2-2.5,3.7-5.1,3.7C409.5,631.7,407.2,629.4,407.2,625.9z M415.4,624.9c-0.2-1.6-1.2-2.6-2.8-2.6c-1.4,0-2.5,0.8-2.8,2.6
		H415.4z"/>
	<path d="M419.1,627.9h2.6c0.1,1.4,0.9,1.9,2.5,1.9s2.2-0.5,2.2-1.3s-0.5-1.2-2.2-1.5l-1.3-0.2c-2.4-0.4-3.6-1.5-3.6-3.3
		c0-2.1,1.6-3.3,4.6-3.3c3.4,0,4.8,1.5,4.9,3.7h-2.5c-0.1-1.4-0.9-1.8-2.3-1.8c-1.3,0-1.9,0.5-1.9,1.3s0.6,1.1,1.8,1.4l1.4,0.2
		c2.7,0.5,3.8,1.5,3.8,3.4c0,2.2-1.8,3.5-4.9,3.5C421,631.7,419.3,630.6,419.1,627.9z"/>
</g>
<g>
	<g>
		<path d="M800.9,618.8h-8.3v3.6h7.6v2.5h-7.6v4h8.3v2.6h-11.2v-15.2h11.2V618.8z"/>
		<path d="M808.6,625.7l4.1,5.7h-3.1l-0.4-0.6c-0.7-1-1.4-2.1-2.1-3.1c-0.7,1-1.4,2.1-2.2,3.1l-0.4,0.6h-3l4.1-5.6l-3.9-5.4h3.1
			l0.6,0.8c0.6,0.9,1.2,1.7,1.8,2.6c0.6-0.9,1.2-1.8,1.8-2.6l0.6-0.8h3L808.6,625.7z"/>
		<path d="M812.4,625.9c0-3.5,2.2-5.8,5.5-5.8c2.9,0,4.8,1.6,5.1,4.2h-2.7c-0.3-1.4-1.2-2-2.4-2c-1.6,0-2.7,1.1-2.7,3.5
			s1.1,3.5,2.7,3.5c1.2,0,2.3-0.7,2.5-2.1h2.7c-0.3,2.7-2.4,4.4-5.2,4.4C814.6,631.7,812.4,629.4,812.4,625.9z"/>
		<path d="M824.1,625.9c0-3.5,2.2-5.8,5.5-5.8c3.4,0,5.5,2.5,5.5,6v0.6h-8.3c0.2,1.9,1.3,2.8,2.9,2.8c1.3,0,2.1-0.6,2.5-1.6h2.6
			c-0.6,2.2-2.5,3.7-5.1,3.7C826.3,631.7,824.1,629.4,824.1,625.9z M832.3,624.9c-0.2-1.6-1.2-2.6-2.8-2.6c-1.4,0-2.5,0.8-2.8,2.6
			H832.3z"/>
		<path d="M836,627.9h2.6c0.1,1.4,0.9,1.9,2.5,1.9s2.2-0.5,2.2-1.3s-0.5-1.2-2.2-1.5l-1.3-0.2c-2.4-0.4-3.6-1.5-3.6-3.3
			c0-2.1,1.6-3.3,4.6-3.3c3.4,0,4.8,1.5,4.9,3.7h-2.5c-0.1-1.4-0.9-1.8-2.3-1.8c-1.3,0-1.9,0.5-1.9,1.3s0.6,1.1,1.8,1.4l1.4,0.2
			c2.7,0.5,3.8,1.5,3.8,3.4c0,2.2-1.8,3.5-4.9,3.5C837.9,631.7,836.1,630.6,836,627.9z"/>
		<path d="M846.9,627.9h2.6c0.1,1.4,0.9,1.9,2.5,1.9s2.2-0.5,2.2-1.3s-0.5-1.2-2.2-1.5l-1.3-0.2c-2.4-0.4-3.6-1.5-3.6-3.3
			c0-2.1,1.6-3.3,4.6-3.3c3.4,0,4.8,1.5,4.9,3.7h-2.5c-0.1-1.4-0.9-1.8-2.3-1.8c-1.3,0-1.9,0.5-1.9,1.3s0.6,1.1,1.8,1.4l1.4,0.2
			c2.7,0.5,3.8,1.5,3.8,3.4c0,2.2-1.8,3.5-4.9,3.5C848.9,631.7,847.1,630.6,846.9,627.9z"/>
		<path d="M876.6,620.4h2.9l-3.6,11H873l-1.4-4.5c-0.3-1.1-0.6-2.2-0.9-3.3c-0.3,1.1-0.6,2.2-0.9,3.3l-1.4,4.5h-2.8l-3.6-11h2.9
			l1.2,4.1c0.4,1.3,0.7,2.6,1.1,3.8c0.3-1.3,0.7-2.6,1-3.9l1.2-4.1h2.6l1.2,4.1c0.4,1.3,0.7,2.6,1,3.9c0.3-1.3,0.7-2.6,1.1-3.8
			L876.6,620.4z"/>
		<path d="M879.6,625.9c0-3.5,2.3-5.8,5.6-5.8c3.4,0,5.6,2.3,5.6,5.8s-2.2,5.8-5.6,5.8S879.6,629.4,879.6,625.9z M888.1,625.9
			c0-2.3-1.1-3.6-2.9-3.6c-1.8,0-2.9,1.2-2.9,3.6c0,2.3,1.1,3.6,2.9,3.6C886.9,629.4,888.1,628.2,888.1,625.9z"/>
		<path d="M899.1,620.2v2.5h-0.7c-2,0-3.2,1-3.2,3.1v5.6h-2.7v-11h2.6v2c0.5-1.2,1.6-2.1,3.3-2.1
			C898.6,620.2,898.8,620.2,899.1,620.2z"/>
		<path d="M908.1,631.4l-3.2-5.1l-1.7,1.7v3.5h-2.7v-15.2h2.7v8.8l4.5-4.6h3.2l-4.2,4.2l4.4,6.9h-3V631.4z"/>
	</g>
</g>
<g>
	<g>
		<path d="M622,352h1.4c0,1.2,0.8,1.5,1.8,1.5s1.6-0.4,1.6-1.1c0-0.6-0.4-0.9-1.6-1.1l-0.6-0.1c-1.5-0.3-2.4-0.9-2.4-2.3
			c0-1.3,1-2.2,2.8-2.2c2.1,0,3,1,3.1,2.4h-1.4c-0.1-0.8-0.5-1.3-1.7-1.3c-0.9,0-1.4,0.4-1.4,0.9c0,0.6,0.4,0.9,1.5,1.1l0.7,0.1
			c1.8,0.4,2.5,1,2.5,2.3c0,1.5-1.2,2.3-3.1,2.3C623.2,354.7,622,353.7,622,352z"/>
		<path d="M631.8,350h-1.1v3c0,0.4,0.2,0.5,0.6,0.5h0.5v1c-0.2,0-0.5,0-0.7,0c-1.2,0-1.7-0.4-1.7-1.4V350h-0.9v-1h0.9v-1.6h1.3v1.6
			h1.1L631.8,350L631.8,350z"/>
		<path d="M632.3,351.7c0-1.8,1.1-2.9,2.8-2.9s2.8,1.1,2.8,2.9s-1.1,2.9-2.8,2.9S632.3,353.5,632.3,351.7z M636.5,351.7
			c0-1.2-0.6-1.8-1.4-1.8c-0.9,0-1.4,0.6-1.4,1.8s0.6,1.8,1.4,1.8C636,353.5,636.5,352.9,636.5,351.7z"/>
		<path d="M642,348.9v1.2h-0.3c-1,0-1.6,0.5-1.6,1.5v2.8h-1.3V349h1.3v1c0.3-0.6,0.8-1.1,1.6-1.1C641.8,348.9,641.9,348.9,642,348.9
			z"/>
		<path d="M642.3,351.7c0-1.7,1.1-2.9,2.7-2.9c1.7,0,2.7,1.2,2.7,3v0.3h-4.1c0.1,1,0.7,1.4,1.4,1.4c0.6,0,1.1-0.3,1.3-0.8h1.3
			c-0.3,1.1-1.2,1.8-2.6,1.8C643.4,354.6,642.3,353.5,642.3,351.7z M646.4,351.2c-0.1-0.8-0.6-1.3-1.4-1.3c-0.7,0-1.3,0.4-1.4,1.3
			H646.4z"/>
		<path d="M650.5,352.7h1.3c0.1,0.7,0.4,0.9,1.2,0.9s1.1-0.2,1.1-0.7c0-0.4-0.2-0.6-1.1-0.7l-0.6-0.1c-1.2-0.2-1.8-0.7-1.8-1.7
			s0.8-1.7,2.3-1.7c1.7,0,2.4,0.7,2.4,1.9H654c0-0.7-0.5-0.9-1.2-0.9s-1,0.2-1,0.6s0.3,0.6,0.9,0.7l0.7,0.1c1.3,0.2,1.9,0.7,1.9,1.7
			c0,1.1-0.9,1.7-2.5,1.7C651.5,354.6,650.6,354.1,650.5,352.7z"/>
		<path d="M659,350h-1.1v3c0,0.4,0.2,0.5,0.6,0.5h0.5v1c-0.2,0-0.5,0-0.7,0c-1.2,0-1.7-0.4-1.7-1.4V350h-0.9v-1h0.9v-1.6h1.3v1.6
			h1.1L659,350L659,350z"/>
		<path d="M663.4,354.5c-0.1-0.1-0.1-0.4-0.2-0.7c-0.4,0.5-1,0.8-1.8,0.8c-1.2,0-2-0.6-2-1.7c0-0.9,0.6-1.6,2.1-1.7l0.8-0.1
			c0.5-0.1,0.8-0.2,0.8-0.6s-0.2-0.7-1-0.7s-1.1,0.2-1.1,0.9h-1.3c0.1-1.2,0.8-1.9,2.5-1.9c1.6,0,2.3,0.7,2.3,1.7v2.9
			c0,0.4,0.1,0.8,0.2,1h-1.3V354.5z M663.2,352.3v-0.5c-0.1,0.1-0.3,0.2-0.6,0.2l-0.7,0.1c-0.7,0.1-1,0.4-1,0.8
			c0,0.5,0.3,0.7,0.9,0.7C662.5,353.6,663.2,353.3,663.2,352.3z"/>
		<path d="M667.2,348.6v0.4h1.1v1h-1.1v4.5h-1.3V350H665v-1h0.9v-0.4c0-1,0.5-1.7,1.8-1.7c0.2,0,0.5,0,0.7,0v1h-0.5
			C667.4,347.9,667.2,348.1,667.2,348.6z"/>
		<path d="M670.9,348.6v0.4h1.1v1h-1.1v4.5h-1.3V350h-0.9v-1h0.9v-0.4c0-1,0.5-1.7,1.8-1.7c0.2,0,0.5,0,0.7,0v1h-0.5
			C671.1,347.9,670.9,348.1,670.9,348.6z"/>
	</g>
</g>
<g>
	<path class="st0" d="M391.2,421.8c3,0,4.8,1.8,4.8,4.4c0,2-1.1,3.8-3.3,4.1v-1.8c1.3-0.3,1.8-1.3,1.8-2.4c0-1.6-1.2-2.6-3.3-2.6
		c-2,0-3.3,1-3.3,2.6c0,1.2,0.7,2.2,2.1,2.5v1.7c-2.4-0.3-3.6-2.1-3.6-4.2C386.5,423.6,388.3,421.8,391.2,421.8z"/>
	<path class="st0" d="M390,431.1c2.1,0,3.5,1.4,3.5,3.4s-1.4,3.4-3.5,3.4s-3.5-1.3-3.5-3.4S387.9,431.1,390,431.1z M390,436.2
		c1.4,0,2.1-0.7,2.1-1.7c0-1.1-0.7-1.7-2.1-1.7s-2.1,0.7-2.1,1.7C387.8,435.5,388.6,436.2,390,436.2z"/>
	<path class="st0" d="M391,444.8h-4.4v-1.6h4.1c0.8,0,1.3-0.4,1.3-1.2c0-0.7-0.5-1.5-1.7-1.5h-3.7v-1.6h6.6v1.6h-0.9
		c0.6,0.4,1.1,1.1,1.1,2.1C393.4,443.9,392.6,444.8,391,444.8z"/>
	<path class="st0" d="M392,449.4v-1.3h-3.5c-0.4,0-0.6,0.2-0.6,0.8v0.6h-1.2c0-0.3,0-0.6,0-0.8c0-1.4,0.5-2.1,1.7-2.1h3.7v-1h1.3v1
		h1.9v1.6h-1.9v1.3H392V449.4z"/>
	<path class="st0" d="M393.4,454.3h-1.5v-0.4c0-1.2-0.6-1.9-1.9-1.9h-3.4v-1.6h6.6v1.6H392c0.7,0.3,1.3,1,1.3,2
		C393.4,454,393.4,454.1,393.4,454.3z"/>
	<path class="st0" d="M386.7,459.1c0.2-0.1,0.5-0.2,0.8-0.2c-0.6-0.4-1-1.2-1-2.1c0-1.4,0.7-2.4,2-2.4c1.1,0,1.9,0.7,2.1,2.5l0.1,1
		c0.1,0.6,0.3,0.9,0.8,0.9s0.8-0.3,0.8-1.2c0-0.9-0.2-1.3-1.1-1.4v-1.6c1.4,0.1,2.3,0.9,2.3,3c0,2-0.8,2.8-2,2.8H388
		c-0.5,0-1,0.1-1.3,0.3L386.7,459.1L386.7,459.1z M389.3,458.9h0.6c-0.2-0.2-0.2-0.4-0.3-0.8l-0.1-0.9c-0.1-0.9-0.4-1.2-1-1.2
		s-0.9,0.4-0.9,1.1C387.7,458,388.1,458.9,389.3,458.9z"/>
	<path class="st0" d="M390,461.3c2.1,0,3.5,1.3,3.5,3.3c0,1.7-1,2.9-2.5,3.1V466c0.8-0.2,1.2-0.7,1.2-1.5c0-1-0.7-1.6-2.1-1.6
		s-2.1,0.7-2.1,1.6c0,0.7,0.4,1.4,1.3,1.5v1.6c-1.6-0.2-2.6-1.4-2.6-3.1C386.5,462.6,387.8,461.3,390,461.3z"/>
	<path class="st0" d="M392,471.9v-1.3h-3.5c-0.4,0-0.6,0.2-0.6,0.8v0.6h-1.2c0-0.3,0-0.6,0-0.8c0-1.4,0.5-2.1,1.7-2.1h3.7v-1h1.3v1
		h1.9v1.6h-1.9v1.3H392V471.9z"/>
	<path class="st0" d="M393.3,483.8v1.7l-6.6-2.2v-1.7l2.7-0.8c0.7-0.2,1.3-0.4,2-0.6c-0.7-0.2-1.3-0.4-2-0.6l-2.7-0.8v-1.7l6.6-2.2
		v1.7l-2.5,0.7c-0.8,0.2-1.5,0.4-2.3,0.7c0.8,0.2,1.5,0.4,2.3,0.6l2.5,0.7v1.5l-2.5,0.7c-0.8,0.2-1.5,0.4-2.3,0.6
		c0.8,0.2,1.5,0.4,2.3,0.7L393.3,483.8z"/>
	<path class="st0" d="M390,485.6c2.1,0,3.5,1.4,3.5,3.4s-1.4,3.4-3.5,3.4s-3.5-1.3-3.5-3.4S387.9,485.6,390,485.6z M390,490.7
		c1.4,0,2.1-0.7,2.1-1.7c0-1.1-0.7-1.7-2.1-1.7s-2.1,0.7-2.1,1.7C387.8,490,388.6,490.7,390,490.7z"/>
	<path class="st0" d="M393.4,497.3h-1.5v-0.4c0-1.2-0.6-1.9-1.9-1.9h-3.4v-1.6h6.6v1.6H392c0.7,0.3,1.3,1,1.3,2
		C393.4,497,393.4,497.1,393.4,497.3z"/>
	<path class="st0" d="M386.7,502.7l3.1-1.9l-1-1h-2.1v-1.6h9.1v1.6h-5.3l2.7,2.7v1.9l-2.5-2.5l-4.1,2.7L386.7,502.7L386.7,502.7z"/>
</g>
<g>
	<path d="M986.3,288.9c3,0,4.8,1.8,4.8,4.4c0,2-1.1,3.7-3.3,4.1v-1.8c1.3-0.3,1.8-1.3,1.8-2.4c0-1.6-1.2-2.6-3.2-2.6s-3.3,1-3.3,2.6
		c0,1.2,0.7,2.2,2.1,2.5v1.7c-2.4-0.3-3.6-2.1-3.6-4.2C981.6,290.8,983.4,288.9,986.3,288.9z"/>
	<path d="M985.1,298.2c2.1,0,3.5,1.4,3.5,3.4s-1.4,3.4-3.5,3.4s-3.5-1.3-3.5-3.4C981.6,299.6,983,298.2,985.1,298.2z M985.1,303.3
		c1.4,0,2.1-0.7,2.1-1.7c0-1.1-0.7-1.7-2.1-1.7s-2.1,0.7-2.1,1.7C982.9,302.7,983.7,303.3,985.1,303.3z"/>
	<path d="M986.2,312h-4.4v-1.6h4.1c0.8,0,1.3-0.4,1.3-1.2c0-0.7-0.5-1.5-1.7-1.5h-3.7V306h6.6v1.6h-0.9c0.6,0.4,1.1,1.1,1.1,2.1
		C988.5,311,987.7,312,986.2,312z"/>
	<path d="M987.1,316.5v-1.3h-3.5c-0.4,0-0.6,0.2-0.6,0.8v0.6h-1.2c0-0.3,0-0.6,0-0.8c0-1.4,0.5-2.1,1.7-2.1h3.7v-1h1.3v1h1.9v1.6
		h-1.9v1.3h-1.4V316.5z"/>
	<path d="M988.5,321.4H987V321c0-1.2-0.6-1.9-1.9-1.9h-3.4v-1.6h6.6v1.6h-1.2c0.7,0.3,1.3,1,1.3,2
		C988.5,321.1,988.5,321.2,988.5,321.4z"/>
	<path d="M981.8,326.2c0.2-0.1,0.5-0.2,0.8-0.2c-0.6-0.4-1-1.2-1-2.1c0-1.4,0.7-2.4,2-2.4c1.1,0,1.9,0.7,2.1,2.5l0.1,1
		c0.1,0.6,0.3,0.9,0.8,0.9s0.8-0.3,0.8-1.2c0-0.9-0.2-1.3-1.1-1.4v-1.6c1.4,0.1,2.3,0.9,2.3,3c0,2-0.8,2.8-2,2.8H983
		c-0.5,0-1,0.1-1.3,0.3L981.8,326.2L981.8,326.2z M984.4,326h0.6c-0.2-0.2-0.2-0.4-0.3-0.8l-0.1-0.9c-0.1-0.9-0.4-1.2-1-1.2
		s-0.9,0.4-0.9,1.1C982.8,325.1,983.2,326,984.4,326z"/>
	<path d="M985.1,328.4c2.1,0,3.5,1.3,3.5,3.3c0,1.7-1,2.9-2.5,3.1v-1.6c0.8-0.2,1.2-0.7,1.2-1.5c0-1-0.7-1.6-2.1-1.6
		c-1.5,0-2.1,0.7-2.1,1.6c0,0.7,0.4,1.4,1.3,1.5v1.6c-1.6-0.2-2.6-1.4-2.6-3.1C981.6,329.7,983,328.4,985.1,328.4z"/>
	<path d="M987.1,339v-1.3h-3.5c-0.4,0-0.6,0.2-0.6,0.8v0.6h-1.2c0-0.3,0-0.6,0-0.8c0-1.4,0.5-2.1,1.7-2.1h3.7v-1h1.3v1h1.9v1.6h-1.9
		v1.3h-1.4V339z"/>
	<path d="M988.4,350.9v1.7l-6.6-2.2v-1.7l2.7-0.8c0.7-0.2,1.3-0.4,2-0.6c-0.7-0.2-1.3-0.4-2-0.6l-2.7-0.8v-1.7l6.6-2.2v1.7l-2.5,0.7
		c-0.8,0.2-1.5,0.4-2.3,0.7c0.8,0.2,1.5,0.4,2.3,0.6l2.5,0.7v1.5l-2.5,0.7c-0.8,0.2-1.5,0.4-2.3,0.6c0.8,0.2,1.5,0.4,2.3,0.7
		L988.4,350.9z"/>
	<path d="M985.1,352.7c2.1,0,3.5,1.4,3.5,3.4s-1.4,3.4-3.5,3.4s-3.5-1.3-3.5-3.4S983,352.7,985.1,352.7z M985.1,357.8
		c1.4,0,2.1-0.7,2.1-1.7c0-1.1-0.7-1.7-2.1-1.7s-2.1,0.7-2.1,1.7C982.9,357.1,983.7,357.8,985.1,357.8z"/>
	<path d="M988.5,364.4H987V364c0-1.2-0.6-1.9-1.9-1.9h-3.4v-1.6h6.6v1.6h-1.2c0.7,0.3,1.3,1,1.3,2
		C988.5,364.1,988.5,364.2,988.5,364.4z"/>
	<path d="M981.8,369.8l3.1-1.9l-1-1h-2.1v-1.6h9.1v1.6h-5.3l2.7,2.7v1.9l-2.5-2.5l-4.1,2.7L981.8,369.8L981.8,369.8z"/>
</g>
<g>
	<path class="st0" d="M476.4,417.5v4.4h-1.5v-6.1h9.1v1.7H476.4z"/>
	<path class="st0" d="M478.2,422.2c2.1,0,3.5,1.4,3.5,3.4s-1.4,3.4-3.5,3.4s-3.5-1.3-3.5-3.4C474.7,423.6,476,422.2,478.2,422.2z
		 M478.2,427.3c1.4,0,2.1-0.7,2.1-1.7c0-1.1-0.7-1.7-2.1-1.7s-2.1,0.7-2.1,1.7C476,426.6,476.8,427.3,478.2,427.3z"/>
	<path class="st0" d="M474.8,434.2c0.2-0.1,0.5-0.2,0.8-0.2c-0.6-0.4-1-1.2-1-2.1c0-1.4,0.7-2.4,2-2.4c1.1,0,1.9,0.7,2.1,2.5l0.1,1
		c0.1,0.6,0.3,0.9,0.8,0.9s0.8-0.3,0.8-1.2c0-0.9-0.2-1.3-1.1-1.4v-1.6c1.4,0.1,2.3,0.9,2.3,3c0,2-0.8,2.8-2,2.8h-3.5
		c-0.5,0-1,0.1-1.3,0.3L474.8,434.2L474.8,434.2z M477.5,434h0.6c-0.2-0.2-0.2-0.4-0.3-0.8l-0.1-0.9c-0.1-0.9-0.4-1.2-1-1.2
		s-0.9,0.4-0.9,1.1C475.8,433.2,476.3,434,477.5,434z"/>
	<path class="st0" d="M479.2,442.8h-4.4v-1.6h4.1c0.8,0,1.3-0.4,1.3-1.2c0-0.7-0.5-1.5-1.7-1.5h-3.7v-1.6h6.6v1.6h-0.9
		c0.6,0.4,1.1,1.1,1.1,2.1C481.6,441.8,480.8,442.8,479.2,442.8z"/>
	<path class="st0" d="M478.2,453.5c-2.1,0-3.5-1.1-3.5-3c0-0.9,0.4-1.6,1-2.1h-3.4v-1.6h9.1v1.6h-0.9c0.7,0.5,1.1,1.2,1.1,2.1
		C481.6,452.4,480.3,453.5,478.2,453.5z M478.2,451.9c1.4,0,2.1-0.7,2.1-1.7s-0.7-1.7-2.1-1.7s-2.1,0.7-2.1,1.7
		S476.8,451.9,478.2,451.9z"/>
	<path class="st0" d="M481.6,458.5h-1.5V458c0-1.2-0.6-1.9-1.9-1.9h-3.4v-1.6h6.6v1.6h-1.2c0.7,0.3,1.3,1,1.3,2
		C481.6,458.2,481.6,458.3,481.6,458.5z"/>
	<path class="st0" d="M478.2,458.7c2.1,0,3.5,1.4,3.5,3.4s-1.4,3.4-3.5,3.4s-3.5-1.3-3.5-3.4S476,458.7,478.2,458.7z M478.2,463.8
		c1.4,0,2.1-0.7,2.1-1.7c0-1.1-0.7-1.7-2.1-1.7s-2.1,0.7-2.1,1.7C476,463.2,476.8,463.8,478.2,463.8z"/>
	<path class="st0" d="M478.2,466.2c2.1,0,3.5,1.3,3.5,3.3c0,1.7-1,2.9-2.5,3.1V471c0.8-0.2,1.2-0.7,1.2-1.5c0-1-0.7-1.6-2.1-1.6
		s-2.1,0.7-2.1,1.6c0,0.7,0.4,1.4,1.3,1.5v1.6c-1.6-0.2-2.6-1.4-2.6-3.1C474.7,467.5,476,466.2,478.2,466.2z"/>
	<path class="st0" d="M478.2,473.2c2.1,0,3.5,1.3,3.5,3.3s-1.5,3.3-3.6,3.3h-0.4v-5c-1.2,0.1-1.7,0.8-1.7,1.7c0,0.8,0.4,1.3,0.9,1.5
		v1.6c-1.3-0.3-2.2-1.5-2.2-3.1C474.7,474.6,476,473.2,478.2,473.2z M478.8,478.1c0.9-0.1,1.6-0.7,1.6-1.7c0-0.9-0.5-1.5-1.6-1.7
		V478.1z"/>
	<path class="st0" d="M477,480.4v1.6c-0.8,0.1-1.1,0.5-1.1,1.5c0,0.9,0.3,1.3,0.8,1.3s0.7-0.3,0.9-1.3l0.1-0.8
		c0.2-1.4,0.9-2.2,2-2.2c1.2,0,2,1,2,2.7c0,2-0.9,2.9-2.2,2.9v-1.5c0.8,0,1.1-0.6,1.1-1.4s-0.3-1.2-0.8-1.2s-0.7,0.4-0.8,1.1
		l-0.1,0.8c-0.3,1.6-0.9,2.3-2,2.3c-1.3,0-2.1-1.1-2.1-2.9C474.7,481.5,475.3,480.5,477,480.4z"/>
	<path class="st0" d="M477,486.9v1.6c-0.8,0.1-1.1,0.5-1.1,1.5c0,0.9,0.3,1.3,0.8,1.3s0.7-0.3,0.9-1.3l0.1-0.8
		c0.2-1.4,0.9-2.2,2-2.2c1.2,0,2,1,2,2.7c0,2-0.9,2.9-2.2,2.9v-1.5c0.8,0,1.1-0.6,1.1-1.4s-0.3-1.2-0.8-1.2s-0.7,0.4-0.8,1.1
		l-0.1,0.8c-0.3,1.6-0.9,2.3-2,2.3c-1.3,0-2.1-1.1-2.1-2.9C474.7,488.1,475.3,487,477,486.9z"/>
	<path class="st0" d="M474.8,493.8h6.6v1.6h-6.6V493.8z M482.2,493.8h1.5v1.6h-1.5V493.8z"/>
	<path class="st0" d="M479.2,502.7h-4.4V501h4.1c0.8,0,1.3-0.4,1.3-1.2c0-0.7-0.5-1.5-1.7-1.5h-3.7v-1.6h6.6v1.6h-0.9
		c0.6,0.4,1.1,1.1,1.1,2.1C481.6,501.7,480.8,502.7,479.2,502.7z"/>
	<path class="st0" d="M481.5,508.7v1.6h-6.4c-1.8,0-2.9-1.1-2.9-3.3c0-1.9,0.9-2.9,2.3-3v1.6c-0.7,0.1-1.1,0.6-1.1,1.5
		c0,1.1,0.6,1.6,1.6,1.6h0.8c-0.6-0.4-1-1.1-1-2c0-1.8,1.4-3,3.4-3s3.4,1.2,3.4,3c0,1-0.4,1.7-1.1,2.1h1V508.7z M478.2,508.7
		c1.3,0,2-0.7,2-1.7s-0.8-1.7-2.1-1.7c-1.3,0-2,0.7-2,1.7C476.2,508.1,476.9,508.7,478.2,508.7z"/>
</g>
<g>
	<path d="M1070.7,284.6v4.4h-1.5v-6.1h9.1v1.7H1070.7z"/>
	<path d="M1072.5,289.3c2.1,0,3.5,1.4,3.5,3.4s-1.4,3.4-3.5,3.4s-3.5-1.3-3.5-3.4C1069,290.7,1070.3,289.3,1072.5,289.3z
		 M1072.5,294.4c1.4,0,2.1-0.7,2.1-1.7c0-1.1-0.7-1.7-2.1-1.7s-2.1,0.7-2.1,1.7C1070.3,293.8,1071.1,294.4,1072.5,294.4z"/>
	<path d="M1069.1,301.4c0.2-0.1,0.5-0.2,0.8-0.2c-0.6-0.4-1-1.2-1-2.1c0-1.4,0.7-2.4,2-2.4c1.1,0,1.9,0.7,2.1,2.5l0.1,1
		c0.1,0.6,0.3,0.9,0.8,0.9s0.8-0.3,0.8-1.2c0-0.9-0.2-1.3-1.1-1.4V297c1.4,0.1,2.3,0.9,2.3,3c0,2-0.8,2.8-2,2.8h-3.5
		c-0.5,0-1,0.1-1.3,0.3L1069.1,301.4L1069.1,301.4z M1071.8,301.1h0.6c-0.2-0.2-0.2-0.4-0.3-0.8l-0.1-0.9c-0.1-0.9-0.4-1.2-1-1.2
		s-0.9,0.4-0.9,1.1C1070.1,300.3,1070.6,301.1,1071.8,301.1z"/>
	<path d="M1073.5,309.9h-4.4v-1.6h4.1c0.8,0,1.3-0.4,1.3-1.2c0-0.7-0.5-1.5-1.7-1.5h-3.7V304h6.6v1.6h-0.9c0.6,0.4,1.1,1.1,1.1,2.1
		C1075.9,309,1075.1,309.9,1073.5,309.9z"/>
	<path d="M1072.5,320.6c-2.1,0-3.5-1.1-3.5-3c0-0.9,0.4-1.6,1-2.1h-3.4V314h9.1v1.6h-0.9c0.7,0.5,1.1,1.2,1.1,2.1
		C1075.9,319.5,1074.6,320.6,1072.5,320.6z M1072.5,319c1.4,0,2.1-0.7,2.1-1.7s-0.7-1.7-2.1-1.7s-2.1,0.7-2.1,1.7
		S1071.1,319,1072.5,319z"/>
	<path d="M1075.8,325.6h-1.5v-0.4c0-1.2-0.6-1.9-1.9-1.9h-3.4v-1.6h6.6v1.6h-1.2c0.7,0.3,1.3,1,1.3,2
		C1075.9,325.3,1075.9,325.4,1075.8,325.6z"/>
	<path d="M1072.5,325.9c2.1,0,3.5,1.4,3.5,3.4s-1.4,3.4-3.5,3.4s-3.5-1.3-3.5-3.4C1069,327.2,1070.3,325.9,1072.5,325.9z
		 M1072.5,331c1.4,0,2.1-0.7,2.1-1.7c0-1.1-0.7-1.7-2.1-1.7s-2.1,0.7-2.1,1.7C1070.3,330.3,1071.1,331,1072.5,331z"/>
	<path d="M1072.5,333.3c2.1,0,3.5,1.3,3.5,3.3c0,1.7-1,2.9-2.5,3.1v-1.6c0.8-0.2,1.2-0.7,1.2-1.5c0-1-0.7-1.6-2.1-1.6
		c-1.5,0-2.1,0.7-2.1,1.6c0,0.7,0.4,1.4,1.3,1.5v1.6c-1.6-0.2-2.6-1.4-2.6-3.1C1069,334.6,1070.3,333.3,1072.5,333.3z"/>
	<path d="M1072.5,340.3c2.1,0,3.5,1.3,3.5,3.3s-1.5,3.3-3.6,3.3h-0.4v-5c-1.2,0.1-1.7,0.8-1.7,1.7c0,0.8,0.4,1.3,0.9,1.5v1.6
		c-1.3-0.3-2.2-1.5-2.2-3.1C1069,341.7,1070.3,340.3,1072.5,340.3z M1073.1,345.2c0.9-0.1,1.6-0.7,1.6-1.7c0-0.9-0.5-1.5-1.6-1.7
		V345.2z"/>
	<path d="M1071.2,347.5v1.6c-0.8,0.1-1.1,0.5-1.1,1.5c0,0.9,0.3,1.3,0.8,1.3s0.7-0.3,0.9-1.3l0.1-0.8c0.2-1.4,0.9-2.2,2-2.2
		c1.2,0,2,1,2,2.7c0,2-0.9,2.9-2.2,2.9v-1.5c0.8,0,1.1-0.6,1.1-1.4s-0.3-1.2-0.8-1.2s-0.7,0.4-0.8,1.1l-0.1,0.8
		c-0.3,1.6-0.9,2.3-2,2.3c-1.3,0-2.1-1.1-2.1-2.9S1069.6,347.6,1071.2,347.5z"/>
	<path d="M1071.2,354.1v1.6c-0.8,0.1-1.1,0.5-1.1,1.5c0,0.9,0.3,1.3,0.8,1.3s0.7-0.3,0.9-1.3l0.1-0.8c0.2-1.4,0.9-2.2,2-2.2
		c1.2,0,2,1,2,2.7c0,2-0.9,2.9-2.2,2.9v-1.5c0.8,0,1.1-0.6,1.1-1.4s-0.3-1.2-0.8-1.2s-0.7,0.4-0.8,1.1l-0.1,0.8
		c-0.3,1.6-0.9,2.3-2,2.3c-1.3,0-2.1-1.1-2.1-2.9S1069.6,354.2,1071.2,354.1z"/>
	<path d="M1069.1,360.9h6.6v1.6h-6.6V360.9z M1076.5,360.9h1.5v1.6h-1.5V360.9z"/>
	<path d="M1073.5,369.8h-4.4v-1.6h4.1c0.8,0,1.3-0.4,1.3-1.2c0-0.7-0.5-1.5-1.7-1.5h-3.7v-1.6h6.6v1.6h-0.9c0.6,0.4,1.1,1.1,1.1,2.1
		C1075.9,368.8,1075.1,369.8,1073.5,369.8z"/>
	<path d="M1075.8,375.9v1.6h-6.4c-1.8,0-2.9-1.1-2.9-3.3c0-1.9,0.9-2.9,2.3-3v1.6c-0.7,0.1-1.1,0.6-1.1,1.5c0,1.1,0.6,1.6,1.6,1.6
		h0.8c-0.6-0.4-1-1.1-1-2c0-1.8,1.4-3,3.4-3s3.4,1.2,3.4,3c0,1-0.4,1.7-1.1,2.1h1V375.9z M1072.5,375.8c1.3,0,2-0.7,2-1.7
		s-0.8-1.7-2.1-1.7c-1.3,0-2,0.7-2,1.7C1070.5,375.2,1071.2,375.8,1072.5,375.8z"/>
</g>
<g>
	<path class="st0" d="M133.5,147.5c-2.8,0-4.6-1.6-4.6-4.6v-3.5h9.1v3.5C138.1,145.9,136.3,147.5,133.5,147.5z M130.4,142.9
		c0,1.8,1.1,2.8,3.1,2.8s3.1-1,3.1-2.8v-1.7h-6.2L130.4,142.9L130.4,142.9z"/>
	<path class="st0" d="M132.3,148.3c2.1,0,3.5,1.3,3.5,3.3s-1.5,3.3-3.6,3.3h-0.4v-5c-1.2,0.1-1.7,0.8-1.7,1.7c0,0.8,0.4,1.3,0.9,1.5
		v1.6c-1.3-0.3-2.2-1.5-2.2-3.1C128.8,149.7,130.1,148.3,132.3,148.3z M132.9,153.2c0.9-0.1,1.6-0.7,1.6-1.7c0-0.9-0.5-1.5-1.6-1.7
		V153.2z"/>
	<path class="st0" d="M129,160.2c0.2-0.1,0.5-0.2,0.8-0.2c-0.6-0.4-1-1.2-1-2.1c0-1.4,0.7-2.4,2-2.4c1.1,0,1.9,0.7,2.1,2.5l0.1,1
		c0.1,0.6,0.3,0.9,0.8,0.9s0.8-0.3,0.8-1.2s-0.2-1.3-1.1-1.4v-1.6c1.4,0.1,2.3,0.9,2.3,3c0,2-0.8,2.8-2,2.8h-3.5
		c-0.5,0-1,0.1-1.3,0.3L129,160.2L129,160.2z M131.6,160h0.6c-0.2-0.2-0.2-0.4-0.3-0.8l-0.1-0.9c-0.1-0.9-0.4-1.2-1-1.2
		s-0.9,0.4-0.9,1.1C129.9,159.1,130.4,160,131.6,160z"/>
	<path class="st0" d="M129,162.7h9.1v1.6H129V162.7z"/>
	<path class="st0" d="M129,172.8c0.2-0.1,0.5-0.2,0.8-0.2c-0.6-0.4-1-1.2-1-2.1c0-1.4,0.7-2.4,2-2.4c1.1,0,1.9,0.7,2.1,2.5l0.1,1
		c0.1,0.6,0.3,0.9,0.8,0.9s0.8-0.3,0.8-1.2s-0.2-1.3-1.1-1.4v-1.6c1.4,0.1,2.3,0.9,2.3,3c0,2-0.8,2.8-2,2.8h-3.5
		c-0.5,0-1,0.1-1.3,0.3L129,172.8L129,172.8z M131.6,172.5h0.6c-0.2-0.2-0.2-0.4-0.3-0.8l-0.1-0.9c-0.1-0.9-0.4-1.2-1-1.2
		s-0.9,0.4-0.9,1.1C129.9,171.7,130.4,172.5,131.6,172.5z"/>
	<path class="st0" d="M132.3,175c2.1,0,3.5,1.3,3.5,3.3c0,1.7-1,2.9-2.5,3.1v-1.6c0.8-0.2,1.2-0.7,1.2-1.5c0-1-0.7-1.6-2.1-1.6
		s-2.1,0.7-2.1,1.6c0,0.7,0.4,1.4,1.3,1.5v1.6c-1.6-0.2-2.6-1.4-2.6-3.1C128.8,176.3,130.1,175,132.3,175z"/>
	<path class="st0" d="M135.6,187v1.6h-9.1V187h3.4c-0.6-0.4-1-1.1-1-2c0-1.8,1.4-3,3.5-3s3.5,1.1,3.5,3c0,0.9-0.4,1.6-1.1,2.1h0.8
		V187z M132.3,187c1.4,0,2.1-0.7,2.1-1.7s-0.8-1.7-2.2-1.7s-2.1,0.7-2.1,1.7C130.1,186.4,130.9,187,132.3,187z"/>
	<path class="st0" d="M135.6,194.3v1.6H129v-1.6h1c-0.6-0.4-1.1-1.1-1.1-2.1c0-1.4,0.8-2.3,2.4-2.3h4.4v1.6h-4.1
		c-0.8,0-1.3,0.4-1.3,1.2c0,0.7,0.5,1.5,1.7,1.5h3.6V194.3z"/>
	<path class="st0" d="M129,197.2h6.6v1.6H129V197.2z M136.3,197.2h1.5v1.6h-1.5V197.2z"/>
	<path class="st0" d="M131.1,199.7v1.6c-0.8,0.1-1.1,0.5-1.1,1.5c0,0.9,0.3,1.3,0.8,1.3s0.7-0.3,0.9-1.3l0.1-0.8
		c0.2-1.4,0.9-2.2,2-2.2c1.2,0,2,1,2,2.7c0,2-0.9,2.9-2.2,2.9V204c0.8,0,1.1-0.6,1.1-1.4c0-0.8-0.3-1.2-0.8-1.2s-0.7,0.4-0.8,1.1
		l-0.1,0.8c-0.3,1.6-0.9,2.3-2,2.3c-1.3,0-2.1-1.1-2.1-2.9C128.8,200.8,129.5,199.8,131.1,199.7z"/>
	<path class="st0" d="M129,206.5h6.6v1.6H129V206.5z M136.3,206.5h1.5v1.6h-1.5V206.5z"/>
	<path class="st0" d="M134.3,212.9v-1.3h-3.5c-0.4,0-0.6,0.2-0.6,0.8v0.6H129c0-0.3,0-0.6,0-0.8c0-1.4,0.5-2.1,1.7-2.1h3.7v-1h1.3v1
		h1.9v1.6h-1.9v1.3h-1.4V212.9z"/>
	<path class="st0" d="M129,213.8h6.6v1.6H129V213.8z M136.3,213.8h1.5v1.6h-1.5V213.8z"/>
	<path class="st0" d="M132.3,216.5c2.1,0,3.5,1.4,3.5,3.4s-1.4,3.4-3.5,3.4s-3.5-1.3-3.5-3.4S130.2,216.5,132.3,216.5z M132.3,221.6
		c1.4,0,2.1-0.7,2.1-1.7c0-1.1-0.7-1.7-2.1-1.7c-1.4,0-2.1,0.7-2.1,1.7C130.1,220.9,130.9,221.6,132.3,221.6z"/>
	<path class="st0" d="M133.3,230.2H129v-1.6h4.1c0.8,0,1.3-0.4,1.3-1.2c0-0.7-0.5-1.5-1.7-1.5H129v-1.6h6.6v1.6h-0.9
		c0.6,0.4,1.1,1.1,1.1,2.1C135.7,229.3,134.9,230.2,133.3,230.2z"/>
</g>
<g>
	<path d="M726.3,292.9c-2.8,0-4.6-1.6-4.6-4.6v-3.5h9.1v3.5C730.9,291.3,729.1,292.9,726.3,292.9z M723.2,288.2
		c0,1.8,1.1,2.8,3.1,2.8s3.1-1,3.1-2.8v-1.7h-6.2L723.2,288.2L723.2,288.2z"/>
	<path d="M725.1,293.7c2.1,0,3.5,1.3,3.5,3.3s-1.5,3.3-3.6,3.3h-0.4v-5c-1.2,0.1-1.7,0.8-1.7,1.7c0,0.8,0.4,1.3,0.9,1.5v1.6
		c-1.3-0.3-2.2-1.5-2.2-3.1C721.6,295,722.9,293.7,725.1,293.7z M725.7,298.6c0.9-0.1,1.6-0.7,1.6-1.7c0-0.9-0.5-1.5-1.6-1.7V298.6z
		"/>
	<path d="M721.8,305.5c0.2-0.1,0.5-0.2,0.8-0.2c-0.6-0.4-1-1.2-1-2.1c0-1.4,0.7-2.4,2-2.4c1.1,0,1.9,0.7,2.1,2.5l0.1,1
		c0.1,0.6,0.3,0.9,0.8,0.9s0.8-0.3,0.8-1.2c0-0.9-0.2-1.3-1.1-1.4V301c1.4,0.1,2.3,0.9,2.3,3c0,2-0.8,2.8-2,2.8H723
		c-0.5,0-1,0.1-1.3,0.3L721.8,305.5L721.8,305.5z M724.4,305.3h0.6c-0.2-0.2-0.2-0.4-0.3-0.8l-0.1-0.9c-0.1-0.9-0.4-1.2-1-1.2
		s-0.9,0.4-0.9,1.1C722.7,304.5,723.2,305.3,724.4,305.3z"/>
	<path d="M721.8,308.1h9.1v1.6h-9.1V308.1z"/>
	<path d="M721.8,318.1c0.2-0.1,0.5-0.2,0.8-0.2c-0.6-0.4-1-1.2-1-2.1c0-1.4,0.7-2.4,2-2.4c1.1,0,1.9,0.7,2.1,2.5l0.1,1
		c0.1,0.6,0.3,0.9,0.8,0.9s0.8-0.3,0.8-1.2c0-0.9-0.2-1.3-1.1-1.4v-1.6c1.4,0.1,2.3,0.9,2.3,3c0,2-0.8,2.8-2,2.8H723
		c-0.5,0-1,0.1-1.3,0.3L721.8,318.1L721.8,318.1z M724.4,317.9h0.6c-0.2-0.2-0.2-0.4-0.3-0.8l-0.1-0.9c-0.1-0.9-0.4-1.2-1-1.2
		s-0.9,0.4-0.9,1.1C722.7,317,723.2,317.9,724.4,317.9z"/>
	<path d="M725.1,320.3c2.1,0,3.5,1.3,3.5,3.3c0,1.7-1,2.9-2.5,3.1v-1.6c0.8-0.2,1.2-0.7,1.2-1.5c0-1-0.7-1.6-2.1-1.6
		c-1.5,0-2.1,0.7-2.1,1.6c0,0.7,0.4,1.4,1.3,1.5v1.6c-1.6-0.2-2.6-1.4-2.6-3.1C721.6,321.6,722.9,320.3,725.1,320.3z"/>
	<path d="M728.4,332.4v1.6h-9.1v-1.6h3.4c-0.6-0.4-1-1.1-1-2c0-1.8,1.4-3,3.5-3s3.5,1.1,3.5,3c0,1-0.4,1.6-1.1,2.1h0.8V332.4z
		 M725.1,332.4c1.4,0,2.1-0.7,2.1-1.7s-0.8-1.7-2.2-1.7s-2.1,0.7-2.1,1.7C722.9,331.7,723.7,332.4,725.1,332.4z"/>
	<path d="M728.4,339.6v1.6h-6.6v-1.6h1c-0.6-0.4-1.1-1.1-1.1-2.1c0-1.4,0.8-2.3,2.4-2.3h4.4v1.6h-4.1c-0.8,0-1.3,0.4-1.3,1.2
		c0,0.7,0.5,1.5,1.7,1.5L728.4,339.6L728.4,339.6z"/>
	<path d="M721.8,342.5h6.6v1.6h-6.6V342.5z M729.1,342.5h1.5v1.6h-1.5V342.5z"/>
	<path d="M723.9,345v1.6c-0.8,0.1-1.1,0.5-1.1,1.5c0,0.9,0.3,1.3,0.8,1.3s0.7-0.3,0.9-1.3l0.1-0.8c0.2-1.4,0.9-2.2,2-2.2
		c1.2,0,2,1,2,2.7c0,2-0.9,2.9-2.2,2.9v-1.5c0.8,0,1.1-0.6,1.1-1.4s-0.3-1.2-0.8-1.2s-0.7,0.4-0.8,1.1l-0.1,0.8
		c-0.3,1.6-0.9,2.3-2,2.3c-1.3,0-2.1-1.1-2.1-2.9C721.6,346.2,722.3,345.1,723.9,345z"/>
	<path d="M721.8,351.9h6.6v1.6h-6.6V351.9z M729.1,351.9h1.5v1.6h-1.5V351.9z"/>
	<path d="M727.1,358.2v-1.3h-3.5c-0.4,0-0.6,0.2-0.6,0.8v0.6h-1.2c0-0.3,0-0.6,0-0.8c0-1.4,0.5-2.1,1.7-2.1h3.7v-1h1.3v1h1.9v1.6
		h-1.9v1.3h-1.4V358.2z"/>
	<path d="M721.8,359.2h6.6v1.6h-6.6V359.2z M729.1,359.2h1.5v1.6h-1.5V359.2z"/>
	<path d="M725.1,361.8c2.1,0,3.5,1.4,3.5,3.4s-1.4,3.4-3.5,3.4s-3.5-1.3-3.5-3.4C721.6,363.2,723,361.8,725.1,361.8z M725.1,366.9
		c1.4,0,2.1-0.7,2.1-1.7c0-1.1-0.7-1.7-2.1-1.7s-2.1,0.7-2.1,1.7C722.9,366.3,723.7,366.9,725.1,366.9z"/>
	<path d="M726.1,375.5h-4.4v-1.6h4.1c0.8,0,1.3-0.4,1.3-1.2c0-0.7-0.5-1.5-1.7-1.5h-3.7v-1.6h6.6v1.6h-0.9c0.6,0.4,1.1,1.1,1.1,2.1
		C728.5,374.6,727.7,375.5,726.1,375.5z"/>
</g>
<g>
	<path class="st0" d="M230.1,128.8v1.7H221v-1.9l4.1-2.5c0.9-0.6,1.9-1.2,2.7-1.6c-1.6,0.1-3.1,0.1-4.4,0.1H221v-1.7h9.1v1.9
		l-4.1,2.6c-0.8,0.5-1.9,1.2-2.7,1.6c1.6,0,3.1-0.1,4.4-0.1h2.4V128.8z"/>
	<path class="st0" d="M224.3,131.6c2.1,0,3.5,1.3,3.5,3.3s-1.5,3.3-3.6,3.3h-0.4v-5c-1.2,0.1-1.7,0.8-1.7,1.7c0,0.8,0.4,1.3,0.9,1.5
		v1.6c-1.3-0.3-2.2-1.5-2.2-3.1C220.8,132.9,222.2,131.6,224.3,131.6z M224.9,136.5c0.9-0.1,1.6-0.7,1.6-1.7c0-0.9-0.5-1.5-1.6-1.7
		V136.5z"/>
	<path class="st0" d="M227.6,143.9v1.6h-6.4c-1.8,0-2.9-1.1-2.9-3.3c0-1.9,0.9-2.9,2.3-3v1.6c-0.7,0.1-1.1,0.6-1.1,1.5
		c0,1.1,0.6,1.6,1.6,1.6h0.8c-0.6-0.4-1-1.1-1-2c0-1.8,1.4-3,3.4-3s3.4,1.2,3.4,3c0,1-0.4,1.7-1.1,2.1h1V143.9z M224.4,143.9
		c1.3,0,2-0.7,2-1.7s-0.8-1.7-2.1-1.7s-2,0.7-2,1.7C222.3,143.3,223.1,143.9,224.4,143.9z"/>
	<path class="st0" d="M224.3,146.5c2.1,0,3.5,1.4,3.5,3.4s-1.4,3.4-3.5,3.4s-3.5-1.3-3.5-3.4C220.8,147.9,222.2,146.5,224.3,146.5z
		 M224.3,151.6c1.4,0,2.1-0.7,2.1-1.7c0-1.1-0.7-1.7-2.1-1.7c-1.4,0-2.1,0.7-2.1,1.7C222.2,150.9,222.9,151.6,224.3,151.6z"/>
	<path class="st0" d="M226.3,157.4v-1.3h-3.5c-0.4,0-0.6,0.2-0.6,0.8v0.6H221c0-0.3,0-0.6,0-0.8c0-1.4,0.5-2.1,1.7-2.1h3.7v-1h1.3v1
		h1.9v1.6h-1.9v1.3h-1.4V157.4z"/>
	<path class="st0" d="M221,158.3h6.6v1.6H221V158.3z M228.4,158.3h1.5v1.6h-1.5V158.3z"/>
	<path class="st0" d="M221,165.6c0.2-0.1,0.5-0.2,0.8-0.2c-0.6-0.4-1-1.2-1-2.1c0-1.4,0.7-2.4,2-2.4c1.1,0,1.9,0.7,2.1,2.5l0.1,1
		c0.1,0.6,0.3,0.9,0.8,0.9s0.8-0.3,0.8-1.2s-0.2-1.3-1.1-1.4v-1.6c1.4,0.1,2.3,0.9,2.3,3c0,2-0.8,2.8-2,2.8h-3.5
		c-0.5,0-1,0.1-1.3,0.3L221,165.6L221,165.6z M223.6,165.4h0.6c-0.2-0.2-0.2-0.4-0.3-0.8l-0.1-0.9c-0.1-0.9-0.4-1.2-1-1.2
		s-0.9,0.4-0.9,1.1C222,164.5,222.4,165.4,223.6,165.4z"/>
	<path class="st0" d="M226.3,171.4v-1.3h-3.5c-0.4,0-0.6,0.2-0.6,0.8v0.6H221c0-0.3,0-0.6,0-0.8c0-1.4,0.5-2.1,1.7-2.1h3.7v-1h1.3v1
		h1.9v1.6h-1.9v1.3h-1.4V171.4z"/>
	<path class="st0" d="M221,172.4h6.6v1.6H221V172.4z M228.4,172.4h1.5v1.6h-1.5V172.4z"/>
	<path class="st0" d="M224.3,175c2.1,0,3.5,1.4,3.5,3.4s-1.4,3.4-3.5,3.4s-3.5-1.3-3.5-3.4C220.8,176.4,222.2,175,224.3,175z
		 M224.3,180.1c1.4,0,2.1-0.7,2.1-1.7c0-1.1-0.7-1.7-2.1-1.7c-1.4,0-2.1,0.7-2.1,1.7C222.2,179.4,222.9,180.1,224.3,180.1z"/>
	<path class="st0" d="M225.4,188.7H221v-1.6h4.1c0.8,0,1.3-0.4,1.3-1.2c0-0.7-0.5-1.5-1.7-1.5H221v-1.6h6.6v1.6h-0.9
		c0.6,0.4,1.1,1.1,1.1,2.1C227.8,187.8,226.9,188.7,225.4,188.7z"/>
	<path class="st0" d="M224.3,192.5c2.1,0,3.5,1.4,3.5,3.4s-1.4,3.4-3.5,3.4s-3.5-1.3-3.5-3.4C220.8,193.9,222.2,192.5,224.3,192.5z
		 M224.3,197.6c1.4,0,2.1-0.7,2.1-1.7c0-1.1-0.7-1.7-2.1-1.7c-1.4,0-2.1,0.7-2.1,1.7C222.2,196.9,222.9,197.6,224.3,197.6z"/>
	<path class="st0" d="M228.1,202.1h-0.5v1.4h-1.3v-1.4H221v-1.6h5.4v-1h1.3v1h0.5c1.2,0,2.1,0.6,2.1,2.2c0,0.3,0,0.6,0,0.8h-1.2V203
		C228.9,202.4,228.6,202.1,228.1,202.1z"/>
	<path class="st0" d="M226.3,210.7v-1.3h-3.5c-0.4,0-0.6,0.2-0.6,0.8v0.6H221c0-0.3,0-0.6,0-0.8c0-1.4,0.5-2.1,1.7-2.1h3.7v-1h1.3v1
		h1.9v1.6h-1.9v1.3h-1.4V210.7z"/>
	<path class="st0" d="M224.3,211.2c2.1,0,3.5,1.3,3.5,3.3s-1.5,3.3-3.6,3.3h-0.4v-5c-1.2,0.1-1.7,0.8-1.7,1.7c0,0.8,0.4,1.3,0.9,1.5
		v1.6c-1.3-0.3-2.2-1.5-2.2-3.1C220.8,212.6,222.2,211.2,224.3,211.2z M224.9,216.2c0.9-0.1,1.6-0.7,1.6-1.7c0-0.9-0.5-1.5-1.6-1.7
		V216.2z"/>
	<path class="st0" d="M227.7,222.8h-1.5v-0.4c0-1.2-0.6-1.9-1.9-1.9H221v-1.6h6.6v1.6h-1.2c0.7,0.3,1.3,1,1.3,2
		C227.7,222.5,227.7,222.6,227.7,222.8z"/>
	<path class="st0" d="M225.4,233.5H221v-1.6h4.1c0.8,0,1.3-0.4,1.3-1.1c0-0.7-0.5-1.4-1.7-1.4H221v-1.6h4.1c0.8,0,1.3-0.4,1.3-1.2
		c0-0.7-0.5-1.4-1.7-1.4H221v-1.6h6.6v1.6h-0.9c0.6,0.4,1.1,1,1.1,1.9c0,1-0.5,1.7-1.2,2.1c0.7,0.4,1.2,1.1,1.2,2.1
		C227.8,232.7,226.8,233.5,225.4,233.5z"/>
	<path class="st0" d="M223.1,234.4v1.6c-0.8,0.1-1.1,0.5-1.1,1.5c0,0.9,0.3,1.3,0.8,1.3s0.7-0.3,0.9-1.3l0.1-0.8
		c0.2-1.4,0.9-2.2,2-2.2c1.2,0,2,1,2,2.7c0,2-0.9,2.9-2.2,2.9v-1.5c0.8,0,1.1-0.6,1.1-1.4c0-0.8-0.3-1.2-0.8-1.2s-0.7,0.4-0.8,1.1
		l-0.1,0.8c-0.3,1.6-0.9,2.3-2,2.3c-1.3,0-2.1-1.1-2.1-2.9C220.8,235.6,221.5,234.5,223.1,234.4z"/>
	<path class="st0" d="M206.6,143.6c0.2-0.1,0.5-0.2,0.8-0.2c-0.6-0.4-1-1.2-1-2.1c0-1.4,0.7-2.4,2-2.4c1.1,0,1.9,0.7,2.1,2.5l0.1,1
		c0.1,0.6,0.3,0.9,0.8,0.9s0.8-0.3,0.8-1.2s-0.2-1.3-1.1-1.4v-1.6c1.4,0.1,2.3,0.9,2.3,3c0,2-0.8,2.8-2,2.8h-3.5
		c-0.5,0-1,0.1-1.3,0.3L206.6,143.6L206.6,143.6z M209.2,143.3h0.6c-0.2-0.2-0.2-0.4-0.3-0.8l-0.1-0.9c-0.1-0.9-0.4-1.2-1-1.2
		s-0.9,0.4-0.9,1.1C207.6,142.5,208,143.3,209.2,143.3z"/>
	<path class="st0" d="M211,152.1h-4.4v-1.6h4.1c0.8,0,1.3-0.4,1.3-1.2c0-0.7-0.5-1.5-1.7-1.5h-3.7v-1.6h6.6v1.6h-0.9
		c0.6,0.4,1.1,1.1,1.1,2.1C213.4,151.2,212.5,152.1,211,152.1z"/>
	<path class="st0" d="M215.7,158.1v1.6h-9.1v-1.6h0.9c-0.7-0.4-1.1-1.1-1.1-2.1c0-1.8,1.4-3,3.5-3s3.5,1.1,3.5,3c0,0.9-0.4,1.6-1,2
		h3.3V158.1z M209.9,158.2c1.4,0,2.1-0.7,2.1-1.7s-0.8-1.7-2.2-1.7s-2.1,0.7-2.1,1.7C207.8,157.5,208.5,158.2,209.9,158.2z"/>
	<path class="st0" d="M209.9,163.5c2.1,0,3.5,1.3,3.5,3.3c0,1.7-1,2.9-2.5,3.1v-1.6c0.8-0.2,1.2-0.7,1.2-1.5c0-1-0.7-1.6-2.1-1.6
		s-2.1,0.7-2.1,1.6c0,0.7,0.4,1.4,1.3,1.5v1.6c-1.6-0.2-2.6-1.4-2.6-3.1C206.4,164.8,207.8,163.5,209.9,163.5z"/>
	<path class="st0" d="M209.9,170.5c2.1,0,3.5,1.4,3.5,3.4s-1.4,3.4-3.5,3.4s-3.5-1.3-3.5-3.4C206.4,171.9,207.8,170.5,209.9,170.5z
		 M209.9,175.6c1.4,0,2.1-0.7,2.1-1.7c0-1.1-0.7-1.7-2.1-1.7c-1.4,0-2.1,0.7-2.1,1.7C207.8,175,208.5,175.6,209.9,175.6z"/>
	<path class="st0" d="M211,184.2h-4.4v-1.6h4.1c0.8,0,1.3-0.4,1.3-1.2c0-0.7-0.5-1.5-1.7-1.5h-3.7v-1.6h6.6v1.6h-0.9
		c0.6,0.4,1.1,1.1,1.1,2.1C213.4,183.3,212.5,184.2,211,184.2z"/>
	<path class="st0" d="M215.7,190.3v1.6h-9.1v-1.6h0.9c-0.7-0.4-1.1-1.1-1.1-2.1c0-1.8,1.4-3,3.5-3s3.5,1.1,3.5,3c0,0.9-0.4,1.6-1,2
		h3.3V190.3z M209.9,190.3c1.4,0,2.1-0.7,2.1-1.7s-0.8-1.7-2.2-1.7s-2.1,0.7-2.1,1.7C207.8,189.7,208.5,190.3,209.9,190.3z"/>
	<path class="st0" d="M206.6,193.3h6.6v1.6h-6.6V193.3z M214,193.3h1.5v1.6H214V193.3z"/>
	<path class="st0" d="M211.9,199.7v-1.3h-3.5c-0.4,0-0.6,0.2-0.6,0.8v0.6h-1.2c0-0.3,0-0.6,0-0.8c0-1.4,0.5-2.1,1.7-2.1h3.7v-1h1.3
		v1h1.9v1.6h-1.9v1.3h-1.4V199.7z"/>
	<path class="st0" d="M206.6,200.6h6.6v1.6h-6.6V200.6z M214,200.6h1.5v1.6H214V200.6z"/>
	<path class="st0" d="M209.9,203.3c2.1,0,3.5,1.4,3.5,3.4s-1.4,3.4-3.5,3.4s-3.5-1.3-3.5-3.4S207.8,203.3,209.9,203.3z M209.9,208.4
		c1.4,0,2.1-0.7,2.1-1.7c0-1.1-0.7-1.7-2.1-1.7c-1.4,0-2.1,0.7-2.1,1.7C207.8,207.7,208.5,208.4,209.9,208.4z"/>
	<path class="st0" d="M211,217h-4.4v-1.6h4.1c0.8,0,1.3-0.4,1.3-1.2c0-0.7-0.5-1.5-1.7-1.5h-3.7V211h6.6v1.6h-0.9
		c0.6,0.4,1.1,1.1,1.1,2.1C213.4,216,212.5,217,211,217z"/>
	<path class="st0" d="M208.7,217.9v1.6c-0.8,0.1-1.1,0.5-1.1,1.5c0,0.9,0.3,1.3,0.8,1.3s0.7-0.3,0.9-1.3l0.1-0.8
		c0.2-1.4,0.9-2.2,2-2.2c1.2,0,2,1,2,2.7c0,2-0.9,2.9-2.2,2.9v-1.5c0.8,0,1.1-0.6,1.1-1.4c0-0.8-0.3-1.2-0.8-1.2s-0.7,0.4-0.8,1.1
		l-0.1,0.8c-0.3,1.6-0.9,2.3-2,2.3c-1.3,0-2.1-1.1-2.1-2.9C206.4,219,207.1,218,208.7,217.9z"/>
</g>
<g>
	<path d="M824.1,277.6v1.7H815v-1.9l4.1-2.5c0.9-0.6,1.9-1.2,2.7-1.6c-1.6,0.1-3.1,0.1-4.4,0.1H815v-1.7h9.1v1.9l-4.1,2.6
		c-0.8,0.5-1.9,1.2-2.7,1.6c1.6,0,3.1-0.1,4.4-0.1h2.4V277.6z"/>
	<path d="M818.3,280.4c2.1,0,3.5,1.3,3.5,3.3s-1.5,3.3-3.6,3.3h-0.4v-5c-1.2,0.1-1.7,0.8-1.7,1.7c0,0.8,0.4,1.3,0.9,1.5v1.6
		c-1.3-0.3-2.2-1.5-2.2-3.1C814.8,281.7,816.2,280.4,818.3,280.4z M818.9,285.3c0.9-0.1,1.6-0.7,1.6-1.7c0-0.9-0.5-1.5-1.6-1.7
		V285.3z"/>
	<path d="M821.6,292.7v1.6h-6.4c-1.8,0-2.9-1.1-2.9-3.3c0-1.9,0.9-2.9,2.3-3v1.6c-0.7,0.1-1.1,0.6-1.1,1.5c0,1.1,0.6,1.6,1.6,1.6
		h0.8c-0.6-0.4-1-1.1-1-2c0-1.8,1.4-3,3.4-3s3.4,1.2,3.4,3c0,1-0.4,1.7-1.1,2.1h1V292.7z M818.4,292.7c1.3,0,2-0.7,2-1.7
		s-0.8-1.7-2.1-1.7s-2,0.7-2,1.7C816.4,292.1,817.1,292.7,818.4,292.7z"/>
	<path d="M818.3,295.3c2.1,0,3.5,1.4,3.5,3.4s-1.4,3.4-3.5,3.4s-3.5-1.3-3.5-3.4C814.8,296.7,816.2,295.3,818.3,295.3z M818.3,300.4
		c1.4,0,2.1-0.7,2.1-1.7c0-1.1-0.7-1.7-2.1-1.7s-2.1,0.7-2.1,1.7C816.2,299.8,816.9,300.4,818.3,300.4z"/>
	<path d="M820.4,306.2v-1.3h-3.5c-0.4,0-0.6,0.2-0.6,0.8v0.6H815c0-0.3,0-0.6,0-0.8c0-1.4,0.5-2.1,1.7-2.1h3.7v-1h1.3v1h1.9v1.6
		h-1.9v1.3h-1.3V306.2z"/>
	<path d="M815,307.2h6.6v1.6H815V307.2z M822.4,307.2h1.5v1.6h-1.5V307.2z"/>
	<path d="M815,314.4c0.2-0.1,0.5-0.2,0.8-0.2c-0.6-0.4-1-1.2-1-2.1c0-1.4,0.7-2.4,2-2.4c1.1,0,1.9,0.7,2.1,2.5l0.1,1
		c0.1,0.6,0.3,0.9,0.8,0.9s0.8-0.3,0.8-1.2c0-0.9-0.2-1.3-1.1-1.4V310c1.4,0.1,2.3,0.9,2.3,3c0,2-0.8,2.8-2,2.8h-3.5
		c-0.5,0-1,0.1-1.3,0.3L815,314.4L815,314.4z M817.6,314.2h0.6c-0.2-0.2-0.2-0.4-0.3-0.8l-0.1-0.9c-0.1-0.9-0.4-1.2-1-1.2
		s-0.9,0.4-0.9,1.1C816,313.4,816.5,314.2,817.6,314.2z"/>
	<path d="M820.4,320.2v-1.3h-3.5c-0.4,0-0.6,0.2-0.6,0.8v0.6H815c0-0.3,0-0.6,0-0.8c0-1.4,0.5-2.1,1.7-2.1h3.7v-1h1.3v1h1.9v1.6
		h-1.9v1.3h-1.3V320.2z"/>
	<path d="M815,321.2h6.6v1.6H815V321.2z M822.4,321.2h1.5v1.6h-1.5V321.2z"/>
	<path d="M818.3,323.8c2.1,0,3.5,1.4,3.5,3.4s-1.4,3.4-3.5,3.4s-3.5-1.3-3.5-3.4C814.8,325.2,816.2,323.8,818.3,323.8z M818.3,328.9
		c1.4,0,2.1-0.7,2.1-1.7c0-1.1-0.7-1.7-2.1-1.7s-2.1,0.7-2.1,1.7C816.2,328.3,816.9,328.9,818.3,328.9z"/>
	<path d="M819.4,337.5H815v-1.6h4.1c0.8,0,1.3-0.4,1.3-1.2c0-0.7-0.5-1.5-1.7-1.5H815v-1.6h6.6v1.6h-0.9c0.6,0.4,1.1,1.1,1.1,2.1
		C821.8,336.6,821,337.5,819.4,337.5z"/>
	<path d="M818.3,341.3c2.1,0,3.5,1.4,3.5,3.4s-1.4,3.4-3.5,3.4s-3.5-1.3-3.5-3.4C814.8,342.7,816.2,341.3,818.3,341.3z M818.3,346.4
		c1.4,0,2.1-0.7,2.1-1.7c0-1.1-0.7-1.7-2.1-1.7s-2.1,0.7-2.1,1.7C816.2,345.8,816.9,346.4,818.3,346.4z"/>
	<path d="M822.1,351h-0.5v1.4h-1.3V351H815v-1.6h5.4v-1h1.3v1h0.5c1.2,0,2.1,0.6,2.1,2.2c0,0.3,0,0.6,0,0.8h-1.2v-0.6
		C822.9,351.2,822.6,351,822.1,351z"/>
	<path d="M820.4,359.5v-1.3h-3.5c-0.4,0-0.6,0.2-0.6,0.8v0.6H815c0-0.3,0-0.6,0-0.8c0-1.4,0.5-2.1,1.7-2.1h3.7v-1h1.3v1h1.9v1.6
		h-1.9v1.3h-1.3V359.5z"/>
	<path d="M818.3,360.1c2.1,0,3.5,1.3,3.5,3.3s-1.5,3.3-3.6,3.3h-0.4v-5c-1.2,0.1-1.7,0.8-1.7,1.7c0,0.8,0.4,1.3,0.9,1.5v1.6
		c-1.3-0.3-2.2-1.5-2.2-3.1C814.8,361.4,816.2,360.1,818.3,360.1z M818.9,365c0.9-0.1,1.6-0.7,1.6-1.7c0-0.9-0.5-1.5-1.6-1.7V365z"
		/>
	<path d="M821.7,371.6h-1.5v-0.4c0-1.2-0.6-1.9-1.9-1.9H815v-1.6h6.6v1.6h-1.2c0.7,0.3,1.3,1,1.3,2
		C821.7,371.3,821.7,371.5,821.7,371.6z"/>
	<path d="M819.4,382.4H815v-1.6h4.1c0.8,0,1.3-0.4,1.3-1.1s-0.5-1.4-1.7-1.4H815v-1.6h4.1c0.8,0,1.3-0.4,1.3-1.2
		c0-0.7-0.5-1.4-1.7-1.4H815v-1.6h6.6v1.6h-0.9c0.6,0.4,1.1,1,1.1,1.9c0,1-0.5,1.7-1.2,2.1c0.7,0.4,1.2,1.1,1.2,2.1
		C821.8,381.5,820.8,382.4,819.4,382.4z"/>
	<path d="M817.1,383.2v1.6c-0.8,0.1-1.1,0.5-1.1,1.5c0,0.9,0.3,1.3,0.8,1.3s0.7-0.3,0.9-1.3l0.1-0.8c0.2-1.4,0.9-2.2,2-2.2
		c1.2,0,2,1,2,2.7c0,2-0.9,2.9-2.2,2.9v-1.5c0.8,0,1.1-0.6,1.1-1.4s-0.3-1.2-0.8-1.2s-0.7,0.4-0.8,1.1l-0.1,0.8
		c-0.3,1.6-0.9,2.3-2,2.3c-1.3,0-2.1-1.1-2.1-2.9C814.8,384.4,815.5,383.3,817.1,383.2z"/>
	<path d="M800.6,292.4c0.2-0.1,0.5-0.2,0.8-0.2c-0.6-0.4-1-1.2-1-2.1c0-1.4,0.7-2.4,2-2.4c1.1,0,1.9,0.7,2.1,2.5l0.1,1
		c0.1,0.6,0.3,0.9,0.8,0.9s0.8-0.3,0.8-1.2c0-0.9-0.2-1.3-1.1-1.4V288c1.4,0.1,2.3,0.9,2.3,3c0,2-0.8,2.8-2,2.8h-3.5
		c-0.5,0-1,0.1-1.3,0.3L800.6,292.4L800.6,292.4z M803.2,292.2h0.6c-0.2-0.2-0.2-0.4-0.3-0.8l-0.1-0.9c-0.1-0.9-0.4-1.2-1-1.2
		s-0.9,0.4-0.9,1.1C801.6,291.3,802.1,292.2,803.2,292.2z"/>
	<path d="M805,300.9h-4.4v-1.6h4.1c0.8,0,1.3-0.4,1.3-1.2c0-0.7-0.5-1.5-1.7-1.5h-3.7V295h6.6v1.6h-0.9c0.6,0.4,1.1,1.1,1.1,2.1
		C807.4,300,806.6,300.9,805,300.9z"/>
	<path d="M809.7,307v1.6h-9.1V307h0.9c-0.7-0.4-1.1-1.1-1.1-2.1c0-1.8,1.4-3,3.5-3s3.5,1.1,3.5,3c0,0.9-0.4,1.6-1,2h3.3V307z
		 M803.9,307c1.4,0,2.1-0.7,2.1-1.7s-0.8-1.7-2.2-1.7s-2.1,0.7-2.1,1.7C801.8,306.3,802.5,307,803.9,307z"/>
	<path d="M803.9,312.4c2.1,0,3.5,1.3,3.5,3.3c0,1.7-1,2.9-2.5,3.1v-1.6c0.8-0.2,1.2-0.7,1.2-1.5c0-1-0.7-1.6-2.1-1.6
		s-2.1,0.7-2.1,1.6c0,0.7,0.4,1.4,1.3,1.5v1.6c-1.6-0.2-2.6-1.4-2.6-3.1C800.4,313.7,801.8,312.4,803.9,312.4z"/>
	<path d="M803.9,319.4c2.1,0,3.5,1.4,3.5,3.4s-1.4,3.4-3.5,3.4s-3.5-1.3-3.5-3.4C800.4,320.7,801.8,319.4,803.9,319.4z M803.9,324.5
		c1.4,0,2.1-0.7,2.1-1.7c0-1.1-0.7-1.7-2.1-1.7c-1.4,0-2.1,0.7-2.1,1.7C801.8,323.8,802.5,324.5,803.9,324.5z"/>
	<path d="M805,333.1h-4.4v-1.6h4.1c0.8,0,1.3-0.4,1.3-1.2c0-0.7-0.5-1.5-1.7-1.5h-3.7v-1.6h6.6v1.6h-0.9c0.6,0.4,1.1,1.1,1.1,2.1
		C807.4,332.1,806.6,333.1,805,333.1z"/>
	<path d="M809.7,339.1v1.6h-9.1v-1.6h0.9c-0.7-0.4-1.1-1.1-1.1-2.1c0-1.8,1.4-3,3.5-3s3.5,1.1,3.5,3c0,0.9-0.4,1.6-1,2h3.3V339.1z
		 M803.9,339.1c1.4,0,2.1-0.7,2.1-1.7s-0.8-1.7-2.2-1.7s-2.1,0.7-2.1,1.7C801.8,338.5,802.5,339.1,803.9,339.1z"/>
	<path d="M800.6,342.1h6.6v1.6h-6.6V342.1z M808,342.1h1.5v1.6H808V342.1z"/>
	<path d="M806,348.5v-1.3h-3.5c-0.4,0-0.6,0.2-0.6,0.8v0.6h-1.2c0-0.3,0-0.6,0-0.8c0-1.4,0.5-2.1,1.7-2.1h3.7v-1h1.3v1h1.9v1.6h-1.9
		v1.3H806V348.5z"/>
	<path d="M800.6,349.4h6.6v1.6h-6.6V349.4z M808,349.4h1.5v1.6H808V349.4z"/>
	<path d="M803.9,352.1c2.1,0,3.5,1.4,3.5,3.4s-1.4,3.4-3.5,3.4s-3.5-1.3-3.5-3.4S801.8,352.1,803.9,352.1z M803.9,357.2
		c1.4,0,2.1-0.7,2.1-1.7c0-1.1-0.7-1.7-2.1-1.7c-1.4,0-2.1,0.7-2.1,1.7C801.8,356.5,802.5,357.2,803.9,357.2z"/>
	<path d="M805,365.8h-4.4v-1.6h4.1c0.8,0,1.3-0.4,1.3-1.2c0-0.7-0.5-1.5-1.7-1.5h-3.7v-1.6h6.6v1.6h-0.9c0.6,0.4,1.1,1.1,1.1,2.1
		C807.4,364.9,806.6,365.8,805,365.8z"/>
	<path d="M802.7,366.7v1.6c-0.8,0.1-1.1,0.5-1.1,1.5c0,0.9,0.3,1.3,0.8,1.3s0.7-0.3,0.9-1.3l0.1-0.8c0.2-1.4,0.9-2.2,2-2.2
		c1.2,0,2,1,2,2.7c0,2-0.9,2.9-2.2,2.9V371c0.8,0,1.1-0.6,1.1-1.4s-0.3-1.2-0.8-1.2s-0.7,0.4-0.8,1.1l-0.1,0.8
		c-0.3,1.6-0.9,2.3-2,2.3c-1.3,0-2.1-1.1-2.1-2.9C800.4,367.8,801.1,366.8,802.7,366.7z"/>
</g>
<g>
	<path class="st0" d="M309.5,270.6c-1.8,0-3-1.1-3-3.2v-2.3h-3.2v-1.7h9.1v4C312.5,269.5,311.3,270.6,309.5,270.6z M308,267.3
		c0,1,0.5,1.6,1.5,1.6s1.5-0.6,1.5-1.6v-2.2h-3V267.3z"/>
	<path class="st0" d="M310.1,275.5h-1.5v-0.4c0-1.2-0.6-1.9-1.9-1.9h-3.4v-1.6h6.6v1.6h-1.2c0.7,0.3,1.3,1,1.3,2
		C310.1,275.2,310.1,275.3,310.1,275.5z"/>
	<path class="st0" d="M306.7,275.8c2.1,0,3.5,1.4,3.5,3.4s-1.4,3.4-3.5,3.4s-3.5-1.3-3.5-3.4C303.2,277.1,304.6,275.8,306.7,275.8z
		 M306.7,280.9c1.4,0,2.1-0.7,2.1-1.7c0-1.1-0.7-1.7-2.1-1.7s-2.1,0.7-2.1,1.7C304.5,280.2,305.3,280.9,306.7,280.9z"/>
	<path class="st0" d="M306.7,290.2c-2.1,0-3.5-1.1-3.5-3c0-0.9,0.4-1.6,1-2.1h-3.4v-1.6h9.1v1.6H309c0.7,0.5,1.1,1.2,1.1,2.1
		C310.1,289,308.8,290.2,306.7,290.2z M306.7,288.5c1.4,0,2.1-0.7,2.1-1.7s-0.7-1.7-2.1-1.7s-2.1,0.7-2.1,1.7
		S305.3,288.5,306.7,288.5z"/>
	<path class="st0" d="M306.7,290.9c2.1,0,3.5,1.3,3.5,3.3s-1.5,3.3-3.6,3.3h-0.4v-5c-1.2,0.1-1.7,0.8-1.7,1.7c0,0.8,0.4,1.3,0.9,1.5
		v1.6c-1.3-0.3-2.2-1.5-2.2-3.1C303.2,292.2,304.6,290.9,306.7,290.9z M307.3,295.8c0.9-0.1,1.6-0.7,1.6-1.7c0-0.9-0.5-1.5-1.6-1.7
		V295.8z"/>
	<path class="st0" d="M310.1,302.4h-1.5V302c0-1.2-0.6-1.9-1.9-1.9h-3.4v-1.6h6.6v1.6h-1.2c0.7,0.3,1.3,1,1.3,2
		C310.1,302.2,310.1,302.3,310.1,302.4z"/>
	<path class="st0" d="M308.7,306.8v-1.3h-3.5c-0.4,0-0.6,0.2-0.6,0.8v0.6h-1.2c0-0.3,0-0.6,0-0.8c0-1.4,0.5-2.1,1.7-2.1h3.7v-1h1.3
		v1h1.9v1.6h-2v1.3h-1.3V306.8z"/>
	<path class="st0" d="M310,312.1v1.7l-7.2-2.6c-1.5-0.5-2-1.2-2-2.9c0-0.3,0-0.5,0-0.7h1.3v0.6c0,0.8,0.5,1.1,1.1,1.1
		c0.4,0,0.9-0.2,1.3-0.3l5.4-1.9v1.7l-1.7,0.5c-1.2,0.4-2.4,0.7-3.7,1.1c1.3,0.3,2.5,0.7,3.7,1.1L310,312.1z"/>
	<path class="st0" d="M303.4,317.2h6.6v1.6h-6.6V317.2z M310.8,317.2h1.5v1.6h-1.5V317.2z"/>
	<path class="st0" d="M307.8,326.1h-4.4v-1.6h4.1c0.8,0,1.3-0.4,1.3-1.2c0-0.7-0.5-1.5-1.7-1.5h-3.7v-1.6h6.6v1.6h-1
		c0.6,0.4,1.1,1.1,1.1,2.1C310.1,325.2,309.3,326.1,307.8,326.1z"/>
	<path class="st0" d="M310.5,329.4H310v1.4h-1.3v-1.4h-5.4v-1.6h5.4v-1h1.3v1h0.5c1.2,0,2.1,0.6,2.1,2.2c0,0.3,0,0.6,0,0.8h-1.2
		v-0.6C311.3,329.7,311,329.4,310.5,329.4z"/>
	<path class="st0" d="M306.7,331.1c2.1,0,3.5,1.4,3.5,3.4s-1.4,3.4-3.5,3.4s-3.5-1.3-3.5-3.4S304.6,331.1,306.7,331.1z M306.7,336.2
		c1.4,0,2.1-0.7,2.1-1.7c0-1.1-0.7-1.7-2.1-1.7s-2.1,0.7-2.1,1.7C304.5,335.5,305.3,336.2,306.7,336.2z"/>
	<path class="st0" d="M310.1,342.8h-1.5v-0.4c0-1.2-0.6-1.9-1.9-1.9h-3.4v-1.6h6.6v1.6h-1.2c0.7,0.3,1.3,1,1.3,2
		C310.1,342.5,310.1,342.6,310.1,342.8z"/>
	<path class="st0" d="M307.7,353.5h-4.4v-1.6h4.1c0.8,0,1.3-0.4,1.3-1.1s-0.5-1.4-1.7-1.4h-3.6v-1.6h4.1c0.8,0,1.3-0.4,1.3-1.2
		c0-0.7-0.5-1.4-1.7-1.4h-3.6v-1.6h6.6v1.6H309c0.6,0.4,1.1,1,1.1,1.9c0,1-0.5,1.7-1.2,2.1c0.7,0.4,1.2,1.1,1.2,2.1
		C310.1,352.7,309.2,353.5,307.7,353.5z"/>
	<path class="st0" d="M303.4,359.2c0.2-0.1,0.5-0.2,0.8-0.2c-0.6-0.4-1-1.2-1-2.1c0-1.4,0.7-2.4,2-2.4c1.1,0,1.9,0.7,2.1,2.5l0.1,1
		c0.1,0.6,0.3,0.9,0.8,0.9s0.8-0.3,0.8-1.2c0-0.9-0.2-1.3-1.1-1.4v-1.6c1.4,0.1,2.3,0.9,2.3,3c0,2-0.8,2.8-2,2.8h-3.5
		c-0.5,0-1,0.1-1.3,0.3L303.4,359.2L303.4,359.2z M306,358.9h0.6c-0.2-0.2-0.2-0.4-0.3-0.8l-0.1-0.9c-0.1-0.9-0.4-1.2-1-1.2
		s-0.9,0.4-0.9,1.1C304.4,358.1,304.8,358.9,306,358.9z"/>
	<path class="st0" d="M308.7,365v-1.3h-3.5c-0.4,0-0.6,0.2-0.6,0.8v0.6h-1.2c0-0.3,0-0.6,0-0.8c0-1.4,0.5-2.1,1.7-2.1h3.7v-1h1.3v1
		h1.9v1.6h-2v1.3h-1.3V365z"/>
	<path class="st0" d="M303.4,365.9h6.6v1.6h-6.6V365.9z M310.8,365.9h1.5v1.6h-1.5V365.9z"/>
	<path class="st0" d="M306.7,368.6c2.1,0,3.5,1.4,3.5,3.4s-1.4,3.4-3.5,3.4s-3.5-1.3-3.5-3.4S304.6,368.6,306.7,368.6z M306.7,373.7
		c1.4,0,2.1-0.7,2.1-1.7c0-1.1-0.7-1.7-2.1-1.7s-2.1,0.7-2.1,1.7C304.5,373,305.3,373.7,306.7,373.7z"/>
	<path class="st0" d="M307.8,382.3h-4.4v-1.6h4.1c0.8,0,1.3-0.4,1.3-1.2c0-0.7-0.5-1.5-1.7-1.5h-3.7v-1.6h6.6v1.6h-1
		c0.6,0.4,1.1,1.1,1.1,2.1C310.1,381.3,309.3,382.3,307.8,382.3z"/>
</g>
<g>
	<path d="M901.6,278c-1.8,0-3-1.1-3-3.2v-2.3h-3.2v-1.7h9.1v4C904.6,276.8,903.3,278,901.6,278z M900.1,274.7c0,1,0.5,1.6,1.5,1.6
		s1.5-0.6,1.5-1.6v-2.2h-3V274.7z"/>
	<path d="M902.1,282.8h-1.5v-0.4c0-1.2-0.6-1.9-1.9-1.9h-3.4v-1.6h6.6v1.6h-1.2c0.7,0.3,1.3,1,1.3,2
		C902.1,282.6,902.1,282.7,902.1,282.8z"/>
	<path d="M898.7,283.1c2.1,0,3.5,1.4,3.5,3.4s-1.4,3.4-3.5,3.4s-3.5-1.3-3.5-3.4C895.3,284.5,896.6,283.1,898.7,283.1z M898.7,288.2
		c1.4,0,2.1-0.7,2.1-1.7c0-1.1-0.7-1.7-2.1-1.7c-1.4,0-2.1,0.7-2.1,1.7C896.6,287.5,897.3,288.2,898.7,288.2z"/>
	<path d="M898.7,297.5c-2.1,0-3.5-1.1-3.5-3c0-0.9,0.4-1.6,1-2.1h-3.4v-1.6h9.1v1.6H901c0.7,0.5,1.1,1.2,1.1,2.1
		C902.2,296.4,900.8,297.5,898.7,297.5z M898.8,295.9c1.4,0,2.1-0.7,2.1-1.7s-0.7-1.7-2.1-1.7c-1.4,0-2.1,0.7-2.1,1.7
		S897.4,295.9,898.8,295.9z"/>
	<path d="M898.7,298.2c2.1,0,3.5,1.3,3.5,3.3s-1.5,3.3-3.6,3.3h-0.4v-5c-1.2,0.1-1.7,0.8-1.7,1.7c0,0.8,0.4,1.3,0.9,1.5v1.6
		c-1.3-0.3-2.2-1.5-2.2-3.1C895.3,299.6,896.6,298.2,898.7,298.2z M899.3,303.2c0.9-0.1,1.6-0.7,1.6-1.7c0-0.9-0.5-1.5-1.6-1.7
		V303.2z"/>
	<path d="M902.1,309.7h-1.5v-0.4c0-1.2-0.6-1.9-1.9-1.9h-3.4v-1.6h6.6v1.6h-1.2c0.7,0.3,1.3,1,1.3,2
		C902.1,309.5,902.1,309.6,902.1,309.7z"/>
	<path d="M900.8,314.1v-1.3h-3.5c-0.4,0-0.6,0.2-0.6,0.8v0.6h-1.2c0-0.3,0-0.6,0-0.8c0-1.4,0.5-2.1,1.7-2.1h3.7v-1h1.3v1h1.9v1.6
		H902v1.3h-1.2V314.1z"/>
	<path d="M902,319.4v1.7l-7.2-2.6c-1.5-0.5-2-1.2-2-2.9c0-0.3,0-0.5,0-0.7h1.3v0.6c0,0.8,0.5,1.1,1.1,1.1c0.4,0,0.9-0.2,1.3-0.3
		l5.4-1.9v1.7l-1.7,0.5c-1.2,0.4-2.4,0.7-3.7,1.1c1.3,0.3,2.5,0.7,3.7,1.1L902,319.4z"/>
	<path d="M895.4,324.6h6.6v1.6h-6.6V324.6z M902.8,324.6h1.5v1.6h-1.5V324.6z"/>
	<path d="M899.8,333.5h-4.4v-1.6h4.1c0.8,0,1.3-0.4,1.3-1.2c0-0.7-0.5-1.5-1.7-1.5h-3.7v-1.6h6.6v1.6h-1c0.6,0.4,1.1,1.1,1.1,2.1
		C902.2,332.5,901.4,333.5,899.8,333.5z"/>
	<path d="M902.5,336.7H902v1.4h-1.3v-1.4h-5.4v-1.6h5.4v-1h1.3v1h0.5c1.2,0,2.1,0.6,2.1,2.2c0,0.3,0,0.6,0,0.8h-1.2v-0.6
		C903.3,337,903,336.7,902.5,336.7z"/>
	<path d="M898.7,338.4c2.1,0,3.5,1.4,3.5,3.4s-1.4,3.4-3.5,3.4s-3.5-1.3-3.5-3.4C895.3,339.8,896.6,338.4,898.7,338.4z M898.7,343.5
		c1.4,0,2.1-0.7,2.1-1.7c0-1.1-0.7-1.7-2.1-1.7c-1.4,0-2.1,0.7-2.1,1.7C896.6,342.8,897.3,343.5,898.7,343.5z"/>
	<path d="M902.1,350.1h-1.5v-0.4c0-1.2-0.6-1.9-1.9-1.9h-3.4v-1.6h6.6v1.6h-1.2c0.7,0.3,1.3,1,1.3,2
		C902.1,349.8,902.1,349.9,902.1,350.1z"/>
	<path d="M899.8,360.8h-4.4v-1.6h4.1c0.8,0,1.3-0.4,1.3-1.1s-0.5-1.4-1.7-1.4h-3.6v-1.6h4.1c0.8,0,1.3-0.4,1.3-1.2
		c0-0.7-0.5-1.4-1.7-1.4h-3.6V351h6.6v1.6h-1c0.6,0.4,1.1,1,1.1,1.9c0,1-0.5,1.7-1.2,2.1c0.7,0.4,1.2,1.1,1.2,2.1
		C902.2,360,901.3,360.8,899.8,360.8z"/>
	<path d="M895.4,366.5c0.2-0.1,0.5-0.2,0.8-0.2c-0.6-0.4-1-1.2-1-2.1c0-1.4,0.7-2.4,2-2.4c1.1,0,1.9,0.7,2.1,2.5l0.1,1
		c0.1,0.6,0.3,0.9,0.8,0.9s0.8-0.3,0.8-1.2c0-0.9-0.2-1.3-1.1-1.4V362c1.4,0.1,2.3,0.9,2.3,3c0,2-0.8,2.8-2,2.8h-3.5
		c-0.5,0-1,0.1-1.3,0.3L895.4,366.5L895.4,366.5z M898,366.3h0.6c-0.2-0.2-0.2-0.4-0.3-0.8l-0.1-0.9c-0.1-0.9-0.4-1.2-1-1.2
		s-0.9,0.4-0.9,1.1C896.4,365.4,896.9,366.3,898,366.3z"/>
	<path d="M900.8,372.3V371h-3.5c-0.4,0-0.6,0.2-0.6,0.8v0.6h-1.2c0-0.3,0-0.6,0-0.8c0-1.4,0.5-2.1,1.7-2.1h3.7v-1h1.3v1h1.9v1.6H902
		v1.3h-1.2V372.3z"/>
	<path d="M895.4,373.3h6.6v1.6h-6.6V373.3z M902.8,373.3h1.5v1.6h-1.5V373.3z"/>
	<path d="M898.7,375.9c2.1,0,3.5,1.4,3.5,3.4s-1.4,3.4-3.5,3.4s-3.5-1.3-3.5-3.4C895.3,377.3,896.6,375.9,898.7,375.9z M898.7,381
		c1.4,0,2.1-0.7,2.1-1.7c0-1.1-0.7-1.7-2.1-1.7c-1.4,0-2.1,0.7-2.1,1.7C896.6,380.3,897.3,381,898.7,381z"/>
	<path d="M899.8,389.6h-4.4V388h4.1c0.8,0,1.3-0.4,1.3-1.2c0-0.7-0.5-1.5-1.7-1.5h-3.7v-1.6h6.6v1.6h-1c0.6,0.4,1.1,1.1,1.1,2.1
		C902.2,388.7,901.4,389.6,899.8,389.6z"/>
</g>
<g>
	<path d="M737.4,59c0-7.3,4.6-11.8,10.7-11.8s10.8,4.5,10.8,11.8c0,7.3-4.8,12.1-10.8,12.1S737.4,66.4,737.4,59z M754.2,59
		c0-4.6-2.4-7.8-6.1-7.8c-3.7,0-6,3.1-6,7.8c0,4.8,2.3,8,6,8C751.8,67,754.2,63.8,754.2,59z"/>
	<path d="M767.2,57.1v8.1c0,1.1,0.4,1.6,1.6,1.6h1.5v3.6h-2.9c-3.3,0-4.6-1.3-4.6-4.6v-8.6l-2.2,0.1v-3.3l2.2,0.1v-5.1h4.5V54
		l3.1-0.1v3.3L767.2,57.1z"/>
	<path d="M787.4,59.3v11h-4.5v-10c0-1.7-0.8-2.8-2.4-2.8c-1.9,0-3.2,1.6-3.2,4v8.8h-4.5V47.7h4.5v8.4c1.1-1.8,2.6-2.6,4.7-2.6
		C785.4,53.5,787.4,55.8,787.4,59.3z"/>
	<path d="M806.8,63.5h-11.9c0.2,2.5,1.6,3.9,3.9,3.9c1.6,0,2.6-0.7,3.2-2.1l4.5,0.3c-1.1,3.6-3.9,5.3-7.5,5.3
		c-5.4,0-8.6-3.8-8.6-8.8c0-4.8,3.1-8.6,8.1-8.6c4.9,0,8.4,3.4,8.4,9.2V63.5z M794.9,60.4h7.3c-0.3-2.3-1.6-3.6-3.6-3.6
		C796.5,56.8,795.1,58.2,794.9,60.4z"/>
	<path d="M819.3,53.6v4.1c-0.3,0-0.6-0.1-0.9-0.1c-2.7,0-4.1,1.6-4.1,4.7v8h-4.5V53.9h4.4l-0.1,2.3c0.7-1.7,2.1-2.7,3.9-2.7
		C818.4,53.5,818.8,53.5,819.3,53.6z"/>
	<path d="M829,59c0-7.3,4.5-11.8,10.6-11.8c5.5,0,9.1,3.1,9.6,8h-4.5c-0.4-2.4-2-3.9-4.8-3.9c-3.9,0-6.1,3.1-6.1,7.8
		c0,4.8,2.2,8,6.1,8c3,0,4.5-1.9,4.8-4.1h4.5c-0.4,5.2-4.1,8.1-9.6,8.1C833.5,71.1,829,66.4,829,59z"/>
	<path d="M850.9,62.2c0-5,3.5-8.7,8.4-8.7s8.4,3.7,8.4,8.7s-3.5,8.7-8.4,8.7S850.9,67.2,850.9,62.2z M863.4,62.2
		c0-3.2-1.6-5.2-4.1-5.2s-4.1,2-4.1,5.2c0,3.2,1.6,5.2,4.1,5.2S863.4,65.4,863.4,62.2z"/>
	<path d="M894.4,59.4v11h-4.5V60.3c0-1.5-0.6-2.7-2.2-2.7c-1.7,0-2.9,1.6-2.9,4v8.8h-4.5V60.3c0-1.5-0.6-2.7-2.2-2.7
		c-1.7,0-2.9,1.6-2.9,4v8.8h-4.5V53.9h4.4l0.1,2.1c1-1.7,2.5-2.5,4.5-2.5c2.4,0,4,1.1,4.7,3c1.1-2,2.6-3,4.8-3
		C892.6,53.5,894.4,55.9,894.4,59.4z"/>
	<path d="M914.2,62.1c0,5.3-2.9,8.8-7.1,8.8c-1.8,0-3.4-0.7-4.4-2.1v8h-4.5V53.9h4l0.2,2.1c1.1-1.7,2.8-2.5,5.1-2.5
		C911.2,53.5,914.2,56.7,914.2,62.1z M909.9,62.1c0-3-1.5-4.8-3.7-4.8c-2.2,0-3.7,1.9-3.7,4.8c0,3,1.5,4.9,3.7,4.9
		C908.4,67,909.9,65.1,909.9,62.1z"/>
	<path d="M927.2,70.4c-0.1-0.6-0.3-1.1-0.3-1.7c-1.1,1.3-2.9,2.1-5.1,2.1c-3.5,0-5.7-2-5.7-5c0-2.6,1.7-4.3,5-5l5.7-1.1v-1.2
		c0-1.2-1-1.8-2.8-1.8c-1.8,0-2.7,0.6-2.9,2.2l-4.1-0.1c0.3-3.6,2.6-5.3,7-5.3c4.7,0,7.1,2.1,7.1,6.1v7.3c0,1.5,0.2,2.6,0.6,3.4
		H927.2z M926.8,63.8v-1.2l-4.2,0.9c-1.4,0.3-2.1,1-2.1,2.1c0,1.2,0.9,2,2.6,2C925.2,67.5,926.8,66.2,926.8,63.8z"/>
	<path d="M949.5,59.3v11H945v-10c0-1.7-0.8-2.8-2.4-2.8c-1.9,0-3.2,1.6-3.2,4v8.8h-4.5V53.9h4.4l0.1,2.2c1.1-1.8,2.6-2.6,4.7-2.6
		C947.5,53.5,949.5,55.8,949.5,59.3z"/>
	<path d="M953.3,70.4V53.9h4.5v16.4H953.3z M953.3,51.8v-4.1h4.5v4.1H953.3z"/>
	<path d="M977.2,63.5h-11.9c0.2,2.5,1.6,3.9,3.9,3.9c1.6,0,2.6-0.7,3.2-2.1l4.5,0.3c-1.1,3.6-3.9,5.3-7.5,5.3
		c-5.4,0-8.6-3.8-8.6-8.8c0-4.8,3.1-8.6,8.1-8.6c4.9,0,8.4,3.4,8.4,9.2V63.5z M965.3,60.4h7.3c-0.3-2.3-1.6-3.6-3.6-3.6
		C966.9,56.8,965.5,58.2,965.3,60.4z"/>
	<path d="M979.6,65.5l4.1-0.2c0.3,1.6,1.4,2.5,3.5,2.5c1.7,0,3-0.6,3-1.8c0-0.9-0.7-1.4-2.2-1.7l-3.2-0.6c-3.2-0.6-4.8-2.3-4.8-4.8
		c0-3.3,2.6-5.4,6.7-5.4c4,0,6.7,2,7.1,5.3l-4,0.2c-0.2-1.4-1.4-2.3-3.1-2.3c-1.5,0-2.5,0.7-2.5,1.7c0,0.9,0.7,1.4,1.8,1.7l3.5,0.7
		c3.3,0.7,4.8,2.2,4.8,4.7c0,3.5-2.9,5.5-7.3,5.5C982.6,71,980,69,979.6,65.5z"/>
</g>
<text transform="matrix(1.07 0 0 1.07 730.9 -123.1557)" style="font-family:'ATC-30d230e930ae30ce202b204e6f7720422054657874-83pv-RKSJ-H'; font-size:20px;">Other Companies</text>
</svg>
