<?xml version="1.0" encoding="utf-8"?>
<!-- Generator: Adobe Illustrator 27.1.1, SVG Export Plug-In . SVG Version: 6.00 Build 0)  -->
<svg version="1.1" id="レイヤー_1" xmlns="http://www.w3.org/2000/svg" xmlns:xlink="http://www.w3.org/1999/xlink" x="0px"
	 y="0px" viewBox="0 0 337 417.1" style="enable-background:new 0 0 337 417.1;" xml:space="preserve">
<style type="text/css">
	.st0{fill:#FFFFFF;}
	.st1{fill:#E98268;}
	.st2{fill:none;stroke:#E97E64;stroke-width:2;stroke-linecap:round;stroke-dasharray:5;}
	.st3{fill:#E97E64;}
	.st4{fill:#E45E3E;}
</style>
<g id="グループ_13757" transform="translate(-20 -1704)">
	<g id="パス_12981" transform="translate(20 1742)">
		<path class="st0" d="M336,322H1V1h335V322z"/>
		<path class="st1" d="M2,2v319h333V2H2 M0,0h337v323H0V0z"/>
	</g>
	<path id="パス_12982" class="st0" d="M115,1704h162v45H115V1704z"/>
	<path id="パス_12983" class="st2" d="M85.2,1818.7h248.1"/>
	<path id="パス_12984" class="st3" d="M93,1776h22c4.4,0,8,3.6,8,8v70c0,4.4-3.6,8-8,8H93c-4.4,0-8-3.6-8-8v-70
		C85,1779.6,88.6,1776,93,1776z"/>
	<path id="パス_12986" class="st3" d="M147,1776h21c4.4,0,8,3.6,8,8v70c0,4.4-3.6,8-8,8h-21c-4.4,0-8-3.6-8-8v-70
		C139,1779.6,142.6,1776,147,1776z"/>
	<path id="パス_12988" class="st2" d="M85.2,1904.6h248.1"/>
	<path id="パス_12989" class="st3" d="M200,1863h21c4.4,0,8,3.6,8,8v70c0,4.4-3.6,8-8,8h-21c-4.4,0-8-3.6-8-8v-70
		C192,1866.6,195.6,1863,200,1863z"/>
	<path id="パス_12991" class="st2" d="M85.2,1993.3h248.1"/>
	<path id="パス_12992" class="st3" d="M253.8,1950.6h21.4c4.4,0,8,3.6,8,8c0,0,0,0,0,0v70.1c0,4.4-3.6,8-8,8h-21.4
		c-4.4,0-8-3.6-8-8v-70.1C245.8,1954.2,249.4,1950.6,253.8,1950.6z"/>
	<path id="パス_12994" class="st3" d="M307,1950h22c4.4,0,8,3.6,8,8v70c0,4.4-3.6,8-8,8h-22c-4.4,0-8-3.6-8-8v-70
		C299,1953.6,302.6,1950,307,1950z"/>
	<path id="パス_12995" class="st3" d="M145.5,1732.1v3.9h3.4c0.5,0,1-0.1,1.5-0.2c0.6-0.3,1-0.9,0.9-1.6c0.1-0.7-0.3-1.4-0.9-1.8
		c-0.5-0.2-1-0.3-1.5-0.3H145.5z M149.7,1729.6c0.8,0,1.6,0.1,2.3,0.4c0.5,0.2,1,0.6,1.4,1c0.3,0.4,0.6,0.8,0.7,1.2
		c0.2,0.5,0.3,1,0.3,1.5c0,0.7-0.2,1.4-0.5,2c-0.4,0.7-1,1.2-1.7,1.4c0.6,0.2,1.1,0.6,1.4,1.1c0.3,0.7,0.5,1.5,0.4,2.3v1
		c0,0.4,0,0.9,0.1,1.3c0.1,0.3,0.3,0.6,0.5,0.8v0.4h-3.3c-0.1-0.3-0.2-0.6-0.2-0.8c-0.1-0.4-0.1-0.8-0.1-1.2l0-1.3
		c0.1-0.7-0.1-1.3-0.5-1.8c-0.5-0.4-1.2-0.5-1.8-0.5h-3.1v5.6h-2.9v-14.4H149.7z M161.9,1735.4c-0.6,0-1.1,0.2-1.5,0.6
		c-0.4,0.5-0.6,1-0.7,1.6h4.3c0-0.6-0.2-1.2-0.7-1.7C163,1735.6,162.5,1735.4,161.9,1735.4z M161.9,1733.1c0.8,0,1.6,0.2,2.4,0.5
		c0.7,0.3,1.3,0.9,1.8,1.6c0.4,0.7,0.7,1.4,0.8,2.2c0.1,0.7,0.1,1.4,0.1,2.1h-7.3c-0.1,0.9,0.3,1.7,1,2.2c0.4,0.3,0.9,0.4,1.4,0.4
		c0.5,0,1-0.2,1.4-0.5c0.2-0.2,0.4-0.5,0.5-0.7h2.8c-0.1,0.7-0.5,1.4-1,1.9c-1,1.1-2.4,1.6-3.8,1.6c-1.3,0-2.6-0.5-3.6-1.3
		c-1.1-1.1-1.7-2.7-1.6-4.3c-0.1-1.5,0.4-3.1,1.4-4.2C159.2,1733.6,160.6,1733,161.9,1733.1z M170.8,1733.8h3v2.9h-3V1733.8z
		 M170.8,1741.1h3v2.9h-3V1741.1z M181.7,1738.6h3.7l-1.8-5.7L181.7,1738.6z M181.9,1729.6h3.4l5.1,14.4h-3.3l-0.9-3h-5.3l-1,3h-3.1
		L181.9,1729.6z M197.5,1741.7c0.6,0,1.2-0.3,1.6-0.7c0.5-0.7,0.7-1.5,0.7-2.3c0.1-0.8-0.2-1.6-0.6-2.3c-0.4-0.5-1-0.8-1.7-0.8
		c-0.9,0-1.7,0.5-2,1.4c-0.2,0.6-0.3,1.2-0.3,1.8c0,0.6,0.1,1.1,0.3,1.6C195.8,1741.2,196.6,1741.8,197.5,1741.7z M196.8,1733.1
		c0.5,0,1,0.1,1.4,0.2c0.7,0.3,1.3,0.9,1.6,1.5v-1.5h2.7v10.1c0.1,1.1-0.2,2.2-0.7,3.1c-0.8,1.2-2.3,1.8-4.6,1.8
		c-1.2,0-2.3-0.2-3.3-0.8c-0.8-0.5-1.4-1.4-1.4-2.4h3c0,0.3,0.2,0.5,0.4,0.7c0.4,0.3,1,0.4,1.5,0.4c0.8,0.1,1.6-0.3,2-1
		c0.3-0.7,0.4-1.4,0.3-2.2v-0.7c-0.2,0.4-0.5,0.7-0.9,1c-0.6,0.4-1.4,0.7-2.2,0.6c-1.3,0-2.5-0.5-3.3-1.4c-0.9-1.1-1.3-2.5-1.2-3.9
		c0-1.4,0.4-2.8,1.2-4C194.3,1733.6,195.5,1733,196.8,1733.1z M210.4,1735.4c-0.6,0-1.1,0.2-1.5,0.6c-0.4,0.5-0.6,1-0.7,1.6h4.3
		c0-0.6-0.2-1.2-0.7-1.7C211.5,1735.6,210.9,1735.4,210.4,1735.4z M210.4,1733.1c0.8,0,1.6,0.2,2.4,0.5c0.7,0.3,1.3,0.9,1.8,1.6
		c0.4,0.7,0.7,1.4,0.8,2.2c0.1,0.7,0.1,1.4,0.1,2.1h-7.3c-0.1,0.9,0.3,1.7,1,2.2c0.4,0.3,0.9,0.4,1.4,0.4c0.5,0,1-0.2,1.4-0.5
		c0.2-0.2,0.4-0.5,0.5-0.7h2.8c-0.1,0.7-0.5,1.4-1,1.9c-1,1.1-2.4,1.6-3.8,1.6c-1.3,0-2.6-0.5-3.6-1.3c-1.1-1.1-1.7-2.7-1.6-4.3
		c-0.1-1.5,0.4-3.1,1.4-4.2C207.7,1733.6,209,1733,210.4,1733.1z M224.2,1733.1c1,0,1.9,0.3,2.7,0.9c0.8,0.7,1.2,1.8,1.1,2.9v7.2
		h-2.9v-6.5c0-0.4-0.1-0.9-0.2-1.3c-0.3-0.6-0.9-0.9-1.6-0.8c-0.8-0.1-1.6,0.4-1.9,1.2c-0.2,0.5-0.3,1.1-0.3,1.6v5.8h-2.8v-10.6h2.7
		v1.6c0.3-0.4,0.6-0.8,1-1.2C222.7,1733.3,223.4,1733.1,224.2,1733.1L224.2,1733.1z M237.9,1737.2c0-0.4-0.2-0.8-0.4-1.1
		c-0.3-0.4-0.9-0.7-1.5-0.6c-0.9,0-1.7,0.5-1.9,1.4c-0.2,0.6-0.3,1.3-0.3,2c0,0.6,0.1,1.3,0.3,1.9c0.2,0.8,1,1.4,1.9,1.3
		c0.5,0.1,1-0.1,1.4-0.5c0.3-0.4,0.5-0.9,0.5-1.4h2.8c-0.1,0.9-0.4,1.7-0.9,2.4c-0.9,1.2-2.4,1.9-3.9,1.8c-1.4,0.1-2.8-0.4-3.8-1.5
		c-0.8-1.1-1.3-2.5-1.2-4c-0.1-1.5,0.4-3.1,1.3-4.3c0.9-1,2.3-1.6,3.7-1.5c1.2,0,2.3,0.3,3.3,0.9c0.9,0.8,1.5,1.9,1.5,3.2H237.9z
		 M244.1,1746l0.4,0c0.3,0,0.5,0,0.8,0c0.2,0,0.4-0.1,0.6-0.2c0.2-0.2,0.4-0.4,0.5-0.7c0.1-0.2,0.2-0.4,0.2-0.6l-3.9-11.1h3.1
		l2.3,7.9l2.2-7.9h3l-3.7,10.5c-0.4,1.3-0.9,2.6-1.7,3.8c-0.7,0.6-1.6,0.8-2.5,0.7c-0.2,0-0.4,0-0.6,0s-0.4,0-0.7,0L244.1,1746z"/>
	<path id="パス_12997" class="st4" d="M190,2082l-17-12h34L190,2082z"/>
	<path id="パス_12999" class="st4" d="M58.5,1803c4-0.1,7.4,3,7.5,7c-0.1,4-3.5,7.1-7.5,7c-4,0.1-7.4-3-7.5-7
		C51.1,1806,54.5,1802.9,58.5,1803z"/>
	<path id="パス_11414" class="st4" d="M58.7,1817.2c5.4,0,9.7,3.8,9.7,8.4s-19.4,4.6-19.4,0S53.3,1817.2,58.7,1817.2z"/>
	<path id="パス_13001" class="st4" d="M58.5,1893c4-0.1,7.4,3,7.5,7c-0.1,4-3.5,7.1-7.5,7c-4,0.1-7.4-3-7.5-7
		C51.1,1896,54.5,1892.9,58.5,1893z"/>
	<path id="パス_11414-2" class="st4" d="M58.7,1907.1c5.4,0,9.7,3.8,9.7,8.4s-19.4,4.6-19.4,0S53.3,1907.1,58.7,1907.1z"/>
	<path id="パス_13002" class="st4" d="M58.5,1982c4.1,0,7.5,2.9,7.5,6.5s-3.4,6.5-7.5,6.5s-7.5-2.9-7.5-6.5S54.4,1982,58.5,1982z"
		/>
	<path id="パス_11414-3" class="st4" d="M58.7,1995.8c5.4,0,9.7,3.8,9.7,8.4s-19.4,4.6-19.4,0S53.3,1995.8,58.7,1995.8z"/>
</g>
<g>
	<path d="M21.9,131.8c0-1.7,1-2.7,2.5-2.7c1.2,0,2.1,0.6,2.4,1.9h-1c-0.2-0.7-0.7-1-1.4-1c-0.9,0-1.5,0.7-1.5,1.9
		c0,1.2,0.6,1.9,1.5,1.9c0.7,0,1.3-0.4,1.4-1.2h1c-0.1,1.4-1.2,2.1-2.4,2.1C23,134.5,21.9,133.5,21.9,131.8z"/>
	<path d="M29.8,130.6h0.9v3.8h-0.9v-0.5c-0.2,0.4-0.6,0.6-1.2,0.6c-0.8,0-1.3-0.5-1.3-1.4v-2.5h0.9v2.4c0,0.5,0.2,0.7,0.7,0.7
		c0.4,0,0.8-0.3,0.8-1V130.6z"/>
	<path d="M33.8,130.6v0.8h-0.2c-0.7,0-1.1,0.3-1.1,1.1v1.9h-0.9v-3.8h0.9v0.7c0.2-0.4,0.5-0.7,1.1-0.7
		C33.6,130.5,33.7,130.5,33.8,130.6z"/>
	<path d="M36.5,130.6v0.8h-0.2c-0.7,0-1.1,0.3-1.1,1.1v1.9h-0.9v-3.8h0.9v0.7c0.2-0.4,0.5-0.7,1.1-0.7
		C36.4,130.5,36.4,130.5,36.5,130.6z"/>
	<path d="M36.7,132.5c0-1.2,0.7-2,1.9-2c1.2,0,1.9,0.8,1.9,2v0.2h-2.8c0.1,0.7,0.4,1,1,1c0.4,0,0.7-0.2,0.9-0.5h0.9
		c-0.2,0.8-0.9,1.3-1.8,1.3C37.4,134.5,36.7,133.7,36.7,132.5z M39.5,132.1c-0.1-0.5-0.4-0.9-1-0.9c-0.5,0-0.9,0.3-0.9,0.9H39.5z"/>
	<path d="M44.4,131.9v2.5h-0.9V132c0-0.5-0.2-0.7-0.7-0.7c-0.4,0-0.8,0.3-0.8,1v2.1H41v-3.8h0.9v0.5c0.2-0.4,0.6-0.6,1.2-0.6
		C43.9,130.5,44.4,131,44.4,131.9z"/>
	<path d="M47,131.3h-0.7v2c0,0.2,0.1,0.3,0.4,0.3H47v0.7c-0.2,0-0.3,0-0.5,0c-0.8,0-1.2-0.3-1.2-1v-2.1h-0.6v-0.7h0.6v-1.1h0.9v1.1
		H47V131.3z"/>
	<path d="M8.8,138.2H8.1v2c0,0.2,0.1,0.3,0.4,0.3h0.3v0.7c-0.2,0-0.3,0-0.5,0c-0.8,0-1.2-0.3-1.2-1v-2.1H6.6v-0.7h0.6v-1.1h0.9v1.1
		h0.7V138.2z"/>
	<path d="M11.6,137.4v0.8h-0.2c-0.7,0-1.1,0.3-1.1,1.1v1.9H9.4v-3.8h0.9v0.7c0.2-0.4,0.5-0.7,1.1-0.7
		C11.5,137.4,11.6,137.4,11.6,137.4z"/>
	<path d="M14.4,141.2c-0.1-0.1-0.1-0.3-0.1-0.5c-0.2,0.4-0.7,0.5-1.2,0.5c-0.8,0-1.4-0.4-1.4-1.1c0-0.6,0.4-1.1,1.5-1.2l0.6-0.1
		c0.4,0,0.5-0.2,0.5-0.4c0-0.3-0.2-0.5-0.7-0.5c-0.5,0-0.7,0.1-0.8,0.6h-0.9c0.1-0.8,0.5-1.3,1.7-1.3c1.1,0,1.6,0.5,1.6,1.1v2
		c0,0.3,0.1,0.6,0.2,0.7H14.4z M14.3,139.7v-0.3c-0.1,0.1-0.2,0.1-0.4,0.2l-0.5,0.1c-0.5,0.1-0.7,0.2-0.7,0.5c0,0.3,0.2,0.5,0.6,0.5
		C13.8,140.7,14.3,140.4,14.3,139.7z"/>
	<path d="M18.5,136h0.9v5.2h-0.9v-0.5c-0.3,0.4-0.7,0.6-1.2,0.6c-1,0-1.7-0.8-1.7-2c0-1.2,0.7-2,1.7-2c0.5,0,0.9,0.2,1.2,0.6V136z
		 M18.6,139.3c0-0.8-0.4-1.2-1-1.2c-0.6,0-1,0.4-1,1.2s0.4,1.2,1,1.2C18.2,140.6,18.6,140.1,18.6,139.3z"/>
	<path d="M20.2,137v-0.9h0.9v0.9H20.2z M20.2,141.2v-3.8h0.9v3.8H20.2z"/>
	<path d="M25.3,138.7v2.5h-0.9v-2.4c0-0.5-0.2-0.7-0.7-0.7c-0.4,0-0.8,0.3-0.8,1v2.1h-0.9v-3.8h0.9v0.5c0.2-0.4,0.6-0.6,1.2-0.6
		C24.8,137.4,25.3,137.8,25.3,138.7z"/>
	<path d="M28.8,137.5h0.9v3.7c0,1-0.6,1.7-1.9,1.7c-1.1,0-1.7-0.5-1.7-1.3H27c0,0.4,0.3,0.6,0.8,0.6c0.6,0,0.9-0.3,0.9-0.9v-0.5
		c-0.2,0.4-0.6,0.6-1.2,0.6c-1,0-1.7-0.8-1.7-1.9c0-1.2,0.7-1.9,1.7-1.9c0.5,0,0.9,0.2,1.2,0.6V137.5z M28.8,139.3
		c0-0.8-0.4-1.2-1-1.2c-0.6,0-1,0.4-1,1.2c0,0.7,0.4,1.2,1,1.2C28.4,140.5,28.8,140,28.8,139.3z"/>
	<path d="M31.9,139.3c0-1.2,0.7-2,1.9-2c1,0,1.6,0.6,1.8,1.5h-0.9c-0.1-0.5-0.4-0.7-0.8-0.7c-0.5,0-0.9,0.4-0.9,1.2
		c0,0.8,0.4,1.2,0.9,1.2c0.4,0,0.8-0.2,0.9-0.7h0.9c-0.1,0.9-0.8,1.5-1.8,1.5C32.6,141.3,31.9,140.6,31.9,139.3z"/>
	<path d="M35.9,139.3c0-1.2,0.8-2,1.9-2c1.2,0,1.9,0.8,1.9,2c0,1.2-0.8,2-1.9,2C36.6,141.3,35.9,140.5,35.9,139.3z M38.8,139.3
		c0-0.8-0.4-1.2-1-1.2c-0.6,0-1,0.4-1,1.2c0,0.8,0.4,1.2,1,1.2C38.4,140.6,38.8,140.1,38.8,139.3z"/>
	<path d="M45.9,138.7v2.5H45v-2.4c0-0.5-0.2-0.7-0.7-0.7c-0.4,0-0.8,0.3-0.8,1v2.1h-0.9v-2.4c0-0.5-0.2-0.7-0.7-0.7
		c-0.4,0-0.8,0.3-0.8,1v2.1h-0.9v-3.8h0.9v0.5c0.2-0.4,0.6-0.6,1.1-0.6c0.6,0,1,0.3,1.2,0.7c0.2-0.4,0.6-0.7,1.2-0.7
		C45.4,137.4,45.9,137.9,45.9,138.7z"/>
	<path d="M50.5,139.3c0,1.2-0.7,2-1.7,2c-0.5,0-0.9-0.2-1.2-0.6v1.9h-0.9v-5.2h0.9v0.5c0.3-0.4,0.7-0.6,1.2-0.6
		C49.8,137.4,50.5,138.1,50.5,139.3z M49.5,139.3c0-0.8-0.4-1.2-1-1.2s-1,0.4-1,1.2c0,0.8,0.4,1.2,1,1.2S49.5,140.1,49.5,139.3z"/>
	<path d="M53.5,141.2c-0.1-0.1-0.1-0.3-0.1-0.5c-0.2,0.4-0.7,0.5-1.2,0.5c-0.8,0-1.4-0.4-1.4-1.1c0-0.6,0.4-1.1,1.5-1.2l0.6-0.1
		c0.4,0,0.5-0.2,0.5-0.4c0-0.3-0.2-0.5-0.7-0.5c-0.5,0-0.7,0.1-0.8,0.6H51c0.1-0.8,0.5-1.3,1.7-1.3c1.1,0,1.6,0.5,1.6,1.1v2
		c0,0.3,0.1,0.6,0.2,0.7H53.5z M53.3,139.7v-0.3c-0.1,0.1-0.2,0.1-0.4,0.2l-0.5,0.1c-0.5,0.1-0.7,0.2-0.7,0.5c0,0.3,0.2,0.5,0.6,0.5
		C52.9,140.7,53.3,140.4,53.3,139.7z"/>
	<path d="M58.3,138.7v2.5h-0.9v-2.4c0-0.5-0.2-0.7-0.7-0.7c-0.4,0-0.8,0.3-0.8,1v2.1h-0.9v-3.8h0.9v0.5c0.2-0.4,0.6-0.6,1.2-0.6
		C57.8,137.4,58.3,137.8,58.3,138.7z"/>
	<path d="M61.4,137.5h1l-1.5,4.1c-0.3,0.8-0.7,1.1-1.6,1.1c-0.2,0-0.3,0-0.4,0v-0.7h0.4c0.5,0,0.6-0.3,0.6-0.6
		c0-0.2-0.1-0.5-0.2-0.8l-1.1-3.1h1l0.3,0.9c0.2,0.7,0.4,1.4,0.6,2.1c0.2-0.7,0.4-1.4,0.6-2.1L61.4,137.5z"/>
	<path d="M18.3,146.2c0-1.2,0.7-2,1.9-2c1.2,0,1.9,0.8,1.9,2v0.2h-2.8c0.1,0.7,0.4,1,1,1c0.4,0,0.7-0.2,0.9-0.5H22
		c-0.2,0.8-0.9,1.3-1.8,1.3C19.1,148.2,18.3,147.4,18.3,146.2z M21.1,145.8c-0.1-0.5-0.4-0.9-1-0.9c-0.5,0-0.9,0.3-0.9,0.9H21.1z"/>
	<path d="M28.3,145.6v2.5h-0.9v-2.4c0-0.5-0.2-0.7-0.7-0.7c-0.4,0-0.8,0.3-0.8,1v2.1H25v-2.4c0-0.5-0.2-0.7-0.7-0.7
		c-0.4,0-0.8,0.3-0.8,1v2.1h-0.9v-3.8h0.9v0.5c0.2-0.4,0.6-0.6,1.1-0.6c0.6,0,1,0.3,1.2,0.7c0.2-0.4,0.6-0.7,1.2-0.7
		C27.8,144.2,28.3,144.8,28.3,145.6z"/>
	<path d="M32.8,146.2c0,1.2-0.7,2-1.7,2c-0.5,0-0.9-0.2-1.2-0.6v1.9H29v-5.2h0.9v0.5c0.3-0.4,0.7-0.6,1.2-0.6
		C32.2,144.2,32.8,145,32.8,146.2z M31.9,146.2c0-0.8-0.4-1.2-1-1.2c-0.6,0-1,0.4-1,1.2s0.4,1.2,1,1.2
		C31.5,147.4,31.9,147,31.9,146.2z"/>
	<path d="M33.4,148.1v-5.2h0.9v5.2H33.4z"/>
	<path d="M34.9,146.2c0-1.2,0.8-2,1.9-2c1.2,0,1.9,0.8,1.9,2s-0.8,2-1.9,2C35.7,148.2,34.9,147.4,34.9,146.2z M37.8,146.2
		c0-0.8-0.4-1.2-1-1.2c-0.6,0-1,0.4-1,1.2s0.4,1.2,1,1.2C37.4,147.4,37.8,147,37.8,146.2z"/>
	<path d="M41.6,144.3h1l-1.5,4.1c-0.3,0.8-0.7,1.1-1.6,1.1c-0.2,0-0.3,0-0.4,0v-0.7h0.4c0.5,0,0.6-0.3,0.6-0.6
		c0-0.2-0.1-0.5-0.2-0.8l-1.1-3.1h1l0.3,0.9c0.2,0.7,0.4,1.4,0.6,2.1c0.2-0.7,0.4-1.4,0.6-2.1L41.6,144.3z"/>
	<path d="M42.6,146.2c0-1.2,0.7-2,1.9-2c1.2,0,1.9,0.8,1.9,2v0.2h-2.8c0.1,0.7,0.4,1,1,1c0.4,0,0.7-0.2,0.9-0.5h0.9
		c-0.2,0.8-0.9,1.3-1.8,1.3C43.4,148.2,42.6,147.4,42.6,146.2z M45.4,145.8c-0.1-0.5-0.4-0.9-1-0.9c-0.5,0-0.9,0.3-0.9,0.9H45.4z"/>
	<path d="M46.8,146.2c0-1.2,0.7-2,1.9-2c1.2,0,1.9,0.8,1.9,2v0.2h-2.8c0.1,0.7,0.4,1,1,1c0.4,0,0.7-0.2,0.9-0.5h0.9
		c-0.2,0.8-0.9,1.3-1.8,1.3C47.6,148.2,46.8,147.4,46.8,146.2z M49.6,145.8c-0.1-0.5-0.4-0.9-1-0.9c-0.5,0-0.9,0.3-0.9,0.9H49.6z"/>
</g>
<g>
	<path d="M23.4,224c0-1.7,1-2.7,2.5-2.7c1.2,0,2.1,0.6,2.4,1.9h-1c-0.2-0.7-0.7-1-1.4-1c-0.9,0-1.5,0.7-1.5,1.9
		c0,1.2,0.6,1.9,1.5,1.9c0.7,0,1.3-0.4,1.4-1.2h1c-0.1,1.4-1.2,2.1-2.4,2.1C24.4,226.7,23.4,225.7,23.4,224z"/>
	<path d="M31.3,222.8h0.9v3.8h-0.9v-0.5c-0.2,0.4-0.6,0.6-1.2,0.6c-0.8,0-1.3-0.5-1.3-1.4v-2.5h0.9v2.4c0,0.5,0.2,0.7,0.7,0.7
		c0.4,0,0.8-0.3,0.8-1V222.8z"/>
	<path d="M35.3,222.8v0.8H35c-0.7,0-1.1,0.3-1.1,1.1v1.9H33v-3.8h0.9v0.7c0.2-0.4,0.5-0.7,1.1-0.7C35.1,222.8,35.2,222.8,35.3,222.8
		z"/>
	<path d="M38,222.8v0.8h-0.2c-0.7,0-1.1,0.3-1.1,1.1v1.9h-0.9v-3.8h0.9v0.7c0.2-0.4,0.5-0.7,1.1-0.7C37.9,222.8,37.9,222.8,38,222.8
		z"/>
	<path d="M38.2,224.7c0-1.2,0.7-2,1.9-2c1.2,0,1.9,0.8,1.9,2v0.2h-2.8c0.1,0.7,0.4,1,1,1c0.4,0,0.7-0.2,0.9-0.5h0.9
		c-0.2,0.8-0.9,1.3-1.8,1.3C38.9,226.7,38.2,225.9,38.2,224.7z M41,224.4c-0.1-0.5-0.4-0.9-1-0.9c-0.5,0-0.9,0.3-0.9,0.9H41z"/>
	<path d="M45.9,224.1v2.5H45v-2.4c0-0.5-0.2-0.7-0.7-0.7c-0.4,0-0.8,0.3-0.8,1v2.1h-0.9v-3.8h0.9v0.5c0.2-0.4,0.6-0.6,1.2-0.6
		C45.4,222.7,45.9,223.2,45.9,224.1z"/>
	<path d="M48.5,223.5h-0.7v2c0,0.2,0.1,0.3,0.4,0.3h0.3v0.7c-0.2,0-0.3,0-0.5,0c-0.8,0-1.2-0.3-1.2-1v-2.1h-0.6v-0.7h0.6v-1.1h0.9
		v1.1h0.7V223.5z"/>
	<path d="M13.1,229.7h1l-1.2,3.8h-1l-0.5-1.6c-0.1-0.4-0.2-0.8-0.3-1.1c-0.1,0.4-0.2,0.8-0.3,1.1l-0.5,1.6h-1L8,229.7h1l0.4,1.4
		c0.1,0.4,0.3,0.9,0.4,1.3c0.1-0.4,0.2-0.9,0.4-1.3l0.4-1.4h0.9l0.4,1.4c0.1,0.4,0.2,0.9,0.4,1.3c0.1-0.4,0.2-0.9,0.4-1.3
		L13.1,229.7z"/>
	<path d="M14.1,231.6c0-1.2,0.7-2,1.9-2c1.2,0,1.9,0.8,1.9,2v0.2H15c0.1,0.7,0.4,1,1,1c0.4,0,0.7-0.2,0.9-0.5h0.9
		c-0.2,0.8-0.9,1.3-1.8,1.3C14.9,233.5,14.1,232.8,14.1,231.6z M16.9,231.2c-0.1-0.5-0.4-0.9-1-0.9c-0.5,0-0.9,0.3-0.9,0.9H16.9z"/>
	<path d="M21.1,228.2H22v5.2h-0.9v-0.5c-0.3,0.4-0.7,0.6-1.2,0.6c-1,0-1.7-0.8-1.7-2c0-1.2,0.7-2,1.7-2c0.5,0,0.9,0.2,1.2,0.6V228.2
		z M21.1,231.6c0-0.8-0.4-1.2-1-1.2c-0.6,0-1,0.4-1,1.2c0,0.8,0.4,1.2,1,1.2C20.8,232.8,21.1,232.4,21.1,231.6z"/>
	<path d="M25.5,228.2h0.9v5.2h-0.9v-0.5c-0.3,0.4-0.7,0.6-1.2,0.6c-1,0-1.7-0.8-1.7-2c0-1.2,0.7-2,1.7-2c0.5,0,0.9,0.2,1.2,0.6
		V228.2z M25.5,231.6c0-0.8-0.4-1.2-1-1.2c-0.6,0-1,0.4-1,1.2c0,0.8,0.4,1.2,1,1.2C25.1,232.8,25.5,232.4,25.5,231.6z"/>
	<path d="M27.2,229.2v-0.9h0.9v0.9H27.2z M27.2,233.5v-3.8h0.9v3.8H27.2z"/>
	<path d="M32.3,231v2.5h-0.9v-2.4c0-0.5-0.2-0.7-0.7-0.7c-0.4,0-0.8,0.3-0.8,1v2.1h-0.9v-3.8h0.9v0.5c0.2-0.4,0.6-0.6,1.2-0.6
		C31.7,229.6,32.3,230,32.3,231z"/>
	<path d="M35.7,229.7h0.9v3.7c0,1-0.6,1.7-1.9,1.7c-1.1,0-1.7-0.5-1.7-1.3h0.9c0,0.4,0.3,0.6,0.8,0.6c0.6,0,0.9-0.3,0.9-0.9v-0.5
		c-0.2,0.4-0.6,0.6-1.2,0.6c-1,0-1.7-0.8-1.7-1.9c0-1.2,0.7-1.9,1.7-1.9c0.5,0,0.9,0.2,1.2,0.6V229.7z M35.7,231.5
		c0-0.8-0.4-1.2-1-1.2c-0.6,0-1,0.4-1,1.2c0,0.7,0.4,1.2,1,1.2C35.4,232.7,35.7,232.3,35.7,231.5z"/>
	<path d="M42.8,231.6c0,1.2-0.7,2-1.7,2c-0.5,0-0.9-0.2-1.2-0.6v1.9H39v-5.2h0.9v0.5c0.3-0.4,0.7-0.6,1.2-0.6
		C42.1,229.6,42.8,230.4,42.8,231.6z M41.8,231.5c0-0.8-0.4-1.2-1-1.2s-1,0.4-1,1.2c0,0.8,0.4,1.2,1,1.2S41.8,232.3,41.8,231.5z"/>
	<path d="M43.3,233.5v-5.2h0.9v5.2H43.3z"/>
	<path d="M47.5,233.5c-0.1-0.1-0.1-0.3-0.1-0.5c-0.2,0.4-0.7,0.5-1.2,0.5c-0.8,0-1.4-0.4-1.4-1.1c0-0.6,0.4-1.1,1.5-1.2l0.6-0.1
		c0.4,0,0.5-0.2,0.5-0.4c0-0.3-0.2-0.5-0.7-0.5c-0.5,0-0.7,0.1-0.8,0.6H45c0.1-0.8,0.5-1.3,1.7-1.3c1.1,0,1.6,0.5,1.6,1.1v2
		c0,0.3,0.1,0.6,0.2,0.7H47.5z M47.4,232v-0.3c-0.1,0.1-0.2,0.1-0.4,0.2l-0.5,0.1c-0.5,0.1-0.7,0.2-0.7,0.5c0,0.3,0.2,0.5,0.6,0.5
		C46.9,232.9,47.4,232.6,47.4,232z"/>
	<path d="M52.4,231v2.5h-0.9v-2.4c0-0.5-0.2-0.7-0.7-0.7c-0.4,0-0.8,0.3-0.8,1v2.1H49v-3.8h0.9v0.5c0.2-0.4,0.6-0.6,1.2-0.6
		C51.8,229.6,52.4,230,52.4,231z"/>
	<path d="M56.5,231v2.5h-0.9v-2.4c0-0.5-0.2-0.7-0.7-0.7c-0.4,0-0.8,0.3-0.8,1v2.1h-0.9v-3.8H54v0.5c0.2-0.4,0.6-0.6,1.2-0.6
		C56,229.6,56.5,230,56.5,231z"/>
	<path d="M57.1,231.6c0-1.2,0.7-2,1.9-2c1.2,0,1.9,0.8,1.9,2v0.2H58c0.1,0.7,0.4,1,1,1c0.4,0,0.7-0.2,0.9-0.5h0.9
		c-0.2,0.8-0.9,1.3-1.8,1.3C57.9,233.5,57.1,232.8,57.1,231.6z M59.9,231.2c-0.1-0.5-0.4-0.9-1-0.9c-0.5,0-0.9,0.3-0.9,0.9H59.9z"/>
	<path d="M63.7,229.6v0.8h-0.2c-0.7,0-1.1,0.3-1.1,1.1v1.9h-0.9v-3.8h0.9v0.7c0.2-0.4,0.5-0.7,1.1-0.7
		C63.5,229.6,63.6,229.6,63.7,229.6z"/>
</g>
<g>
	<path d="M11.9,313.5c0-1.7,1-2.7,2.5-2.7c1.2,0,2.1,0.6,2.4,1.9h-1c-0.2-0.7-0.7-1-1.4-1c-0.9,0-1.5,0.7-1.5,1.9
		c0,1.2,0.6,1.9,1.5,1.9c0.7,0,1.3-0.4,1.4-1.2h1c-0.1,1.4-1.2,2.1-2.4,2.1C12.9,316.2,11.9,315.2,11.9,313.5z"/>
	<path d="M19.8,312.3h0.9v3.8h-0.9v-0.5c-0.2,0.4-0.6,0.6-1.2,0.6c-0.8,0-1.3-0.5-1.3-1.4v-2.5h0.9v2.4c0,0.5,0.2,0.7,0.7,0.7
		c0.4,0,0.8-0.3,0.8-1V312.3z"/>
	<path d="M23.7,312.3v0.8h-0.2c-0.7,0-1.1,0.3-1.1,1.1v1.9h-0.9v-3.8h0.9v0.7c0.2-0.4,0.5-0.7,1.1-0.7
		C23.6,312.3,23.7,312.3,23.7,312.3z"/>
	<path d="M26.5,312.3v0.8h-0.2c-0.7,0-1.1,0.3-1.1,1.1v1.9h-0.9v-3.8h0.9v0.7c0.2-0.4,0.5-0.7,1.1-0.7
		C26.3,312.3,26.4,312.3,26.5,312.3z"/>
	<path d="M26.7,314.2c0-1.2,0.7-2,1.9-2c1.2,0,1.9,0.8,1.9,2v0.2h-2.8c0.1,0.7,0.4,1,1,1c0.4,0,0.7-0.2,0.9-0.5h0.9
		c-0.2,0.8-0.9,1.3-1.8,1.3C27.4,316.2,26.7,315.4,26.7,314.2z M29.5,313.9c-0.1-0.5-0.4-0.9-1-0.9c-0.5,0-0.9,0.3-0.9,0.9H29.5z"/>
	<path d="M34.4,313.6v2.5h-0.9v-2.4c0-0.5-0.2-0.7-0.7-0.7c-0.4,0-0.8,0.3-0.8,1v2.1H31v-3.8h0.9v0.5c0.2-0.4,0.6-0.6,1.2-0.6
		C33.9,312.2,34.4,312.7,34.4,313.6z"/>
	<path d="M37,313h-0.7v2c0,0.2,0.1,0.3,0.4,0.3H37v0.7c-0.2,0-0.3,0-0.5,0c-0.8,0-1.2-0.3-1.2-1V313h-0.6v-0.7h0.6v-1.1h0.9v1.1H37
		V313z"/>
	<path d="M42.9,314.2c0,1.2-0.7,2-1.7,2c-0.6,0-1-0.2-1.2-0.6v0.5h-0.9v-5.2H40v1.9c0.3-0.4,0.6-0.6,1.2-0.6
		C42.2,312.2,42.9,313,42.9,314.2z M42,314.2c0-0.8-0.4-1.2-1-1.2s-1,0.4-1,1.2s0.4,1.2,1,1.2S42,315,42,314.2z"/>
	<path d="M45.9,316.1c-0.1-0.1-0.1-0.3-0.1-0.5c-0.2,0.4-0.7,0.5-1.2,0.5c-0.8,0-1.4-0.4-1.4-1.1c0-0.6,0.4-1.1,1.5-1.2l0.6-0.1
		c0.4,0,0.5-0.2,0.5-0.4c0-0.3-0.2-0.5-0.7-0.5c-0.5,0-0.7,0.1-0.8,0.6h-0.9c0.1-0.8,0.5-1.3,1.7-1.3c1.1,0,1.6,0.5,1.6,1.1v2
		c0,0.3,0.1,0.6,0.2,0.7H45.9z M45.8,314.6v-0.3c-0.1,0.1-0.2,0.1-0.4,0.2l-0.5,0.1c-0.5,0.1-0.7,0.2-0.7,0.5c0,0.3,0.2,0.5,0.6,0.5
		C45.3,315.5,45.8,315.3,45.8,314.6z"/>
	<path d="M50.8,313.6v2.5h-0.9v-2.4c0-0.5-0.2-0.7-0.7-0.7c-0.4,0-0.8,0.3-0.8,1v2.1h-0.9v-3.8h0.9v0.5c0.2-0.4,0.6-0.6,1.2-0.6
		C50.3,312.2,50.8,312.7,50.8,313.6z"/>
	<path d="M54.1,316.1l-1.1-1.8l-0.6,0.6v1.2h-0.9v-5.2h0.9v3l1.5-1.6h1.1l-1.4,1.4l1.5,2.4H54.1z"/>
	<path d="M55.1,314.2c0-1.2,0.7-2,1.9-2c1.2,0,1.9,0.8,1.9,2v0.2H56c0.1,0.7,0.4,1,1,1c0.4,0,0.7-0.2,0.9-0.5h0.9
		c-0.2,0.8-0.9,1.3-1.8,1.3C55.9,316.2,55.1,315.4,55.1,314.2z M57.9,313.9c-0.1-0.5-0.4-0.9-1-0.9c-0.5,0-0.9,0.3-0.9,0.9H57.9z"/>
	<path d="M61.7,312.3v0.8h-0.2c-0.7,0-1.1,0.3-1.1,1.1v1.9h-0.9v-3.8h0.9v0.7c0.2-0.4,0.5-0.7,1.1-0.7
		C61.5,312.3,61.6,312.3,61.7,312.3z"/>
</g>
<g>
	<path d="M62.4,392.5c0-3.3,2.1-5.5,5.2-5.5c3.1,0,5.2,2.2,5.2,5.5s-2.1,5.5-5.2,5.5C64.5,398,62.4,395.8,62.4,392.5z M70.8,392.5
		c0-2.3-1.2-3.7-3.2-3.7c-1.9,0-3.2,1.4-3.2,3.7c0,2.3,1.2,3.7,3.2,3.7C69.5,396.2,70.8,394.8,70.8,392.5z"/>
	<path d="M81.6,394c0,2.4-1.3,4-3.4,4c-1.1,0-1.8-0.4-2.4-1.2v3.9H74v-10.4h1.8v1.1c0.5-0.8,1.3-1.3,2.4-1.3
		C80.3,390,81.6,391.5,81.6,394z M79.7,393.9c0-1.6-0.7-2.4-2-2.4c-1.2,0-2,0.8-2,2.4c0,1.6,0.7,2.4,2,2.4
		C79,396.4,79.7,395.5,79.7,393.9z"/>
	<path d="M86.3,391.6h-1.5v4c0,0.5,0.2,0.7,0.9,0.7h0.6v1.4c-0.3,0-0.7,0-1,0c-1.6,0-2.4-0.5-2.4-1.9v-4.2h-1.2v-1.4H83V388h1.8v2.2
		h1.5V391.6z"/>
	<path d="M87.4,389.3v-1.7h1.8v1.7H87.4z M87.4,397.7v-7.6h1.8v7.6H87.4z"/>
	<path d="M102,392.7v5h-1.8V393c0-1-0.4-1.4-1.3-1.4c-0.8,0-1.6,0.6-1.6,2v4.2h-1.8V393c0-1-0.4-1.4-1.3-1.4c-0.8,0-1.6,0.6-1.6,2
		v4.2h-1.8v-7.6h1.8v1.1c0.5-0.7,1.2-1.3,2.2-1.3c1.2,0,2,0.5,2.3,1.4c0.5-0.8,1.3-1.4,2.4-1.4C101.1,390,102,391.1,102,392.7z"/>
	<path d="M103.5,389.3v-1.7h1.8v1.7H103.5z M103.5,397.7v-7.6h1.8v7.6H103.5z"/>
	<path d="M112.9,396.3v1.4h-6.4v-1.2l3-3.8c0.3-0.4,0.6-0.8,1-1.2c-0.5,0-1,0-1.6,0h-2.3v-1.4h6.2v1.2l-3,3.8
		c-0.3,0.4-0.6,0.8-1,1.2c0.5,0,1,0,1.6,0H112.9z"/>
	<path d="M118.8,397.7c-0.1-0.2-0.2-0.6-0.2-0.9c-0.5,0.7-1.3,1.1-2.4,1.1c-1.6,0-2.7-0.8-2.7-2.3c0-1.3,0.8-2.2,2.9-2.4l1.1-0.1
		c0.7-0.1,1.1-0.3,1.1-0.9c0-0.6-0.3-0.9-1.4-0.9c-1.1,0-1.5,0.3-1.6,1.2h-1.8c0.1-1.6,1-2.6,3.4-2.6c2.3,0,3.2,0.9,3.2,2.3v4
		c0,0.5,0.1,1.1,0.3,1.4H118.8z M118.6,394.8v-0.7c-0.2,0.2-0.5,0.3-0.9,0.3l-1,0.1c-1,0.1-1.4,0.5-1.4,1.1c0,0.6,0.4,1,1.3,1
		C117.6,396.6,118.6,396.1,118.6,394.8z"/>
	<path d="M125.5,391.6H124v4c0,0.5,0.2,0.7,0.9,0.7h0.6v1.4c-0.3,0-0.7,0-1,0c-1.6,0-2.4-0.5-2.4-1.9v-4.2H121v-1.4h1.2V388h1.8v2.2
		h1.5V391.6z"/>
	<path d="M126.5,389.3v-1.7h1.8v1.7H126.5z M126.5,397.7v-7.6h1.8v7.6H126.5z"/>
	<path d="M129.6,394c0-2.4,1.6-4,3.9-4c2.3,0,3.8,1.5,3.8,4c0,2.4-1.5,4-3.8,4C131.1,397.9,129.6,396.4,129.6,394z M135.4,394
		c0-1.6-0.8-2.4-2-2.4c-1.2,0-2,0.8-2,2.4c0,1.6,0.8,2.4,2,2.4C134.6,396.4,135.4,395.6,135.4,394z"/>
	<path d="M145.2,392.7v5h-1.8V393c0-1-0.5-1.4-1.4-1.4c-0.8,0-1.7,0.6-1.7,1.9v4.2h-1.8v-7.6h1.8v1.1c0.5-0.7,1.3-1.3,2.4-1.3
		C144.1,390,145.2,390.9,145.2,392.7z"/>
	<path d="M149.5,394c0-2.4,1.6-4,3.9-4c2.3,0,3.8,1.5,3.8,4c0,2.4-1.5,4-3.8,4C151.1,397.9,149.5,396.4,149.5,394z M155.4,394
		c0-1.6-0.8-2.4-2-2.4c-1.2,0-2,0.8-2,2.4c0,1.6,0.8,2.4,2,2.4C154.6,396.4,155.4,395.6,155.4,394z"/>
	<path d="M160.5,389.6v0.5h1.6v1.4h-1.6v6.1h-1.8v-6.1h-1.2v-1.4h1.2v-0.6c0-1.3,0.7-2.3,2.5-2.3c0.3,0,0.7,0,1,0v1.4h-0.6
		C160.8,388.7,160.5,389,160.5,389.6z"/>
	<path d="M171.8,387.3h1.8v10.4h-1.8v-1.1c-0.5,0.8-1.3,1.2-2.4,1.2c-2.1,0-3.4-1.5-3.4-4c0-2.4,1.3-4,3.4-4c1,0,1.8,0.4,2.3,1.2
		V387.3z M171.8,394c0-1.6-0.7-2.4-1.9-2.4c-1.2,0-1.9,0.9-1.9,2.5c0,1.6,0.7,2.4,1.9,2.4C171.1,396.4,171.8,395.6,171.8,394z"/>
	<path d="M175.2,389.3v-1.7h1.8v1.7H175.2z M175.2,397.7v-7.6h1.8v7.6H175.2z"/>
	<path d="M183.6,390.2h1.9l-2.8,7.6h-2.1l-2.8-7.6h2l0.7,2c0.4,1.2,0.8,2.6,1.2,3.9c0.4-1.3,0.8-2.6,1.2-3.9L183.6,390.2z"/>
	<path d="M186.2,389.3v-1.7h1.8v1.7H186.2z M186.2,397.7v-7.6h1.8v7.6H186.2z"/>
	<path d="M189.1,395.3h1.8c0.1,1,0.6,1.3,1.7,1.3c1.1,0,1.5-0.3,1.5-0.9c0-0.5-0.3-0.8-1.5-1l-0.9-0.1c-1.6-0.3-2.5-1-2.5-2.3
		c0-1.4,1.1-2.3,3.1-2.3c2.3,0,3.3,1,3.3,2.6H194c0-1-0.6-1.2-1.6-1.2c-0.9,0-1.3,0.3-1.3,0.9c0,0.6,0.4,0.8,1.3,0.9l1,0.1
		c1.8,0.3,2.6,1,2.6,2.3c0,1.5-1.2,2.4-3.4,2.4C190.4,397.9,189.2,397.2,189.1,395.3z"/>
	<path d="M196.9,389.3v-1.7h1.8v1.7H196.9z M196.9,397.7v-7.6h1.8v7.6H196.9z"/>
	<path d="M199.9,394c0-2.4,1.6-4,3.9-4c2.3,0,3.8,1.5,3.8,4c0,2.4-1.5,4-3.8,4C201.5,397.9,199.9,396.4,199.9,394z M205.7,394
		c0-1.6-0.8-2.4-2-2.4c-1.2,0-2,0.8-2,2.4c0,1.6,0.8,2.4,2,2.4C205,396.4,205.7,395.6,205.7,394z"/>
	<path d="M215.6,392.7v5h-1.8V393c0-1-0.5-1.4-1.4-1.4c-0.8,0-1.7,0.6-1.7,1.9v4.2h-1.8v-7.6h1.8v1.1c0.5-0.7,1.3-1.3,2.4-1.3
		C214.5,390,215.6,390.9,215.6,392.7z"/>
	<path d="M219.9,394c0-2.4,1.6-4,3.9-4c2.3,0,3.8,1.5,3.8,4c0,2.4-1.5,4-3.8,4C221.4,397.9,219.9,396.4,219.9,394z M225.7,394
		c0-1.6-0.8-2.4-2-2.4c-1.2,0-2,0.8-2,2.4c0,1.6,0.8,2.4,2,2.4C224.9,396.4,225.7,395.6,225.7,394z"/>
	<path d="M230.9,389.6v0.5h1.6v1.4h-1.6v6.1h-1.8v-6.1h-1.2v-1.4h1.2v-0.6c0-1.3,0.7-2.3,2.5-2.3c0.3,0,0.7,0,1,0v1.4h-0.6
		C231.2,388.7,230.9,389,230.9,389.6z"/>
	<path d="M242.1,387.3h1.8v10.4h-1.8v-1.1c-0.5,0.8-1.3,1.2-2.4,1.2c-2.1,0-3.4-1.5-3.4-4c0-2.4,1.3-4,3.4-4c1,0,1.8,0.4,2.3,1.2
		V387.3z M242.2,394c0-1.6-0.7-2.4-1.9-2.4c-1.2,0-1.9,0.9-1.9,2.5c0,1.6,0.7,2.4,1.9,2.4C241.4,396.4,242.2,395.6,242.2,394z"/>
	<path d="M250.4,390.2h1.8v7.6h-1.8v-1.1c-0.5,0.7-1.3,1.3-2.4,1.3c-1.6,0-2.6-0.9-2.6-2.7v-5h1.8v4.7c0,1,0.5,1.4,1.4,1.4
		c0.8,0,1.7-0.6,1.7-1.9V390.2z"/>
	<path d="M257.7,391.6h-1.5v4c0,0.5,0.2,0.7,0.9,0.7h0.6v1.4c-0.3,0-0.7,0-1,0c-1.6,0-2.4-0.5-2.4-1.9v-4.2h-1.2v-1.4h1.2V388h1.8
		v2.2h1.5V391.6z"/>
	<path d="M258.8,389.3v-1.7h1.8v1.7H258.8z M258.8,397.7v-7.6h1.8v7.6H258.8z"/>
	<path d="M261.8,394c0-2.4,1.5-4,3.7-4c2.3,0,3.7,1.7,3.7,4.1v0.4h-5.7c0.1,1.3,0.9,1.9,2,1.9c0.9,0,1.5-0.4,1.7-1.1h1.8
		c-0.4,1.5-1.7,2.5-3.5,2.5C263.4,397.9,261.8,396.4,261.8,394z M267.4,393.2c-0.1-1.1-0.8-1.8-1.9-1.8c-1,0-1.7,0.6-1.9,1.8H267.4z
		"/>
	<path d="M270,395.3h1.8c0.1,1,0.6,1.3,1.7,1.3c1.1,0,1.5-0.3,1.5-0.9c0-0.5-0.3-0.8-1.5-1l-0.9-0.1c-1.6-0.3-2.5-1-2.5-2.3
		c0-1.4,1.1-2.3,3.1-2.3c2.3,0,3.3,1,3.3,2.6h-1.7c0-1-0.6-1.2-1.6-1.2c-0.9,0-1.3,0.3-1.3,0.9c0,0.6,0.4,0.8,1.3,0.9l1,0.1
		c1.8,0.3,2.6,1,2.6,2.3c0,1.5-1.2,2.4-3.4,2.4C271.3,397.9,270.1,397.2,270,395.3z"/>
</g>
<g>
	<path class="st0" d="M245.1,260.1c2,0,3.3,1.2,3.3,3c0,1.4-0.7,2.6-2.3,2.8v-1.2c0.9-0.2,1.3-0.9,1.3-1.6c0-1.1-0.8-1.8-2.2-1.8
		c-1.4,0-2.2,0.7-2.2,1.8c0,0.8,0.5,1.5,1.5,1.7v1.2c-1.7-0.2-2.5-1.4-2.5-2.9C241.9,261.3,243.1,260.1,245.1,260.1z"/>
	<path class="st0" d="M244.3,266.5c1.4,0,2.4,0.9,2.4,2.3c0,1.4-0.9,2.3-2.4,2.3c-1.4,0-2.4-0.9-2.4-2.3
		C241.9,267.4,242.8,266.5,244.3,266.5z M244.3,270c1,0,1.5-0.5,1.5-1.2c0-0.7-0.5-1.2-1.5-1.2c-1,0-1.5,0.5-1.5,1.2
		C242.8,269.5,243.3,270,244.3,270z"/>
	<path class="st0" d="M245,275.9h-3v-1.1h2.8c0.6,0,0.9-0.3,0.9-0.9c0-0.5-0.3-1-1.1-1H242v-1.1h4.5v1.1h-0.7
		c0.4,0.3,0.8,0.8,0.8,1.4C246.7,275.2,246.1,275.9,245,275.9z"/>
	<path class="st0" d="M245.7,279v-0.9h-2.4c-0.3,0-0.4,0.1-0.4,0.5v0.4H242c0-0.2,0-0.4,0-0.6c0-1,0.3-1.4,1.2-1.4h2.5v-0.7h0.9v0.7
		h1.3v1.1h-1.3v0.9H245.7z"/>
	<path class="st0" d="M246.6,282.3h-1V282c0-0.8-0.4-1.3-1.3-1.3H242v-1.1h4.5v1.1h-0.8c0.5,0.2,0.9,0.7,0.9,1.4
		C246.6,282.1,246.6,282.2,246.6,282.3z"/>
	<path class="st0" d="M242,285.6c0.1-0.1,0.3-0.1,0.6-0.1c-0.4-0.3-0.7-0.8-0.7-1.5c0-1,0.5-1.6,1.4-1.6c0.8,0,1.3,0.5,1.4,1.7
		l0.1,0.7c0.1,0.4,0.2,0.6,0.5,0.6c0.4,0,0.6-0.2,0.6-0.8c0-0.6-0.2-0.9-0.7-0.9v-1.1c1,0.1,1.5,0.6,1.5,2c0,1.4-0.5,1.9-1.4,1.9
		h-2.4c-0.3,0-0.7,0.1-0.9,0.2V285.6z M243.8,285.5h0.4c-0.1-0.1-0.2-0.3-0.2-0.5l-0.1-0.6c-0.1-0.6-0.3-0.8-0.7-0.8
		c-0.4,0-0.6,0.3-0.6,0.8C242.7,284.9,243,285.5,243.8,285.5z"/>
	<path class="st0" d="M244.3,287.2c1.5,0,2.4,0.9,2.4,2.2c0,1.2-0.7,2-1.7,2.1v-1.1c0.6-0.1,0.8-0.5,0.8-1c0-0.7-0.5-1.1-1.5-1.1
		c-1,0-1.5,0.5-1.5,1.1c0,0.5,0.3,0.9,0.9,1v1.1c-1.1-0.1-1.8-1-1.8-2.1C241.9,288,242.8,287.2,244.3,287.2z"/>
	<path class="st0" d="M245.7,294.4v-0.9h-2.4c-0.3,0-0.4,0.1-0.4,0.5v0.4H242c0-0.2,0-0.4,0-0.6c0-1,0.3-1.4,1.2-1.4h2.5v-0.7h0.9
		v0.7h1.3v1.1h-1.3v0.9H245.7z"/>
	<path class="st0" d="M246.6,302.5v1.2l-4.5-1.5v-1.2l1.9-0.6c0.4-0.1,0.9-0.3,1.4-0.4c-0.4-0.1-0.9-0.2-1.4-0.4l-1.9-0.6V298
		l4.5-1.5v1.2l-1.7,0.5c-0.5,0.2-1.1,0.3-1.6,0.4c0.5,0.1,1.1,0.3,1.6,0.4l1.7,0.5v1.1l-1.7,0.5c-0.5,0.2-1.1,0.3-1.6,0.4
		c0.5,0.1,1.1,0.3,1.6,0.4L246.6,302.5z"/>
	<path class="st0" d="M244.3,303.8c1.4,0,2.4,0.9,2.4,2.3c0,1.4-0.9,2.3-2.4,2.3c-1.4,0-2.4-0.9-2.4-2.3
		C241.9,304.7,242.8,303.8,244.3,303.8z M244.3,307.3c1,0,1.5-0.5,1.5-1.2c0-0.7-0.5-1.2-1.5-1.2c-1,0-1.5,0.5-1.5,1.2
		C242.8,306.8,243.3,307.3,244.3,307.3z"/>
	<path class="st0" d="M246.6,311.8h-1v-0.3c0-0.8-0.4-1.3-1.3-1.3H242v-1.1h4.5v1.1h-0.8c0.5,0.2,0.9,0.7,0.9,1.4
		C246.6,311.6,246.6,311.7,246.6,311.8z"/>
	<path class="st0" d="M242,315.5l2.1-1.3l-0.7-0.7H242v-1.1h6.3v1.1h-3.6l1.9,1.8v1.3l-1.7-1.7l-2.8,1.8V315.5z"/>
</g>
<g>
	<path class="st0" d="M296.8,259.2v3h-1.1v-4.2h6.3v1.2H296.8z"/>
	<path class="st0" d="M298.1,262.5c1.4,0,2.4,0.9,2.4,2.3c0,1.4-0.9,2.3-2.4,2.3c-1.4,0-2.4-0.9-2.4-2.3
		C295.7,263.4,296.6,262.5,298.1,262.5z M298.1,266c1,0,1.5-0.5,1.5-1.2c0-0.7-0.5-1.2-1.5-1.2c-1,0-1.5,0.5-1.5,1.2
		C296.6,265.5,297.1,266,298.1,266z"/>
	<path class="st0" d="M295.8,270.7c0.1-0.1,0.3-0.1,0.6-0.1c-0.4-0.3-0.7-0.8-0.7-1.5c0-1,0.5-1.6,1.4-1.6c0.8,0,1.3,0.5,1.4,1.7
		l0.1,0.7c0.1,0.4,0.2,0.6,0.5,0.6c0.4,0,0.6-0.2,0.6-0.8c0-0.6-0.2-0.9-0.7-0.9v-1.1c1,0.1,1.5,0.6,1.5,2c0,1.4-0.5,1.9-1.4,1.9
		h-2.4c-0.3,0-0.7,0.1-0.9,0.2V270.7z M297.6,270.5h0.4c-0.1-0.1-0.2-0.3-0.2-0.5l-0.1-0.6c-0.1-0.6-0.3-0.8-0.7-0.8
		c-0.4,0-0.6,0.3-0.6,0.8C296.5,270,296.8,270.5,297.6,270.5z"/>
	<path class="st0" d="M298.8,276.5h-3v-1.1h2.8c0.6,0,0.9-0.3,0.9-0.9c0-0.5-0.3-1-1.1-1h-2.5v-1.1h4.5v1.1h-0.7
		c0.4,0.3,0.8,0.8,0.8,1.4C300.4,275.9,299.9,276.5,298.8,276.5z"/>
	<path class="st0" d="M298.1,283.9c-1.4,0-2.4-0.8-2.4-2c0-0.6,0.3-1.1,0.7-1.4h-2.3v-1.1h6.3v1.1h-0.6c0.5,0.3,0.8,0.8,0.8,1.5
		C300.4,283.1,299.5,283.9,298.1,283.9z M298.1,282.8c1,0,1.4-0.4,1.4-1.2s-0.5-1.2-1.5-1.2c-1,0-1.5,0.4-1.5,1.2
		S297.1,282.8,298.1,282.8z"/>
	<path class="st0" d="M300.4,287.3h-1V287c0-0.8-0.4-1.3-1.3-1.3h-2.3v-1.1h4.5v1.1h-0.8c0.5,0.2,0.9,0.7,0.9,1.4
		C300.4,287.1,300.4,287.2,300.4,287.3z"/>
	<path class="st0" d="M298.1,287.5c1.4,0,2.4,0.9,2.4,2.3s-0.9,2.3-2.4,2.3c-1.4,0-2.4-0.9-2.4-2.3S296.6,287.5,298.1,287.5z
		 M298.1,291c1,0,1.5-0.5,1.5-1.2c0-0.7-0.5-1.2-1.5-1.2c-1,0-1.5,0.5-1.5,1.2C296.6,290.5,297.1,291,298.1,291z"/>
	<path class="st0" d="M298.1,292.6c1.5,0,2.4,0.9,2.4,2.2c0,1.2-0.7,2-1.7,2.1v-1.1c0.6-0.1,0.8-0.5,0.8-1c0-0.7-0.5-1.1-1.5-1.1
		c-1,0-1.5,0.5-1.5,1.1c0,0.5,0.3,0.9,0.9,1v1.1c-1.1-0.1-1.8-1-1.8-2.1C295.7,293.5,296.6,292.6,298.1,292.6z"/>
	<path class="st0" d="M298.1,297.4c1.4,0,2.4,0.9,2.4,2.2c0,1.4-1,2.2-2.5,2.2h-0.3v-3.4c-0.8,0.1-1.2,0.5-1.2,1.2
		c0,0.5,0.2,0.9,0.7,1v1.1c-0.9-0.2-1.5-1-1.5-2.1C295.7,298.3,296.6,297.4,298.1,297.4z M298.5,300.8c0.6-0.1,1.1-0.5,1.1-1.1
		c0-0.6-0.3-1-1.1-1.1V300.8z"/>
	<path class="st0" d="M297.2,302.3v1.1c-0.6,0.1-0.8,0.4-0.8,1c0,0.6,0.2,0.9,0.5,0.9c0.3,0,0.5-0.2,0.6-0.9l0.1-0.5
		c0.2-1,0.6-1.5,1.4-1.5c0.9,0,1.4,0.7,1.4,1.9c0,1.4-0.6,2-1.5,2v-1c0.6,0,0.7-0.4,0.7-1c0-0.5-0.2-0.8-0.5-0.8
		c-0.3,0-0.5,0.3-0.6,0.8l-0.1,0.6c-0.2,1.1-0.6,1.6-1.4,1.6c-0.9,0-1.4-0.7-1.4-2C295.7,303.1,296.1,302.4,297.2,302.3z"/>
	<path class="st0" d="M297.2,306.8v1.1c-0.6,0.1-0.8,0.4-0.8,1c0,0.6,0.2,0.9,0.5,0.9c0.3,0,0.5-0.2,0.6-0.9l0.1-0.5
		c0.2-1,0.6-1.5,1.4-1.5c0.9,0,1.4,0.7,1.4,1.9c0,1.4-0.6,2-1.5,2v-1c0.6,0,0.7-0.4,0.7-1c0-0.5-0.2-0.8-0.5-0.8
		c-0.3,0-0.5,0.3-0.6,0.8l-0.1,0.6c-0.2,1.1-0.6,1.6-1.4,1.6c-0.9,0-1.4-0.7-1.4-2C295.7,307.6,296.1,306.9,297.2,306.8z"/>
	<path class="st0" d="M295.8,311.5h4.5v1.1h-4.5V311.5z M300.8,311.5h1v1.1h-1V311.5z"/>
	<path class="st0" d="M298.8,317.6h-3v-1.1h2.8c0.6,0,0.9-0.3,0.9-0.9c0-0.5-0.3-1-1.1-1h-2.5v-1.1h4.5v1.1h-0.7
		c0.4,0.3,0.8,0.8,0.8,1.4C300.4,316.9,299.9,317.6,298.8,317.6z"/>
	<path class="st0" d="M300.3,321.7v1.1h-4.4c-1.2,0-2-0.8-2-2.2c0-1.3,0.6-2,1.6-2.1v1.1c-0.5,0.1-0.7,0.4-0.7,1
		c0,0.7,0.4,1.1,1.1,1.1h0.6c-0.4-0.3-0.7-0.8-0.7-1.4c0-1.2,0.9-2,2.3-2c1.4,0,2.3,0.8,2.3,2c0,0.7-0.3,1.1-0.7,1.4H300.3z
		 M298.1,321.7c0.9,0,1.4-0.4,1.4-1.2c0-0.7-0.5-1.2-1.4-1.2c-0.9,0-1.4,0.4-1.4,1.2C296.7,321.3,297.2,321.7,298.1,321.7z"/>
</g>
<g>
	<path class="st0" d="M85.5,88.9c-1.9,0-3.1-1.1-3.1-3.1v-2.4h6.3v2.4C88.7,87.8,87.4,88.9,85.5,88.9z M83.4,85.7
		c0,1.2,0.7,1.9,2.1,1.9c1.4,0,2.1-0.7,2.1-1.9v-1.2h-4.2V85.7z"/>
	<path class="st0" d="M84.7,89.4c1.4,0,2.4,0.9,2.4,2.2c0,1.4-1,2.2-2.5,2.2h-0.3v-3.4c-0.8,0.1-1.2,0.5-1.2,1.2
		c0,0.5,0.2,0.9,0.7,1v1.1c-0.9-0.2-1.5-1-1.5-2.1C82.3,90.3,83.2,89.4,84.7,89.4z M85.1,92.8c0.6-0.1,1.1-0.5,1.1-1.1
		c0-0.6-0.3-1-1.1-1.1V92.8z"/>
	<path class="st0" d="M82.4,97.6c0.1-0.1,0.3-0.1,0.6-0.1c-0.4-0.3-0.7-0.8-0.7-1.5c0-1,0.5-1.6,1.4-1.6c0.8,0,1.3,0.5,1.4,1.7
		l0.1,0.7c0.1,0.4,0.2,0.6,0.5,0.6c0.4,0,0.6-0.2,0.6-0.8c0-0.6-0.2-0.9-0.7-0.9v-1.1c1,0.1,1.5,0.6,1.5,2c0,1.4-0.5,1.9-1.4,1.9
		h-2.4c-0.3,0-0.7,0.1-0.9,0.2V97.6z M84.2,97.4h0.4c-0.1-0.1-0.2-0.3-0.2-0.5l-0.1-0.6c-0.1-0.6-0.3-0.8-0.7-0.8
		c-0.4,0-0.6,0.3-0.6,0.8C83.1,96.8,83.4,97.4,84.2,97.4z"/>
	<path class="st0" d="M82.4,99.3h6.3v1.1h-6.3V99.3z"/>
	<path class="st0" d="M82.4,106.2c0.1-0.1,0.3-0.1,0.6-0.1c-0.4-0.3-0.7-0.8-0.7-1.5c0-1,0.5-1.6,1.4-1.6c0.8,0,1.3,0.5,1.4,1.7
		l0.1,0.7c0.1,0.4,0.2,0.6,0.5,0.6c0.4,0,0.6-0.2,0.6-0.8c0-0.6-0.2-0.9-0.7-0.9v-1.1c1,0.1,1.5,0.6,1.5,2c0,1.4-0.5,1.9-1.4,1.9
		h-2.4c-0.3,0-0.7,0.1-0.9,0.2V106.2z M84.2,106h0.4c-0.1-0.1-0.2-0.3-0.2-0.5l-0.1-0.6c-0.1-0.6-0.3-0.8-0.7-0.8
		c-0.4,0-0.6,0.3-0.6,0.8C83.1,105.4,83.4,106,84.2,106z"/>
	<path class="st0" d="M84.7,107.7c1.5,0,2.4,0.9,2.4,2.2c0,1.2-0.7,2-1.7,2.1v-1.1c0.6-0.1,0.8-0.5,0.8-1c0-0.7-0.5-1.1-1.5-1.1
		c-1,0-1.5,0.5-1.5,1.1c0,0.5,0.3,0.9,0.9,1v1.1c-1.1-0.1-1.8-1-1.8-2.1C82.3,108.6,83.2,107.7,84.7,107.7z"/>
	<path class="st0" d="M86.9,116v1.1h-6.3v-1.1H83c-0.4-0.3-0.7-0.8-0.7-1.4c0-1.3,0.9-2,2.4-2c1.4,0,2.4,0.8,2.4,2
		c0,0.7-0.3,1.1-0.7,1.4H86.9z M84.7,116c1,0,1.5-0.4,1.5-1.2c0-0.7-0.5-1.2-1.5-1.2c-1,0-1.4,0.4-1.4,1.2
		C83.2,115.5,83.7,116,84.7,116z"/>
	<path class="st0" d="M86.9,120.9v1.1h-4.5v-1.1h0.7c-0.4-0.3-0.8-0.8-0.8-1.4c0-0.9,0.6-1.6,1.6-1.6h3v1.1h-2.8
		c-0.6,0-0.9,0.3-0.9,0.9c0,0.5,0.3,1,1.1,1H86.9z"/>
	<path class="st0" d="M82.4,122.9h4.5v1.1h-4.5V122.9z M87.5,122.9h1v1.1h-1V122.9z"/>
	<path class="st0" d="M83.8,124.6v1.1c-0.6,0.1-0.8,0.4-0.8,1c0,0.6,0.2,0.9,0.5,0.9c0.3,0,0.5-0.2,0.6-0.9l0.1-0.5
		c0.2-1,0.6-1.5,1.4-1.5c0.9,0,1.4,0.7,1.4,1.9c0,1.4-0.6,2-1.5,2v-1c0.6,0,0.7-0.4,0.7-1c0-0.5-0.2-0.8-0.5-0.8
		c-0.3,0-0.5,0.3-0.6,0.8l-0.1,0.6c-0.2,1.1-0.6,1.6-1.4,1.6c-0.9,0-1.4-0.7-1.4-2C82.3,125.4,82.7,124.7,83.8,124.6z"/>
	<path class="st0" d="M82.4,129.3h4.5v1.1h-4.5V129.3z M87.5,129.3h1v1.1h-1V129.3z"/>
	<path class="st0" d="M86.1,133.7v-0.9h-2.4c-0.3,0-0.4,0.1-0.4,0.5v0.4h-0.9c0-0.2,0-0.4,0-0.6c0-1,0.3-1.4,1.2-1.4h2.5V131h0.9
		v0.7h1.3v1.1h-1.3v0.9H86.1z"/>
	<path class="st0" d="M82.4,134.3h4.5v1.1h-4.5V134.3z M87.5,134.3h1v1.1h-1V134.3z"/>
	<path class="st0" d="M84.7,136.1c1.4,0,2.4,0.9,2.4,2.3c0,1.4-0.9,2.3-2.4,2.3c-1.4,0-2.4-0.9-2.4-2.3
		C82.3,137.1,83.2,136.1,84.7,136.1z M84.7,139.6c1,0,1.5-0.5,1.5-1.2c0-0.7-0.5-1.2-1.5-1.2c-1,0-1.5,0.5-1.5,1.2
		C83.2,139.2,83.7,139.6,84.7,139.6z"/>
	<path class="st0" d="M85.4,145.5h-3v-1.1h2.8c0.6,0,0.9-0.3,0.9-0.9c0-0.5-0.3-1-1.1-1h-2.5v-1.1h4.5v1.1h-0.7
		c0.4,0.3,0.8,0.8,0.8,1.4C87.1,144.9,86.5,145.5,85.4,145.5z"/>
</g>
<g>
	<path class="st0" d="M145.6,78.9V80h-6.3v-1.3l2.8-1.7c0.6-0.4,1.3-0.8,1.9-1.1c-1.1,0-2.1,0-3,0h-1.6v-1.1h6.3v1.3l-2.8,1.8
		c-0.6,0.4-1.3,0.8-1.9,1.1c1.1,0,2.1,0,3,0H145.6z"/>
	<path class="st0" d="M141.6,80.8c1.4,0,2.4,0.9,2.4,2.2c0,1.4-1,2.2-2.5,2.2h-0.3v-3.4c-0.8,0.1-1.2,0.5-1.2,1.2
		c0,0.5,0.2,0.9,0.7,1v1.1c-0.9-0.2-1.5-1-1.5-2.1C139.2,81.7,140.2,80.8,141.6,80.8z M142,84.2c0.6-0.1,1.1-0.5,1.1-1.1
		c0-0.6-0.3-1-1.1-1.1V84.2z"/>
	<path class="st0" d="M143.9,89.2v1.1h-4.4c-1.2,0-2-0.8-2-2.2c0-1.3,0.6-2,1.6-2.1v1.1c-0.5,0.1-0.7,0.4-0.7,1
		c0,0.7,0.4,1.1,1.1,1.1h0.6c-0.4-0.3-0.7-0.8-0.7-1.4c0-1.2,0.9-2,2.3-2c1.4,0,2.3,0.8,2.3,2c0,0.7-0.3,1.1-0.7,1.4H143.9z
		 M141.7,89.2c0.9,0,1.4-0.4,1.4-1.2c0-0.7-0.5-1.2-1.4-1.2c-0.9,0-1.4,0.4-1.4,1.2C140.3,88.8,140.8,89.2,141.7,89.2z"/>
	<path class="st0" d="M141.6,91c1.4,0,2.4,0.9,2.4,2.3c0,1.4-0.9,2.3-2.4,2.3c-1.4,0-2.4-0.9-2.4-2.3C139.2,91.9,140.2,91,141.6,91z
		 M141.6,94.5c1,0,1.5-0.5,1.5-1.2c0-0.7-0.5-1.2-1.5-1.2c-1,0-1.5,0.5-1.5,1.2C140.2,94,140.7,94.5,141.6,94.5z"/>
	<path class="st0" d="M143,98.5v-0.9h-2.4c-0.3,0-0.4,0.1-0.4,0.5v0.4h-0.9c0-0.2,0-0.4,0-0.6c0-1,0.3-1.4,1.2-1.4h2.5v-0.7h0.9v0.7
		h1.3v1.1h-1.3v0.9H143z"/>
	<path class="st0" d="M139.4,99.1h4.5v1.1h-4.5V99.1z M144.4,99.1h1v1.1h-1V99.1z"/>
	<path class="st0" d="M139.4,104.1c0.1-0.1,0.3-0.1,0.6-0.1c-0.4-0.3-0.7-0.8-0.7-1.5c0-1,0.5-1.6,1.4-1.6c0.8,0,1.3,0.5,1.4,1.7
		l0.1,0.7c0.1,0.4,0.2,0.6,0.5,0.6c0.4,0,0.6-0.2,0.6-0.8c0-0.6-0.2-0.9-0.7-0.9v-1.1c1,0.1,1.5,0.6,1.5,2c0,1.4-0.5,1.9-1.4,1.9
		h-2.4c-0.3,0-0.7,0.1-0.9,0.2V104.1z M141.1,103.9h0.4c-0.1-0.1-0.2-0.3-0.2-0.5l-0.1-0.6c-0.1-0.6-0.3-0.8-0.7-0.8
		c-0.4,0-0.6,0.3-0.6,0.8C140,103.4,140.4,103.9,141.1,103.9z"/>
	<path class="st0" d="M143,108.1v-0.9h-2.4c-0.3,0-0.4,0.1-0.4,0.5v0.4h-0.9c0-0.2,0-0.4,0-0.6c0-1,0.3-1.4,1.2-1.4h2.5v-0.7h0.9
		v0.7h1.3v1.1h-1.3v0.9H143z"/>
	<path class="st0" d="M139.4,108.7h4.5v1.1h-4.5V108.7z M144.4,108.7h1v1.1h-1V108.7z"/>
	<path class="st0" d="M141.6,110.5c1.4,0,2.4,0.9,2.4,2.3c0,1.4-0.9,2.3-2.4,2.3c-1.4,0-2.4-0.9-2.4-2.3
		C139.2,111.5,140.2,110.5,141.6,110.5z M141.6,114c1,0,1.5-0.5,1.5-1.2c0-0.7-0.5-1.2-1.5-1.2c-1,0-1.5,0.5-1.5,1.2
		C140.2,113.6,140.7,114,141.6,114z"/>
	<path class="st0" d="M142.4,119.9h-3v-1.1h2.8c0.6,0,0.9-0.3,0.9-0.9c0-0.5-0.3-1-1.1-1h-2.5v-1.1h4.5v1.1h-0.7
		c0.4,0.3,0.8,0.8,0.8,1.4C144,119.3,143.4,119.9,142.4,119.9z"/>
	<path class="st0" d="M141.6,122.5c1.4,0,2.4,0.9,2.4,2.3c0,1.4-0.9,2.3-2.4,2.3c-1.4,0-2.4-0.9-2.4-2.3
		C139.2,123.5,140.2,122.5,141.6,122.5z M141.6,126c1,0,1.5-0.5,1.5-1.2c0-0.7-0.5-1.2-1.5-1.2c-1,0-1.5,0.5-1.5,1.2
		C140.2,125.6,140.7,126,141.6,126z"/>
	<path class="st0" d="M144.2,129.1h-0.3v0.9H143v-0.9h-3.7V128h3.7v-0.7h0.9v0.7h0.3c0.8,0,1.4,0.4,1.4,1.5c0,0.2,0,0.4,0,0.6h-0.9
		v-0.4C144.8,129.3,144.6,129.1,144.2,129.1z"/>
	<path class="st0" d="M143,135v-0.9h-2.4c-0.3,0-0.4,0.1-0.4,0.5v0.4h-0.9c0-0.2,0-0.4,0-0.6c0-1,0.3-1.4,1.2-1.4h2.5v-0.7h0.9v0.7
		h1.3v1.1h-1.3v0.9H143z"/>
	<path class="st0" d="M141.6,135.4c1.4,0,2.4,0.9,2.4,2.2c0,1.4-1,2.2-2.5,2.2h-0.3v-3.4c-0.8,0.1-1.2,0.5-1.2,1.2
		c0,0.5,0.2,0.9,0.7,1v1.1c-0.9-0.2-1.5-1-1.5-2.1C139.2,136.3,140.2,135.4,141.6,135.4z M142,138.8c0.6-0.1,1.1-0.5,1.1-1.1
		c0-0.6-0.3-1-1.1-1.1V138.8z"/>
	<path class="st0" d="M143.9,143.3h-1V143c0-0.8-0.4-1.3-1.3-1.3h-2.3v-1.1h4.5v1.1h-0.8c0.5,0.2,0.9,0.7,0.9,1.4
		C144,143.1,144,143.2,143.9,143.3z"/>
	<path class="st0" d="M142.3,150.6h-3v-1.1h2.8c0.6,0,0.9-0.3,0.9-0.8c0-0.5-0.3-0.9-1.2-0.9h-2.5v-1.1h2.8c0.6,0,0.9-0.3,0.9-0.8
		c0-0.5-0.3-0.9-1.2-0.9h-2.5v-1.1h4.5v1.1h-0.7c0.4,0.3,0.8,0.7,0.8,1.3c0,0.7-0.3,1.2-0.8,1.4c0.5,0.3,0.8,0.8,0.8,1.4
		C144,150.1,143.4,150.6,142.3,150.6z"/>
	<path class="st0" d="M140.8,151.2v1.1c-0.6,0.1-0.8,0.4-0.8,1c0,0.6,0.2,0.9,0.5,0.9c0.3,0,0.5-0.2,0.6-0.9l0.1-0.5
		c0.2-1,0.6-1.5,1.4-1.5c0.9,0,1.4,0.7,1.4,1.9c0,1.4-0.6,2-1.5,2v-1c0.6,0,0.7-0.4,0.7-1c0-0.5-0.2-0.8-0.5-0.8
		c-0.3,0-0.5,0.3-0.6,0.8l-0.1,0.6c-0.2,1.1-0.6,1.6-1.4,1.6c-0.9,0-1.4-0.7-1.4-2C139.2,152,139.7,151.3,140.8,151.2z"/>
	<path class="st0" d="M129.5,89c0.1-0.1,0.3-0.1,0.6-0.1c-0.4-0.3-0.7-0.8-0.7-1.5c0-1,0.5-1.6,1.4-1.6c0.8,0,1.3,0.5,1.4,1.7
		l0.1,0.7c0.1,0.4,0.2,0.6,0.5,0.6c0.4,0,0.6-0.2,0.6-0.8c0-0.6-0.2-0.9-0.7-0.9V86c1,0.1,1.5,0.6,1.5,2c0,1.4-0.5,1.9-1.4,1.9h-2.4
		c-0.3,0-0.7,0.1-0.9,0.2V89z M131.3,88.8h0.4c-0.1-0.1-0.2-0.3-0.2-0.5l-0.1-0.6c-0.1-0.6-0.3-0.8-0.7-0.8c-0.4,0-0.6,0.3-0.6,0.8
		C130.2,88.3,130.5,88.8,131.3,88.8z"/>
	<path class="st0" d="M132.5,94.8h-3v-1.1h2.8c0.6,0,0.9-0.3,0.9-0.9c0-0.5-0.3-1-1.1-1h-2.5v-1.1h4.5v1.1h-0.7
		c0.4,0.3,0.8,0.8,0.8,1.4C134.1,94.2,133.6,94.8,132.5,94.8z"/>
	<path class="st0" d="M135.7,99v1.1h-6.3V99h0.6c-0.5-0.3-0.7-0.8-0.7-1.4c0-1.3,0.9-2,2.4-2c1.4,0,2.4,0.8,2.4,2
		c0,0.6-0.3,1.1-0.7,1.4H135.7z M131.8,99c1,0,1.5-0.4,1.5-1.2c0-0.7-0.5-1.2-1.5-1.2c-1,0-1.4,0.4-1.4,1.2
		C130.3,98.6,130.8,99,131.8,99z"/>
	<path class="st0" d="M131.8,102.7c1.5,0,2.4,0.9,2.4,2.2c0,1.2-0.7,2-1.7,2.1v-1.1c0.6-0.1,0.8-0.5,0.8-1c0-0.7-0.5-1.1-1.5-1.1
		c-1,0-1.5,0.5-1.5,1.1c0,0.5,0.3,0.9,0.9,1v1.1c-1.1-0.1-1.8-1-1.8-2.1C129.4,103.6,130.3,102.7,131.8,102.7z"/>
	<path class="st0" d="M131.8,107.5c1.4,0,2.4,0.9,2.4,2.3c0,1.4-0.9,2.3-2.4,2.3c-1.4,0-2.4-0.9-2.4-2.3
		C129.4,108.4,130.3,107.5,131.8,107.5z M131.8,111c1,0,1.5-0.5,1.5-1.2c0-0.7-0.5-1.2-1.5-1.2c-1,0-1.5,0.5-1.5,1.2
		C130.3,110.5,130.8,111,131.8,111z"/>
	<path class="st0" d="M132.5,116.9h-3v-1.1h2.8c0.6,0,0.9-0.3,0.9-0.9c0-0.5-0.3-1-1.1-1h-2.5v-1.1h4.5v1.1h-0.7
		c0.4,0.3,0.8,0.8,0.8,1.4C134.1,116.2,133.6,116.9,132.5,116.9z"/>
	<path class="st0" d="M135.7,121v1.1h-6.3V121h0.6c-0.5-0.3-0.7-0.8-0.7-1.4c0-1.3,0.9-2,2.4-2c1.4,0,2.4,0.8,2.4,2
		c0,0.6-0.3,1.1-0.7,1.4H135.7z M131.8,121c1,0,1.5-0.4,1.5-1.2c0-0.7-0.5-1.2-1.5-1.2c-1,0-1.4,0.4-1.4,1.2
		C130.3,120.6,130.8,121,131.8,121z"/>
	<path class="st0" d="M129.5,123.1h4.5v1.1h-4.5V123.1z M134.5,123.1h1v1.1h-1V123.1z"/>
	<path class="st0" d="M133.2,127.4v-0.9h-2.4c-0.3,0-0.4,0.1-0.4,0.5v0.4h-0.9c0-0.2,0-0.4,0-0.6c0-1,0.3-1.4,1.2-1.4h2.5v-0.7h0.9
		v0.7h1.3v1.1H134v0.9H133.2z"/>
	<path class="st0" d="M129.5,128.1h4.5v1.1h-4.5V128.1z M134.5,128.1h1v1.1h-1V128.1z"/>
	<path class="st0" d="M131.8,129.9c1.4,0,2.4,0.9,2.4,2.3c0,1.4-0.9,2.3-2.4,2.3c-1.4,0-2.4-0.9-2.4-2.3
		C129.4,130.8,130.3,129.9,131.8,129.9z M131.8,133.4c1,0,1.5-0.5,1.5-1.2c0-0.7-0.5-1.2-1.5-1.2c-1,0-1.5,0.5-1.5,1.2
		C130.3,132.9,130.8,133.4,131.8,133.4z"/>
	<path class="st0" d="M132.5,139.3h-3v-1.1h2.8c0.6,0,0.9-0.3,0.9-0.9c0-0.5-0.3-1-1.1-1h-2.5v-1.1h4.5v1.1h-0.7
		c0.4,0.3,0.8,0.8,0.8,1.4C134.1,138.6,133.6,139.3,132.5,139.3z"/>
	<path class="st0" d="M130.9,139.9v1.1c-0.6,0.1-0.8,0.4-0.8,1c0,0.6,0.2,0.9,0.5,0.9c0.3,0,0.5-0.2,0.6-0.9l0.1-0.5
		c0.2-1,0.6-1.5,1.4-1.5c0.9,0,1.4,0.7,1.4,1.9c0,1.4-0.6,2-1.5,2v-1c0.6,0,0.7-0.4,0.7-1c0-0.5-0.2-0.8-0.5-0.8
		c-0.3,0-0.5,0.3-0.6,0.8l-0.1,0.6c-0.2,1.1-0.6,1.6-1.4,1.6c-0.9,0-1.4-0.7-1.4-2C129.4,140.7,129.8,140,130.9,139.9z"/>
</g>
<g>
	<path class="st0" d="M192.3,166.8c-1.2,0-2-0.8-2-2.2V163h-2.2v-1.2h6.3v2.8C194.4,166.1,193.5,166.8,192.3,166.8z M191.3,164.6
		c0,0.7,0.4,1.1,1,1.1s1-0.4,1-1.1V163h-2V164.6z"/>
	<path class="st0" d="M192.7,170.2h-1v-0.3c0-0.8-0.4-1.3-1.3-1.3h-2.3v-1.1h4.5v1.1h-0.8c0.5,0.2,0.9,0.7,0.9,1.4
		C192.7,170,192.7,170.1,192.7,170.2z"/>
	<path class="st0" d="M190.4,170.4c1.4,0,2.4,0.9,2.4,2.3c0,1.4-0.9,2.3-2.4,2.3c-1.4,0-2.4-0.9-2.4-2.3
		C188,171.3,188.9,170.4,190.4,170.4z M190.4,173.9c1,0,1.5-0.5,1.5-1.2c0-0.7-0.5-1.2-1.5-1.2c-1,0-1.5,0.5-1.5,1.2
		C188.9,173.4,189.4,173.9,190.4,173.9z"/>
	<path class="st0" d="M190.4,180.2c-1.4,0-2.4-0.8-2.4-2c0-0.6,0.3-1.1,0.7-1.4h-2.3v-1.1h6.3v1.1H192c0.5,0.3,0.8,0.8,0.8,1.5
		C192.7,179.4,191.8,180.2,190.4,180.2z M190.4,179.1c1,0,1.4-0.4,1.4-1.2c0-0.7-0.5-1.2-1.5-1.2c-1,0-1.5,0.4-1.5,1.2
		C188.9,178.6,189.4,179.1,190.4,179.1z"/>
	<path class="st0" d="M190.4,180.7c1.4,0,2.4,0.9,2.4,2.2c0,1.4-1,2.2-2.5,2.2H190v-3.4c-0.8,0.1-1.2,0.5-1.2,1.2
		c0,0.5,0.2,0.9,0.7,1v1.1c-0.9-0.2-1.5-1-1.5-2.1C188,181.6,188.9,180.7,190.4,180.7z M190.8,184.1c0.6-0.1,1.1-0.5,1.1-1.1
		c0-0.6-0.3-1-1.1-1.1V184.1z"/>
	<path class="st0" d="M192.7,188.6h-1v-0.3c0-0.8-0.4-1.3-1.3-1.3h-2.3v-1.1h4.5v1.1h-0.8c0.5,0.2,0.9,0.7,0.9,1.4
		C192.7,188.4,192.7,188.5,192.7,188.6z"/>
	<path class="st0" d="M191.8,191.6v-0.9h-2.4c-0.3,0-0.4,0.1-0.4,0.5v0.4h-0.9c0-0.2,0-0.4,0-0.6c0-1,0.3-1.4,1.2-1.4h2.5v-0.7h0.9
		v0.7h1.3v1.1h-1.3v0.9H191.8z"/>
	<path class="st0" d="M192.6,195.2v1.2l-4.9-1.8c-1-0.4-1.4-0.9-1.4-2c0-0.2,0-0.3,0-0.5h0.9v0.4c0,0.5,0.4,0.7,0.7,0.7
		c0.3,0,0.6-0.1,0.9-0.2l3.7-1.3v1.2l-1.1,0.4c-0.8,0.2-1.6,0.5-2.5,0.7c0.9,0.2,1.7,0.5,2.5,0.7L192.6,195.2z"/>
	<path class="st0" d="M188.1,198.8h4.5v1.1h-4.5V198.8z M193.2,198.8h1v1.1h-1V198.8z"/>
	<path class="st0" d="M191.1,204.8h-3v-1.1h2.8c0.6,0,0.9-0.3,0.9-0.9c0-0.5-0.3-1-1.1-1h-2.5v-1.1h4.5v1.1H192
		c0.4,0.3,0.8,0.8,0.8,1.4C192.7,204.2,192.2,204.8,191.1,204.8z"/>
	<path class="st0" d="M193,207.1h-0.3v0.9h-0.9v-0.9h-3.7V206h3.7v-0.7h0.9v0.7h0.3c0.8,0,1.4,0.4,1.4,1.5c0,0.2,0,0.4,0,0.6h-0.9
		v-0.4C193.5,207.3,193.3,207.1,193,207.1z"/>
	<path class="st0" d="M190.4,208.2c1.4,0,2.4,0.9,2.4,2.3s-0.9,2.3-2.4,2.3c-1.4,0-2.4-0.9-2.4-2.3S188.9,208.2,190.4,208.2z
		 M190.4,211.7c1,0,1.5-0.5,1.5-1.2c0-0.7-0.5-1.2-1.5-1.2c-1,0-1.5,0.5-1.5,1.2C188.9,211.3,189.4,211.7,190.4,211.7z"/>
	<path class="st0" d="M192.7,216.2h-1V216c0-0.8-0.4-1.3-1.3-1.3h-2.3v-1.1h4.5v1.1h-0.8c0.5,0.2,0.9,0.7,0.9,1.4
		C192.7,216.1,192.7,216.2,192.7,216.2z"/>
	<path class="st0" d="M191.1,223.6h-3v-1.1h2.8c0.6,0,0.9-0.3,0.9-0.8c0-0.5-0.3-0.9-1.2-0.9h-2.5v-1.1h2.8c0.6,0,0.9-0.3,0.9-0.8
		c0-0.5-0.3-0.9-1.2-0.9h-2.5v-1.1h4.5v1.1H192c0.4,0.3,0.8,0.7,0.8,1.3c0,0.7-0.3,1.2-0.8,1.4c0.5,0.3,0.8,0.8,0.8,1.4
		C192.7,223,192.1,223.6,191.1,223.6z"/>
	<path class="st0" d="M188.1,227.5c0.1-0.1,0.3-0.1,0.6-0.1c-0.4-0.3-0.7-0.8-0.7-1.5c0-1,0.5-1.6,1.4-1.6c0.8,0,1.3,0.5,1.4,1.7
		l0.1,0.7c0.1,0.4,0.2,0.6,0.5,0.6c0.4,0,0.6-0.2,0.6-0.8c0-0.6-0.2-0.9-0.7-0.9v-1.1c1,0.1,1.5,0.6,1.5,2c0,1.4-0.5,1.9-1.4,1.9
		H189c-0.3,0-0.7,0.1-0.9,0.2V227.5z M189.9,227.3h0.4c-0.1-0.1-0.2-0.3-0.2-0.5l-0.1-0.6c-0.1-0.6-0.3-0.8-0.7-0.8
		c-0.4,0-0.6,0.3-0.6,0.8C188.8,226.8,189.1,227.3,189.9,227.3z"/>
	<path class="st0" d="M191.8,231.5v-0.9h-2.4c-0.3,0-0.4,0.1-0.4,0.5v0.4h-0.9c0-0.2,0-0.4,0-0.6c0-1,0.3-1.4,1.2-1.4h2.5v-0.7h0.9
		v0.7h1.3v1.1h-1.3v0.9H191.8z"/>
	<path class="st0" d="M188.1,232.1h4.5v1.1h-4.5V232.1z M193.2,232.1h1v1.1h-1V232.1z"/>
	<path class="st0" d="M190.4,233.9c1.4,0,2.4,0.9,2.4,2.3c0,1.4-0.9,2.3-2.4,2.3c-1.4,0-2.4-0.9-2.4-2.3
		C188,234.9,188.9,233.9,190.4,233.9z M190.4,237.4c1,0,1.5-0.5,1.5-1.2c0-0.7-0.5-1.2-1.5-1.2c-1,0-1.5,0.5-1.5,1.2
		C188.9,237,189.4,237.4,190.4,237.4z"/>
	<path class="st0" d="M191.1,243.3h-3v-1.1h2.8c0.6,0,0.9-0.3,0.9-0.9c0-0.5-0.3-1-1.1-1h-2.5v-1.1h4.5v1.1H192
		c0.4,0.3,0.8,0.8,0.8,1.4C192.7,242.7,192.2,243.3,191.1,243.3z"/>
</g>
</svg>
