<?xml version="1.0" encoding="utf-8"?>
<!-- Generator: Adobe Illustrator 27.1.1, SVG Export Plug-In . SVG Version: 6.00 Build 0)  -->
<svg version="1.1" id="レイヤー_1" xmlns="http://www.w3.org/2000/svg" xmlns:xlink="http://www.w3.org/1999/xlink" x="0px"
	 y="0px" viewBox="0 0 544 478.6" style="enable-background:new 0 0 544 478.6;" xml:space="preserve">
<style type="text/css">
	.st0{fill:#FFFFFF;}
	.st1{fill:none;}
	.st2{fill:#222222;}
	.st3{fill:url(#楕円形_11433_-_アウトライン_00000018940508079624793230000016183033951667924927_);}
	.st4{fill:url(#楕円形_11432_00000027565184738866107280000015318031513424278437_);}
</style>
<g id="グループ_13757" transform="translate(-736 -613.675)">
	<path id="パス_12211" class="st0" d="M896.5,613.7h1c88.7,0,160.6,71.9,160.6,160.5s-71.9,160.6-160.6,160.6h-1
		c-88.7,0-160.5-71.9-160.5-160.6S807.9,613.7,896.5,613.7z"/>
	<path id="パス_12951" class="st0" d="M1118.5,770.3h1c88.6,0,160.5,71.9,160.5,160.5s-71.9,160.5-160.5,160.5h-1
		c-88.6,0-160.5-71.9-160.5-160.5S1029.9,770.3,1118.5,770.3z"/>
	<g id="パス_12952" transform="translate(958 770.275)">
		<path class="st1" d="M161,0c88.9,0,161,72.1,161,161s-72.1,161-161,161S0,249.9,0,161S72.1,0,161,0z"/>
		<path class="st2" d="M161,3c-10.7,0-21.4,1.1-31.8,3.2C119,8.3,109,11.4,99.5,15.4c-9.4,4-18.4,8.9-26.8,14.6S56.5,42.1,49.3,49.3
			S35.7,64.3,30,72.7S19.4,90.2,15.4,99.5c-4,9.5-7.1,19.5-9.2,29.7C4.1,139.6,3,150.3,3,161s1.1,21.4,3.2,31.8
			c2.1,10.1,5.2,20.1,9.2,29.7c4,9.4,8.9,18.4,14.6,26.8c5.7,8.4,12.1,16.2,19.3,23.4s15,13.6,23.4,19.3
			c8.4,5.7,17.5,10.6,26.8,14.6c9.5,4,19.5,7.1,29.7,9.2c10.4,2.1,21.1,3.2,31.8,3.2s21.4-1.1,31.8-3.2c10.1-2.1,20.1-5.2,29.7-9.2
			c9.4-4,18.4-8.9,26.8-14.6s16.2-12.1,23.4-19.3c7.2-7.2,13.6-15,19.3-23.4c5.7-8.4,10.6-17.5,14.6-26.8c4-9.5,7.1-19.5,9.2-29.7
			c2.1-10.4,3.2-21.1,3.2-31.8s-1.1-21.4-3.2-31.8c-2.1-10.1-5.2-20.1-9.2-29.7c-4-9.4-8.9-18.4-14.6-26.8s-12.1-16.2-19.3-23.4
			c-7.2-7.2-15-13.6-23.4-19.3s-17.5-10.6-26.8-14.6c-9.5-4-19.5-7.1-29.7-9.2C182.4,4.1,171.7,3,161,3 M161,0
			c88.9,0,161,72.1,161,161s-72.1,161-161,161S0,249.9,0,161S72.1,0,161,0z"/>
	</g>
	
		<linearGradient id="楕円形_11433_-_アウトライン_00000122000084074673208770000005290508475755613064_" gradientUnits="userSpaceOnUse" x1="42.3049" y1="-505.0166" x2="41.6069" y2="-504.3518" gradientTransform="matrix(322.05 0 0 322.05 -12392.8984 163464.8125)">
		<stop  offset="0" style="stop-color:#2D3287"/>
		<stop  offset="1" style="stop-color:#9D448E"/>
	</linearGradient>
	
		<path id="楕円形_11433_-_アウトライン" style="fill:url(#楕円形_11433_-_アウトライン_00000122000084074673208770000005290508475755613064_);" d="
		M1119,773.1c-10.7,0-21.4,1.1-31.9,3.2c-20.2,4.1-39.4,12.2-56.6,23.8c-25.4,17.2-45.3,41.3-57.3,69.6c-4,9.6-7.1,19.5-9.2,29.7
		c-4.3,21-4.3,42.7,0,63.8c4.1,20.2,12.2,39.4,23.8,56.5c17.2,25.4,41.3,45.3,69.6,57.3c9.6,4,19.5,7.1,29.7,9.2
		c21,4.3,42.7,4.3,63.8,0c20.2-4.1,39.4-12.2,56.6-23.8c25.4-17.2,45.3-41.3,57.3-69.6c4-9.6,7.1-19.5,9.2-29.7
		c4.3-21,4.3-42.7,0-63.8c-4.1-20.2-12.2-39.4-23.8-56.5c-17.2-25.4-41.3-45.3-69.6-57.3c-9.6-4-19.5-7.1-29.7-9.2
		C1140.4,774.2,1129.7,773.1,1119,773.1 M1119,770.3c88.9,0,161,72.1,161,161s-72.1,161-161,161s-161-72.1-161-161
		S1030,770.3,1119,770.3L1119,770.3z"/>
	
		<linearGradient id="楕円形_11432_00000132799208039954862140000015711645233656574647_" gradientUnits="userSpaceOnUse" x1="41.6465" y1="-505.0399" x2="42.2745" y2="-504.2899" gradientTransform="matrix(322.05 0 0 321.1 -12614.8516 162823.9844)">
		<stop  offset="0" style="stop-color:#FBCA1B"/>
		<stop  offset="1" style="stop-color:#D53E55"/>
	</linearGradient>
	<path id="楕円形_11432" style="fill:url(#楕円形_11432_00000132799208039954862140000015711645233656574647_);" d="
		M897,616.5c-10.7,0-21.4,1.1-31.9,3.2c-85.3,17.4-140.4,100.7-122.9,186c12.6,61.9,61,110.3,122.9,122.9c21,4.3,42.7,4.3,63.8,0
		c85.3-17.4,140.4-100.7,122.9-186c-12.6-61.9-61-110.3-122.9-122.9C918.4,617.6,907.7,616.5,897,616.5 M897,613.7
		c88.9,0,161,71.9,161,160.5s-72,160.6-161,160.6s-161-71.9-161-160.6S808.1,613.7,897,613.7L897,613.7z"/>
</g>
<g>
	<g>
		<path d="M314,335.1h-1.6v-5.7h-1.9v-1.1h0.2c1.1-0.1,1.8-0.4,2.1-1.6h1.3v8.4H314z"/>
		<path d="M314.8,337.4c0.9-1.8,1.3-3.6,1.3-5.8c0-2.3-0.4-4-1.3-5.8h1.4c1,1.6,1.5,3.5,1.5,5.8s-0.5,4.1-1.5,5.8H314.8z"/>
		<path d="M328.4,330.9c0-2.7,1.6-4.4,4.1-4.4c1.9,0,3.4,1,3.8,3.1h-1.6c-0.3-1.2-1.2-1.7-2.2-1.7c-1.5,0-2.4,1.1-2.4,3s0.9,3,2.4,3
			c1.1,0,2.1-0.6,2.2-1.9h1.6c-0.2,2.2-1.9,3.3-3.8,3.3C330.1,335.3,328.4,333.6,328.4,330.9z"/>
		<path d="M336.9,332c0-1.9,1.2-3.2,3.1-3.2s3.1,1.2,3.1,3.2c0,1.9-1.2,3.2-3.1,3.2S336.9,334,336.9,332z M341.6,332
			c0-1.3-0.6-2-1.6-2s-1.6,0.7-1.6,2s0.6,2,1.6,2S341.6,333.3,341.6,332z"/>
		<path d="M349.5,331v4H348v-3.8c0-0.8-0.4-1.2-1.1-1.2c-0.6,0-1.4,0.4-1.4,1.5v3.4H344V329h1.4v0.9c0.4-0.6,1-1,1.9-1
			C348.6,328.9,349.5,329.6,349.5,331z"/>
		<path d="M352.5,328.6v0.4h1.2v1.2h-1.2v4.9H351v-4.9h-0.9V329h0.9v-0.5c0-1.1,0.5-1.9,2-1.9c0.2,0,0.6,0,0.8,0v1.1h-0.5
			C352.7,327.8,352.5,328.1,352.5,328.6z"/>
		<path d="M354,332c0-1.9,1.2-3.2,3-3.2c1.9,0,3,1.4,3,3.3v0.4h-4.5c0.1,1.1,0.7,1.6,1.6,1.6c0.7,0,1.2-0.3,1.4-0.9h1.4
			c-0.3,1.2-1.4,2-2.8,2C355.3,335.2,354,334,354,332z M358.5,331.5c-0.1-0.9-0.6-1.5-1.5-1.5c-0.8,0-1.4,0.5-1.5,1.5H358.5z"/>
		<path d="M360.7,332c0-1.9,1.2-3.2,3-3.2c1.6,0,2.6,0.9,2.8,2.3H365c-0.1-0.8-0.7-1.1-1.3-1.1c-0.9,0-1.5,0.6-1.5,1.9
			s0.6,1.9,1.5,1.9c0.7,0,1.2-0.4,1.4-1.2h1.5c-0.2,1.5-1.3,2.4-2.8,2.4C361.9,335.2,360.7,334,360.7,332z"/>
		<path d="M370.4,330.1h-1.2v3.2c0,0.4,0.2,0.5,0.7,0.5h0.5v1.1c-0.3,0-0.5,0-0.8,0c-1.3,0-1.9-0.4-1.9-1.5V330h-0.9v-1h0.9v-1.8
			h1.5v1.8h1.2L370.4,330.1L370.4,330.1z"/>
		<path d="M371.2,328.3v-1.4h1.5v1.4H371.2z M371.2,335.1V329h1.5v6.1H371.2z"/>
		<path d="M373.7,332c0-1.9,1.2-3.2,3.1-3.2s3.1,1.2,3.1,3.2c0,1.9-1.2,3.2-3.1,3.2C374.9,335.2,373.7,334,373.7,332z M378.3,332
			c0-1.3-0.6-2-1.6-2s-1.6,0.7-1.6,2s0.6,2,1.6,2C377.7,334,378.3,333.3,378.3,332z"/>
		<path d="M386.2,331v4h-1.5v-3.8c0-0.8-0.4-1.2-1.1-1.2c-0.6,0-1.4,0.4-1.4,1.5v3.4h-1.5V329h1.4v0.9c0.4-0.6,1-1,1.9-1
			C385.4,328.9,386.2,329.6,386.2,331z"/>
		<path d="M387.2,332c0-1.9,1.2-3.2,3-3.2c1.9,0,3,1.4,3,3.3v0.4h-4.5c0.1,1.1,0.7,1.6,1.6,1.6c0.7,0,1.2-0.3,1.4-0.9h1.4
			c-0.3,1.2-1.4,2-2.8,2C388.4,335.2,387.2,334,387.2,332z M391.7,331.5c-0.1-0.9-0.6-1.5-1.5-1.5c-0.8,0-1.4,0.5-1.5,1.5H391.7z"/>
		<path d="M397.7,328.9v1.4h-0.4c-1.1,0-1.8,0.5-1.8,1.7v3.1H394V329h1.4v1.1c0.3-0.7,0.9-1.2,1.8-1.2
			C397.5,328.9,397.6,328.9,397.7,328.9z"/>
		<path d="M402.6,329h1.6l-2.3,6.6c-0.5,1.4-1.1,1.8-2.6,1.8c-0.3,0-0.5,0-0.6,0v-1.2h0.6c0.7,0,1-0.5,1-1c0-0.4-0.1-0.8-0.3-1.2
			l-1.8-5h1.6l0.5,1.5c0.3,1.1,0.7,2.2,1,3.4c0.3-1.2,0.6-2.3,1-3.4L402.6,329z"/>
		<path d="M316.6,354.7v1.3h-6.1v-0.6c0-1.1,0.3-2.4,2.2-3.3l0.8-0.4c0.9-0.5,1.3-0.9,1.3-1.6c0-0.8-0.5-1.2-1.4-1.2
			s-1.4,0.5-1.4,1.5h-1.5c0-1.8,1-2.9,3-2.9c1.8,0,2.9,1,2.9,2.5c0,1.3-0.7,2.1-2.2,2.9l-0.8,0.4c-0.8,0.4-1.2,0.8-1.2,1.5
			L316.6,354.7L316.6,354.7z"/>
		<path d="M317.1,358.4c0.9-1.8,1.3-3.6,1.3-5.8c0-2.3-0.4-4-1.3-5.8h1.4c1,1.6,1.5,3.5,1.5,5.8s-0.5,4.1-1.5,5.8H317.1z"/>
		<path d="M330.3,354.6h4v1.4h-5.6v-8.4h1.6V354.6z"/>
		<path d="M334.6,353c0-1.9,1.2-3.2,3.1-3.2s3.1,1.2,3.1,3.2c0,1.9-1.2,3.2-3.1,3.2S334.6,355,334.6,353z M339.3,353
			c0-1.3-0.6-2-1.6-2s-1.6,0.7-1.6,2s0.6,2,1.6,2C338.7,355,339.3,354.3,339.3,353z"/>
		<path d="M346.1,350h1.4v5.9c0,1.6-1,2.7-3,2.7c-1.8,0-2.7-0.9-2.8-2.1h1.5c0.1,0.6,0.5,1,1.4,1c1,0,1.5-0.5,1.5-1.5v-0.8
			c-0.4,0.6-1,0.9-1.9,0.9c-1.6,0-2.7-1.2-2.7-3.1s1.1-3.1,2.7-3.1c0.9,0,1.5,0.4,1.9,1V350z M346.1,352.9c0-1.2-0.6-1.9-1.6-1.9
			s-1.6,0.7-1.6,1.9c0,1.2,0.6,1.9,1.6,1.9S346.1,354.2,346.1,352.9z"/>
		<path d="M348.8,349.3v-1.4h1.5v1.4H348.8z M348.8,356.1V350h1.5v6.1H348.8z"/>
		<path d="M351.1,354.1h1.4c0.1,0.8,0.5,1,1.4,1s1.2-0.3,1.2-0.7c0-0.4-0.3-0.6-1.2-0.8l-0.7-0.1c-1.3-0.2-2-0.8-2-1.8
			c0-1.1,0.9-1.8,2.5-1.8c1.9,0,2.6,0.8,2.7,2.1H355c0-0.8-0.5-1-1.3-1c-0.7,0-1.1,0.3-1.1,0.7c0,0.4,0.4,0.6,1,0.7l0.8,0.1
			c1.5,0.3,2.1,0.8,2.1,1.9c0,1.2-1,1.9-2.7,1.9C352.1,356.2,351.2,355.6,351.1,354.1z"/>
		<path d="M360.4,351.1h-1.2v3.2c0,0.4,0.2,0.5,0.7,0.5h0.5v1.1c-0.3,0-0.5,0-0.8,0c-1.3,0-1.9-0.4-1.9-1.5V351h-0.9v-1h0.9v-1.8
			h1.5v1.8h1.2L360.4,351.1L360.4,351.1z"/>
		<path d="M361.3,349.3v-1.4h1.5v1.4H361.3z M361.3,356.1V350h1.5v6.1H361.3z"/>
		<path d="M363.7,353c0-1.9,1.2-3.2,3-3.2c1.6,0,2.6,0.9,2.8,2.3H368c-0.1-0.8-0.7-1.1-1.3-1.1c-0.9,0-1.5,0.6-1.5,1.9
			s0.6,1.9,1.5,1.9c0.7,0,1.2-0.4,1.4-1.2h1.5c-0.2,1.5-1.3,2.4-2.8,2.4C364.9,356.2,363.7,355,363.7,353z"/>
		<path d="M369.9,354.1h1.4c0.1,0.8,0.5,1,1.4,1s1.2-0.3,1.2-0.7c0-0.4-0.3-0.6-1.2-0.8l-0.7-0.1c-1.3-0.2-2-0.8-2-1.8
			c0-1.1,0.9-1.8,2.5-1.8c1.9,0,2.6,0.8,2.7,2.1h-1.4c0-0.8-0.5-1-1.3-1c-0.7,0-1.1,0.3-1.1,0.7c0,0.4,0.4,0.6,1,0.7l0.8,0.1
			c1.5,0.3,2.1,0.8,2.1,1.9c0,1.2-1,1.9-2.7,1.9C371,356.2,370,355.6,369.9,354.1z"/>
		<path d="M316.9,374.7c0,1.5-1.2,2.6-3.1,2.6c-2.2,0-3.3-1.2-3.3-3h1.5c0,1.1,0.6,1.6,1.7,1.6c1,0,1.5-0.5,1.5-1.3
			c0-0.9-0.6-1.4-1.6-1.4H313V372h0.6c1,0,1.5-0.4,1.5-1.2c0-0.7-0.5-1.1-1.4-1.1s-1.4,0.4-1.5,1.3h-1.5c0-1.6,1.1-2.6,3-2.6
			c1.8,0,2.9,0.9,2.9,2.3c0,0.8-0.5,1.5-1.2,1.8C316.3,372.9,316.9,373.6,316.9,374.7z"/>
		<path d="M317.4,379.4c0.9-1.8,1.3-3.6,1.3-5.8c0-2.3-0.4-4-1.3-5.8h1.4c1,1.6,1.5,3.5,1.5,5.8s-0.5,4.1-1.5,5.8H317.4z"/>
		<path d="M334.3,368.7h1.5v8.4H334l-2.3-3.7c-0.5-0.8-1.1-1.7-1.5-2.5c0,1.5,0,2.8,0,4.1v2.2h-1.5v-8.4h1.8l2.3,3.7
			c0.5,0.8,1.1,1.7,1.5,2.5c0-1.5,0-2.8,0-4.1V368.7z"/>
		<path d="M336.8,374c0-1.9,1.2-3.2,3-3.2c1.9,0,3,1.4,3,3.3v0.4h-4.5c0.1,1.1,0.7,1.6,1.6,1.6c0.7,0,1.2-0.3,1.4-0.9h1.4
			c-0.3,1.2-1.4,2-2.8,2C338.1,377.2,336.8,376,336.8,374z M341.3,373.5c-0.1-0.9-0.6-1.5-1.5-1.5c-0.8,0-1.4,0.5-1.5,1.5H341.3z"/>
		<path d="M351,371h1.6l-2,6.1H349l-0.8-2.5c-0.2-0.6-0.4-1.2-0.5-1.8c-0.2,0.6-0.3,1.2-0.5,1.8l-0.8,2.5h-1.6l-2-6.1h1.6l0.7,2.3
			c0.2,0.7,0.4,1.4,0.6,2.1c0.2-0.7,0.4-1.4,0.6-2.1l0.7-2.3h1.4l0.7,2.3c0.2,0.7,0.4,1.4,0.6,2.1c0.2-0.7,0.4-1.4,0.6-2.1L351,371z
			"/>
		<path d="M362,370.1h-4.6v2h4.2v1.4h-4.2v2.2h4.6v1.4h-6.1v-8.4h6.2v1.4H362z"/>
		<path d="M368.4,373v4h-1.5v-3.8c0-0.8-0.4-1.2-1.1-1.2c-0.6,0-1.4,0.4-1.4,1.5v3.4h-1.5V371h1.4v0.9c0.4-0.6,1-1,1.9-1
			C367.5,370.9,368.4,371.6,368.4,373z"/>
		<path d="M372.5,372.1h-1.2v3.2c0,0.4,0.2,0.5,0.7,0.5h0.5v1.1c-0.3,0-0.5,0-0.8,0c-1.3,0-1.9-0.4-1.9-1.5V372h-0.9v-1h0.9v-1.8
			h1.5v1.8h1.2L372.5,372.1L372.5,372.1z"/>
		<path d="M373,374c0-1.9,1.2-3.2,3-3.2c1.9,0,3,1.4,3,3.3v0.4h-4.5c0.1,1.1,0.7,1.6,1.6,1.6c0.7,0,1.2-0.3,1.4-0.9h1.4
			c-0.3,1.2-1.4,2-2.8,2C374.2,377.2,373,376,373,374z M377.5,373.5c-0.1-0.9-0.6-1.5-1.5-1.5c-0.8,0-1.4,0.5-1.5,1.5H377.5z"/>
		<path d="M383.6,370.9v1.4h-0.4c-1.1,0-1.8,0.5-1.8,1.7v3.1h-1.5V371h1.4v1.1c0.3-0.7,0.9-1.2,1.8-1.2
			C383.3,370.9,383.4,370.9,383.6,370.9z"/>
		<path d="M387.6,372.1h-1.2v3.2c0,0.4,0.2,0.5,0.7,0.5h0.5v1.1c-0.3,0-0.5,0-0.8,0c-1.3,0-1.9-0.4-1.9-1.5V372H384v-1h0.9v-1.8h1.5
			v1.8h1.2V372.1z"/>
		<path d="M392.4,377.1c-0.1-0.2-0.1-0.4-0.2-0.7c-0.4,0.6-1.1,0.9-2,0.9c-1.3,0-2.2-0.6-2.2-1.8c0-1,0.6-1.7,2.3-1.9l0.9-0.1
			c0.6-0.1,0.9-0.2,0.9-0.7s-0.2-0.8-1.1-0.8c-0.8,0-1.2,0.2-1.3,1h-1.5c0.1-1.3,0.8-2.1,2.7-2.1c1.8,0,2.5,0.7,2.5,1.8v3.2
			c0,0.4,0.1,0.9,0.2,1.1h-1.2V377.1z M392.2,374.7v-0.6c-0.2,0.1-0.4,0.2-0.7,0.2l-0.8,0.1c-0.8,0.1-1.1,0.4-1.1,0.9s0.3,0.8,1,0.8
			C391.4,376.2,392.2,375.7,392.2,374.7z"/>
		<path d="M394.7,370.3v-1.4h1.5v1.4H394.7z M394.7,377.1V371h1.5v6.1H394.7z"/>
		<path d="M402.9,373v4h-1.5v-3.8c0-0.8-0.4-1.2-1.1-1.2c-0.6,0-1.4,0.4-1.4,1.5v3.4h-1.5V371h1.4v0.9c0.4-0.6,1-1,1.9-1
			C402,370.9,402.9,371.6,402.9,373z"/>
		<path d="M413.1,373.1v4h-1.5v-3.8c0-0.8-0.3-1.2-1-1.2c-0.6,0-1.3,0.4-1.3,1.6v3.3h-1.5v-3.8c0-0.8-0.4-1.2-1.1-1.2
			c-0.6,0-1.2,0.4-1.2,1.6v3.3H404V371h1.4v0.9c0.4-0.6,0.9-1,1.7-1c0.9,0,1.6,0.4,1.9,1.1c0.4-0.6,1-1.1,1.9-1.1
			C412.4,370.9,413.1,371.7,413.1,373.1z"/>
		<path d="M414.1,374c0-1.9,1.2-3.2,3-3.2c1.9,0,3,1.4,3,3.3v0.4h-4.5c0.1,1.1,0.7,1.6,1.6,1.6c0.7,0,1.2-0.3,1.4-0.9h1.4
			c-0.3,1.2-1.4,2-2.8,2C415.3,377.2,414.1,376,414.1,374z M418.6,373.5c-0.1-0.9-0.6-1.5-1.5-1.5c-0.8,0-1.4,0.5-1.5,1.5H418.6z"/>
		<path d="M426.5,373v4H425v-3.8c0-0.8-0.4-1.2-1.1-1.2c-0.6,0-1.4,0.4-1.4,1.5v3.4H421V371h1.4v0.9c0.4-0.6,1-1,1.9-1
			C425.6,370.9,426.5,371.6,426.5,373z"/>
		<path d="M430.6,372.1h-1.2v3.2c0,0.4,0.2,0.5,0.7,0.5h0.5v1.1c-0.3,0-0.5,0-0.8,0c-1.3,0-1.9-0.4-1.9-1.5V372H427v-1h0.9v-1.8h1.5
			v1.8h1.2V372.1z"/>
		<path d="M317.2,394.8v1.3h-1.1v1.9h-1.6v-1.9h-4.1v-1.5l3.9-5h1.7v5.1h1.2V394.8z M314.5,391.4l-2.7,3.4h2.7V391.4z"/>
		<path d="M317.5,400.4c0.9-1.8,1.3-3.6,1.3-5.8c0-2.3-0.4-4-1.3-5.8h1.4c1,1.6,1.5,3.5,1.5,5.8s-0.5,4.1-1.5,5.8H317.5z"/>
		<path d="M332.8,393.5h3.7v4.5h-1.2l-0.2-1.1c-0.6,0.8-1.6,1.3-2.7,1.3c-2.4,0-4-1.7-4-4.4c0-2.6,1.6-4.4,4.1-4.4
			c2.1,0,3.6,1.2,3.9,3h-1.6c-0.2-1-1.1-1.6-2.2-1.6c-1.5,0-2.5,1.1-2.5,3c0,1.8,1,3,2.6,3c1.2,0,2.3-0.8,2.3-2h-2.2L332.8,393.5
			L332.8,393.5z"/>
		<path d="M337.7,398.1v-8.4h1.5v8.4H337.7z"/>
		<path d="M340.1,395c0-1.9,1.2-3.2,3.1-3.2s3.1,1.2,3.1,3.2c0,1.9-1.2,3.2-3.1,3.2S340.1,397,340.1,395z M344.8,395
			c0-1.3-0.6-2-1.6-2s-1.6,0.7-1.6,2s0.6,2,1.6,2C344.2,397,344.8,396.3,344.8,395z"/>
		<path d="M353.3,395c0,1.9-1,3.2-2.7,3.2c-0.9,0-1.5-0.4-1.9-1v0.9h-1.4v-8.4h1.5v3.1c0.4-0.6,1-0.9,1.9-0.9
			C352.3,391.9,353.3,393.1,353.3,395z M351.8,395c0-1.3-0.6-1.9-1.6-1.9s-1.6,0.7-1.6,2s0.6,2,1.6,2
			C351.2,397,351.8,396.3,351.8,395z"/>
		<path d="M358.1,398.1c-0.1-0.2-0.1-0.4-0.2-0.7c-0.4,0.6-1.1,0.9-2,0.9c-1.3,0-2.2-0.6-2.2-1.8c0-1,0.6-1.7,2.3-1.9l0.9-0.1
			c0.6-0.1,0.9-0.2,0.9-0.7s-0.2-0.8-1.1-0.8c-0.8,0-1.2,0.2-1.3,1h-1.5c0.1-1.3,0.8-2.1,2.7-2.1c1.8,0,2.5,0.7,2.5,1.8v3.2
			c0,0.4,0.1,0.9,0.2,1.1h-1.2V398.1z M357.9,395.7v-0.6c-0.2,0.1-0.4,0.2-0.7,0.2l-0.8,0.1c-0.8,0.1-1.1,0.4-1.1,0.9s0.3,0.8,1,0.8
			C357.2,397.2,357.9,396.7,357.9,395.7z"/>
		<path d="M360.5,398.1v-8.4h1.5v8.4H360.5z"/>
		<path d="M372.4,389.7h2.3v8.4h-1.5v-2.6c0-1.3,0-2.6,0-4.2c-0.2,0.6-0.4,1.2-0.6,1.9l-1.7,4.8h-1.3l-1.7-4.8
			c-0.2-0.7-0.4-1.3-0.6-1.9c0,1.5,0,2.9,0,4.1v2.6h-1.5v-8.4h2.3l1.4,4.1c0.2,0.8,0.5,1.6,0.7,2.3c0.2-0.7,0.5-1.6,0.7-2.4
			L372.4,389.7z"/>
		<path d="M375.7,395c0-1.9,1.2-3.2,3-3.2c1.9,0,3,1.4,3,3.3v0.4h-4.5c0.1,1.1,0.7,1.6,1.6,1.6c0.7,0,1.2-0.3,1.4-0.9h1.4
			c-0.3,1.2-1.4,2-2.8,2C376.9,398.2,375.7,397,375.7,395z M380.2,394.5c-0.1-0.9-0.6-1.5-1.5-1.5c-0.8,0-1.4,0.5-1.5,1.5H380.2z"/>
		<path d="M387,389.7h1.5v8.4H387v-0.8c-0.4,0.6-1,1-1.9,1c-1.7,0-2.7-1.2-2.7-3.2c0-1.9,1-3.2,2.7-3.2c0.8,0,1.5,0.3,1.9,0.9V389.7
			z M387,395c0-1.3-0.6-2-1.6-2s-1.6,0.7-1.6,2s0.6,1.9,1.6,1.9C386.4,397,387,396.3,387,395z"/>
		<path d="M389.7,391.3v-1.4h1.5v1.4H389.7z M389.7,398.1V392h1.5v6.1H389.7z"/>
		<path d="M396.4,398.1c-0.1-0.2-0.1-0.4-0.2-0.7c-0.4,0.6-1.1,0.9-2,0.9c-1.3,0-2.2-0.6-2.2-1.8c0-1,0.6-1.7,2.3-1.9l0.9-0.1
			c0.6-0.1,0.9-0.2,0.9-0.7s-0.2-0.8-1.1-0.8c-0.8,0-1.2,0.2-1.3,1h-1.5c0.1-1.3,0.8-2.1,2.7-2.1c1.8,0,2.5,0.7,2.5,1.8v3.2
			c0,0.4,0.1,0.9,0.2,1.1h-1.2V398.1z M396.2,395.7v-0.6c-0.2,0.1-0.4,0.2-0.7,0.2l-0.8,0.1c-0.8,0.1-1.1,0.4-1.1,0.9s0.3,0.8,1,0.8
			C395.4,397.2,396.2,396.7,396.2,395.7z"/>
	</g>
	<g>
		<path d="M414.4,330.8c0,2.5-1.5,4.2-4.2,4.2H407v-8.3h3.2C412.9,326.6,414.4,328.2,414.4,330.8z M410.2,333.6c1.6,0,2.6-1,2.6-2.8
			c0-1.9-0.9-2.8-2.6-2.8h-1.6v5.6H410.2z"/>
		<path d="M415.3,328.2v-1.4h1.5v1.4H415.3z M415.3,335v-6h1.5v6H415.3z"/>
		<path d="M422,328.9h1.5l-2.2,6h-1.7l-2.2-6h1.6l0.6,1.6c0.3,1,0.6,2.1,0.9,3.1c0.3-1,0.6-2.1,0.9-3.1L422,328.9z"/>
		<path d="M424.2,328.2v-1.4h1.5v1.4H424.2z M424.2,335v-6h1.5v6H424.2z"/>
		<path d="M426.4,333h1.4c0.1,0.8,0.5,1,1.3,1c0.9,0,1.2-0.3,1.2-0.7c0-0.4-0.3-0.6-1.2-0.8l-0.7-0.1c-1.3-0.2-2-0.8-2-1.8
			c0-1.1,0.9-1.8,2.5-1.8c1.9,0,2.6,0.8,2.7,2h-1.4c0-0.8-0.5-1-1.3-1c-0.7,0-1.1,0.3-1.1,0.7c0,0.4,0.4,0.6,1,0.7l0.8,0.1
			c1.5,0.3,2.1,0.8,2.1,1.8c0,1.2-1,1.9-2.7,1.9C427.5,335.1,426.5,334.5,426.4,333z"/>
		<path d="M432.7,328.2v-1.4h1.5v1.4H432.7z M432.7,335v-6h1.5v6H432.7z"/>
		<path d="M435.1,331.9c0-1.9,1.2-3.2,3.1-3.2c1.8,0,3.1,1.2,3.1,3.2s-1.2,3.2-3.1,3.2C436.3,335.1,435.1,333.9,435.1,331.9z
			 M439.7,331.9c0-1.3-0.6-1.9-1.6-1.9c-1,0-1.6,0.7-1.6,1.9s0.6,1.9,1.6,1.9C439.1,333.9,439.7,333.2,439.7,331.9z"/>
		<path d="M447.6,331v4h-1.5v-3.8c0-0.8-0.4-1.1-1.1-1.1c-0.6,0-1.3,0.4-1.3,1.5v3.4h-1.5v-6h1.4v0.9c0.4-0.6,1-1,1.9-1
			C446.7,328.8,447.6,329.5,447.6,331z"/>
	</g>
	<g>
		<path d="M385.9,351.8c0,2.5-1.5,4.2-4.2,4.2h-3.2v-8.3h3.2C384.4,347.6,385.9,349.2,385.9,351.8z M381.7,354.6
			c1.6,0,2.6-1,2.6-2.8c0-1.9-0.9-2.8-2.6-2.8h-1.6v5.6H381.7z"/>
		<path d="M386.8,349.2v-1.4h1.5v1.4H386.8z M386.8,356v-6h1.5v6H386.8z"/>
		<path d="M393.5,349.9h1.5l-2.2,6h-1.7l-2.2-6h1.6l0.6,1.6c0.3,1,0.6,2.1,0.9,3.1c0.3-1,0.6-2.1,0.9-3.1L393.5,349.9z"/>
		<path d="M395.7,349.2v-1.4h1.5v1.4H395.7z M395.7,356v-6h1.5v6H395.7z"/>
		<path d="M397.9,354h1.4c0.1,0.8,0.5,1,1.3,1c0.9,0,1.2-0.3,1.2-0.7c0-0.4-0.3-0.6-1.2-0.8l-0.7-0.1c-1.3-0.2-2-0.8-2-1.8
			c0-1.1,0.9-1.8,2.5-1.8c1.9,0,2.6,0.8,2.7,2h-1.4c0-0.8-0.5-1-1.3-1c-0.7,0-1.1,0.3-1.1,0.7c0,0.4,0.4,0.6,1,0.7l0.8,0.1
			c1.5,0.3,2.1,0.8,2.1,1.8c0,1.2-1,1.9-2.7,1.9C399,356.1,398,355.5,397.9,354z"/>
		<path d="M404.2,349.2v-1.4h1.5v1.4H404.2z M404.2,356v-6h1.5v6H404.2z"/>
		<path d="M406.6,352.9c0-1.9,1.2-3.2,3.1-3.2c1.8,0,3.1,1.2,3.1,3.2s-1.2,3.2-3.1,3.2C407.8,356.1,406.6,354.9,406.6,352.9z
			 M411.2,352.9c0-1.3-0.6-1.9-1.6-1.9c-1,0-1.6,0.7-1.6,1.9s0.6,1.9,1.6,1.9C410.6,354.9,411.2,354.2,411.2,352.9z"/>
		<path d="M419.1,352v4h-1.5v-3.8c0-0.8-0.4-1.1-1.1-1.1c-0.6,0-1.3,0.4-1.3,1.5v3.4h-1.5v-6h1.4v0.9c0.4-0.6,1-1,1.9-1
			C418.2,349.8,419.1,350.5,419.1,352z"/>
	</g>
	<g>
		<path d="M441.8,373c0,2.5-1.5,4.2-4.2,4.2h-3.2v-8.3h3.2C440.3,368.8,441.8,370.4,441.8,373z M437.6,375.8c1.6,0,2.6-1,2.6-2.8
			c0-1.9-0.9-2.8-2.6-2.8H436v5.6H437.6z"/>
		<path d="M442.7,370.4V369h1.5v1.4H442.7z M442.7,377.1v-6h1.5v6H442.7z"/>
		<path d="M449.4,371.1h1.5l-2.2,6H447l-2.2-6h1.6l0.6,1.6c0.3,1,0.6,2.1,0.9,3.1c0.3-1,0.6-2.1,0.9-3.1L449.4,371.1z"/>
		<path d="M451.5,370.4V369h1.5v1.4H451.5z M451.5,377.1v-6h1.5v6H451.5z"/>
		<path d="M453.8,375.2h1.4c0.1,0.8,0.5,1,1.3,1c0.9,0,1.2-0.3,1.2-0.7c0-0.4-0.3-0.6-1.2-0.8l-0.7-0.1c-1.3-0.2-2-0.8-2-1.8
			c0-1.1,0.9-1.8,2.5-1.8c1.9,0,2.6,0.8,2.7,2h-1.4c0-0.8-0.5-1-1.3-1c-0.7,0-1.1,0.3-1.1,0.7c0,0.4,0.4,0.6,1,0.7l0.8,0.1
			c1.5,0.3,2.1,0.8,2.1,1.8c0,1.2-1,1.9-2.7,1.9C454.9,377.3,453.9,376.7,453.8,375.2z"/>
		<path d="M460.1,370.4V369h1.5v1.4H460.1z M460.1,377.1v-6h1.5v6H460.1z"/>
		<path d="M462.5,374.1c0-1.9,1.2-3.2,3.1-3.2s3.1,1.2,3.1,3.2c0,1.9-1.2,3.2-3.1,3.2S462.5,376,462.5,374.1z M467.1,374.1
			c0-1.3-0.6-1.9-1.6-1.9c-1,0-1.6,0.7-1.6,1.9c0,1.3,0.6,1.9,1.6,1.9C466.5,376.1,467.1,375.4,467.1,374.1z"/>
		<path d="M475,373.1v4h-1.5v-3.8c0-0.8-0.4-1.1-1.1-1.1c-0.6,0-1.3,0.4-1.3,1.5v3.4h-1.5v-6h1.4v0.9c0.4-0.6,1-1,1.9-1
			C474.1,371,475,371.7,475,373.1z"/>
	</g>
	<g>
		<path d="M408.4,393.7c0,2.5-1.5,4.2-4.2,4.2h-3.2v-8.3h3.2C407,389.5,408.4,391.2,408.4,393.7z M404.2,396.5c1.6,0,2.6-1,2.6-2.8
			c0-1.9-0.9-2.8-2.6-2.8h-1.6v5.6H404.2z"/>
		<path d="M409.4,391.1v-1.4h1.5v1.4H409.4z M409.4,397.9v-6h1.5v6H409.4z"/>
		<path d="M416.1,391.8h1.5l-2.2,6h-1.7l-2.2-6h1.6l0.6,1.6c0.3,1,0.6,2.1,0.9,3.1c0.3-1,0.6-2.1,0.9-3.1L416.1,391.8z"/>
		<path d="M418.2,391.1v-1.4h1.5v1.4H418.2z M418.2,397.9v-6h1.5v6H418.2z"/>
		<path d="M420.5,396h1.4c0.1,0.8,0.5,1,1.3,1c0.9,0,1.2-0.3,1.2-0.7c0-0.4-0.3-0.6-1.2-0.8l-0.7-0.1c-1.3-0.2-2-0.8-2-1.8
			c0-1.1,0.9-1.8,2.5-1.8c1.9,0,2.6,0.8,2.7,2h-1.4c0-0.8-0.5-1-1.3-1c-0.7,0-1.1,0.3-1.1,0.7c0,0.4,0.4,0.6,1,0.7l0.8,0.1
			c1.5,0.3,2.1,0.8,2.1,1.8c0,1.2-1,1.9-2.7,1.9C421.5,398,420.6,397.4,420.5,396z"/>
		<path d="M426.7,391.1v-1.4h1.5v1.4H426.7z M426.7,397.9v-6h1.5v6H426.7z"/>
		<path d="M429.1,394.8c0-1.9,1.2-3.2,3.1-3.2s3.1,1.2,3.1,3.2c0,1.9-1.2,3.2-3.1,3.2S429.1,396.8,429.1,394.8z M433.8,394.8
			c0-1.3-0.6-1.9-1.6-1.9c-1,0-1.6,0.7-1.6,1.9s0.6,1.9,1.6,1.9C433.1,396.8,433.8,396.1,433.8,394.8z"/>
		<path d="M441.6,393.9v4h-1.5v-3.8c0-0.8-0.4-1.1-1.1-1.1c-0.6,0-1.3,0.4-1.3,1.5v3.4h-1.5v-6h1.4v0.9c0.4-0.6,1-1,1.9-1
			C440.8,391.7,441.6,392.4,441.6,393.9z"/>
	</g>
</g>
<g>
	<g>
		<path d="M82.3,162h-1.6v-5.6h-1.9v-1.1H79c1.1-0.1,1.8-0.4,2.1-1.6h1.3L82.3,162L82.3,162z"/>
		<path d="M83,164.3c0.9-1.8,1.3-3.6,1.3-5.8c0-2.3-0.4-4-1.3-5.8h1.4c1,1.6,1.5,3.5,1.5,5.8s-0.5,4.1-1.5,5.8H83z"/>
		<path d="M101,157.4h3.7v4.5h-1.2l-0.2-1.1c-0.6,0.8-1.6,1.3-2.7,1.3c-2.4,0-4-1.7-4-4.4c0-2.6,1.6-4.4,4.1-4.4
			c2.1,0,3.6,1.2,3.9,3H103c-0.2-1-1.1-1.6-2.2-1.6c-1.5,0-2.5,1.1-2.5,3c0,1.8,1,3,2.6,3c1.2,0,2.3-0.8,2.3-2H101V157.4z"/>
		<path d="M105.7,158.9c0-1.9,1.2-3.2,3-3.2c1.9,0,3,1.4,3,3.3v0.4h-4.5c0.1,1.1,0.7,1.6,1.6,1.6c0.7,0,1.2-0.3,1.4-0.9h1.4
			c-0.3,1.2-1.4,2-2.8,2C106.9,162.1,105.7,160.9,105.7,158.9z M110.2,158.4c-0.1-0.9-0.6-1.5-1.5-1.5c-0.8,0-1.4,0.5-1.5,1.5H110.2
			z"/>
		<path d="M118.1,157.9v4h-1.5v-3.8c0-0.8-0.4-1.2-1.1-1.2c-0.6,0-1.4,0.4-1.4,1.5v3.4h-1.5v-6.1h1.4v0.9c0.4-0.6,1-1,1.9-1
			C117.3,155.7,118.1,156.5,118.1,157.9z"/>
		<path d="M119.1,158.9c0-1.9,1.2-3.2,3-3.2c1.9,0,3,1.4,3,3.3v0.4h-4.5c0.1,1.1,0.7,1.6,1.6,1.6c0.7,0,1.2-0.3,1.4-0.9h1.4
			c-0.3,1.2-1.4,2-2.8,2C120.3,162.1,119.1,160.9,119.1,158.9z M123.6,158.4c-0.1-0.9-0.6-1.5-1.5-1.5c-0.8,0-1.4,0.5-1.5,1.5H123.6
			z"/>
		<path d="M129.6,155.8v1.4h-0.4c-1.1,0-1.8,0.5-1.8,1.7v3.1H126v-6.1h1.4v1.1c0.3-0.7,0.9-1.2,1.8-1.2
			C129.4,155.8,129.5,155.8,129.6,155.8z"/>
		<path d="M134.1,162c-0.1-0.2-0.1-0.4-0.2-0.7c-0.4,0.6-1.1,0.9-2,0.9c-1.3,0-2.2-0.6-2.2-1.8c0-1,0.6-1.7,2.3-1.9l0.9-0.1
			c0.6-0.1,0.9-0.2,0.9-0.7s-0.2-0.8-1.1-0.8c-0.8,0-1.2,0.2-1.3,1H130c0.1-1.3,0.8-2.1,2.7-2.1c1.8,0,2.5,0.7,2.5,1.8v3.2
			c0,0.4,0.1,0.9,0.2,1.1h-1.3V162z M133.9,159.6V159c-0.2,0.1-0.4,0.2-0.7,0.2l-0.8,0.1c-0.8,0.1-1.1,0.4-1.1,0.9s0.3,0.8,1,0.8
			C133.1,161,133.9,160.6,133.9,159.6z"/>
		<path d="M136.4,162v-8.4h1.5v8.4H136.4z"/>
		<path d="M147.7,162l-0.7-1.8h-3.7l-0.6,1.8h-1.6l3.2-8.4h1.9l3.2,8.4H147.7z M143.8,158.8h2.7l-0.3-0.9c-0.3-0.8-0.7-1.9-1-2.9
			c-0.3,1-0.7,2.1-1,2.9L143.8,158.8z"/>
		<path d="M154.2,153.6h1.5v8.4h-1.4v-0.8c-0.4,0.6-1,1-1.9,1c-1.7,0-2.7-1.2-2.7-3.2c0-1.9,1-3.2,2.7-3.2c0.8,0,1.5,0.3,1.9,0.9
			v-3.1H154.2z M154.2,158.9c0-1.3-0.6-2-1.6-2s-1.6,0.7-1.6,2s0.6,1.9,1.6,1.9C153.6,160.9,154.2,160.2,154.2,158.9z"/>
		<path d="M160.9,155.9h1.5l-2.3,6.1h-1.7l-2.2-6.1h1.6l0.6,1.6c0.3,1,0.6,2.1,1,3.1c0.3-1,0.6-2.1,1-3.1L160.9,155.9z"/>
		<path d="M162.5,158.9c0-1.9,1.2-3.2,3-3.2c1.9,0,3,1.4,3,3.3v0.4H164c0.1,1.1,0.7,1.6,1.6,1.6c0.7,0,1.2-0.3,1.4-0.9h1.4
			c-0.3,1.2-1.4,2-2.8,2C163.7,162.1,162.5,160.9,162.5,158.9z M167,158.4c-0.1-0.9-0.6-1.5-1.5-1.5c-0.8,0-1.4,0.5-1.5,1.5H167z"/>
		<path d="M173.1,155.8v1.4h-0.4c-1.1,0-1.8,0.5-1.8,1.7v3.1h-1.5v-6.1h1.4v1.1c0.3-0.7,0.9-1.2,1.8-1.2
			C172.8,155.8,172.9,155.8,173.1,155.8z"/>
		<path d="M177.1,157h-1.2v3.2c0,0.4,0.2,0.5,0.7,0.5h0.5v1.1c-0.3,0-0.5,0-0.8,0c-1.3,0-1.9-0.4-1.9-1.5V157h-0.9v-1.2h0.9V154h1.5
			v1.8h1.2V157z"/>
		<path d="M178,155.2v-1.4h1.5v1.4H178z M178,162v-6.1h1.5v6.1H178z"/>
		<path d="M180.3,160h1.4c0.1,0.8,0.5,1,1.4,1s1.2-0.3,1.2-0.7s-0.3-0.6-1.2-0.8l-0.7-0.1c-1.3-0.2-2-0.8-2-1.8
			c0-1.1,0.9-1.8,2.5-1.8c1.9,0,2.6,0.8,2.7,2.1h-1.4c0-0.8-0.5-1-1.3-1c-0.7,0-1.1,0.3-1.1,0.7s0.4,0.6,1,0.7l0.8,0.1
			c1.5,0.3,2.1,0.8,2.1,1.9c0,1.2-1,1.9-2.7,1.9C181.3,162.1,180.4,161.5,180.3,160z"/>
		<path d="M186.5,155.2v-1.4h1.5v1.4H186.5z M186.5,162v-6.1h1.5v6.1H186.5z"/>
		<path d="M194.7,157.9v4h-1.5v-3.8c0-0.8-0.4-1.2-1.1-1.2c-0.6,0-1.4,0.4-1.4,1.5v3.4h-1.5v-6.1h1.4v0.9c0.4-0.6,1-1,1.9-1
			C193.8,155.7,194.7,156.5,194.7,157.9z"/>
		<path d="M200.3,155.9h1.4v5.9c0,1.6-1,2.7-3,2.7c-1.8,0-2.7-0.9-2.8-2.1h1.5c0.1,0.6,0.5,1,1.4,1c1,0,1.5-0.5,1.5-1.5V161
			c-0.4,0.6-1,0.9-1.9,0.9c-1.6,0-2.7-1.2-2.7-3.1c0-1.9,1.1-3.1,2.7-3.1c0.9,0,1.5,0.4,1.9,1L200.3,155.9L200.3,155.9z
			 M200.2,158.8c0-1.2-0.6-1.9-1.6-1.9s-1.6,0.7-1.6,1.9s0.6,1.9,1.6,1.9C199.6,160.7,200.2,160,200.2,158.8z"/>
		<path d="M211.5,162l-0.7-1.8h-3.7l-0.6,1.8h-1.6l3.2-8.4h1.9l3.2,8.4H211.5z M207.7,158.8h2.7l-0.3-0.9c-0.3-0.8-0.7-1.9-1-2.9
			c-0.3,1-0.7,2.1-1,2.9L207.7,158.8z"/>
		<path d="M218.1,155.9h1.4v5.9c0,1.6-1,2.7-3,2.7c-1.8,0-2.7-0.9-2.8-2.1h1.5c0.1,0.6,0.5,1,1.4,1c1,0,1.5-0.5,1.5-1.5V161
			c-0.4,0.6-1,0.9-1.9,0.9c-1.6,0-2.7-1.2-2.7-3.1c0-1.9,1.1-3.1,2.7-3.1c0.9,0,1.5,0.4,1.9,1L218.1,155.9L218.1,155.9z
			 M218.1,158.8c0-1.2-0.6-1.9-1.6-1.9s-1.6,0.7-1.6,1.9s0.6,1.9,1.6,1.9S218.1,160,218.1,158.8z"/>
		<path d="M220.5,158.9c0-1.9,1.2-3.2,3-3.2c1.9,0,3,1.4,3,3.3v0.4H222c0.1,1.1,0.7,1.6,1.6,1.6c0.7,0,1.2-0.3,1.4-0.9h1.4
			c-0.3,1.2-1.4,2-2.8,2C221.7,162.1,220.5,160.9,220.5,158.9z M225,158.4c-0.1-0.9-0.6-1.5-1.5-1.5c-0.8,0-1.4,0.5-1.5,1.5H225z"/>
		<path d="M232.9,157.9v4h-1.5v-3.8c0-0.8-0.4-1.2-1.1-1.2c-0.6,0-1.4,0.4-1.4,1.5v3.4h-1.5v-6.1h1.4v0.9c0.4-0.6,1-1,1.9-1
			C232,155.7,232.9,156.5,232.9,157.9z"/>
		<path d="M233.8,158.9c0-1.9,1.2-3.2,3-3.2c1.6,0,2.6,0.9,2.8,2.3h-1.5c-0.1-0.8-0.7-1.1-1.3-1.1c-0.9,0-1.5,0.6-1.5,1.9
			c0,1.3,0.6,1.9,1.5,1.9c0.7,0,1.2-0.4,1.4-1.2h1.5c-0.2,1.5-1.3,2.4-2.8,2.4C235,162.1,233.8,160.9,233.8,158.9z"/>
		<path d="M244.3,155.9h1.6l-2.3,6.6c-0.5,1.4-1.1,1.8-2.6,1.8c-0.3,0-0.5,0-0.6,0v-1.2h0.6c0.7,0,1-0.5,1-1c0-0.4-0.1-0.8-0.3-1.2
			l-1.8-5h1.6l0.5,1.5c0.3,1.1,0.7,2.2,1,3.4c0.3-1.2,0.6-2.3,1-3.4L244.3,155.9z"/>
		<path d="M84.9,181.6v1.3h-6.1v-0.6c0-1.1,0.3-2.4,2.2-3.3l0.8-0.4c0.9-0.5,1.3-0.9,1.3-1.6c0-0.8-0.5-1.2-1.4-1.2
			s-1.4,0.5-1.4,1.5h-1.5c0-1.8,1-2.9,3-2.9c1.8,0,2.9,1,2.9,2.5c0,1.3-0.7,2.1-2.2,2.9l-0.8,0.4c-0.8,0.4-1.2,0.8-1.2,1.5
			L84.9,181.6L84.9,181.6z"/>
		<path d="M85.4,185.3c0.9-1.8,1.3-3.6,1.3-5.8c0-2.3-0.4-4-1.3-5.8h1.4c1,1.6,1.5,3.5,1.5,5.8s-0.5,4.1-1.5,5.8H85.4z"/>
		<path d="M96.7,178.8c0-2.7,1.6-4.4,4.1-4.4c1.9,0,3.4,1,3.8,3.1H103c-0.3-1.2-1.2-1.7-2.2-1.7c-1.5,0-2.4,1.1-2.4,3s0.9,3,2.4,3
			c1.1,0,2.1-0.6,2.2-1.9h1.6c-0.2,2.2-1.9,3.3-3.8,3.3C98.4,183.1,96.7,181.5,96.7,178.8z"/>
		<path d="M105.3,180.3V179h3.5v1.3H105.3z"/>
		<path d="M112.9,178h-1.2v3.2c0,0.4,0.2,0.5,0.7,0.5h0.5v1.1c-0.3,0-0.5,0-0.8,0c-1.3,0-1.9-0.4-1.9-1.5V178h-0.9v-1.2h0.9V175h1.5
			v1.8h1.2C112.9,176.8,112.9,178,112.9,178z"/>
		<path d="M113.4,179.9c0-1.9,1.2-3.2,3.1-3.2s3.1,1.2,3.1,3.2c0,1.9-1.2,3.2-3.1,3.2C114.7,183.1,113.4,181.9,113.4,179.9z
			 M118.1,179.9c0-1.3-0.6-2-1.6-2s-1.6,0.7-1.6,2s0.6,2,1.6,2S118.1,181.2,118.1,179.9z"/>
		<path d="M120.3,180.3V179h3.5v1.3H120.3z"/>
		<path d="M124.7,178.8c0-2.7,1.6-4.4,4.1-4.4c1.9,0,3.4,1,3.8,3.1H131c-0.3-1.2-1.2-1.7-2.2-1.7c-1.5,0-2.4,1.1-2.4,3s0.9,3,2.4,3
			c1.1,0,2.1-0.6,2.2-1.9h1.6c-0.2,2.2-1.9,3.3-3.8,3.3C126.3,183.1,124.7,181.5,124.7,178.8z"/>
		<path d="M85.2,201.6c0,1.5-1.2,2.6-3.1,2.6c-2.2,0-3.3-1.2-3.3-3h1.5c0,1.1,0.6,1.6,1.7,1.6c1,0,1.5-0.5,1.5-1.3
			c0-0.9-0.6-1.4-1.6-1.4h-0.6V199H82c1,0,1.5-0.4,1.5-1.2c0-0.7-0.5-1.1-1.4-1.1s-1.4,0.4-1.5,1.3H79c0-1.6,1.1-2.6,3-2.6
			c1.8,0,2.9,0.9,2.9,2.3c0,0.8-0.5,1.5-1.2,1.8C84.6,199.8,85.2,200.5,85.2,201.6z"/>
		<path d="M85.6,206.3c0.9-1.8,1.3-3.6,1.3-5.8c0-2.3-0.4-4-1.3-5.8H87c1,1.6,1.5,3.5,1.5,5.8s-0.5,4.1-1.5,5.8H85.6z"/>
		<path d="M103.7,203c0,0.4,0.1,0.7,0.3,1h-1.6c-0.2-0.2-0.2-0.6-0.2-1v-0.9c0-1.1-0.5-1.4-1.3-1.4h-2.1v3.3H97v-8.4h3.8
			c1.9,0,3,1,3,2.4c0,1-0.5,1.7-1.4,2c0.9,0.3,1.2,0.9,1.2,1.8L103.7,203z M98.6,199.4h2.1c0.9,0,1.4-0.4,1.4-1.3
			c0-0.8-0.6-1.2-1.5-1.2h-2.1L98.6,199.4L98.6,199.4z"/>
		<path d="M104.4,200.9c0-1.9,1.2-3.2,3-3.2c1.9,0,3,1.4,3,3.3v0.4h-4.5c0.1,1.1,0.7,1.6,1.6,1.6c0.7,0,1.2-0.3,1.4-0.9h1.4
			c-0.3,1.2-1.4,2-2.8,2C105.6,204.1,104.4,202.9,104.4,200.9z M108.9,200.4c-0.1-0.9-0.6-1.5-1.5-1.5c-0.8,0-1.4,0.5-1.5,1.5H108.9
			z"/>
		<path d="M115.3,204c-0.1-0.2-0.1-0.4-0.2-0.7c-0.4,0.6-1.1,0.9-2,0.9c-1.3,0-2.2-0.6-2.2-1.8c0-1,0.6-1.7,2.3-1.9l0.9-0.1
			c0.6-0.1,0.9-0.2,0.9-0.7s-0.2-0.8-1.1-0.8c-0.8,0-1.2,0.2-1.3,1h-1.5c0.1-1.3,0.8-2.1,2.7-2.1c1.8,0,2.5,0.7,2.5,1.8v3.2
			c0,0.4,0.1,0.9,0.2,1.1h-1.2V204z M115.1,201.6V201c-0.2,0.1-0.4,0.2-0.7,0.2l-0.8,0.1c-0.8,0.1-1.1,0.4-1.1,0.9s0.3,0.8,1,0.8
			C114.3,203,115.1,202.6,115.1,201.6z"/>
		<path d="M117.6,204v-8.4h1.5v8.4H117.6z"/>
		<path d="M129.1,197h-4.6v2h4.2v1.4h-4.2v2.2h4.6v1.4H123v-8.4h6.2v1.4H129.1z"/>
		<path d="M129.7,202h1.4c0.1,0.8,0.5,1,1.4,1s1.2-0.3,1.2-0.7s-0.3-0.6-1.2-0.8l-0.7-0.1c-1.3-0.2-2-0.8-2-1.8
			c0-1.1,0.9-1.8,2.5-1.8c1.9,0,2.6,0.8,2.7,2.1h-1.4c0-0.8-0.5-1-1.3-1c-0.7,0-1.1,0.3-1.1,0.7s0.4,0.6,1,0.7l0.8,0.1
			c1.5,0.3,2.1,0.8,2.1,1.9c0,1.2-1,1.9-2.7,1.9C130.7,204.1,129.7,203.5,129.7,202z"/>
		<path d="M139,199h-1.2v3.2c0,0.4,0.2,0.5,0.7,0.5h0.5v1.1c-0.3,0-0.5,0-0.8,0c-1.3,0-1.9-0.4-1.9-1.5V199h-0.9v-1.2h0.9V196h1.5
			v1.8h1.2V199z"/>
		<path d="M143.8,204c-0.1-0.2-0.1-0.4-0.2-0.7c-0.4,0.6-1.1,0.9-2,0.9c-1.3,0-2.2-0.6-2.2-1.8c0-1,0.6-1.7,2.3-1.9l0.9-0.1
			c0.6-0.1,0.9-0.2,0.9-0.7s-0.2-0.8-1.1-0.8c-0.8,0-1.2,0.2-1.3,1h-1.5c0.1-1.3,0.8-2.1,2.7-2.1c1.8,0,2.5,0.7,2.5,1.8v3.2
			c0,0.4,0.1,0.9,0.2,1.1h-1.2V204z M143.6,201.6V201c-0.2,0.1-0.4,0.2-0.7,0.2l-0.8,0.1c-0.8,0.1-1.1,0.4-1.1,0.9s0.3,0.8,1,0.8
			C142.8,203,143.6,202.6,143.6,201.6z"/>
		<path d="M149.1,199h-1.2v3.2c0,0.4,0.2,0.5,0.7,0.5h0.5v1.1c-0.3,0-0.5,0-0.8,0c-1.3,0-1.9-0.4-1.9-1.5V199h-0.9v-1.2h0.9V196h1.5
			v1.8h1.2V199z"/>
		<path d="M149.6,200.9c0-1.9,1.2-3.2,3-3.2c1.9,0,3,1.4,3,3.3v0.4h-4.5c0.1,1.1,0.7,1.6,1.6,1.6c0.7,0,1.2-0.3,1.4-0.9h1.4
			c-0.3,1.2-1.4,2-2.8,2C150.9,204.1,149.6,202.9,149.6,200.9z M154.1,200.4c-0.1-0.9-0.6-1.5-1.5-1.5c-0.8,0-1.4,0.5-1.5,1.5H154.1
			z"/>
	</g>
	<g>
		<path d="M143.4,178.8c0,2.5-1.5,4.2-4.2,4.2H136v-8.3h3.2C141.9,174.6,143.4,176.3,143.4,178.8z M139.2,181.6c1.6,0,2.6-1,2.6-2.8
			c0-1.9-0.9-2.8-2.6-2.8h-1.6v5.6H139.2z"/>
		<path d="M144.3,176.2v-1.4h1.5v1.4H144.3z M144.3,183v-6h1.5v6H144.3z"/>
		<path d="M151,176.9h1.5l-2.2,6h-1.7l-2.2-6h1.6l0.6,1.6c0.3,1,0.6,2.1,0.9,3.1c0.3-1,0.6-2.1,0.9-3.1L151,176.9z"/>
		<path d="M153.1,176.2v-1.4h1.5v1.4H153.1z M153.1,183v-6h1.5v6H153.1z"/>
		<path d="M155.4,181.1h1.4c0.1,0.8,0.5,1,1.3,1c0.9,0,1.2-0.3,1.2-0.7c0-0.4-0.3-0.6-1.2-0.8l-0.7-0.1c-1.3-0.2-2-0.8-2-1.8
			c0-1.1,0.9-1.8,2.5-1.8c1.9,0,2.6,0.8,2.7,2h-1.4c0-0.8-0.5-1-1.3-1c-0.7,0-1.1,0.3-1.1,0.7c0,0.4,0.4,0.6,1,0.7l0.8,0.1
			c1.5,0.3,2.1,0.8,2.1,1.8c0,1.2-1,1.9-2.7,1.9C156.5,183.2,155.5,182.5,155.4,181.1z"/>
		<path d="M161.7,176.2v-1.4h1.5v1.4H161.7z M161.7,183v-6h1.5v6H161.7z"/>
		<path d="M164.1,180c0-1.9,1.2-3.2,3.1-3.2c1.8,0,3.1,1.2,3.1,3.2s-1.2,3.2-3.1,3.2C165.3,183.1,164.1,181.9,164.1,180z M168.7,180
			c0-1.3-0.6-1.9-1.6-1.9c-1,0-1.6,0.7-1.6,1.9c0,1.3,0.6,1.9,1.6,1.9C168.1,181.9,168.7,181.2,168.7,180z"/>
		<path d="M176.6,179v4h-1.5v-3.8c0-0.8-0.4-1.1-1.1-1.1c-0.6,0-1.3,0.4-1.3,1.5v3.4h-1.5v-6h1.4v0.9c0.4-0.6,1-1,1.9-1
			C175.7,176.8,176.6,177.5,176.6,179z"/>
	</g>
	<g>
		<path d="M166.4,199.6c0,2.5-1.5,4.2-4.2,4.2H159v-8.3h3.2C164.9,195.4,166.4,197,166.4,199.6z M162.2,202.4c1.6,0,2.6-1,2.6-2.8
			c0-1.9-0.9-2.8-2.6-2.8h-1.6v5.6H162.2z"/>
		<path d="M167.3,197v-1.4h1.5v1.4H167.3z M167.3,203.7v-6h1.5v6H167.3z"/>
		<path d="M174,197.7h1.5l-2.2,6h-1.7l-2.2-6h1.6l0.6,1.6c0.3,1,0.6,2.1,0.9,3.1c0.3-1,0.6-2.1,0.9-3.1L174,197.7z"/>
		<path d="M176.1,197v-1.4h1.5v1.4H176.1z M176.1,203.7v-6h1.5v6H176.1z"/>
		<path d="M178.4,201.8h1.4c0.1,0.8,0.5,1,1.3,1c0.9,0,1.2-0.3,1.2-0.7c0-0.4-0.3-0.6-1.2-0.8l-0.7-0.1c-1.3-0.2-2-0.8-2-1.8
			c0-1.1,0.9-1.8,2.5-1.8c1.9,0,2.6,0.8,2.7,2h-1.4c0-0.8-0.5-1-1.3-1c-0.7,0-1.1,0.3-1.1,0.7c0,0.4,0.4,0.6,1,0.7l0.8,0.1
			c1.5,0.3,2.1,0.8,2.1,1.8c0,1.2-1,1.9-2.7,1.9C179.5,203.9,178.5,203.3,178.4,201.8z"/>
		<path d="M184.7,197v-1.4h1.5v1.4H184.7z M184.7,203.7v-6h1.5v6H184.7z"/>
		<path d="M187.1,200.7c0-1.9,1.2-3.2,3.1-3.2c1.8,0,3.1,1.2,3.1,3.2c0,1.9-1.2,3.2-3.1,3.2C188.3,203.9,187.1,202.6,187.1,200.7z
			 M191.7,200.7c0-1.3-0.6-1.9-1.6-1.9c-1,0-1.6,0.7-1.6,1.9c0,1.3,0.6,1.9,1.6,1.9C191.1,202.7,191.7,202,191.7,200.7z"/>
		<path d="M199.6,199.7v4h-1.5V200c0-0.8-0.4-1.1-1.1-1.1c-0.6,0-1.3,0.4-1.3,1.5v3.4h-1.5v-6h1.4v0.9c0.4-0.6,1-1,1.9-1
			C198.7,197.6,199.6,198.3,199.6,199.7z"/>
	</g>
</g>
<g>
	<g>
		<path d="M112.6,95.9c0-4.9,3-8,7.4-8c3.4,0,6.2,1.8,6.9,5.6H124c-0.6-2.1-2.1-3-4-3c-2.7,0-4.4,2-4.4,5.4s1.6,5.4,4.4,5.4
			c1.9,0,3.7-1.2,4.1-3.5h2.9c-0.4,4-3.5,6.1-7,6.1C115.6,103.9,112.6,100.8,112.6,95.9z"/>
		<path d="M135.8,103.5c-0.2-0.3-0.3-0.8-0.3-1.3c-0.7,1-1.9,1.6-3.5,1.6c-2.4,0-4-1.2-4-3.3c0-1.8,1.1-3.1,4.2-3.4l1.7-0.1
			c1-0.1,1.6-0.4,1.6-1.3s-0.4-1.4-2-1.4c-1.5,0-2.2,0.4-2.3,1.8h-2.7c0.1-2.3,1.5-3.8,5-3.8c3.3,0,4.6,1.3,4.6,3.3v5.9
			c0,0.8,0.1,1.7,0.4,2.1L135.8,103.5L135.8,103.5z M135.5,99.2v-1c-0.3,0.3-0.7,0.4-1.3,0.4l-1.5,0.2c-1.5,0.2-2,0.7-2,1.6
			s0.6,1.5,1.9,1.5C134,101.9,135.5,101.1,135.5,99.2z"/>
		<path d="M139.5,100h2.6c0.1,1.4,0.9,1.9,2.5,1.9s2.2-0.5,2.2-1.3s-0.5-1.2-2.2-1.5l-1.3-0.2c-2.4-0.4-3.6-1.5-3.6-3.3
			c0-2.1,1.6-3.3,4.6-3.3c3.4,0,4.8,1.5,4.9,3.7h-2.5c-0.1-1.4-0.9-1.8-2.3-1.8c-1.3,0-1.9,0.5-1.9,1.3s0.6,1.1,1.8,1.4l1.4,0.2
			c2.7,0.5,3.8,1.5,3.8,3.4c0,2.2-1.8,3.5-4.9,3.5C141.4,103.8,139.7,102.7,139.5,100z"/>
		<path d="M160.8,96.2v7.3h-2.7v-6.9c0-1.4-0.7-2.1-2.1-2.1c-1.2,0-2.5,0.8-2.5,2.8v6.2h-2.7V88.3h2.7V94c0.7-1,1.9-1.7,3.4-1.7
			C159.2,92.2,160.8,93.6,160.8,96.2z"/>
		<path d="M178.5,90.9h-7.9v3.6h7.2V97h-7.2v6.6h-2.9V88.3h10.8L178.5,90.9L178.5,90.9z"/>
		<path d="M179.7,103.5V88.3h2.7v15.2H179.7z"/>
		<path d="M184.1,98c0-3.5,2.3-5.8,5.6-5.8c3.4,0,5.6,2.3,5.6,5.8s-2.2,5.8-5.6,5.8C186.4,103.8,184.1,101.5,184.1,98z M192.6,98
			c0-2.3-1.1-3.6-2.9-3.6c-1.8,0-2.9,1.2-2.9,3.6s1.1,3.6,2.9,3.6C191.5,101.6,192.6,100.3,192.6,98z"/>
		<path d="M210.1,92.5h2.9l-3.6,11h-2.8l-1.4-4.5c-0.3-1.1-0.6-2.2-0.9-3.3c-0.3,1.1-0.6,2.2-0.9,3.3l-1.4,4.5h-2.8l-3.6-11h2.9
			l1.2,4.1c0.4,1.3,0.7,2.6,1.1,3.8c0.3-1.3,0.7-2.6,1-3.9l1.2-4.1h2.6l1.2,4.1c0.4,1.3,0.7,2.6,1,3.9c0.3-1.3,0.7-2.6,1.1-3.8
			L210.1,92.5z"/>
	</g>
	<g>
		<path d="M139.5,117c0,4.6-2.6,7.5-7.5,7.5h-5.7v-15h5.7C136.9,109.5,139.5,112.4,139.5,117z M131.9,122c2.9,0,4.6-1.7,4.6-5.1
			c0-3.3-1.7-5.1-4.6-5.1h-2.9V122H131.9z"/>
		<path d="M141.2,112.3v-2.5h2.6v2.5H141.2z M141.2,124.5v-10.9h2.7v10.9H141.2z"/>
		<path d="M153.3,113.6h2.8l-4.1,10.9h-3.1l-4-10.9h2.8l1.1,2.9c0.6,1.8,1.2,3.7,1.7,5.5c0.5-1.8,1.1-3.8,1.7-5.6L153.3,113.6z"/>
		<path d="M157.1,112.3v-2.5h2.6v2.5H157.1z M157.1,124.5v-10.9h2.7v10.9H157.1z"/>
		<path d="M161.2,121h2.6c0.1,1.4,0.8,1.9,2.4,1.9c1.5,0,2.2-0.5,2.2-1.3c0-0.8-0.5-1.2-2.1-1.4l-1.2-0.2c-2.3-0.4-3.6-1.4-3.6-3.3
			c0-2,1.6-3.3,4.5-3.3c3.4,0,4.7,1.4,4.8,3.7h-2.5c-0.1-1.4-0.9-1.8-2.3-1.8c-1.3,0-1.9,0.5-1.9,1.3c0,0.8,0.6,1.1,1.8,1.3l1.4,0.2
			c2.6,0.5,3.8,1.4,3.8,3.3c0,2.2-1.8,3.4-4.8,3.4C163.1,124.8,161.4,123.7,161.2,121z"/>
		<path d="M172.4,112.3v-2.5h2.6v2.5H172.4z M172.4,124.5v-10.9h2.7v10.9H172.4z"/>
		<path d="M176.7,119c0-3.5,2.2-5.7,5.6-5.7c3.3,0,5.5,2.2,5.5,5.7c0,3.5-2.2,5.7-5.5,5.7C179,124.7,176.7,122.5,176.7,119z
			 M185.1,119c0-2.3-1.1-3.5-2.8-3.5c-1.7,0-2.8,1.2-2.8,3.5c0,2.3,1.1,3.5,2.8,3.5C184,122.6,185.1,121.4,185.1,119z"/>
		<path d="M199.3,117.3v7.2h-2.7v-6.8c0-1.4-0.7-2.1-2.1-2.1c-1.2,0-2.4,0.8-2.4,2.7v6.1h-2.7v-10.9h2.6v1.6c0.7-1,1.9-1.8,3.4-1.8
			C197.7,113.4,199.3,114.7,199.3,117.3z"/>
	</g>
</g>
<g>
	<g>
		<path d="M326.6,266.4c0,2.9-1.9,4.9-5.4,4.9h-3.8v5.3h-2.9v-15.2h6.7C324.7,261.4,326.6,263.4,326.6,266.4z M321.1,268.8
			c1.7,0,2.6-0.9,2.6-2.5s-0.9-2.5-2.6-2.5h-3.7v5H321.1z"/>
		<path d="M327.1,271.1c0-3.5,2.2-5.8,5.5-5.8c3.4,0,5.5,2.5,5.5,6v0.6h-8.3c0.2,1.9,1.3,2.8,2.9,2.8c1.3,0,2.1-0.6,2.5-1.6h2.6
			c-0.6,2.2-2.5,3.7-5.1,3.7C329.4,276.9,327.1,274.6,327.1,271.1z M335.4,270.1c-0.2-1.6-1.2-2.6-2.8-2.6c-1.4,0-2.5,0.8-2.8,2.6
			H335.4z"/>
		<path d="M346.3,265.5v2.5h-0.7c-2,0-3.2,1-3.2,3.1v5.6h-2.7v-11h2.6v2c0.5-1.2,1.6-2.1,3.3-2.1
			C345.9,265.4,346.1,265.4,346.3,265.5z"/>
		<path d="M364.3,269.3v7.3h-2.7v-6.9c0-1.4-0.6-2.1-1.9-2.1c-1.2,0-2.3,0.8-2.3,2.9v6.1h-2.7v-6.9c0-1.4-0.6-2.1-1.9-2.1
			c-1.1,0-2.3,0.8-2.3,2.9v6.1h-2.7v-11h2.6v1.6c0.7-1.1,1.7-1.8,3.2-1.8c1.7,0,2.9,0.8,3.4,2.1c0.7-1.2,1.9-2.1,3.4-2.1
			C362.9,265.3,364.3,266.9,364.3,269.3z"/>
		<path d="M373.7,276.6c-0.2-0.3-0.3-0.8-0.3-1.3c-0.7,1-1.9,1.6-3.5,1.6c-2.4,0-4-1.2-4-3.3c0-1.8,1.1-3.1,4.2-3.4l1.7-0.2
			c1-0.1,1.6-0.4,1.6-1.3s-0.4-1.4-2-1.4c-1.5,0-2.2,0.4-2.3,1.8h-2.7c0.1-2.3,1.5-3.8,5-3.8c3.3,0,4.6,1.3,4.6,3.3v5.9
			c0,0.8,0.1,1.7,0.4,2.1L373.7,276.6L373.7,276.6z M373.3,272.3v-1c-0.3,0.3-0.7,0.4-1.3,0.4l-1.5,0.2c-1.5,0.2-2,0.7-2,1.6
			s0.6,1.5,1.9,1.5C371.9,275,373.3,274.2,373.3,272.3z"/>
		<path d="M387.9,269.3v7.3h-2.7v-6.9c0-1.4-0.7-2.1-2.1-2.1c-1.2,0-2.5,0.8-2.5,2.8v6.2H378v-11h2.6v1.6c0.7-1,1.9-1.8,3.5-1.8
			C386.3,265.3,387.9,266.7,387.9,269.3z"/>
		<path d="M389.6,271.1c0-3.5,2.2-5.8,5.5-5.8c3.4,0,5.5,2.5,5.5,6v0.6h-8.3c0.2,1.9,1.3,2.8,2.9,2.8c1.3,0,2.1-0.6,2.5-1.6h2.6
			c-0.6,2.2-2.5,3.7-5.1,3.7C391.8,276.9,389.6,274.6,389.6,271.1z M397.8,270.1c-0.2-1.6-1.2-2.6-2.8-2.6c-1.4,0-2.5,0.8-2.8,2.6
			H397.8z"/>
		<path d="M412.2,269.3v7.3h-2.7v-6.9c0-1.4-0.7-2.1-2.1-2.1c-1.2,0-2.5,0.8-2.5,2.8v6.2h-2.7v-11h2.6v1.6c0.7-1,1.9-1.8,3.5-1.8
			C410.6,265.3,412.2,266.7,412.2,269.3z"/>
		<path d="M419.7,267.7h-2.2v5.9c0,0.7,0.4,1,1.3,1h0.9v2.1c-0.5,0-1,0.1-1.4,0.1c-2.3,0-3.4-0.8-3.4-2.8v-6.2h-1.7v-2.1h1.7v-3.2
			h2.7v3.2h2.2v2H419.7z"/>
		<path d="M436.4,261.4h3l-5.5,15.2h-3.4l-5.6-15.2h3.1l2.8,7.9c0.5,1.5,1,3.1,1.5,4.8c0.4-1.6,0.9-3.3,1.4-4.8L436.4,261.4z"/>
		<path d="M446.1,276.6c-0.2-0.3-0.3-0.8-0.3-1.3c-0.7,1-1.9,1.6-3.5,1.6c-2.4,0-4-1.2-4-3.3c0-1.8,1.1-3.1,4.2-3.4l1.7-0.2
			c1-0.1,1.6-0.4,1.6-1.3s-0.4-1.4-2-1.4c-1.5,0-2.2,0.4-2.3,1.8h-2.7c0.2-2.3,1.5-3.8,5-3.8c3.3,0,4.6,1.3,4.6,3.3v5.9
			c0,0.8,0.2,1.7,0.5,2.1L446.1,276.6L446.1,276.6z M445.8,272.3v-1c-0.3,0.3-0.7,0.4-1.3,0.4l-1.5,0.2c-1.5,0.2-2,0.7-2,1.6
			s0.6,1.5,1.9,1.5C444.4,275,445.8,274.2,445.8,272.3z"/>
		<path d="M450.4,276.6v-15.2h2.7v15.2H450.4z"/>
		<path d="M462.5,265.6h2.7v11h-2.6V275c-0.7,1.1-1.9,1.9-3.5,1.9c-2.3,0-3.9-1.3-3.9-4v-7.3h2.7v6.9c0,1.4,0.7,2.1,2.1,2.1
			c1.2,0,2.5-0.8,2.5-2.8L462.5,265.6L462.5,265.6z"/>
		<path d="M466.9,271.1c0-3.5,2.2-5.8,5.5-5.8c3.4,0,5.5,2.5,5.5,6v0.6h-8.3c0.2,1.9,1.3,2.8,2.9,2.8c1.3,0,2.1-0.6,2.5-1.6h2.6
			c-0.6,2.2-2.5,3.7-5.1,3.7C469.1,276.9,466.9,274.6,466.9,271.1z M475.1,270.1c-0.2-1.6-1.2-2.6-2.8-2.6c-1.4,0-2.5,0.8-2.8,2.6
			H475.1z"/>
	</g>
	<g>
		<path d="M373.8,291.8c0,4.6-2.6,7.5-7.5,7.5h-5.7v-15h5.7C371.2,284.3,373.8,287.2,373.8,291.8z M366.3,296.9
			c2.9,0,4.6-1.7,4.6-5.1c0-3.3-1.7-5.1-4.6-5.1h-2.9v10.1H366.3z"/>
		<path d="M375.5,287.2v-2.5h2.6v2.5H375.5z M375.5,299.3v-10.9h2.7v10.9H375.5z"/>
		<path d="M387.6,288.4h2.8l-4.1,10.9h-3.1l-4-10.9h2.8l1.1,2.9c0.6,1.8,1.2,3.7,1.7,5.5c0.5-1.8,1.1-3.8,1.7-5.6L387.6,288.4z"/>
		<path d="M391.4,287.2v-2.5h2.6v2.5H391.4z M391.4,299.3v-10.9h2.7v10.9H391.4z"/>
		<path d="M395.5,295.8h2.6c0.1,1.4,0.8,1.9,2.4,1.9c1.5,0,2.2-0.5,2.2-1.3c0-0.8-0.5-1.2-2.1-1.4l-1.2-0.2
			c-2.3-0.4-3.6-1.4-3.6-3.3c0-2,1.6-3.3,4.5-3.3c3.4,0,4.7,1.4,4.8,3.7h-2.5c-0.1-1.4-0.9-1.8-2.3-1.8c-1.3,0-1.9,0.5-1.9,1.3
			c0,0.8,0.6,1.1,1.8,1.3l1.4,0.2c2.6,0.5,3.8,1.4,3.8,3.3c0,2.2-1.8,3.4-4.8,3.4C397.4,299.6,395.7,298.5,395.5,295.8z"/>
		<path d="M406.7,287.2v-2.5h2.6v2.5H406.7z M406.7,299.3v-10.9h2.7v10.9H406.7z"/>
		<path d="M411.1,293.9c0-3.5,2.2-5.7,5.6-5.7c3.3,0,5.5,2.2,5.5,5.7s-2.2,5.7-5.5,5.7C413.3,299.6,411.1,297.3,411.1,293.9z
			 M419.5,293.9c0-2.3-1.1-3.5-2.8-3.5c-1.7,0-2.8,1.2-2.8,3.5s1.1,3.5,2.8,3.5C418.3,297.4,419.5,296.2,419.5,293.9z"/>
		<path d="M433.6,292.1v7.2H431v-6.8c0-1.4-0.7-2.1-2.1-2.1c-1.2,0-2.4,0.8-2.4,2.7v6.1h-2.7v-10.9h2.6v1.6c0.7-1,1.9-1.8,3.4-1.8
			C432.1,288.2,433.6,289.5,433.6,292.1z"/>
	</g>
</g>
</svg>
