<?xml version="1.0" encoding="utf-8"?>
<!-- Generator: Adobe Illustrator 27.1.1, SVG Export Plug-In . SVG Version: 6.00 Build 0)  -->
<svg version="1.1" id="レイヤー_1" xmlns="http://www.w3.org/2000/svg" xmlns:xlink="http://www.w3.org/1999/xlink" x="0px"
	 y="0px" viewBox="0 0 335 433.7" style="enable-background:new 0 0 335 433.7;" xml:space="preserve">
<style type="text/css">
	.st0{fill:url(#楕円形_11432_00000111171922591121999660000007391678842843268229_);}
	.st1{fill:url(#楕円形_11433_-_アウトライン_00000109008672693575709670000002654572076097225395_);}
</style>
<g id="グループ_13756" transform="translate(-20 -761.965)">
	
		<linearGradient id="楕円形_11432_00000048497089701656423450000017359701156428293028_" gradientUnits="userSpaceOnUse" x1="-1597.955" y1="-503.3155" x2="-1597.327" y2="-502.5655" gradientTransform="matrix(240 0 0 239.292 383575 121232.6484)">
		<stop  offset="0" style="stop-color:#FBCA1B"/>
		<stop  offset="1" style="stop-color:#D53E55"/>
	</linearGradient>
	<path id="楕円形_11432" style="fill:url(#楕円形_11432_00000048497089701656423450000017359701156428293028_);" d="
		M140,764.1c-8,0-15.9,0.8-23.8,2.4c-63.6,13-104.6,75.1-91.6,138.6c9.4,46.1,45.5,82.2,91.6,91.6c15.7,3.2,31.8,3.2,47.5,0
		c63.6-13,104.6-75.1,91.6-138.6c-9.4-46.1-45.5-82.2-91.6-91.6C155.9,764.9,148,764.1,140,764.1 M140,762
		c66.3,0,120,53.6,120,119.6s-53.7,119.6-120,119.6S20,947.7,20,881.6S73.7,762,140,762z"/>
	
		<linearGradient id="楕円形_11433_-_アウトライン_00000079448610529443679310000010174069958454770839_" gradientUnits="userSpaceOnUse" x1="-1597.2968" y1="-503.2975" x2="-1597.9948" y2="-502.6324" gradientTransform="matrix(240 0 0 240 383670 121787.1641)">
		<stop  offset="0" style="stop-color:#2D3287"/>
		<stop  offset="1" style="stop-color:#9D448E"/>
	</linearGradient>
	
		<path id="楕円形_11433_-_アウトライン" style="fill:url(#楕円形_11433_-_アウトライン_00000079448610529443679310000010174069958454770839_);" d="
		M235,957.8c-8,0-15.9,0.8-23.8,2.4c-15.1,3.1-29.4,9.1-42.1,17.7c-19,12.8-33.8,30.8-42.7,51.9c-3,7.1-5.3,14.5-6.9,22.1
		c-3.2,15.7-3.2,31.8,0,47.5c3.1,15.1,9.1,29.4,17.7,42.1c12.8,19,30.8,33.8,51.9,42.7c7.1,3,14.5,5.3,22.1,6.9
		c15.7,3.2,31.8,3.2,47.5,0c15.1-3.1,29.4-9.1,42.1-17.7c19-12.8,33.8-30.8,42.7-51.9c3-7.1,5.3-14.5,6.9-22.1
		c3.2-15.7,3.2-31.8,0-47.5c-3.1-15.1-9.1-29.4-17.7-42.1c-12.8-19-30.8-33.8-51.9-42.7c-7.1-3-14.5-5.3-22.1-6.9
		C250.9,958.6,243,957.8,235,957.8 M235,955.6c66.3,0,120,53.7,120,120c0,66.3-53.7,120-120,120s-120-53.7-120-120
		S168.7,955.6,235,955.6z"/>
</g>
<g>
	<g>
		<path d="M141.7,320h-1.6v-5.7h-1.9v-1.1h0.2c1.1-0.1,1.8-0.4,2.1-1.6h1.3v8.4H141.7z"/>
		<path d="M142.5,322.3c0.9-1.8,1.3-3.6,1.3-5.8c0-2.3-0.4-4-1.3-5.8h1.4c1,1.6,1.5,3.5,1.5,5.8s-0.5,4.1-1.5,5.8H142.5z"/>
		<path d="M156.1,315.8c0-2.7,1.6-4.4,4.1-4.4c1.9,0,3.4,1,3.8,3.1h-1.6c-0.3-1.2-1.2-1.7-2.2-1.7c-1.5,0-2.4,1.1-2.4,3s0.9,3,2.4,3
			c1.1,0,2.1-0.6,2.2-1.9h1.6c-0.2,2.2-1.9,3.3-3.8,3.3C157.8,320.2,156.1,318.5,156.1,315.8z"/>
		<path d="M164.6,316.9c0-1.9,1.2-3.2,3.1-3.2s3.1,1.2,3.1,3.2c0,1.9-1.2,3.2-3.1,3.2S164.6,318.9,164.6,316.9z M169.3,316.9
			c0-1.3-0.6-2-1.6-2s-1.6,0.7-1.6,2s0.6,2,1.6,2S169.3,318.2,169.3,316.9z"/>
		<path d="M177.2,315.9v4h-1.5v-3.8c0-0.8-0.4-1.2-1.1-1.2c-0.6,0-1.4,0.4-1.4,1.5v3.4h-1.5v-5.9h1.4v0.9c0.4-0.6,1-1,1.9-1
			C176.3,313.8,177.2,314.5,177.2,315.9z"/>
		<path d="M180.2,313.5v0.4h1.2v1.2h-1.2v4.9h-1.5v-4.9h-0.9v-1.2h0.9v-0.5c0-1.1,0.5-1.9,2-1.9c0.2,0,0.6,0,0.8,0v1.1H181
			C180.4,312.7,180.2,313,180.2,313.5z"/>
		<path d="M181.7,316.9c0-1.9,1.2-3.2,3-3.2c1.9,0,3,1.4,3,3.3v0.4h-4.5c0.1,1.1,0.7,1.6,1.6,1.6c0.7,0,1.2-0.3,1.4-0.9h1.4
			c-0.3,1.2-1.4,2-2.8,2C183,320.1,181.7,318.9,181.7,316.9z M186.2,316.4c-0.1-0.9-0.6-1.5-1.5-1.5c-0.8,0-1.4,0.5-1.5,1.5H186.2z"
			/>
		<path d="M188.4,316.9c0-1.9,1.2-3.2,3-3.2c1.6,0,2.6,0.9,2.8,2.3h-1.5c-0.1-0.8-0.7-1.1-1.3-1.1c-0.9,0-1.5,0.6-1.5,1.9
			s0.6,1.9,1.5,1.9c0.7,0,1.2-0.4,1.4-1.2h1.5c-0.2,1.5-1.3,2.4-2.8,2.4C189.6,320.1,188.4,318.9,188.4,316.9z"/>
		<path d="M198.1,315h-1.2v3.2c0,0.4,0.2,0.5,0.7,0.5h0.5v1.1c-0.3,0-0.5,0-0.8,0c-1.3,0-1.9-0.4-1.9-1.5v-3.4h-0.9v-1h0.9v-1.8h1.5
			v1.8h1.2L198.1,315L198.1,315z"/>
		<path d="M198.9,313.2v-1.4h1.5v1.4H198.9z M198.9,320v-6.1h1.5v6.1H198.9z"/>
		<path d="M201.4,316.9c0-1.9,1.2-3.2,3.1-3.2s3.1,1.2,3.1,3.2c0,1.9-1.2,3.2-3.1,3.2C202.6,320.1,201.4,318.9,201.4,316.9z
			 M206,316.9c0-1.3-0.6-2-1.6-2s-1.6,0.7-1.6,2s0.6,2,1.6,2C205.4,318.9,206,318.2,206,316.9z"/>
		<path d="M213.9,315.9v4h-1.5v-3.8c0-0.8-0.4-1.2-1.1-1.2c-0.6,0-1.4,0.4-1.4,1.5v3.4h-1.5v-5.9h1.4v0.9c0.4-0.6,1-1,1.9-1
			C213.1,313.8,213.9,314.5,213.9,315.9z"/>
		<path d="M214.9,316.9c0-1.9,1.2-3.2,3-3.2c1.9,0,3,1.4,3,3.3v0.4h-4.5c0.1,1.1,0.7,1.6,1.6,1.6c0.7,0,1.2-0.3,1.4-0.9h1.4
			c-0.3,1.2-1.4,2-2.8,2C216.1,320.1,214.9,318.9,214.9,316.9z M219.4,316.4c-0.1-0.9-0.6-1.5-1.5-1.5c-0.8,0-1.4,0.5-1.5,1.5H219.4
			z"/>
		<path d="M225.4,313.8v1.4H225c-1.1,0-1.8,0.5-1.8,1.7v3.1h-1.5v-6.1h1.4v1.1c0.3-0.7,0.9-1.2,1.8-1.2
			C225.2,313.8,225.3,313.8,225.4,313.8z"/>
		<path d="M230.3,313.9h1.6l-2.3,6.6c-0.5,1.4-1.1,1.8-2.6,1.8c-0.3,0-0.5,0-0.6,0v-1.2h0.6c0.7,0,1-0.5,1-1c0-0.4-0.1-0.8-0.3-1.2
			l-1.8-5h1.6l0.5,1.5c0.3,1.1,0.7,2.2,1,3.4c0.3-1.2,0.6-2.3,1-3.4L230.3,313.9z"/>
		<path d="M144.3,339.6v1.3h-6.1v-0.6c0-1.1,0.3-2.4,2.2-3.3l0.8-0.4c0.9-0.5,1.3-0.9,1.3-1.6c0-0.8-0.5-1.2-1.4-1.2
			s-1.4,0.5-1.4,1.5h-1.5c0-1.8,1-2.9,3-2.9c1.8,0,2.9,1,2.9,2.5c0,1.3-0.7,2.1-2.2,2.9l-0.8,0.4c-0.8,0.4-1.2,0.8-1.2,1.5
			L144.3,339.6L144.3,339.6z"/>
		<path d="M144.8,343.3c0.9-1.8,1.3-3.6,1.3-5.8c0-2.3-0.4-4-1.3-5.8h1.4c1,1.6,1.5,3.5,1.5,5.8s-0.5,4.1-1.5,5.8H144.8z"/>
		<path d="M158,339.5h4v1.4h-5.6v-8.4h1.6V339.5z"/>
		<path d="M162.3,337.9c0-1.9,1.2-3.2,3.1-3.2s3.1,1.2,3.1,3.2c0,1.9-1.2,3.2-3.1,3.2S162.3,339.9,162.3,337.9z M167,337.9
			c0-1.3-0.6-2-1.6-2s-1.6,0.7-1.6,2s0.6,2,1.6,2C166.4,339.9,167,339.2,167,337.9z"/>
		<path d="M173.8,334.9h1.4v5.9c0,1.6-1,2.7-3,2.7c-1.8,0-2.7-0.9-2.8-2.1h1.5c0.1,0.6,0.5,1,1.4,1c1,0,1.5-0.5,1.5-1.5v-0.8
			c-0.4,0.6-1,0.9-1.9,0.9c-1.6,0-2.7-1.2-2.7-3.1s1.1-3.1,2.7-3.1c0.9,0,1.5,0.4,1.9,1V334.9z M173.8,337.8c0-1.2-0.6-1.9-1.6-1.9
			s-1.6,0.7-1.6,1.9c0,1.2,0.6,1.9,1.6,1.9S173.8,339.1,173.8,337.8z"/>
		<path d="M176.5,334.2v-1.4h1.5v1.4H176.5z M176.5,341v-6.1h1.5v6.1H176.5z"/>
		<path d="M178.8,339h1.4c0.1,0.8,0.5,1,1.4,1s1.2-0.3,1.2-0.7c0-0.4-0.3-0.6-1.2-0.8l-0.7-0.1c-1.3-0.2-2-0.8-2-1.8
			c0-1.1,0.9-1.8,2.5-1.8c1.9,0,2.6,0.8,2.7,2.1h-1.4c0-0.8-0.5-1-1.3-1c-0.7,0-1.1,0.3-1.1,0.7c0,0.4,0.4,0.6,1,0.7l0.8,0.1
			c1.5,0.3,2.1,0.8,2.1,1.9c0,1.2-1,1.9-2.7,1.9C179.8,341.1,178.9,340.5,178.8,339z"/>
		<path d="M188.1,336h-1.2v3.2c0,0.4,0.2,0.5,0.7,0.5h0.5v1.1c-0.3,0-0.5,0-0.8,0c-1.3,0-1.9-0.4-1.9-1.5v-3.4h-0.9v-1h0.9v-1.8h1.5
			v1.8h1.2L188.1,336L188.1,336z"/>
		<path d="M189,334.2v-1.4h1.5v1.4H189z M189,341v-6.1h1.5v6.1H189z"/>
		<path d="M191.4,337.9c0-1.9,1.2-3.2,3-3.2c1.6,0,2.6,0.9,2.8,2.3h-1.5c-0.1-0.8-0.7-1.1-1.3-1.1c-0.9,0-1.5,0.6-1.5,1.9
			s0.6,1.9,1.5,1.9c0.7,0,1.2-0.4,1.4-1.2h1.5c-0.2,1.5-1.3,2.4-2.8,2.4C192.6,341.1,191.4,339.9,191.4,337.9z"/>
		<path d="M197.6,339h1.4c0.1,0.8,0.5,1,1.4,1s1.2-0.3,1.2-0.7c0-0.4-0.3-0.6-1.2-0.8l-0.7-0.1c-1.3-0.2-2-0.8-2-1.8
			c0-1.1,0.9-1.8,2.5-1.8c1.9,0,2.6,0.8,2.7,2.1h-1.4c0-0.8-0.5-1-1.3-1c-0.7,0-1.1,0.3-1.1,0.7c0,0.4,0.4,0.6,1,0.7l0.8,0.1
			c1.5,0.3,2.1,0.8,2.1,1.9c0,1.2-1,1.9-2.7,1.9C198.7,341.1,197.7,340.5,197.6,339z"/>
		<path d="M144.6,359.6c0,1.5-1.2,2.6-3.1,2.6c-2.2,0-3.3-1.2-3.3-3h1.5c0,1.1,0.6,1.6,1.7,1.6c1,0,1.5-0.5,1.5-1.3
			c0-0.9-0.6-1.4-1.6-1.4h-0.6v-1.2h0.6c1,0,1.5-0.4,1.5-1.2c0-0.7-0.5-1.1-1.4-1.1s-1.4,0.4-1.5,1.3h-1.5c0-1.6,1.1-2.6,3-2.6
			c1.8,0,2.9,0.9,2.9,2.3c0,0.8-0.5,1.5-1.2,1.8C144,357.8,144.6,358.5,144.6,359.6z"/>
		<path d="M145.1,364.3c0.9-1.8,1.3-3.6,1.3-5.8c0-2.3-0.4-4-1.3-5.8h1.4c1,1.6,1.5,3.5,1.5,5.8s-0.5,4.1-1.5,5.8H145.1z"/>
		<path d="M162,353.6h1.5v8.4h-1.8l-2.3-3.7c-0.5-0.8-1.1-1.7-1.5-2.5c0,1.5,0,2.8,0,4.1v2.2h-1.5v-8.4h1.8l2.3,3.7
			c0.5,0.8,1.1,1.7,1.5,2.5c0-1.5,0-2.8,0-4.1V353.6z"/>
		<path d="M164.5,358.9c0-1.9,1.2-3.2,3-3.2c1.9,0,3,1.4,3,3.3v0.4H166c0.1,1.1,0.7,1.6,1.6,1.6c0.7,0,1.2-0.3,1.4-0.9h1.4
			c-0.3,1.2-1.4,2-2.8,2C165.8,362.1,164.5,360.9,164.5,358.9z M169,358.4c-0.1-0.9-0.6-1.5-1.5-1.5c-0.8,0-1.4,0.5-1.5,1.5H169z"/>
		<path d="M178.7,355.9h1.6l-2,6.1h-1.6l-0.8-2.5c-0.2-0.6-0.4-1.2-0.5-1.8c-0.2,0.6-0.3,1.2-0.5,1.8l-0.8,2.5h-1.6l-2-6.1h1.6
			l0.7,2.3c0.2,0.7,0.4,1.4,0.6,2.1c0.2-0.7,0.4-1.4,0.6-2.1l0.7-2.3h1.4l0.7,2.3c0.2,0.7,0.4,1.4,0.6,2.1c0.2-0.7,0.4-1.4,0.6-2.1
			L178.7,355.9z"/>
		<path d="M189.7,355h-4.6v2h4.2v1.4h-4.2v2.2h4.6v1.4h-6.1v-8.4h6.2v1.4H189.7z"/>
		<path d="M196.1,357.9v4h-1.5v-3.8c0-0.8-0.4-1.2-1.1-1.2c-0.6,0-1.4,0.4-1.4,1.5v3.4h-1.5v-5.9h1.4v0.9c0.4-0.6,1-1,1.9-1
			C195.2,355.8,196.1,356.5,196.1,357.9z"/>
		<path d="M200.2,357H199v3.2c0,0.4,0.2,0.5,0.7,0.5h0.5v1.1c-0.3,0-0.5,0-0.8,0c-1.3,0-1.9-0.4-1.9-1.5v-3.4h-0.9v-1h0.9v-1.8h1.5
			v1.8h1.2L200.2,357L200.2,357z"/>
		<path d="M200.7,358.9c0-1.9,1.2-3.2,3-3.2c1.9,0,3,1.4,3,3.3v0.4h-4.5c0.1,1.1,0.7,1.6,1.6,1.6c0.7,0,1.2-0.3,1.4-0.9h1.4
			c-0.3,1.2-1.4,2-2.8,2C201.9,362.1,200.7,360.9,200.7,358.9z M205.2,358.4c-0.1-0.9-0.6-1.5-1.5-1.5c-0.8,0-1.4,0.5-1.5,1.5H205.2
			z"/>
		<path d="M211.3,355.8v1.4h-0.4c-1.1,0-1.8,0.5-1.8,1.7v3.1h-1.5v-6.1h1.4v1.1c0.3-0.7,0.9-1.2,1.8-1.2
			C211,355.8,211.1,355.8,211.3,355.8z"/>
		<path d="M215.3,357h-1.2v3.2c0,0.4,0.2,0.5,0.7,0.5h0.5v1.1c-0.3,0-0.5,0-0.8,0c-1.3,0-1.9-0.4-1.9-1.5v-3.4h-0.9v-1h0.9v-1.8h1.5
			v1.8h1.2V357z"/>
		<path d="M220.1,362c-0.1-0.2-0.1-0.4-0.2-0.7c-0.4,0.6-1.1,0.9-2,0.9c-1.3,0-2.2-0.6-2.2-1.8c0-1,0.6-1.7,2.3-1.9l0.9-0.1
			c0.6-0.1,0.9-0.2,0.9-0.7s-0.2-0.8-1.1-0.8c-0.8,0-1.2,0.2-1.3,1h-1.5c0.1-1.3,0.8-2.1,2.7-2.1c1.8,0,2.5,0.7,2.5,1.8v3.2
			c0,0.4,0.1,0.9,0.2,1.1h-1.2V362z M219.9,359.6V359c-0.2,0.1-0.4,0.2-0.7,0.2l-0.8,0.1c-0.8,0.1-1.1,0.4-1.1,0.9s0.3,0.8,1,0.8
			C219.1,361.1,219.9,360.6,219.9,359.6z"/>
		<path d="M222.4,355.2v-1.4h1.5v1.4H222.4z M222.4,362v-6.1h1.5v6.1H222.4z"/>
		<path d="M230.6,357.9v4h-1.5v-3.8c0-0.8-0.4-1.2-1.1-1.2c-0.6,0-1.4,0.4-1.4,1.5v3.4h-1.5v-5.9h1.4v0.9c0.4-0.6,1-1,1.9-1
			C229.7,355.8,230.6,356.5,230.6,357.9z"/>
		<path d="M240.8,358v4h-1.5v-3.8c0-0.8-0.3-1.2-1-1.2c-0.6,0-1.3,0.4-1.3,1.6v3.3h-1.5v-3.8c0-0.8-0.4-1.2-1.1-1.2
			c-0.6,0-1.2,0.4-1.2,1.6v3.3h-1.5v-5.9h1.4v0.9c0.4-0.6,0.9-1,1.7-1c0.9,0,1.6,0.4,1.9,1.1c0.4-0.6,1-1.1,1.9-1.1
			C240.1,355.8,240.8,356.6,240.8,358z"/>
		<path d="M241.8,358.9c0-1.9,1.2-3.2,3-3.2c1.9,0,3,1.4,3,3.3v0.4h-4.5c0.1,1.1,0.7,1.6,1.6,1.6c0.7,0,1.2-0.3,1.4-0.9h1.4
			c-0.3,1.2-1.4,2-2.8,2C243,362.1,241.8,360.9,241.8,358.9z M246.3,358.4c-0.1-0.9-0.6-1.5-1.5-1.5c-0.8,0-1.4,0.5-1.5,1.5H246.3z"
			/>
		<path d="M254.2,357.9v4h-1.5v-3.8c0-0.8-0.4-1.2-1.1-1.2c-0.6,0-1.4,0.4-1.4,1.5v3.4h-1.5v-5.9h1.4v0.9c0.4-0.6,1-1,1.9-1
			C253.3,355.8,254.2,356.5,254.2,357.9z"/>
		<path d="M258.3,357h-1.2v3.2c0,0.4,0.2,0.5,0.7,0.5h0.5v1.1c-0.3,0-0.5,0-0.8,0c-1.3,0-1.9-0.4-1.9-1.5v-3.4h-0.9v-1h0.9v-1.8h1.5
			v1.8h1.2V357z"/>
		<path d="M144.9,379.7v1.3h-1.1v1.9h-1.6V381h-4.1v-1.5l3.9-5h1.7v5.1h1.2V379.7z M142.2,376.3l-2.7,3.4h2.7V376.3z"/>
		<path d="M145.2,385.3c0.9-1.8,1.3-3.6,1.3-5.8c0-2.3-0.4-4-1.3-5.8h1.4c1,1.6,1.5,3.5,1.5,5.8s-0.5,4.1-1.5,5.8H145.2z"/>
		<path d="M160.5,378.4h3.7v4.5H163l-0.2-1.1c-0.6,0.8-1.6,1.3-2.7,1.3c-2.4,0-4-1.7-4-4.4c0-2.6,1.6-4.4,4.1-4.4
			c2.1,0,3.6,1.2,3.9,3h-1.6c-0.2-1-1.1-1.6-2.2-1.6c-1.5,0-2.5,1.1-2.5,3c0,1.8,1,3,2.6,3c1.2,0,2.3-0.8,2.3-2h-2.2L160.5,378.4
			L160.5,378.4z"/>
		<path d="M165.4,383v-8.4h1.5v8.4H165.4z"/>
		<path d="M167.8,379.9c0-1.9,1.2-3.2,3.1-3.2s3.1,1.2,3.1,3.2c0,1.9-1.2,3.2-3.1,3.2S167.8,381.9,167.8,379.9z M172.5,379.9
			c0-1.3-0.6-2-1.6-2s-1.6,0.7-1.6,2s0.6,2,1.6,2C171.9,381.9,172.5,381.2,172.5,379.9z"/>
		<path d="M181,379.9c0,1.9-1,3.2-2.7,3.2c-0.9,0-1.5-0.4-1.9-1v0.9H175v-8.4h1.5v3.1c0.4-0.6,1-0.9,1.9-0.9
			C180,376.8,181,378,181,379.9z M179.5,379.9c0-1.3-0.6-1.9-1.6-1.9s-1.6,0.7-1.6,2s0.6,2,1.6,2
			C178.9,381.9,179.5,381.2,179.5,379.9z"/>
		<path d="M185.8,383c-0.1-0.2-0.1-0.4-0.2-0.7c-0.4,0.6-1.1,0.9-2,0.9c-1.3,0-2.2-0.6-2.2-1.8c0-1,0.6-1.7,2.3-1.9l0.9-0.1
			c0.6-0.1,0.9-0.2,0.9-0.7s-0.2-0.8-1.1-0.8c-0.8,0-1.2,0.2-1.3,1h-1.5c0.1-1.3,0.8-2.1,2.7-2.1c1.8,0,2.5,0.7,2.5,1.8v3.2
			c0,0.4,0.1,0.9,0.2,1.1h-1.2V383z M185.6,380.6V380c-0.2,0.1-0.4,0.2-0.7,0.2l-0.8,0.1c-0.8,0.1-1.1,0.4-1.1,0.9s0.3,0.8,1,0.8
			C184.9,382.1,185.6,381.6,185.6,380.6z"/>
		<path d="M188.2,383v-8.4h1.5v8.4H188.2z"/>
		<path d="M200.1,374.6h2.3v8.4h-1.5v-2.6c0-1.3,0-2.6,0-4.2c-0.2,0.6-0.4,1.2-0.6,1.9l-1.7,4.8h-1.3l-1.7-4.8
			c-0.2-0.7-0.4-1.3-0.6-1.9c0,1.5,0,2.9,0,4.1v2.6h-1.5v-8.4h2.3l1.4,4.1c0.2,0.8,0.5,1.6,0.7,2.3c0.2-0.7,0.5-1.6,0.7-2.4
			L200.1,374.6z"/>
		<path d="M203.4,379.9c0-1.9,1.2-3.2,3-3.2c1.9,0,3,1.4,3,3.3v0.4h-4.5c0.1,1.1,0.7,1.6,1.6,1.6c0.7,0,1.2-0.3,1.4-0.9h1.4
			c-0.3,1.2-1.4,2-2.8,2C204.6,383.1,203.4,381.9,203.4,379.9z M207.9,379.4c-0.1-0.9-0.6-1.5-1.5-1.5c-0.8,0-1.4,0.5-1.5,1.5H207.9
			z"/>
		<path d="M214.7,374.6h1.5v8.4h-1.5v-0.8c-0.4,0.6-1,1-1.9,1c-1.7,0-2.7-1.2-2.7-3.2c0-1.9,1-3.2,2.7-3.2c0.8,0,1.5,0.3,1.9,0.9
			V374.6z M214.7,379.9c0-1.3-0.6-2-1.6-2s-1.6,0.7-1.6,2s0.6,1.9,1.6,1.9C214.1,381.9,214.7,381.2,214.7,379.9z"/>
		<path d="M217.4,376.2v-1.4h1.5v1.4H217.4z M217.4,383v-6.1h1.5v6.1H217.4z"/>
		<path d="M224.1,383c-0.1-0.2-0.1-0.4-0.2-0.7c-0.4,0.6-1.1,0.9-2,0.9c-1.3,0-2.2-0.6-2.2-1.8c0-1,0.6-1.7,2.3-1.9l0.9-0.1
			c0.6-0.1,0.9-0.2,0.9-0.7s-0.2-0.8-1.1-0.8c-0.8,0-1.2,0.2-1.3,1h-1.5c0.1-1.3,0.8-2.1,2.7-2.1c1.8,0,2.5,0.7,2.5,1.8v3.2
			c0,0.4,0.1,0.9,0.2,1.1h-1.2V383z M223.9,380.6V380c-0.2,0.1-0.4,0.2-0.7,0.2l-0.8,0.1c-0.8,0.1-1.1,0.4-1.1,0.9s0.3,0.8,1,0.8
			C223.1,382.1,223.9,381.6,223.9,380.6z"/>
	</g>
	<g>
		<path d="M242.1,315.7c0,2.5-1.5,4.2-4.2,4.2h-3.2v-8.3h3.2C240.6,311.5,242.1,313.1,242.1,315.7z M237.9,318.5
			c1.6,0,2.6-1,2.6-2.8c0-1.9-0.9-2.8-2.6-2.8h-1.6v5.6H237.9z"/>
		<path d="M243,313.1v-1.4h1.5v1.4H243z M243,319.9v-6h1.5v6H243z"/>
		<path d="M249.7,313.8h1.5l-2.2,6h-1.7l-2.2-6h1.6l0.6,1.6c0.3,1,0.6,2.1,0.9,3.1c0.3-1,0.6-2.1,0.9-3.1L249.7,313.8z"/>
		<path d="M251.9,313.1v-1.4h1.5v1.4H251.9z M251.9,319.9v-6h1.5v6H251.9z"/>
		<path d="M254.1,317.9h1.4c0.1,0.8,0.5,1,1.3,1c0.9,0,1.2-0.3,1.2-0.7c0-0.4-0.3-0.6-1.2-0.8l-0.7-0.1c-1.3-0.2-2-0.8-2-1.8
			c0-1.1,0.9-1.8,2.5-1.8c1.9,0,2.6,0.8,2.7,2h-1.4c0-0.8-0.5-1-1.3-1c-0.7,0-1.1,0.3-1.1,0.7c0,0.4,0.4,0.6,1,0.7l0.8,0.1
			c1.5,0.3,2.1,0.8,2.1,1.8c0,1.2-1,1.9-2.7,1.9C255.2,320,254.2,319.4,254.1,317.9z"/>
		<path d="M260.4,313.1v-1.4h1.5v1.4H260.4z M260.4,319.9v-6h1.5v6H260.4z"/>
		<path d="M262.8,316.8c0-1.9,1.2-3.2,3.1-3.2s3.1,1.2,3.1,3.2s-1.2,3.2-3.1,3.2S262.8,318.8,262.8,316.8z M267.4,316.8
			c0-1.3-0.6-1.9-1.6-1.9c-1,0-1.6,0.7-1.6,1.9s0.6,1.9,1.6,1.9C266.8,318.8,267.4,318.1,267.4,316.8z"/>
		<path d="M275.3,315.9v4h-1.5v-3.8c0-0.8-0.4-1.1-1.1-1.1c-0.6,0-1.3,0.4-1.3,1.5v3.4h-1.5v-6h1.4v0.9c0.4-0.6,1-1,1.9-1
			C274.4,313.7,275.3,314.4,275.3,315.9z"/>
	</g>
	<g>
		<path d="M213.6,336.7c0,2.5-1.5,4.2-4.2,4.2h-3.2v-8.3h3.2C212.1,332.5,213.6,334.1,213.6,336.7z M209.4,339.5
			c1.6,0,2.6-1,2.6-2.8c0-1.9-0.9-2.8-2.6-2.8h-1.6v5.6H209.4z"/>
		<path d="M214.5,334.1v-1.4h1.5v1.4H214.5z M214.5,340.9v-6h1.5v6H214.5z"/>
		<path d="M221.2,334.8h1.5l-2.2,6h-1.7l-2.2-6h1.6l0.6,1.6c0.3,1,0.6,2.1,0.9,3.1c0.3-1,0.6-2.1,0.9-3.1L221.2,334.8z"/>
		<path d="M223.4,334.1v-1.4h1.5v1.4H223.4z M223.4,340.9v-6h1.5v6H223.4z"/>
		<path d="M225.6,338.9h1.4c0.1,0.8,0.5,1,1.3,1c0.9,0,1.2-0.3,1.2-0.7c0-0.4-0.3-0.6-1.2-0.8l-0.7-0.1c-1.3-0.2-2-0.8-2-1.8
			c0-1.1,0.9-1.8,2.5-1.8c1.9,0,2.6,0.8,2.7,2h-1.4c0-0.8-0.5-1-1.3-1c-0.7,0-1.1,0.3-1.1,0.7c0,0.4,0.4,0.6,1,0.7l0.8,0.1
			c1.5,0.3,2.1,0.8,2.1,1.8c0,1.2-1,1.9-2.7,1.9C226.7,341,225.7,340.4,225.6,338.9z"/>
		<path d="M231.9,334.1v-1.4h1.5v1.4H231.9z M231.9,340.9v-6h1.5v6H231.9z"/>
		<path d="M234.3,337.8c0-1.9,1.2-3.2,3.1-3.2c1.8,0,3.1,1.2,3.1,3.2s-1.2,3.2-3.1,3.2C235.5,341,234.3,339.8,234.3,337.8z
			 M238.9,337.8c0-1.3-0.6-1.9-1.6-1.9c-1,0-1.6,0.7-1.6,1.9s0.6,1.9,1.6,1.9C238.3,339.8,238.9,339.1,238.9,337.8z"/>
		<path d="M246.8,336.9v4h-1.5v-3.8c0-0.8-0.4-1.1-1.1-1.1c-0.6,0-1.3,0.4-1.3,1.5v3.4h-1.5v-6h1.4v0.9c0.4-0.6,1-1,1.9-1
			C245.9,334.7,246.8,335.4,246.8,336.9z"/>
	</g>
	<g>
		<path d="M269.5,357.9c0,2.5-1.5,4.2-4.2,4.2h-3.2v-8.3h3.2C268,353.7,269.5,355.3,269.5,357.9z M265.3,360.7c1.6,0,2.6-1,2.6-2.8
			c0-1.9-0.9-2.8-2.6-2.8h-1.6v5.6H265.3z"/>
		<path d="M270.4,355.3v-1.4h1.5v1.4H270.4z M270.4,362v-6h1.5v6H270.4z"/>
		<path d="M277.1,356h1.5l-2.2,6h-1.7l-2.2-6h1.6l0.6,1.6c0.3,1,0.6,2.1,0.9,3.1c0.3-1,0.6-2.1,0.9-3.1L277.1,356z"/>
		<path d="M279.2,355.3v-1.4h1.5v1.4H279.2z M279.2,362v-6h1.5v6H279.2z"/>
		<path d="M281.5,360.1h1.4c0.1,0.8,0.5,1,1.3,1c0.9,0,1.2-0.3,1.2-0.7c0-0.4-0.3-0.6-1.2-0.8l-0.7-0.1c-1.3-0.2-2-0.8-2-1.8
			c0-1.1,0.9-1.8,2.5-1.8c1.9,0,2.6,0.8,2.7,2h-1.4c0-0.8-0.5-1-1.3-1c-0.7,0-1.1,0.3-1.1,0.7c0,0.4,0.4,0.6,1,0.7l0.8,0.1
			c1.5,0.3,2.1,0.8,2.1,1.8c0,1.2-1,1.9-2.7,1.9C282.6,362.2,281.6,361.6,281.5,360.1z"/>
		<path d="M287.8,355.3v-1.4h1.5v1.4H287.8z M287.8,362v-6h1.5v6H287.8z"/>
		<path d="M290.2,359c0-1.9,1.2-3.2,3.1-3.2c1.8,0,3.1,1.2,3.1,3.2c0,1.9-1.2,3.2-3.1,3.2C291.4,362.2,290.2,360.9,290.2,359z
			 M294.8,359c0-1.3-0.6-1.9-1.6-1.9c-1,0-1.6,0.7-1.6,1.9c0,1.3,0.6,1.9,1.6,1.9C294.2,361,294.8,360.3,294.8,359z"/>
		<path d="M302.7,358v4h-1.5v-3.8c0-0.8-0.4-1.1-1.1-1.1c-0.6,0-1.3,0.4-1.3,1.5v3.4h-1.5v-6h1.4v0.9c0.4-0.6,1-1,1.9-1
			C301.8,355.9,302.7,356.6,302.7,358z"/>
	</g>
	<g>
		<path d="M236.1,378.6c0,2.5-1.5,4.2-4.2,4.2h-3.2v-8.3h3.2C234.7,374.4,236.1,376.1,236.1,378.6z M231.9,381.4
			c1.6,0,2.6-1,2.6-2.8c0-1.9-0.9-2.8-2.6-2.8h-1.6v5.6H231.9z"/>
		<path d="M237.1,376v-1.4h1.5v1.4H237.1z M237.1,382.8v-6h1.5v6H237.1z"/>
		<path d="M243.8,376.7h1.5l-2.2,6h-1.7l-2.2-6h1.6l0.6,1.6c0.3,1,0.6,2.1,0.9,3.1c0.3-1,0.6-2.1,0.9-3.1L243.8,376.7z"/>
		<path d="M245.9,376v-1.4h1.5v1.4H245.9z M245.9,382.8v-6h1.5v6H245.9z"/>
		<path d="M248.2,380.9h1.4c0.1,0.8,0.5,1,1.3,1c0.9,0,1.2-0.3,1.2-0.7c0-0.4-0.3-0.6-1.2-0.8l-0.7-0.1c-1.3-0.2-2-0.8-2-1.8
			c0-1.1,0.9-1.8,2.5-1.8c1.9,0,2.6,0.8,2.7,2h-1.4c0-0.8-0.5-1-1.3-1c-0.7,0-1.1,0.3-1.1,0.7c0,0.4,0.4,0.6,1,0.7l0.8,0.1
			c1.5,0.3,2.1,0.8,2.1,1.8c0,1.2-1,1.9-2.7,1.9C249.2,382.9,248.3,382.3,248.2,380.9z"/>
		<path d="M254.4,376v-1.4h1.5v1.4H254.4z M254.4,382.8v-6h1.5v6H254.4z"/>
		<path d="M256.8,379.7c0-1.9,1.2-3.2,3.1-3.2c1.8,0,3.1,1.2,3.1,3.2c0,1.9-1.2,3.2-3.1,3.2C258.1,382.9,256.8,381.7,256.8,379.7z
			 M261.5,379.7c0-1.3-0.6-1.9-1.6-1.9c-1,0-1.6,0.7-1.6,1.9s0.6,1.9,1.6,1.9C260.8,381.7,261.5,381,261.5,379.7z"/>
		<path d="M269.3,378.8v4h-1.5V379c0-0.8-0.4-1.1-1.1-1.1c-0.6,0-1.3,0.4-1.3,1.5v3.4h-1.5v-6h1.4v0.9c0.4-0.6,1-1,1.9-1
			C268.5,376.6,269.3,377.3,269.3,378.8z"/>
	</g>
</g>
<g>
	<g>
		<path d="M41.8,122.5h-1.6v-5.6h-1.9v-1.1h0.2c1.1-0.1,1.8-0.4,2.1-1.6h1.3L41.8,122.5L41.8,122.5z"/>
		<path d="M42.5,124.8c0.9-1.8,1.3-3.6,1.3-5.8c0-2.3-0.4-4-1.3-5.8h1.4c1,1.6,1.5,3.5,1.5,5.8s-0.5,4.1-1.5,5.8H42.5z"/>
		<path d="M60.5,117.9h3.7v4.5H63l-0.2-1.1c-0.6,0.8-1.6,1.3-2.7,1.3c-2.4,0-4-1.7-4-4.4c0-2.6,1.6-4.4,4.1-4.4c2.1,0,3.6,1.2,3.9,3
			h-1.6c-0.2-1-1.1-1.6-2.2-1.6c-1.5,0-2.5,1.1-2.5,3c0,1.8,1,3,2.6,3c1.2,0,2.3-0.8,2.3-2h-2.2V117.9z"/>
		<path d="M65.2,119.4c0-1.9,1.2-3.2,3-3.2c1.9,0,3,1.4,3,3.3v0.4h-4.5c0.1,1.1,0.7,1.6,1.6,1.6c0.7,0,1.2-0.3,1.4-0.9h1.4
			c-0.3,1.2-1.4,2-2.8,2C66.4,122.6,65.2,121.4,65.2,119.4z M69.7,118.9c-0.1-0.9-0.6-1.5-1.5-1.5c-0.8,0-1.4,0.5-1.5,1.5H69.7z"/>
		<path d="M77.6,118.4v4h-1.5v-3.8c0-0.8-0.4-1.2-1.1-1.2c-0.6,0-1.4,0.4-1.4,1.5v3.4h-1.5v-6.1h1.4v0.9c0.4-0.6,1-1,1.9-1
			C76.8,116.2,77.6,117,77.6,118.4z"/>
		<path d="M78.6,119.4c0-1.9,1.2-3.2,3-3.2c1.9,0,3,1.4,3,3.3v0.4h-4.5c0.1,1.1,0.7,1.6,1.6,1.6c0.7,0,1.2-0.3,1.4-0.9h1.4
			c-0.3,1.2-1.4,2-2.8,2C79.8,122.6,78.6,121.4,78.6,119.4z M83.1,118.9c-0.1-0.9-0.6-1.5-1.5-1.5c-0.8,0-1.4,0.5-1.5,1.5H83.1z"/>
		<path d="M89.1,116.3v1.4h-0.4c-1.1,0-1.8,0.5-1.8,1.7v3.1h-1.4v-6.1h1.4v1.1c0.3-0.7,0.9-1.2,1.8-1.2
			C88.9,116.3,89,116.3,89.1,116.3z"/>
		<path d="M93.6,122.5c-0.1-0.2-0.1-0.4-0.2-0.7c-0.4,0.6-1.1,0.9-2,0.9c-1.3,0-2.2-0.6-2.2-1.8c0-1,0.6-1.7,2.3-1.9l0.9-0.1
			c0.6-0.1,0.9-0.2,0.9-0.7s-0.2-0.8-1.1-0.8c-0.8,0-1.2,0.2-1.3,1h-1.4c0.1-1.3,0.8-2.1,2.7-2.1c1.8,0,2.5,0.7,2.5,1.8v3.2
			c0,0.4,0.1,0.9,0.2,1.1h-1.3V122.5z M93.4,120.1v-0.6c-0.2,0.1-0.4,0.2-0.7,0.2l-0.8,0.1c-0.8,0.1-1.1,0.4-1.1,0.9s0.3,0.8,1,0.8
			C92.6,121.5,93.4,121.1,93.4,120.1z"/>
		<path d="M95.9,122.5v-8.4h1.5v8.4H95.9z"/>
		<path d="M107.2,122.5l-0.7-1.8h-3.7l-0.6,1.8h-1.6l3.2-8.4h1.9l3.2,8.4H107.2z M103.3,119.3h2.7l-0.3-0.9c-0.3-0.8-0.7-1.9-1-2.9
			c-0.3,1-0.7,2.1-1,2.9L103.3,119.3z"/>
		<path d="M113.7,114.1h1.5v8.4h-1.4v-0.8c-0.4,0.6-1,1-1.9,1c-1.7,0-2.7-1.2-2.7-3.2c0-1.9,1-3.2,2.7-3.2c0.8,0,1.5,0.3,1.9,0.9
			v-3.1H113.7z M113.7,119.4c0-1.3-0.6-2-1.6-2s-1.6,0.7-1.6,2s0.6,1.9,1.6,1.9C113.1,121.4,113.7,120.7,113.7,119.4z"/>
		<path d="M120.4,116.4h1.5l-2.3,6.1h-1.7l-2.2-6.1h1.6l0.6,1.6c0.3,1,0.6,2.1,1,3.1c0.3-1,0.6-2.1,1-3.1L120.4,116.4z"/>
		<path d="M122,119.4c0-1.9,1.2-3.2,3-3.2c1.9,0,3,1.4,3,3.3v0.4h-4.5c0.1,1.1,0.7,1.6,1.6,1.6c0.7,0,1.2-0.3,1.4-0.9h1.4
			c-0.3,1.2-1.4,2-2.8,2C123.2,122.6,122,121.4,122,119.4z M126.5,118.9c-0.1-0.9-0.6-1.5-1.5-1.5c-0.8,0-1.4,0.5-1.5,1.5H126.5z"/>
		<path d="M132.6,116.3v1.4h-0.4c-1.1,0-1.8,0.5-1.8,1.7v3.1h-1.5v-6.1h1.4v1.1c0.3-0.7,0.9-1.2,1.8-1.2
			C132.3,116.3,132.4,116.3,132.6,116.3z"/>
		<path d="M136.6,117.5h-1.2v3.2c0,0.4,0.2,0.5,0.7,0.5h0.5v1.1c-0.3,0-0.5,0-0.8,0c-1.3,0-1.9-0.4-1.9-1.5v-3.3H133v-1.2h0.9v-1.8
			h1.5v1.8h1.2V117.5z"/>
		<path d="M137.5,115.7v-1.4h1.5v1.4H137.5z M137.5,122.5v-6.1h1.5v6.1H137.5z"/>
		<path d="M139.8,120.5h1.4c0.1,0.8,0.5,1,1.4,1s1.2-0.3,1.2-0.7s-0.3-0.6-1.2-0.8l-0.7-0.1c-1.3-0.2-2-0.8-2-1.8
			c0-1.1,0.9-1.8,2.5-1.8c1.9,0,2.6,0.8,2.7,2.1h-1.4c0-0.8-0.5-1-1.3-1c-0.7,0-1.1,0.3-1.1,0.7s0.4,0.6,1,0.7l0.8,0.1
			c1.5,0.3,2.1,0.8,2.1,1.9c0,1.2-1,1.9-2.7,1.9C140.8,122.6,139.9,122,139.8,120.5z"/>
		<path d="M146,115.7v-1.4h1.5v1.4H146z M146,122.5v-6.1h1.5v6.1H146z"/>
		<path d="M154.2,118.4v4h-1.5v-3.8c0-0.8-0.4-1.2-1.1-1.2c-0.6,0-1.4,0.4-1.4,1.5v3.4h-1.5v-6.1h1.4v0.9c0.4-0.6,1-1,1.9-1
			C153.3,116.2,154.2,117,154.2,118.4z"/>
		<path d="M159.8,116.4h1.4v5.9c0,1.6-1,2.7-3,2.7c-1.8,0-2.7-0.9-2.8-2.1h1.5c0.1,0.6,0.5,1,1.4,1c1,0,1.5-0.5,1.5-1.5v-0.9
			c-0.4,0.6-1,0.9-1.9,0.9c-1.6,0-2.7-1.2-2.7-3.1c0-1.9,1.1-3.1,2.7-3.1c0.9,0,1.5,0.4,1.9,1V116.4L159.8,116.4z M159.7,119.3
			c0-1.2-0.6-1.9-1.6-1.9s-1.6,0.7-1.6,1.9s0.6,1.9,1.6,1.9C159.1,121.2,159.7,120.5,159.7,119.3z"/>
		<path d="M171,122.5l-0.7-1.8h-3.7l-0.6,1.8h-1.6l3.2-8.4h1.9l3.2,8.4H171z M167.2,119.3h2.7l-0.3-0.9c-0.3-0.8-0.7-1.9-1-2.9
			c-0.3,1-0.7,2.1-1,2.9L167.2,119.3z"/>
		<path d="M177.6,116.4h1.4v5.9c0,1.6-1,2.7-3,2.7c-1.8,0-2.7-0.9-2.8-2.1h1.5c0.1,0.6,0.5,1,1.4,1c1,0,1.5-0.5,1.5-1.5v-0.9
			c-0.4,0.6-1,0.9-1.9,0.9c-1.6,0-2.7-1.2-2.7-3.1c0-1.9,1.1-3.1,2.7-3.1c0.9,0,1.5,0.4,1.9,1L177.6,116.4L177.6,116.4z
			 M177.6,119.3c0-1.2-0.6-1.9-1.6-1.9s-1.6,0.7-1.6,1.9s0.6,1.9,1.6,1.9S177.6,120.5,177.6,119.3z"/>
		<path d="M180,119.4c0-1.9,1.2-3.2,3-3.2c1.9,0,3,1.4,3,3.3v0.4h-4.5c0.1,1.1,0.7,1.6,1.6,1.6c0.7,0,1.2-0.3,1.4-0.9h1.4
			c-0.3,1.2-1.4,2-2.8,2C181.2,122.6,180,121.4,180,119.4z M184.5,118.9c-0.1-0.9-0.6-1.5-1.5-1.5c-0.8,0-1.4,0.5-1.5,1.5H184.5z"/>
		<path d="M192.4,118.4v4h-1.5v-3.8c0-0.8-0.4-1.2-1.1-1.2c-0.6,0-1.4,0.4-1.4,1.5v3.4h-1.5v-6.1h1.4v0.9c0.4-0.6,1-1,1.9-1
			C191.5,116.2,192.4,117,192.4,118.4z"/>
		<path d="M193.3,119.4c0-1.9,1.2-3.2,3-3.2c1.6,0,2.6,0.9,2.8,2.3h-1.5c-0.1-0.8-0.7-1.1-1.3-1.1c-0.9,0-1.5,0.6-1.5,1.9
			c0,1.3,0.6,1.9,1.5,1.9c0.7,0,1.2-0.4,1.4-1.2h1.5c-0.2,1.5-1.3,2.4-2.8,2.4C194.5,122.6,193.3,121.4,193.3,119.4z"/>
		<path d="M203.8,116.4h1.6l-2.3,6.6c-0.5,1.4-1.1,1.8-2.6,1.8c-0.3,0-0.5,0-0.6,0v-1.2h0.6c0.7,0,1-0.5,1-1c0-0.4-0.1-0.8-0.3-1.2
			l-1.8-5h1.6l0.5,1.5c0.3,1.1,0.7,2.2,1,3.4c0.3-1.2,0.6-2.3,1-3.4L203.8,116.4z"/>
		<path d="M44.4,142.1v1.3h-6.1v-0.6c0-1.1,0.3-2.4,2.2-3.3l0.8-0.4c0.9-0.5,1.3-0.9,1.3-1.6c0-0.8-0.5-1.2-1.4-1.2
			s-1.4,0.5-1.4,1.5h-1.5c0-1.8,1-2.9,3-2.9c1.8,0,2.9,1,2.9,2.5c0,1.3-0.7,2.1-2.2,2.9l-0.8,0.4c-0.8,0.4-1.2,0.8-1.2,1.5
			L44.4,142.1L44.4,142.1z"/>
		<path d="M44.9,145.8c0.9-1.8,1.3-3.6,1.3-5.8c0-2.3-0.4-4-1.3-5.8h1.4c1,1.6,1.5,3.5,1.5,5.8s-0.5,4.1-1.5,5.8H44.9z"/>
		<path d="M56.2,139.3c0-2.7,1.6-4.4,4.1-4.4c1.9,0,3.4,1,3.8,3.1h-1.6c-0.3-1.2-1.2-1.7-2.2-1.7c-1.5,0-2.4,1.1-2.4,3s0.9,3,2.4,3
			c1.1,0,2.1-0.6,2.2-1.9h1.6c-0.2,2.2-1.9,3.3-3.8,3.3C57.9,143.6,56.2,142,56.2,139.3z"/>
		<path d="M64.8,140.8v-1.3h3.5v1.3H64.8z"/>
		<path d="M72.4,138.5h-1.2v3.2c0,0.4,0.2,0.5,0.7,0.5h0.5v1.1c-0.3,0-0.5,0-0.8,0c-1.3,0-1.9-0.4-1.9-1.5v-3.3h-0.9v-1.2h0.9v-1.8
			h1.5v1.8h1.2C72.4,137.3,72.4,138.5,72.4,138.5z"/>
		<path d="M72.9,140.4c0-1.9,1.2-3.2,3.1-3.2s3.1,1.2,3.1,3.2c0,1.9-1.2,3.2-3.1,3.2C74.2,143.6,72.9,142.4,72.9,140.4z M77.6,140.4
			c0-1.3-0.6-2-1.6-2s-1.6,0.7-1.6,2s0.6,2,1.6,2S77.6,141.7,77.6,140.4z"/>
		<path d="M79.8,140.8v-1.3h3.5v1.3H79.8z"/>
		<path d="M84.2,139.3c0-2.7,1.6-4.4,4.1-4.4c1.9,0,3.4,1,3.8,3.1h-1.6c-0.3-1.2-1.2-1.7-2.2-1.7c-1.5,0-2.4,1.1-2.4,3s0.9,3,2.4,3
			c1.1,0,2.1-0.6,2.2-1.9h1.6c-0.2,2.2-1.9,3.3-3.8,3.3C85.8,143.6,84.2,142,84.2,139.3z"/>
		<path d="M44.7,162.1c0,1.5-1.2,2.6-3.1,2.6c-2.2,0-3.3-1.2-3.3-3h1.5c0,1.1,0.6,1.6,1.7,1.6c1,0,1.5-0.5,1.5-1.3
			c0-0.9-0.6-1.4-1.6-1.4h-0.6v-1.1h0.7c1,0,1.5-0.4,1.5-1.2c0-0.7-0.5-1.1-1.4-1.1s-1.4,0.4-1.5,1.3h-1.6c0-1.6,1.1-2.6,3-2.6
			c1.8,0,2.9,0.9,2.9,2.3c0,0.8-0.5,1.5-1.2,1.8C44.1,160.3,44.7,161,44.7,162.1z"/>
		<path d="M45.1,166.8c0.9-1.8,1.3-3.6,1.3-5.8c0-2.3-0.4-4-1.3-5.8h1.4c1,1.6,1.5,3.5,1.5,5.8s-0.5,4.1-1.5,5.8H45.1z"/>
		<path d="M63.2,163.5c0,0.4,0.1,0.7,0.3,1h-1.6c-0.2-0.2-0.2-0.6-0.2-1v-0.9c0-1.1-0.5-1.4-1.3-1.4h-2.1v3.3h-1.8v-8.4h3.8
			c1.9,0,3,1,3,2.4c0,1-0.5,1.7-1.4,2c0.9,0.3,1.2,0.9,1.2,1.8L63.2,163.5z M58.1,159.9h2.1c0.9,0,1.4-0.4,1.4-1.3
			c0-0.8-0.6-1.2-1.5-1.2H58L58.1,159.9L58.1,159.9z"/>
		<path d="M63.9,161.4c0-1.9,1.2-3.2,3-3.2c1.9,0,3,1.4,3,3.3v0.4h-4.5c0.1,1.1,0.7,1.6,1.6,1.6c0.7,0,1.2-0.3,1.4-0.9h1.4
			c-0.3,1.2-1.4,2-2.8,2C65.1,164.6,63.9,163.4,63.9,161.4z M68.4,160.9c-0.1-0.9-0.6-1.5-1.5-1.5c-0.8,0-1.4,0.5-1.5,1.5H68.4z"/>
		<path d="M74.8,164.5c-0.1-0.2-0.1-0.4-0.2-0.7c-0.4,0.6-1.1,0.9-2,0.9c-1.3,0-2.2-0.6-2.2-1.8c0-1,0.6-1.7,2.3-1.9l0.9-0.1
			c0.6-0.1,0.9-0.2,0.9-0.7s-0.2-0.8-1.1-0.8c-0.8,0-1.2,0.2-1.3,1h-1.5c0.1-1.3,0.8-2.1,2.7-2.1c1.8,0,2.5,0.7,2.5,1.8v3.2
			c0,0.4,0.1,0.9,0.2,1.1h-1.2V164.5z M74.6,162.1v-0.6c-0.2,0.1-0.4,0.2-0.7,0.2l-0.8,0.1c-0.8,0.1-1.1,0.4-1.1,0.9s0.3,0.8,1,0.8
			C73.8,163.5,74.6,163.1,74.6,162.1z"/>
		<path d="M77.1,164.5v-8.4h1.5v8.4H77.1z"/>
		<path d="M88.6,157.5H84v2h4.2v1.4H84v2.2h4.6v1.4h-6.1v-8.4h6.2v1.4H88.6z"/>
		<path d="M89.2,162.5h1.4c0.1,0.8,0.5,1,1.4,1s1.2-0.3,1.2-0.7s-0.3-0.6-1.2-0.8l-0.7-0.1c-1.3-0.2-2-0.8-2-1.8
			c0-1.1,0.9-1.8,2.5-1.8c1.9,0,2.6,0.8,2.7,2.1h-1.4c0-0.8-0.5-1-1.3-1c-0.7,0-1.1,0.3-1.1,0.7s0.4,0.6,1,0.7l0.8,0.1
			c1.5,0.3,2.1,0.8,2.1,1.9c0,1.2-1,1.9-2.7,1.9C90.2,164.6,89.2,164,89.2,162.5z"/>
		<path d="M98.5,159.5h-1.2v3.2c0,0.4,0.2,0.5,0.7,0.5h0.5v1.1c-0.3,0-0.5,0-0.8,0c-1.3,0-1.9-0.4-1.9-1.5v-3.3h-0.9v-1.2h0.9v-1.8
			h1.5v1.8h1.2V159.5z"/>
		<path d="M103.3,164.5c-0.1-0.2-0.1-0.4-0.2-0.7c-0.4,0.6-1.1,0.9-2,0.9c-1.3,0-2.2-0.6-2.2-1.8c0-1,0.6-1.7,2.3-1.9l0.9-0.1
			c0.6-0.1,0.9-0.2,0.9-0.7s-0.2-0.8-1.1-0.8c-0.8,0-1.2,0.2-1.3,1h-1.5c0.1-1.3,0.8-2.1,2.7-2.1c1.8,0,2.5,0.7,2.5,1.8v3.2
			c0,0.4,0.1,0.9,0.2,1.1h-1.2V164.5z M103.1,162.1v-0.6c-0.2,0.1-0.4,0.2-0.7,0.2l-0.8,0.1c-0.8,0.1-1.1,0.4-1.1,0.9s0.3,0.8,1,0.8
			C102.3,163.5,103.1,163.1,103.1,162.1z"/>
		<path d="M108.6,159.5h-1.2v3.2c0,0.4,0.2,0.5,0.7,0.5h0.5v1.1c-0.3,0-0.5,0-0.8,0c-1.3,0-1.9-0.4-1.9-1.5v-3.3H105v-1.2h0.9v-1.8
			h1.5v1.8h1.2V159.5z"/>
		<path d="M109.1,161.4c0-1.9,1.2-3.2,3-3.2c1.9,0,3,1.4,3,3.3v0.4h-4.5c0.1,1.1,0.7,1.6,1.6,1.6c0.7,0,1.2-0.3,1.4-0.9h1.4
			c-0.3,1.2-1.4,2-2.8,2C110.4,164.6,109.1,163.4,109.1,161.4z M113.6,160.9c-0.1-0.9-0.6-1.5-1.5-1.5c-0.8,0-1.4,0.5-1.5,1.5H113.6
			z"/>
	</g>
	<g>
		<path d="M102.9,139.3c0,2.5-1.5,4.2-4.2,4.2h-3.2v-8.3h3.2C101.4,135.1,102.9,136.8,102.9,139.3z M98.7,142.1c1.6,0,2.6-1,2.6-2.8
			c0-1.9-0.9-2.8-2.6-2.8h-1.6v5.6H98.7z"/>
		<path d="M103.8,136.7v-1.4h1.5v1.4H103.8z M103.8,143.5v-6h1.5v6H103.8z"/>
		<path d="M110.5,137.4h1.5l-2.2,6h-1.7l-2.2-6h1.6l0.6,1.6c0.3,1,0.6,2.1,0.9,3.1c0.3-1,0.6-2.1,0.9-3.1L110.5,137.4z"/>
		<path d="M112.6,136.7v-1.4h1.5v1.4H112.6z M112.6,143.5v-6h1.5v6H112.6z"/>
		<path d="M114.9,141.6h1.4c0.1,0.8,0.5,1,1.3,1c0.9,0,1.2-0.3,1.2-0.7c0-0.4-0.3-0.6-1.2-0.8L117,141c-1.3-0.2-2-0.8-2-1.8
			c0-1.1,0.9-1.8,2.5-1.8c1.9,0,2.6,0.8,2.7,2h-1.4c0-0.8-0.5-1-1.3-1c-0.7,0-1.1,0.3-1.1,0.7c0,0.4,0.4,0.6,1,0.7l0.8,0.1
			c1.5,0.3,2.1,0.8,2.1,1.8c0,1.2-1,1.9-2.7,1.9C116,143.7,115,143,114.9,141.6z"/>
		<path d="M121.2,136.7v-1.4h1.5v1.4H121.2z M121.2,143.5v-6h1.5v6H121.2z"/>
		<path d="M123.6,140.5c0-1.9,1.2-3.2,3.1-3.2c1.8,0,3.1,1.2,3.1,3.2s-1.2,3.2-3.1,3.2C124.8,143.6,123.6,142.4,123.6,140.5z
			 M128.2,140.5c0-1.3-0.6-1.9-1.6-1.9c-1,0-1.6,0.7-1.6,1.9c0,1.3,0.6,1.9,1.6,1.9C127.6,142.4,128.2,141.7,128.2,140.5z"/>
		<path d="M136.1,139.5v4h-1.5v-3.8c0-0.8-0.4-1.1-1.1-1.1c-0.6,0-1.3,0.4-1.3,1.5v3.4h-1.5v-6h1.4v0.9c0.4-0.6,1-1,1.9-1
			C135.2,137.3,136.1,138,136.1,139.5z"/>
	</g>
	<g>
		<path d="M125.9,160.1c0,2.5-1.5,4.2-4.2,4.2h-3.2v-8.3h3.2C124.4,155.9,125.9,157.5,125.9,160.1z M121.7,162.9
			c1.6,0,2.6-1,2.6-2.8c0-1.9-0.9-2.8-2.6-2.8h-1.6v5.6H121.7z"/>
		<path d="M126.8,157.5v-1.4h1.5v1.4H126.8z M126.8,164.2v-6h1.5v6H126.8z"/>
		<path d="M133.5,158.2h1.5l-2.2,6h-1.7l-2.2-6h1.6l0.6,1.6c0.3,1,0.6,2.1,0.9,3.1c0.3-1,0.6-2.1,0.9-3.1L133.5,158.2z"/>
		<path d="M135.6,157.5v-1.4h1.5v1.4H135.6z M135.6,164.2v-6h1.5v6H135.6z"/>
		<path d="M137.9,162.3h1.4c0.1,0.8,0.5,1,1.3,1c0.9,0,1.2-0.3,1.2-0.7c0-0.4-0.3-0.6-1.2-0.8l-0.7-0.1c-1.3-0.2-2-0.8-2-1.8
			c0-1.1,0.9-1.8,2.5-1.8c1.9,0,2.6,0.8,2.7,2h-1.4c0-0.8-0.5-1-1.3-1c-0.7,0-1.1,0.3-1.1,0.7c0,0.4,0.4,0.6,1,0.7l0.8,0.1
			c1.5,0.3,2.1,0.8,2.1,1.8c0,1.2-1,1.9-2.7,1.9C139,164.4,138,163.8,137.9,162.3z"/>
		<path d="M144.2,157.5v-1.4h1.5v1.4H144.2z M144.2,164.2v-6h1.5v6H144.2z"/>
		<path d="M146.6,161.2c0-1.9,1.2-3.2,3.1-3.2c1.8,0,3.1,1.2,3.1,3.2c0,1.9-1.2,3.2-3.1,3.2C147.8,164.4,146.6,163.1,146.6,161.2z
			 M151.2,161.2c0-1.3-0.6-1.9-1.6-1.9c-1,0-1.6,0.7-1.6,1.9c0,1.3,0.6,1.9,1.6,1.9C150.6,163.2,151.2,162.5,151.2,161.2z"/>
		<path d="M159.1,160.2v4h-1.5v-3.8c0-0.8-0.4-1.1-1.1-1.1c-0.6,0-1.3,0.4-1.3,1.5v3.4h-1.5v-6h1.4v0.9c0.4-0.6,1-1,1.9-1
			C158.2,158.1,159.1,158.8,159.1,160.2z"/>
	</g>
</g>
<g>
	<g>
		<path d="M70.1,66.8c0-4.9,3-8,7.4-8c3.4,0,6.2,1.8,6.9,5.6h-2.9c-0.6-2.1-2.1-3-4-3c-2.7,0-4.4,2-4.4,5.4c0,3.4,1.6,5.4,4.4,5.4
			c1.9,0,3.7-1.2,4.1-3.5h2.9c-0.4,4-3.5,6.1-7,6.1C73.1,74.8,70.1,71.7,70.1,66.8z"/>
		<path d="M93.3,74.4c-0.2-0.3-0.3-0.8-0.3-1.3c-0.7,1-1.9,1.6-3.5,1.6c-2.4,0-4-1.2-4-3.3c0-1.8,1.1-3.1,4.2-3.4l1.7-0.1
			c1-0.1,1.6-0.4,1.6-1.3s-0.4-1.4-2-1.4c-1.5,0-2.2,0.4-2.3,1.8H86c0.1-2.3,1.5-3.8,5-3.8c3.3,0,4.6,1.3,4.6,3.3v5.9
			c0,0.8,0.1,1.7,0.4,2.1L93.3,74.4L93.3,74.4z M93,70.1v-1c-0.3,0.3-0.7,0.4-1.3,0.4l-1.5,0.2c-1.5,0.2-2,0.7-2,1.6
			s0.6,1.5,1.9,1.5C91.5,72.8,93,72,93,70.1z"/>
		<path d="M97,70.9h2.6c0.1,1.4,0.9,1.9,2.5,1.9s2.2-0.5,2.2-1.3s-0.5-1.2-2.2-1.5l-1.3-0.2c-2.4-0.4-3.6-1.5-3.6-3.3
			c0-2.1,1.6-3.3,4.6-3.3c3.4,0,4.8,1.5,4.9,3.7h-2.5c-0.1-1.4-0.9-1.8-2.3-1.8c-1.3,0-1.9,0.5-1.9,1.3s0.6,1.1,1.8,1.4l1.4,0.2
			c2.7,0.5,3.8,1.5,3.8,3.4c0,2.2-1.8,3.5-4.9,3.5C98.9,74.7,97.2,73.6,97,70.9z"/>
		<path d="M118.3,67.1v7.3h-2.7v-6.9c0-1.4-0.7-2.1-2.1-2.1c-1.2,0-2.5,0.8-2.5,2.8v6.2h-2.7V59.2h2.7v5.7c0.7-1,1.9-1.7,3.4-1.7
			C116.7,63.1,118.3,64.5,118.3,67.1z"/>
		<path d="M136,61.8h-7.9v3.6h7.2v2.5h-7.2v6.6h-2.9V59.2H136L136,61.8L136,61.8z"/>
		<path d="M137.2,74.4V59.2h2.7v15.2H137.2z"/>
		<path d="M141.6,68.9c0-3.5,2.3-5.8,5.6-5.8c3.4,0,5.6,2.3,5.6,5.8s-2.2,5.8-5.6,5.8C143.9,74.7,141.6,72.4,141.6,68.9z
			 M150.1,68.9c0-2.3-1.1-3.6-2.9-3.6c-1.8,0-2.9,1.2-2.9,3.6s1.1,3.6,2.9,3.6C149,72.5,150.1,71.2,150.1,68.9z"/>
		<path d="M167.6,63.4h2.9l-3.6,11h-2.8l-1.4-4.5c-0.3-1.1-0.6-2.2-0.9-3.3c-0.3,1.1-0.6,2.2-0.9,3.3l-1.4,4.5h-2.8l-3.6-11h2.9
			l1.2,4.1c0.4,1.3,0.7,2.6,1.1,3.8c0.3-1.3,0.7-2.6,1-3.9l1.2-4.1h2.6l1.2,4.1c0.4,1.3,0.7,2.6,1,3.9c0.3-1.3,0.7-2.6,1.1-3.8
			L167.6,63.4z"/>
	</g>
	<g>
		<path d="M97,87.9c0,4.6-2.6,7.5-7.5,7.5h-5.7v-15h5.7C94.4,80.4,97,83.3,97,87.9z M89.5,93c2.9,0,4.6-1.7,4.6-5.1
			c0-3.3-1.7-5.1-4.6-5.1h-2.9V93H89.5z"/>
		<path d="M98.7,83.3v-2.5h2.6v2.5H98.7z M98.7,95.4V84.6h2.7v10.9H98.7z"/>
		<path d="M110.8,84.6h2.8l-4.1,10.9h-3.1l-4-10.9h2.8l1.1,2.9c0.6,1.8,1.2,3.7,1.7,5.5c0.5-1.8,1.1-3.8,1.7-5.6L110.8,84.6z"/>
		<path d="M114.6,83.3v-2.5h2.6v2.5H114.6z M114.6,95.4V84.6h2.7v10.9H114.6z"/>
		<path d="M118.7,92h2.6c0.1,1.4,0.8,1.9,2.4,1.9c1.5,0,2.2-0.5,2.2-1.3c0-0.8-0.5-1.2-2.1-1.4l-1.2-0.2c-2.3-0.4-3.6-1.4-3.6-3.3
			c0-2,1.6-3.3,4.5-3.3c3.4,0,4.7,1.4,4.8,3.7h-2.5c-0.1-1.4-0.9-1.8-2.3-1.8c-1.3,0-1.9,0.5-1.9,1.3c0,0.8,0.6,1.1,1.8,1.3l1.4,0.2
			c2.6,0.5,3.8,1.4,3.8,3.3c0,2.2-1.8,3.4-4.8,3.4C120.6,95.7,118.9,94.6,118.7,92z"/>
		<path d="M129.9,83.3v-2.5h2.6v2.5H129.9z M129.9,95.4V84.6h2.7v10.9H129.9z"/>
		<path d="M134.3,90c0-3.5,2.2-5.7,5.6-5.7c3.3,0,5.5,2.2,5.5,5.7c0,3.5-2.2,5.7-5.5,5.7C136.5,95.7,134.3,93.5,134.3,90z M142.7,90
			c0-2.3-1.1-3.5-2.8-3.5c-1.7,0-2.8,1.2-2.8,3.5c0,2.3,1.1,3.5,2.8,3.5C141.5,93.5,142.7,92.3,142.7,90z"/>
		<path d="M156.8,88.2v7.2h-2.7v-6.8c0-1.4-0.7-2.1-2.1-2.1c-1.2,0-2.4,0.8-2.4,2.7v6.1H147V84.6h2.6v1.6c0.7-1,1.9-1.8,3.4-1.8
			C155.3,84.3,156.8,85.6,156.8,88.2z"/>
	</g>
</g>
<g>
	<g>
		<path d="M150.2,261.3c0,2.9-1.9,4.9-5.4,4.9H141v5.3h-2.9v-15.2h6.7C148.3,256.3,150.2,258.3,150.2,261.3z M144.7,263.7
			c1.7,0,2.6-0.9,2.6-2.5s-0.9-2.5-2.6-2.5H141v5H144.7z"/>
		<path d="M150.7,266c0-3.5,2.2-5.8,5.5-5.8c3.4,0,5.5,2.5,5.5,6v0.6h-8.3c0.2,1.9,1.3,2.8,2.9,2.8c1.3,0,2.1-0.6,2.5-1.6h2.6
			c-0.6,2.2-2.5,3.7-5.1,3.7C153,271.8,150.7,269.5,150.7,266z M159,265c-0.2-1.6-1.2-2.6-2.8-2.6c-1.4,0-2.5,0.8-2.8,2.6H159z"/>
		<path d="M169.9,260.4v2.5h-0.7c-2,0-3.2,1-3.2,3.1v5.6h-2.7v-11h2.6v2c0.5-1.2,1.6-2.1,3.3-2.1
			C169.5,260.3,169.7,260.3,169.9,260.4z"/>
		<path d="M187.9,264.2v7.3h-2.7v-6.9c0-1.4-0.6-2.1-1.9-2.1c-1.2,0-2.3,0.8-2.3,2.9v6.1h-2.7v-6.9c0-1.4-0.6-2.1-1.9-2.1
			c-1.1,0-2.3,0.8-2.3,2.9v6.1h-2.7v-11h2.6v1.6c0.7-1.1,1.7-1.8,3.2-1.8c1.7,0,2.9,0.8,3.4,2.1c0.7-1.2,1.9-2.1,3.4-2.1
			C186.5,260.2,187.9,261.8,187.9,264.2z"/>
		<path d="M197.3,271.5c-0.2-0.3-0.3-0.8-0.3-1.3c-0.7,1-1.9,1.6-3.5,1.6c-2.4,0-4-1.2-4-3.3c0-1.8,1.1-3.1,4.2-3.4l1.7-0.2
			c1-0.1,1.6-0.4,1.6-1.3s-0.4-1.4-2-1.4c-1.5,0-2.2,0.4-2.3,1.8H190c0.1-2.3,1.5-3.8,5-3.8c3.3,0,4.6,1.3,4.6,3.3v5.9
			c0,0.8,0.1,1.7,0.4,2.1L197.3,271.5L197.3,271.5z M196.9,267.2v-1c-0.3,0.3-0.7,0.4-1.3,0.4l-1.5,0.2c-1.5,0.2-2,0.7-2,1.6
			s0.6,1.5,1.9,1.5C195.5,269.9,196.9,269.1,196.9,267.2z"/>
		<path d="M211.5,264.2v7.3h-2.7v-6.9c0-1.4-0.7-2.1-2.1-2.1c-1.2,0-2.5,0.8-2.5,2.8v6.2h-2.6v-11h2.6v1.6c0.7-1,1.9-1.8,3.5-1.8
			C209.9,260.2,211.5,261.6,211.5,264.2z"/>
		<path d="M213.2,266c0-3.5,2.2-5.8,5.5-5.8c3.4,0,5.5,2.5,5.5,6v0.6h-8.3c0.2,1.9,1.3,2.8,2.9,2.8c1.3,0,2.1-0.6,2.5-1.6h2.6
			c-0.6,2.2-2.5,3.7-5.1,3.7C215.4,271.8,213.2,269.5,213.2,266z M221.4,265c-0.2-1.6-1.2-2.6-2.8-2.6c-1.4,0-2.5,0.8-2.8,2.6H221.4
			z"/>
		<path d="M235.8,264.2v7.3h-2.7v-6.9c0-1.4-0.7-2.1-2.1-2.1c-1.2,0-2.5,0.8-2.5,2.8v6.2h-2.7v-11h2.6v1.6c0.7-1,1.9-1.8,3.5-1.8
			C234.2,260.2,235.8,261.6,235.8,264.2z"/>
		<path d="M243.3,262.6h-2.2v5.9c0,0.7,0.4,1,1.3,1h0.9v2.1c-0.5,0-1,0.1-1.4,0.1c-2.3,0-3.4-0.8-3.4-2.8v-6.2h-1.7v-2.1h1.7v-3.2
			h2.7v3.2h2.2v2H243.3z"/>
		<path d="M260,256.3h3l-5.5,15.2h-3.4l-5.6-15.2h3.1l2.8,7.9c0.5,1.5,1,3.1,1.5,4.8c0.4-1.6,0.9-3.3,1.4-4.8L260,256.3z"/>
		<path d="M269.7,271.5c-0.2-0.3-0.3-0.8-0.3-1.3c-0.7,1-1.9,1.6-3.5,1.6c-2.4,0-4-1.2-4-3.3c0-1.8,1.1-3.1,4.2-3.4l1.7-0.2
			c1-0.1,1.6-0.4,1.6-1.3s-0.4-1.4-2-1.4c-1.5,0-2.2,0.4-2.3,1.8h-2.7c0.2-2.3,1.5-3.8,5-3.8c3.3,0,4.6,1.3,4.6,3.3v5.9
			c0,0.8,0.2,1.7,0.5,2.1L269.7,271.5L269.7,271.5z M269.4,267.2v-1c-0.3,0.3-0.7,0.4-1.3,0.4l-1.5,0.2c-1.5,0.2-2,0.7-2,1.6
			s0.6,1.5,1.9,1.5C268,269.9,269.4,269.1,269.4,267.2z"/>
		<path d="M274,271.5v-15.2h2.7v15.2H274z"/>
		<path d="M286.1,260.5h2.7v11h-2.6v-1.6c-0.7,1.1-1.9,1.9-3.5,1.9c-2.3,0-3.9-1.3-3.9-4v-7.3h2.7v6.9c0,1.4,0.7,2.1,2.1,2.1
			c1.2,0,2.5-0.8,2.5-2.8L286.1,260.5L286.1,260.5z"/>
		<path d="M290.5,266c0-3.5,2.2-5.8,5.5-5.8c3.4,0,5.5,2.5,5.5,6v0.6h-8.3c0.2,1.9,1.3,2.8,2.9,2.8c1.3,0,2.1-0.6,2.5-1.6h2.6
			c-0.6,2.2-2.5,3.7-5.1,3.7C292.7,271.8,290.5,269.5,290.5,266z M298.7,265c-0.2-1.6-1.2-2.6-2.8-2.6c-1.4,0-2.5,0.8-2.8,2.6H298.7
			z"/>
	</g>
	<g>
		<path d="M197.4,286.7c0,4.6-2.6,7.5-7.5,7.5h-5.7v-15h5.7C194.8,279.2,197.4,282.1,197.4,286.7z M189.9,291.8
			c2.9,0,4.6-1.7,4.6-5.1c0-3.3-1.7-5.1-4.6-5.1H187v10.1H189.9z"/>
		<path d="M199.1,282.1v-2.5h2.6v2.5H199.1z M199.1,294.2v-10.9h2.7v10.9H199.1z"/>
		<path d="M211.2,283.3h2.8l-4.1,10.9h-3.1l-4-10.9h2.8l1.1,2.9c0.6,1.8,1.2,3.7,1.7,5.5c0.5-1.8,1.1-3.8,1.7-5.6L211.2,283.3z"/>
		<path d="M215,282.1v-2.5h2.6v2.5H215z M215,294.2v-10.9h2.7v10.9H215z"/>
		<path d="M219.1,290.7h2.6c0.1,1.4,0.8,1.9,2.4,1.9c1.5,0,2.2-0.5,2.2-1.3c0-0.8-0.5-1.2-2.1-1.4l-1.2-0.2
			c-2.3-0.4-3.6-1.4-3.6-3.3c0-2,1.6-3.3,4.5-3.3c3.4,0,4.7,1.4,4.8,3.7h-2.5c-0.1-1.4-0.9-1.8-2.3-1.8c-1.3,0-1.9,0.5-1.9,1.3
			c0,0.8,0.6,1.1,1.8,1.3l1.4,0.2c2.6,0.5,3.8,1.4,3.8,3.3c0,2.2-1.8,3.4-4.8,3.4C221,294.5,219.3,293.4,219.1,290.7z"/>
		<path d="M230.3,282.1v-2.5h2.6v2.5H230.3z M230.3,294.2v-10.9h2.7v10.9H230.3z"/>
		<path d="M234.7,288.8c0-3.5,2.2-5.7,5.6-5.7c3.3,0,5.5,2.2,5.5,5.7s-2.2,5.7-5.5,5.7C236.9,294.5,234.7,292.2,234.7,288.8z
			 M243.1,288.8c0-2.3-1.1-3.5-2.8-3.5c-1.7,0-2.8,1.2-2.8,3.5s1.1,3.5,2.8,3.5C241.9,292.3,243.1,291.1,243.1,288.8z"/>
		<path d="M257.2,287v7.2h-2.7v-6.8c0-1.4-0.7-2.1-2.1-2.1c-1.2,0-2.4,0.8-2.4,2.7v6.1h-2.7v-10.9h2.6v1.6c0.7-1,1.9-1.8,3.4-1.8
			C255.7,283.1,257.2,284.4,257.2,287z"/>
	</g>
</g>
</svg>
