<svg xmlns="http://www.w3.org/2000/svg" xmlns:xlink="http://www.w3.org/1999/xlink" width="282.658" height="62.773" viewBox="0 0 282.658 62.773">
  <defs>
    <linearGradient id="linear-gradient" x1="0.5" y1="1" x2="0.5" gradientUnits="objectBoundingBox">
      <stop offset="0" stop-color="#2e3287"/>
      <stop offset="1" stop-color="#9c448e"/>
    </linearGradient>
    <linearGradient id="linear-gradient-2" x1="1" y1="0.5" x2="0" y2="0.5" gradientUnits="objectBoundingBox">
      <stop offset="0" stop-color="#fbc91c"/>
      <stop offset="1" stop-color="#d54054"/>
    </linearGradient>
    <linearGradient id="linear-gradient-3" x1="0.5" y1="0" x2="0.5" y2="1" xlink:href="#linear-gradient"/>
    <linearGradient id="linear-gradient-4" x1="0" y1="0.641" x2="1" y2="0.647" xlink:href="#linear-gradient-2"/>
  </defs>
  <g id="グループ_10210" data-name="グループ 10210" transform="translate(-69.342 -62.613)">
    <g id="グループ_9603" data-name="グループ 9603" transform="translate(69.342 62.613)">
      <g id="グループ_9585" data-name="グループ 9585" transform="translate(77.587 15.695)">
        <g id="グループ_9584" data-name="グループ 9584" transform="translate(0 0)">
          <path id="パス_1758" data-name="パス 1758" d="M197.74,67.067,190.959,55.46h-9.086V67.067h-6.695V36.027h15.259q13,0,13,9.695a8.9,8.9,0,0,1-1.457,5.217,9.419,9.419,0,0,1-4.456,3.261l7.825,12.868Zm-7.825-16.955a9.446,9.446,0,0,0,5.065-1.065,3.731,3.731,0,0,0,1.63-3.369,3.64,3.64,0,0,0-1.544-3.3,9.669,9.669,0,0,0-5.065-1h-8.129v8.738Z" transform="translate(-175.178 -35.766)" fill="#333233"/>
          <path id="パス_1759" data-name="パス 1759" d="M247.307,66.91a5.443,5.443,0,0,0,.935,3,5.976,5.976,0,0,0,2.478,2.043,8.6,8.6,0,0,0,3.674.739q5.086,0,6.3-3.087h6.043a8.9,8.9,0,0,1-4.021,5.869q-3.109,1.913-8.543,1.912-6.174,0-9.586-3.087t-3.413-8.651a12.7,12.7,0,0,1,1.587-6.369,11.121,11.121,0,0,1,4.565-4.391,14.625,14.625,0,0,1,6.977-1.586q6.086,0,9.412,3.064t3.326,8.586V66.91ZM261,62.954a4.594,4.594,0,0,0-1.87-3.717,8.156,8.156,0,0,0-4.956-1.326,7.365,7.365,0,0,0-4.586,1.435,5.027,5.027,0,0,0-2.109,3.608Z" transform="translate(-211.946 -45.391)" fill="#333233"/>
          <path id="パス_1760" data-name="パス 1760" d="M338.048,76.692V63.084a5.112,5.112,0,0,0-1.022-3.565,4.264,4.264,0,0,0-3.238-1.087A6.4,6.4,0,0,0,329.31,60.3a5.26,5.26,0,0,0-1.174,1.63,4.539,4.539,0,0,0-.435,1.935V76.692h-6.477V63.084a5.126,5.126,0,0,0-1.022-3.543,4.213,4.213,0,0,0-3.238-1.109,5.919,5.919,0,0,0-4.478,2,5.517,5.517,0,0,0-1.609,3.913V76.692H304.4V54h6.347V57.65a10.467,10.467,0,0,1,8.521-4.347,9.281,9.281,0,0,1,4.782,1.152,6.8,6.8,0,0,1,2.869,3.326,12.166,12.166,0,0,1,4.087-3.369,11.5,11.5,0,0,1,5.13-1.109,8.269,8.269,0,0,1,6.217,2.239,8.834,8.834,0,0,1,2.174,6.412V76.692Z" transform="translate(-247.167 -45.391)" fill="#333233"/>
          <path id="パス_1761" data-name="パス 1761" d="M417.231,76.692V73.605a13.077,13.077,0,0,1-4.282,2.8,14.342,14.342,0,0,1-5.239.891q-4.478,0-6.869-1.8a6.617,6.617,0,0,1,.739-10.716q3.13-1.826,9.869-2l5.565-.131V61.78a3.42,3.42,0,0,0-1.392-2.934,6.6,6.6,0,0,0-3.956-1.022q-4.913,0-5.869,2.782l-5.868-.565a7.163,7.163,0,0,1,3.673-5.086,17.217,17.217,0,0,1,8.282-1.652q11.346,0,11.347,8.955V76.692Zm-.217-10.216-5.434.131a13.053,13.053,0,0,0-5.152.891A2.576,2.576,0,0,0,404.8,69.91a2.36,2.36,0,0,0,1.2,2.13,6.621,6.621,0,0,0,3.456.739,11.617,11.617,0,0,0,3.347-.456A7.157,7.157,0,0,0,415.362,71a4.037,4.037,0,0,0,1.652-3.3Z" transform="translate(-299.563 -45.391)" fill="#333233"/>
          <path id="パス_1762" data-name="パス 1762" d="M460.879,41V35.438h6.651V41Zm.087,25.737V44.046h6.477V66.739Z" transform="translate(-334.342 -35.438)" fill="#333233"/>
          <path id="パス_1763" data-name="パス 1763" d="M501.289,76.692V63.215a4.836,4.836,0,0,0-1.2-3.651,5.4,5.4,0,0,0-3.8-1.131,7.7,7.7,0,0,0-2.761.522,6.993,6.993,0,0,0-2.369,1.478,5.294,5.294,0,0,0-1.826,3.913V76.692h-6.477V54H489.2V57.65a11.707,11.707,0,0,1,9.39-4.347q4.435,0,6.8,2.239a8.4,8.4,0,0,1,2.37,6.412V76.692Z" transform="translate(-346.585 -45.391)" fill="#333233"/>
          <path id="パス_1764" data-name="パス 1764" d="M559.976,41V35.438h6.651V41Zm.087,25.737V44.046h6.477V66.739Z" transform="translate(-389.548 -35.438)" fill="#333233"/>
          <path id="パス_1765" data-name="パス 1765" d="M600.386,76.692V63.215a4.836,4.836,0,0,0-1.2-3.651,5.4,5.4,0,0,0-3.8-1.131,7.693,7.693,0,0,0-2.761.522,6.994,6.994,0,0,0-2.37,1.478,5.294,5.294,0,0,0-1.826,3.913V76.692h-6.477V54H588.3V57.65a11.708,11.708,0,0,1,9.39-4.347q4.434,0,6.8,2.239a8.4,8.4,0,0,1,2.369,6.412V76.692Z" transform="translate(-401.792 -45.391)" fill="#333233"/>
        </g>
      </g>
      <g id="グループ_9591" data-name="グループ 9591" transform="translate(0)">
        <path id="パス_1766" data-name="パス 1766" d="M63.259,25.625,77.3,17.83l13.98,7.8V49.165h-14V33.492Z" transform="translate(-35.242 -9.933)" fill="url(#linear-gradient)"/>
        <path id="パス_1767" data-name="パス 1767" d="M63.262,102.252,91.278,86.558V70.864L63.261,86.558Z" transform="translate(-35.243 -39.478)" fill="url(#linear-gradient-2)"/>
        <path id="パス_1768" data-name="パス 1768" d="M28.018,76.692l-14.037,7.8L0,76.692V53.151H14V68.825Z" transform="translate(0 -29.611)" fill="url(#linear-gradient-3)"/>
        <path id="パス_1769" data-name="パス 1769" d="M28.016,0,0,15.694V31.388L28.017,15.694Z" transform="translate(0)" fill="url(#linear-gradient-4)"/>
      </g>
    </g>
  </g>
</svg>
