<svg id="グループ_10186" data-name="グループ 10186" xmlns="http://www.w3.org/2000/svg" xmlns:xlink="http://www.w3.org/1999/xlink" width="283.205" height="62.895" viewBox="0 0 283.205 62.895">
  <defs>
    <linearGradient id="linear-gradient" x1="0.5" y1="1" x2="0.5" gradientUnits="objectBoundingBox">
      <stop offset="0" stop-color="#989998"/>
      <stop offset="1" stop-color="#c6c6c7"/>
    </linearGradient>
    <linearGradient id="linear-gradient-2" x1="1" y1="0.5" x2="0" y2="0.5" gradientUnits="objectBoundingBox">
      <stop offset="0" stop-color="#cccdce"/>
      <stop offset="1" stop-color="#fff"/>
    </linearGradient>
    <linearGradient id="linear-gradient-3" x1="0.5" x2="0.5" y2="1" gradientUnits="objectBoundingBox">
      <stop offset="0" stop-color="#939595"/>
      <stop offset="1" stop-color="#c2c4c4"/>
    </linearGradient>
    <linearGradient id="linear-gradient-4" y1="0.5" x2="1" y2="0.5" gradientUnits="objectBoundingBox">
      <stop offset="0" stop-color="#fff"/>
      <stop offset="1" stop-color="#cacaca"/>
    </linearGradient>
  </defs>
  <g id="グループ_9631" data-name="グループ 9631" transform="translate(0 0)">
    <g id="グループ_9626" data-name="グループ 9626" transform="translate(77.737 15.726)">
      <g id="グループ_9625" data-name="グループ 9625">
        <path id="パス_4817" data-name="パス 4817" d="M197.784,67.127,190.989,55.5h-9.1v11.63h-6.708v-31.1h15.288q13.024,0,13.024,9.713a8.913,8.913,0,0,1-1.46,5.227,9.437,9.437,0,0,1-4.464,3.267l7.84,12.893Zm-7.84-16.988a9.464,9.464,0,0,0,5.075-1.067,3.738,3.738,0,0,0,1.633-3.376,3.647,3.647,0,0,0-1.547-3.31,9.688,9.688,0,0,0-5.074-1h-8.145V50.14Z" transform="translate(-175.178 -35.766)" fill="#fff"/>
        <path id="パス_4818" data-name="パス 4818" d="M247.319,66.937a5.454,5.454,0,0,0,.936,3.006,5.987,5.987,0,0,0,2.483,2.047,8.62,8.62,0,0,0,3.681.741q5.1,0,6.316-3.093h6.054a8.915,8.915,0,0,1-4.029,5.881q-3.115,1.916-8.559,1.916-6.186,0-9.6-3.093t-3.42-8.667a12.723,12.723,0,0,1,1.59-6.382,11.143,11.143,0,0,1,4.574-4.4,14.654,14.654,0,0,1,6.991-1.59q6.1,0,9.43,3.07t3.333,8.6v1.961Zm13.721-3.964a4.6,4.6,0,0,0-1.873-3.724A8.172,8.172,0,0,0,254.2,57.92a7.379,7.379,0,0,0-4.6,1.438,5.037,5.037,0,0,0-2.113,3.615Z" transform="translate(-211.889 -45.375)" fill="#fff"/>
        <path id="パス_4819" data-name="パス 4819" d="M338.113,76.737V63.1a5.122,5.122,0,0,0-1.024-3.572,4.272,4.272,0,0,0-3.245-1.089,6.413,6.413,0,0,0-4.486,1.873,5.27,5.27,0,0,0-1.176,1.633,4.548,4.548,0,0,0-.436,1.939V76.737h-6.49V63.1a5.136,5.136,0,0,0-1.024-3.55,4.221,4.221,0,0,0-3.245-1.111,5.931,5.931,0,0,0-4.486,2,5.528,5.528,0,0,0-1.612,3.921v12.37H304.4V54h6.359v3.659A10.488,10.488,0,0,1,319.3,53.3a9.3,9.3,0,0,1,4.791,1.154,6.816,6.816,0,0,1,2.875,3.332,12.19,12.19,0,0,1,4.095-3.376A11.517,11.517,0,0,1,336.2,53.3a8.285,8.285,0,0,1,6.229,2.243,8.851,8.851,0,0,1,2.178,6.425V76.737Z" transform="translate(-247.057 -45.375)" fill="#fff"/>
        <path id="パス_4820" data-name="パス 4820" d="M417.268,76.737V73.644a13.1,13.1,0,0,1-4.29,2.809,14.37,14.37,0,0,1-5.249.893q-4.486,0-6.882-1.808a6.63,6.63,0,0,1,.74-10.737q3.137-1.829,9.888-2l5.575-.131V61.8a3.426,3.426,0,0,0-1.394-2.94,6.612,6.612,0,0,0-3.964-1.024q-4.922,0-5.88,2.788l-5.88-.566a7.177,7.177,0,0,1,3.68-5.1,17.25,17.25,0,0,1,8.3-1.655q11.368,0,11.369,8.973V76.737ZM417.05,66.5l-5.444.131a13.079,13.079,0,0,0-5.162.893,2.581,2.581,0,0,0-1.634,2.418,2.365,2.365,0,0,0,1.2,2.134,6.634,6.634,0,0,0,3.463.74,11.64,11.64,0,0,0,3.354-.457,7.172,7.172,0,0,0,2.569-1.329,4.045,4.045,0,0,0,1.656-3.31Z" transform="translate(-299.372 -45.375)" fill="#fff"/>
        <path id="パス_4821" data-name="パス 4821" d="M460.879,41.013V35.438h6.664v5.575Zm.087,25.786V44.062h6.49V66.8Z" transform="translate(-334.097 -35.438)" fill="#fff"/>
        <path id="パス_4822" data-name="パス 4822" d="M501.324,76.737v-13.5a4.846,4.846,0,0,0-1.2-3.658,5.414,5.414,0,0,0-3.811-1.133,7.711,7.711,0,0,0-2.766.523,7.006,7.006,0,0,0-2.374,1.481,5.3,5.3,0,0,0-1.829,3.921v12.37h-6.49V54h6.36v3.659a11.729,11.729,0,0,1,9.408-4.355q4.443,0,6.817,2.243a8.417,8.417,0,0,1,2.374,6.425V76.737Z" transform="translate(-346.321 -45.375)" fill="#fff"/>
        <path id="パス_4823" data-name="パス 4823" d="M559.976,41.013V35.438h6.664v5.575Zm.087,25.786V44.062h6.49V66.8Z" transform="translate(-389.219 -35.438)" fill="#fff"/>
        <path id="パス_4824" data-name="パス 4824" d="M600.421,76.737v-13.5a4.845,4.845,0,0,0-1.2-3.658,5.414,5.414,0,0,0-3.811-1.133,7.708,7.708,0,0,0-2.766.523,7.008,7.008,0,0,0-2.374,1.481,5.3,5.3,0,0,0-1.829,3.921v12.37h-6.49V54h6.359v3.659a11.731,11.731,0,0,1,9.409-4.355q4.443,0,6.817,2.243a8.418,8.418,0,0,1,2.374,6.425V76.737Z" transform="translate(-401.443 -45.375)" fill="#fff"/>
      </g>
    </g>
    <g id="グループ_9629" data-name="グループ 9629">
      <g id="グループ_9627" data-name="グループ 9627" transform="translate(28.072 7.912)">
        <path id="パス_4825" data-name="パス 4825" d="M63.259,25.64l14.064-7.81,14.007,7.81V49.226H77.308v-15.7Z" transform="translate(-63.259 -17.83)" fill="url(#linear-gradient)"/>
        <path id="パス_4826" data-name="パス 4826" d="M63.262,102.312l28.07-15.724V70.864L63.261,86.588Z" transform="translate(-63.26 -47.329)" fill="url(#linear-gradient-2)"/>
      </g>
      <g id="グループ_9628" data-name="グループ 9628">
        <path id="パス_4827" data-name="パス 4827" d="M28.072,76.738l-14.064,7.81L0,76.738V53.151H14.023v15.7Z" transform="translate(0 -29.565)" fill="url(#linear-gradient-3)"/>
        <path id="パス_4828" data-name="パス 4828" d="M28.07,0,0,15.724V31.449L28.071,15.724Z" transform="translate(0)" fill="url(#linear-gradient-4)"/>
      </g>
    </g>
  </g>
</svg>
